<?xml version="1.0" encoding="utf-8"?>
<!-- Generator: Adobe Illustrator 26.0.3, SVG Export Plug-In . SVG Version: 6.00 Build 0)  -->
<svg version="1.1" id="Layer_1" xmlns="http://www.w3.org/2000/svg" xmlns:xlink="http://www.w3.org/1999/xlink" x="0px" y="0px"
	 viewBox="0 0 1046.2 369.7" style="enable-background:new 0 0 1046.2 369.7;" xml:space="preserve">
<style type="text/css">
	.st0{fill:#FF5800;}
	.st1{fill:#FFFFFF;}
	.st2{stroke:#000000;stroke-width:0.8152;stroke-miterlimit:10;}
	.st3{fill:#2A007E;stroke:#2A007E;stroke-width:0.999;stroke-miterlimit:10;}
	.st4{fill:#2A007E;stroke:#2A007E;stroke-width:3.319;stroke-miterlimit:10;}
	.st5{fill:#2A007E;stroke:#2A007E;stroke-width:3.319;stroke-linecap:round;stroke-miterlimit:10;}
</style>
<g>
	<g>
		<circle class="st0" cx="863" cy="186.5" r="183.2"/>
		<g>
			<path class="st1" d="M837.7,261.5l28.8,35.9l-27.1,17.1l-78.2-98.7l25.1-19.7c7.4,9.4,13.1,14.8,23.1,14.8
				c8.8,0,14.6-4.6,14.6-16v-47.1h-72.5v-26.2h216.2v26.2h-31.7v162h-33.4v-74.5c-6.6,1.4-13.4,2.3-21.4,2.3
				c-15.7,0-29.4-3.7-39.1-9.4c-6,4.3-13.1,6.8-21.1,7.4c-1.4,0-3.7,0-5.1-0.3l-0.3,1.1C822,242.9,827.8,249.2,837.7,261.5z
				 M902.8,204.4v-56.5h-45.9v47.9c0,3.7-0.3,7.1-0.9,10.3c6,1.7,13.4,2.6,21.7,2.6C886.5,208.7,895.4,207.3,902.8,204.4z"/>
			<path class="st1" d="M881.7,123.1c-16.3-10-35.7-28.8-50.8-45.9l-23.7-27.1l37.1-8l67.3,81.3l-28,0.9L881.7,123.1z"/>
		</g>
	</g>
	<g>
		<path class="st2" d="M259,110c-1.8-0.5-3.7-1.1-5.9-1.8c0.2-0.5,0.1-0.9-0.2-1.3c-0.4-0.4-1.1-0.6-2.1-0.7c-1.5-0.9-2.8-2-4.1-3.3
			s-2.2-2.6-3-3.9c-0.8-1.3-1.4-2.4-1.8-3.2c-0.7-1.5-1-2.4-1-2.7c0-0.3,0.6-0.8,1.7-1.3c1.1-0.8,1.9-1,2.4-0.7c0.5,0.3,1.2,1.3,2,3
			c1.3,2.3,3.5,4,6.6,5.2c3.1,1.2,6.6,1.7,10.5,1.5c3.9-0.2,7.6-1,11.2-2.6c3.6-1.5,5.9-3,6.9-4.7c0.9-1.6,0.6-3.7-1.1-6.3
			c-0.3-0.8-0.6-1.4-1-1.9c-0.4-0.5-1-1.1-1.8-1.9c-0.8-0.8-2.2-2.1-4.1-3.8c-1.5-0.7-2.8-1.3-4.1-1.9c-1.2-0.6-2.5-1.2-3.9-1.9
			c-1.6-0.8-3.5-1.9-5.7-3.5c-2.2-1.5-4.3-3.2-6.3-5.1c-2-1.9-3.4-3.6-4.3-5.2c-1.6-1.5-2.8-3.5-3.5-6.1c-0.8-2.6-1.1-5.4-0.9-8.3
			c0.2-3,0.9-5.6,2.2-8c0.6-1.4,1.6-3.1,3-5.1c1.4-2,3-4.1,4.8-6.1c1.8-2.1,3.5-3.9,5.2-5.6c1.7-1.7,3-2.9,4.1-3.5
			c0.8-0.8,2.1-2,3.8-3.7c0.1-0.5,0.4-0.7,0.9-0.7c0.5-0.3,1.6-0.8,3.2-1.5c1.7-0.7,3.5-2,5.5-3.8c6.6-3.2,12-5.5,16.1-7
			c4.1-1.5,7.5-2.2,10.2-2.2c2.5,0.1,4.7,0.7,6.7,1.7c2,1,3.7,2.4,5,4.1c1.3,1.7,2.1,3.7,2.4,6.1c0.7,2.4,0.5,5.1-0.6,8.2
			c-1.1,3.1-2.7,6-4.8,8.7c-2.1,2.7-4.4,4.8-6.9,6.1c-2.8,1.2-4.6,1.7-5.5,1.5c-0.9-0.2-1.3-1.2-1.3-3c0-0.8,0.3-1.7,0.8-2.8
			c0.5-1.1,2-3,4.5-5.8c3.2-4.6,5.1-8.3,5.8-11.1s0-4.3-1.9-4.6c-0.6-0.2-1.7-0.2-3.2,0c-1.5,0.2-3.2,0.5-5,0.8
			c-1.8,0.3-3.4,0.7-4.7,1c-1.3,0.3-1.9,0.6-1.9,0.8c0,0.6-0.2,0.8-0.6,0.7c-0.2,0-1,0.4-2.5,1.2s-3.2,1.8-5.3,3.1
			c-2.1,1.3-4.1,2.6-6.2,3.8s-3.8,2.4-5.2,3.3s-2.2,1.5-2.3,1.7c-0.2,1.1-1.3,2.1-3.4,3c-2,1.2-3.8,2.9-5.4,5.2
			c-1.6,2.3-3.4,5.1-5.4,8.4c-1.7,2.3-2.9,4.7-3.6,7.3s-0.7,4.7,0,6.3c0.5,1.6,2,3.6,4.6,6.1s5.8,4.8,9.6,7.1c3.3,1.9,6.4,3.7,9,5.5
			c2.7,1.8,4.9,3.6,6.6,5.2c1.7,1.7,2.9,3.2,3.5,4.4c1.2,1.7,2,3.4,2.6,5.1c0.5,1.7,0.8,3.4,0.9,5c0,1.6-0.1,3-0.5,4.3
			c-0.7,1.6-1.9,3.2-3.6,4.9c-1.7,1.7-3.2,2.5-4.4,2.4c-1.1,0.3-1.9,0.6-2.4,1c-0.5,0.4-1.2,0.7-1.9,1c-0.7,0.4-2.1,0.8-4.4,1.2
			s-4.7,0.7-7.3,0.8C263.7,110,261.2,110,259,110z"/>
		<path class="st2" d="M301.7,97.2c-0.4-0.8-0.9-1.4-1.5-1.8c-0.6-0.4-0.9-0.9-0.9-1.3c0-0.4,0-0.8-0.1-1.3c0-0.4-0.3-0.9-0.7-1.3
			c-0.5-0.6-0.4-1.9,0.2-4.1s1.6-4.7,3-7.8c1.4-3.1,3-6.4,4.9-9.8c0.8-0.8,1.6-1.8,2.4-3.1c0.8-1.3,1.4-2.1,1.8-2.5
			c0-0.4,0.2-0.8,0.4-1.1c0.3-0.3,0.6-0.5,1-0.5v-0.9c0-0.5,0.5-1.3,1.4-2.5c0.9-1.2,2.1-2.5,3.5-3.9c1.4-1.4,2.8-2.8,4.3-4.1
			s2.7-2.3,3.7-2.9c2.1-1.4,4.2-2.2,6.4-2.5c2.2-0.3,4.1,0.2,5.7,1.5c0.3,0.3,0.8,0.8,1.5,1.5s1.5,1.5,2.4,2.3
			c0.9,0.8,1.9,1.7,2.9,2.6l5.5,4.9l-2.7,7.4c-1.3,3.9-1.6,7.4-1,10.3c0.6,3,1.6,5.5,2.9,7.7c0.5,1.1,1.5,2.1,3,3.1
			c1.5,1,3,1.6,4.4,1.8c0.8,0.1,1.5,0.4,2.2,0.9c0.7,0.5,1,1.3,1,2.4c0,1-0.2,1.8-0.6,2.4c-0.4,0.6-1.1,1-2.1,1.2
			c-3.2,0.4-6.3-0.4-9.1-2.4s-5.4-5.2-7.8-9.8c-0.4-0.6-0.9-1.7-1.5-3.3s-1-2.7-1.1-3.2c-0.4,0.5-1.1,1.4-2.2,2.7
			c-1.1,1.3-1.9,2.3-2.5,2.9c-7,7.1-13,11.8-18.1,14.3C309.2,99.3,305,99.4,301.7,97.2z M310.2,88.9c2.1-0.7,4.4-2.1,6.9-4.1
			c3.3-2.9,6.7-6,10.1-9.5s6.1-6.7,8.2-9.6l3.2-5.3c-1-2.3-2-3.8-3.2-4.7c-1.1-0.8-2.1-1.3-2.9-1.3c-1.3,0-3.2,1.2-5.7,3.5
			c-2.5,2.4-5.2,5.5-8,9.5c-2.9,3.9-5.6,8.3-8.1,13c-1,2-2.2,4.8-3.7,8.4C307,89.7,308.1,89.6,310.2,88.9z"/>
		<path class="st2" d="M375.7,100.1c-2-0.2-3.2-0.4-3.6-0.7s-1-1.1-1.5-2.4c-0.8-0.9-1.3-1.6-1.4-2.1c-0.2-0.5-0.2-0.9-0.1-1.3
			c0.5,0,0.9,0,1.3-0.1c0.4,0,0.6-0.2,0.7-0.5c0-0.3,0.2-0.5,0.5-0.6c0.3-0.1,0.7-0.1,1.1,0c1.9,0.1,4.3-0.5,7.2-1.8
			c2.9-1.3,6.1-3.2,9.5-5.6c3.4-2.4,6.7-5.1,10-8c2.6-3.3,4.4-6,5.6-7.9s1.9-3.5,2.1-4.7s0-2.3-0.4-3.2c-0.4-0.8-1.8-1.1-4.3-1
			c-2.5,0.2-5.2,1.2-8.3,3.2c-4.2,2.7-7.6,5.1-10.2,7.4s-4.9,4.8-7.1,7.7c-0.8,1-1.5,2.2-2.3,3.5s-1.6,3-2.6,5
			c0,0.4-0.6,0.9-1.7,1.5c-1.1,0.6-2.1,0.9-2.9,0.9c-0.4-0.2-0.9-0.6-1.5-1.1s-1.1-1.3-1.3-2.1c-0.7-0.5-1.2-0.9-1.5-1.2
			c-0.3-0.3-0.5-0.6-0.6-1c-0.1-0.6,0-1.5,0.4-2.8c0.4-1.3,0.9-3.3,1.6-6.1c0.6-2.6,1.3-5.2,2-8s1.5-5.1,2.1-7.1
			c0.7-2,1.2-3,1.5-3.2c0.8-1.8,1.2-3.2,1.2-4.4c0.2-1.2,0.5-2.2,1-3.1c0.4-0.9,0.7-1.5,0.7-1.9c0.4-0.3,1-1.5,1.8-3.5
			c0.8-2.1,1.8-4.8,3-8.1c0-0.3,0.3-1.3,1-2.9c0.7-1.6,1.5-3.5,2.5-5.8c1-2.2,2-4.5,3-7c1-2.4,1.9-4.6,2.6-6.4
			c1.2-1.7,2.1-3.2,2.7-4.7c0.6-1.4,1.3-2.3,2-2.6c0.5-0.1,1.1-0.1,1.8,0.1c0.7,0.2,1.5,0.4,2.2,0.8s1.3,1,1.8,1.8
			c0.3,0.5,0.5,0.9,0.6,1.3c0.1,0.4,0,1.1-0.4,2.1s-1.2,2.8-2.3,5.2c-1.1,2.4-2.8,5.9-5,10.4c-2.8,5.9-5,11.2-6.8,15.8
			c-1.8,4.6-3.2,8.7-4.4,12.3c-1.2,3.5-2.3,6.6-3.2,9.2l-0.7,3.2l3.7-3.5c1.5-1.1,3.1-2.4,4.9-4c1.8-1.6,3.3-3,4.7-4.1
			c0.8-0.6,1.8-1.2,3.2-1.8c1.3-0.6,2.6-1.2,3.9-1.7c1.3-0.5,2.2-0.8,2.8-0.9c0.3-0.1,1-0.2,2.2-0.4c1.2-0.2,2.6-0.3,4.3-0.3
			c2.2,0,3.9,0.5,5.2,1.5s2.6,2.6,3.9,4.7c1.1,2.1,1.5,4.4,1.3,7c-0.2,2.6-1,5-2.4,7.3c-0.5,0.4-1,0.9-1.5,1.5s-0.7,1.2-0.7,1.5
			c-0.1,0.7-1,2.1-2.7,4.2c-1.7,2.1-3.3,4.1-5,6c-1.8,1.9-3.9,3.7-6.5,5.5s-5.1,3.5-7.6,4.9s-4.7,2.4-6.4,3
			c-0.8,0.1-1.9,0.3-3.4,0.5C377.7,99.6,376.5,99.9,375.7,100.1z"/>
		<path class="st2" d="M437.5,101.8c-0.8-0.3-1.6-0.9-2.5-1.8c-0.9-0.9-1.6-2-2.2-3.3c-0.6-1.3-0.9-2.5-0.9-3.5
			c0.5-1.1,1.1-3,1.9-5.7s1.8-5.8,3-9.4c0.8-1.1,1.4-2.4,1.8-3.8c0.4-1.5,0.9-2.8,1.3-4c0.8-1.6,1.7-3.6,2.8-6.1
			c1.1-2.5,2.1-5.1,3.2-7.7c1-2.6,1.9-4.8,2.7-6.6c1.3-2.7,2.4-5.1,3.3-7.3c0.9-2.2,1.9-4.5,2.8-6.7c0.9-2.3,1.9-4.7,3-7.4
			c1.2-2.8,2.4-5.6,3.6-8.4c1.2-2.9,2.3-5.4,3.2-7.8c0.9-2.3,1.5-4,1.7-5c0-0.8,0.2-1.4,0.5-1.8c0.3-0.4,0.7-0.6,1.1-0.6
			c0.4-0.4,0.8-0.6,1.2-0.7c0.4,0,0.8-0.1,1.2-0.1s1.2,0.7,2.3,2.2s1.7,2.8,1.7,4c0,1.6-0.8,4.5-2.3,8.9c-1.5,4.3-3.7,9.3-6.4,14.8
			c-3.3,7.3-6.1,13.3-8.1,18s-3.5,8.2-4.3,10.5c-0.8,2.3-1.1,3.6-0.9,3.9c2.8-1.3,4.9-2.5,6.5-3.7c1.1-0.6,2.3-1.3,3.5-2.2
			c1.3-0.9,2.5-1.8,3.7-2.6s2.2-1.3,3-1.5c1.2-0.8,2.4-1.5,3.7-2.3s2.1-1.3,2.5-1.7c1.7-0.8,2.9-1,3.8-0.7c0.8,0.3,1.7,1,2.6,2.2
			c1.1,1.3,1.3,2.4,0.6,3.3s-2.3,2.2-4.9,3.8c-2.1,1.3-4.6,2.8-7.5,4.6c-2.9,1.8-5.5,3.3-7.7,4.7c-2.2,1.4-3.5,2.2-3.8,2.5
			c1.6,3,2.8,5,3.5,6.2c0.8,1.6,1.7,3,2.6,4.4c0.9,1.3,1.4,2.2,1.4,2.7c1.1,3,2.7,5.3,4.9,6.7s4.4,1.5,6.8,0.4c2-0.8,3.4-1,4.4-0.7
			c0.9,0.3,1.6,1,2,2.2c0.4,0.8,0.5,1.4,0.4,1.7c-0.2,0.3-0.8,1.1-2,2.3c-1.9,1.9-3.8,3-5.7,3.5c-1.9,0.5-3.7,0.3-5.2-0.4
			c-1.5,0.1-3.3-0.9-5.5-2.9s-5.3-5.6-9.3-10.9c0-0.4-0.2-1-0.5-1.7c-0.3-0.7-0.7-1.5-1.1-2.1c-0.4-0.8-1.2-2.1-2.4-4
			c0-0.4-0.2-0.8-0.4-1.3c-0.3-0.5-0.7-1.1-1.2-1.8c-1.6-0.5-2.7-0.2-3.4,0.9s-1.4,2.2-2.2,3.4c-0.5,1.3-1.1,3.1-1.8,5.4
			c-0.7,2.3-1.3,4.6-1.8,6.7c-0.4,2.2-0.6,3.7-0.4,4.4c0,1.6-0.2,2.6-0.7,3.2C440.1,101.6,439.1,101.8,437.5,101.8z"/>
		<path class="st2" d="M520.6,102.3c-1-1-2-2.3-3-4.1c-1-1.7-1.8-3.7-2.4-6c-0.2-0.8-0.3-1.9-0.2-3.2c0-1.4,0-2.4-0.1-3
			c-0.3,0.7-0.8,1.4-1.4,2.1s-1.3,1.4-1.8,1.8c-0.4,0.4-1.3,1.2-2.7,2.3c-1.4,1.1-2.8,2-4.1,2.7c-3.2,2.1-5.9,3.2-8,3.4
			c-2.1,0.2-4.1-0.9-6-3.2c-1.6-1.3-2.7-2.7-3.3-4.3c-0.6-1.6-0.7-3.7-0.1-6.5c0.2-3.5,0.7-6.8,1.5-10.1s2.4-7.7,4.9-13.2
			c2.1-4,3.6-7,4.7-8.9c1.1-1.9,1.8-3.1,2.1-3.5c1.5-0.5,2.7-0.5,3.7,0.1s1.6,1.5,1.8,2.9c0.6,1,0.5,2.7-0.2,5s-2,5.3-3.8,8.7
			c-1.4,3.3-2.6,6.7-3.8,10s-1.8,6.2-2,8.6s0.4,3.8,1.8,4.3c0.9,0.5,2.4,0.3,4.7-0.4c2.2-0.8,4.7-2.8,7.5-5.9
			c2.8-3.2,5.5-7.9,8.2-14.3c0.8-2,1.4-3.7,1.8-5.2s0.6-3.2,0.7-5.1c-0.2-1.2-0.1-2.2,0.2-3.2c0.3-0.9,1.1-1.8,2.3-2.4
			c0.4-0.5,0.9-1,1.6-1.4s1.1-0.4,1.3,0.1l2.4-0.2c0.4-0.1,0.7,0.1,0.8,0.7c0.2,0.5,0.5,1,1,1.4c1.1,0.9,1.4,2.8,0.9,5.8
			c-0.5,3-1.9,7.1-4.1,12.4c-1.9,4-3.1,7.1-3.8,9.2c-0.6,2.1-1,4.1-1.1,6.1c0,1.8,0.3,3.5,1,5c0.7,1.6,1.8,3,3.2,4.3
			c1.1,0.7,1.7,1.5,1.8,2.4c0.2,0.9,0.2,1.9,0.1,3.1c-0.2,0.9-0.8,1.6-1.7,2.1c-0.9,0.5-2,0.8-3.2,0.8
			C522.6,103.3,521.5,103,520.6,102.3z"/>
		<path class="st2" d="M547.2,100.9c-2.9,0.5-5.5,0.3-7.8-0.5c-2.4-0.8-4.3-2.3-5.7-4.3c-1.4-2-2.1-4.6-2.1-7.8c-0.3-3,0-6.4,1-10.3
			c1-3.9,2.4-7.8,4.4-11.8s4-7.3,6.3-10.2c2-2.4,3.9-4.5,5.9-6.5s3.7-3.3,5.3-4c1.4-0.6,2.7-1,3.9-1.1c1.2-0.2,2.2-0.2,3-0.2
			c1.6,0.4,3.3,1.1,5.1,2.1c1.8,1,2.7,2.1,2.7,3.3l0.7,0.7c0.6,0,1.1,0.6,1.5,1.9c0.4,1.3,0.7,2.7,0.8,4.4s-0.2,3-0.7,4.1
			c-0.4,1.9-1.1,3.5-2.1,4.9c-1,1.4-1.9,2.1-2.7,2.1c-0.4,0-0.8,0-1.1,0.1c-0.3,0-0.5,0.3-0.5,0.8s-0.3,0.7-0.8,0.6s-1.1-0.4-1.7-1
			c-0.6-0.5-1-1.2-1.3-2c0-0.5,0.2-1.3,0.6-2.5s0.8-2.7,1.2-4.6c0.6-2.8,0.5-4.6-0.2-5.4c-0.7-0.8-2-0.9-4-0.1
			c-2.5,1.4-4.8,3.3-7,5.8c-2.2,2.5-4.3,5.6-6.1,9.5s-3.5,8.8-5,14.6c-0.6,2.3-0.8,4.2-0.7,5.9c0.2,1.7,0.4,2.6,0.7,2.7
			c1.4,0.4,3.2,0.5,5.6,0.2c2.4-0.2,4.1-0.7,5.2-1.3c1.6-0.8,3.3-1.8,5.3-3.2c2-1.3,3.7-2.5,5.2-3.6c0.5-0.3,1.1-0.8,1.8-1.5
			s1.4-1.2,2.2-1.6c0.8-1.2,1.5-1.9,2.1-2.1s1.5-0.3,2.7-0.3c0.8,0.2,1.5,0.5,2.2,0.9c0.7,0.4,1.2,0.8,1.4,1.2
			c0.2,0.4,0.1,0.7-0.5,1c-0.4,0-0.6,0.2-0.7,0.7c0.2,0.4-0.2,1.2-1.3,2.4c-1,1.2-2.3,2.6-3.9,4.1c-1.6,1.5-3.1,2.7-4.5,3.8
			c-1.4,1-2.4,1.5-3,1.5c-1,0-1.5,0.3-1.5,0.9c0,0.2-0.7,0.7-2.1,1.5c-1.4,0.8-3.1,1.6-4.9,2.4C550.1,100.1,548.5,100.6,547.2,100.9
			z"/>
		<path class="st2" d="M582.9,94.6c-0.7,0.1-1.4,0.1-2.1-0.1c-0.7-0.2-1.5-0.5-2.1-1c-0.8-0.8-1.3-1.4-1.6-1.8
			c-0.3-0.4-0.4-1.2-0.2-2.1c0.2-1,0.5-2.5,1-4.6c0.5-1.6,1.1-3.8,1.8-6.6s1.4-5.6,2.2-8.3c0.3-1.6,0.7-3.2,1.3-4.9
			c0.5-1.7,1.1-3.2,1.7-4.7s1-2.5,1.3-3.3c0.8-2.8,1.5-5.2,2.3-7.2s1.7-4.5,2.7-7.2c1.1-2.7,2.4-6.3,4-10.9c2.2-5.9,3.8-10.4,5-13.5
			c1.1-3.1,2-5.4,2.5-6.8c0.5-1.4,0.9-2.5,1.1-3.3c0-0.8,0.2-1.4,0.7-1.8c0.4-0.4,1-0.6,1.7-0.6c1.4,0,2.5,0.7,3.3,2
			c0.8,1.3,1.3,2.9,1.5,4.7s-0.1,3.5-0.9,5.1c-1.6,3.5-3.2,7.8-5,12.6s-3.5,9.7-5.2,14.3c-1.7,4.7-3.2,8.7-4.7,11.9
			c0,0.4-0.2,1.1-0.4,2.1c-0.3,1-0.6,1.9-1,2.7s-0.9,1.9-1.6,3.2c0,0.4-0.2,1.1-0.4,2.2c-0.3,1.1-0.7,2.4-1.2,4
			c-0.4,1.2-0.9,2.7-1.4,4.6c-0.5,1.9-0.9,3.5-1.1,4.7c0.5-0.9,1.5-2.2,3.1-4c1.6-1.8,3-3.3,4.4-4.6c1.6-1.4,3.3-2.9,5.3-4.6
			c2-1.7,3.5-2.9,4.7-3.7s2.7-1.8,4.6-3.1c0-0.4,0.2-0.6,0.5-0.7c0.3,0,0.7-0.1,1.1-0.1c0.4,0,0.6,0,0.7-0.2c0-0.1,0.1-0.3,0.1-0.7
			c0-0.5,0.6-0.9,1.7-1.3c1.1-0.4,2.5-0.7,4-1c1.5-0.2,2.8-0.4,3.8-0.4c1.2,0,2.1,0.2,2.8,0.7s1.6,1.6,2.7,3.2
			c1.2,1.6,1.9,3.5,2.3,5.7c0.3,2.2,0.1,4.5-0.7,6.9c0,0.8-0.1,1.9-0.4,3.3c-0.2,1.4-0.4,2.9-0.4,4.5l-0.9,4.7h2.4
			c0.8,0,1.9,0.2,3.2,0.7c0.4,0.4,0.8,0.8,1.2,1.1s0.8,0.5,1.2,0.5c1.2,0,1.6,0.5,1.3,1.4c-0.3,0.9-1,1.8-2.2,2.6
			c-2.4,1.6-4.5,2.4-6.4,2.4s-3.7-0.8-5.2-2.4c-1.6-1.7-2.6-3.5-3-5.6c-0.4-2.1-0.2-4.7,0.6-7.8c0.4-4.3,0.6-7.5,0.7-9.5
			s-0.5-3-1.5-3c-1,0-2.7,0.7-5.2,2c-2.5,1.3-5.2,3.1-8.3,5.4c-3.1,2.3-6.1,4.8-9,7.5c-3,2.8-5.4,5.6-7.4,8.6
			c-1.2,1.5-2.3,2.8-3.4,3.9C585.1,93.9,584,94.5,582.9,94.6z"/>
	</g>
	<g>
		<path class="st3" d="M0,90.1c0-4.8,2.1-7.2,6.4-7.2H95c8.2,0,15.9,1.7,23.1,5c7.2,3.3,13.5,7.8,18.8,13.5
			c5.3,5.7,9.5,12.4,12.6,20.1c3.1,7.7,4.6,16.1,4.6,25c0,8.2-1.4,15.9-4.1,23s-6.5,13.4-11.3,18.8c3.9,3,7.4,6.6,10.5,10.5
			c3.1,4,5.8,8.2,8,12.8s4,9.4,5.2,14.6c1.2,5.1,1.9,10.4,1.9,15.8c0,9.1-1.6,17.7-4.8,25.8s-7.5,15.3-12.9,21.5
			c-5.4,6.2-11.8,11.1-19.2,14.7c-7.4,3.6-15.2,5.4-23.7,5.4H6.4c-1.9,0-3.4-0.5-4.6-1.6c-1.2-1.1-1.8-2.7-1.8-5L0,90.1L0,90.1z
			 M113.2,147.3c0-3.9-0.6-7.5-1.9-10.8c-1.3-3.4-3-6.3-5.3-8.7c-2.3-2.4-5-4.3-8.2-5.7s-6.6-2.1-10.4-2.1H40.9v55.2h46
			c3.8,0,7.3-0.7,10.5-2.1c3.2-1.4,6-3.4,8.3-5.9c2.3-2.5,4.1-5.4,5.5-8.8C112.5,155,113.2,151.3,113.2,147.3z M122.4,240.8
			c0-3.5-0.6-6.8-1.7-10.2c-1.1-3.3-2.7-6.3-4.7-8.9c-2-2.6-4.4-4.9-7.1-6.6c-2.7-1.8-5.7-3-8.9-3.6c-1.9-0.3-3.8-0.6-5.8-0.8
			c-1.9-0.2-3.9-0.4-5.9-0.4H40.9v61.9h47.4c2,0,3.9-0.1,5.8-0.2s3.8-0.4,5.7-0.8c3.2-0.5,6.2-1.7,8.9-3.5c2.7-1.8,5.1-4.1,7.2-6.9
			c2-2.8,3.6-5.8,4.8-9.2C121.8,248.2,122.4,244.6,122.4,240.8z"/>
		<path class="st4" d="M323,299.5c0,1.3-0.3,2.4-0.8,3.2c-0.5,0.8-1.2,1.5-2,2s-1.8,0.8-2.8,1c-1,0.2-2.2,0.3-3.3,0.3h-12.7
			c-2.2,0-3.7-0.6-4.5-1.9c-0.8-1.2-1.5-2.8-1.9-4.7l-0.6-9.3c-2.4,2.6-5,5-7.9,7.2s-6,4.2-9.3,5.8c-3.3,1.7-6.9,2.9-10.6,3.8
			c-3.7,0.9-7.6,1.4-11.5,1.4c-6.1,0-12-0.9-17.7-2.6c-5.7-1.7-11-4.1-16-7.2c-5-3.1-9.5-6.9-13.5-11.2s-7.5-9.3-10.4-14.6
			c-2.9-5.3-5.1-11.1-6.7-17.2s-2.4-12.6-2.4-19.2s0.8-13.1,2.4-19.2c1.6-6.2,3.8-11.9,6.7-17.2c2.9-5.3,6.4-10.2,10.4-14.5
			c4-4.3,8.5-8.1,13.5-11.2s10.3-5.5,16-7.2c5.7-1.7,11.6-2.6,17.7-2.6c4.4,0,8.5,0.5,12.4,1.5s7.6,2.4,11.1,4.2s6.6,4,9.5,6.5
			c2.9,2.5,5.6,5.3,8,8.3l1.4-11.8c0.3-1.3,0.7-2.4,1-3.2c0.3-0.8,0.7-1.5,1.1-2s1-0.9,1.7-1s1.5-0.3,2.5-0.3h10.2
			c1.1,0,2.2,0.1,3.3,0.3c1.1,0.2,2.1,0.6,3,1c0.9,0.5,1.6,1.1,2.1,2c0.5,0.8,0.8,1.9,0.8,3.1L323,299.5L323,299.5z M217,236.1
			c0,5.9,1,11.4,2.9,16.6s4.5,9.8,8,13.8c3.4,3.9,7.4,7.1,12,9.4s9.6,3.5,15,3.5c5.5,0,10.6-1.2,15.4-3.5c4.8-2.3,9-5.4,12.5-9.4
			c3.5-3.9,6.3-8.5,8.4-13.8c2-5.2,3.1-10.8,3.1-16.6c0-5.8-1-11.3-3.1-16.5c-2-5.2-4.8-9.8-8.4-13.8c-3.5-4-7.7-7.1-12.5-9.4
			c-4.8-2.3-9.9-3.5-15.4-3.5c-5.4,0-10.5,1.2-15,3.5c-4.6,2.3-8.6,5.5-12,9.4c-3.4,4-6,8.5-8,13.8S217,230.3,217,236.1z"/>
		<path class="st4" d="M368.5,169.7c0.8-1.2,1.6-1.9,2.3-2.2c0.5-0.6,1.4-0.9,2.5-0.9c1.1,0,2.1-0.1,3.1-0.1h10.3
			c2,0,3.4,0.7,4.4,2.1s1.6,2.9,1.9,4.6l1.1,11.6c1.6-2.5,3.5-4.9,5.8-7.4s5-4.6,8.1-6.5c3.1-1.9,6.7-3.4,10.7-4.6s8.5-1.8,13.5-1.8
			c8,0,15.2,1.6,21.4,4.7s11.5,7.4,15.8,12.8c4.3,5.4,7.5,11.8,9.7,19.1c2.2,7.3,3.3,15.2,3.3,23.6V298c0,2.6-0.6,4.6-1.7,5.9
			c-1.2,1.3-2.8,2-5,2h-15.5c-2.7,0-4.5-0.6-5.5-1.7s-1.4-3-1.4-5.8v-73.1c0-3.9-0.6-7.7-1.8-11.4c-1.2-3.7-3-7-5.3-9.9
			c-2.3-2.9-5.2-5.3-8.7-7s-7.5-2.6-12-2.6c-3.1,0-6.4,0.7-9.7,2c-3.4,1.3-6.4,3.3-9.2,5.8c-2.8,2.5-5.1,5.5-6.9,9.1
			s-2.8,7.6-2.8,12v71.1c0,1.4-0.1,2.8-0.2,4.2c-0.1,1.4-0.4,2.6-0.9,3.7c-0.4,1.1-1.1,2-1.9,2.6s-1.9,1-3.2,1h-16.8
			c-2.2,0-3.9-0.6-4.9-1.7s-1.6-2.8-1.6-4.9V173C367.2,172,367.6,170.9,368.5,169.7z"/>
		<path class="st5" d="M525.2,131.7c0-1.9,0.4-3.5,1.1-4.7c0.7-1.2,2.4-1.9,5.2-1.9h17.4c2,0,3.4,0.6,4.3,1.9
			c0.9,1.3,1.3,2.7,1.3,4.1v90.6l44.8-52.2c0.9-1,1.8-1.7,2.7-2.2c0.9-0.5,2-0.8,3.3-0.8h23.3c1.5,0,2.6,0.3,3.4,1s1.1,1.5,1.1,2.6
			c0,0.7-0.1,1.4-0.3,2c-0.2,0.6-0.6,1.2-1.1,2L586,225.6l54.1,72.2c0.8,0.8,1.3,1.7,1.6,2.6s0.5,1.7,0.5,2.3c0,1.2-0.3,2.1-1,2.5
			c-0.7,0.4-1.7,0.7-3.1,0.7h-26c-2,0-3.9-1.5-5.7-4.6l-39.4-55.2l-12.2,13.7v39.5c0,0.7-0.1,1.4-0.3,2.1c-0.2,0.8-0.5,1.5-1,2.1
			c-0.4,0.7-1,1.2-1.8,1.7c-0.8,0.4-1.7,0.7-2.8,0.7h-18c-1,0-1.9-0.2-2.5-0.7c-0.7-0.4-1.3-1-1.7-1.7c-0.5-0.7-0.8-1.3-1-2
			c-0.2-0.7-0.3-1.3-0.3-1.7L525.2,131.7L525.2,131.7z"/>
	</g>
</g>
</svg>
