<svg xmlns="http://www.w3.org/2000/svg" width="143.503" height="31.799" viewBox="0 0 143.503 31.799">
  <g id="Group_20023" data-name="Group 20023" transform="translate(-4741.375 447.212)">
    <g id="Group_20022" data-name="Group 20022" transform="translate(4741.375 -437.662)">
      <g id="Group_20019" data-name="Group 20019" transform="translate(25.352 0)">
        <path id="Path_16536" data-name="Path 16536" d="M4883.3-385.639c0,3.673-2.914,5.8-8.5,5.8h-10.988v-21.248h10.381c5.313,0,8.044,2.216,8.044,5.524a5.108,5.108,0,0,1-2.823,4.675A5.247,5.247,0,0,1,4883.3-385.639Zm-14.6-11.747v5.008h4.888c2.4,0,3.7-.85,3.7-2.519s-1.305-2.489-3.7-2.489Zm9.652,11.231c0-1.791-1.366-2.641-3.916-2.641H4868.7v5.251h5.737C4876.986-383.544,4878.352-384.333,4878.352-386.155Z" transform="translate(-4863.812 401.089)" fill="#1d6b3a"/>
        <path id="Path_16537" data-name="Path 16537" d="M4979.25-384.394h-9.865l-1.882,4.553h-5.039l9.47-21.248h4.856l9.5,21.248h-5.16Zm-1.547-3.734-3.37-8.135-3.368,8.135Z" transform="translate(-4942.038 401.089)" fill="#1d6b3a"/>
        <path id="Path_16538" data-name="Path 16538" d="M5107.722-401.089v21.248h-4.037l-10.594-12.9v12.9h-4.856v-21.248h4.067l10.563,12.9v-12.9Z" transform="translate(-5041.765 401.089)" fill="#1d6b3a"/>
        <path id="Path_16539" data-name="Path 16539" d="M5214.417-388.189l-2.854,2.975v5.373h-4.887v-21.248h4.887v9.926l9.41-9.926h5.463l-8.8,9.471,9.319,11.777h-5.738Z" transform="translate(-5135.681 401.089)" fill="#1d6b3a"/>
      </g>
      <g id="Group_20021" data-name="Group 20021" transform="translate(0 0.621)">
        <g id="Group_20020" data-name="Group 20020" transform="translate(3.595)">
          <rect id="Rectangle_18610" data-name="Rectangle 18610" width="3.966" height="19.993" transform="translate(8.838)" fill="#1d6b3a"/>
          <rect id="Rectangle_18611" data-name="Rectangle 18611" width="3.966" height="19.993" fill="#1d6b3a"/>
        </g>
        <rect id="Rectangle_18612" data-name="Rectangle 18612" width="3.966" height="19.993" transform="translate(0 8.015) rotate(-90)" fill="#1d6b3a"/>
        <rect id="Rectangle_18613" data-name="Rectangle 18613" width="3.966" height="19.993" transform="translate(0 15.694) rotate(-90)" fill="#1d6b3a"/>
      </g>
    </g>
    <path id="Path_16540" data-name="Path 16540" d="M5337.566-438.044c-.663-1.269-1.242-2.373-1.727-3.286-.568-1.07-1.08-1.974-1.524-2.689a11.1,11.1,0,0,0-1.275-1.728,4.469,4.469,0,0,0-1.312-.987,4.524,4.524,0,0,0-1.554-.408c-.535-.047-1.181-.071-1.922-.071h-3v3.945h3.252c.338,0,.645.013.913.04a2.146,2.146,0,0,1,.676.18,2.425,2.425,0,0,1,.646.453,6.533,6.533,0,0,1,.775.927c.293.41.623.935.98,1.558.327.571.708,1.265,1.135,2.065h-17.712v3.959h7.33a6.969,6.969,0,0,1,.814,1.712,6.792,6.792,0,0,1,.3,2.02,5.637,5.637,0,0,1-.077.971,2.509,2.509,0,0,1-.219.7,1.044,1.044,0,0,1-.318.388.644.644,0,0,1-.391.117,1.322,1.322,0,0,1-.918-.491,5.738,5.738,0,0,1-1.033-1.834l-.167-.426-3.84,1.963.172.363c.253.535.565,1.15.927,1.827s.78,1.411,1.235,2.168.955,1.547,1.484,2.346,1.1,1.6,1.693,2.374,1.213,1.528,1.849,2.243a23.465,23.465,0,0,0,1.955,1.962l.308.272,2.857-3.169-.327-.276c-.584-.492-1.128-.986-1.62-1.468a18.666,18.666,0,0,1-1.34-1.456,15.541,15.541,0,0,1-1.092-1.491c-.24-.373-.465-.76-.671-1.155a5.669,5.669,0,0,0,1.5-.656h6.628v8.612h4.459v-17.614h3.033v-3.959Zm-9.1,5.567a13.04,13.04,0,0,0-.58-1.608h5.075v5.071H5328.7c.014-.107.027-.215.038-.321a7.764,7.764,0,0,0,.044-.837A8.416,8.416,0,0,0,5328.463-432.477Z" transform="translate(-455.572)" fill="#f57937"/>
  </g>
</svg>
