<svg xmlns="http://www.w3.org/2000/svg" xmlns:xlink="http://www.w3.org/1999/xlink" width="281.809" height="568.694" viewBox="0 0 281.809 568.694" style="max-width:260px; height:auto;">
  <defs>
    <linearGradient id="linear-gradient" x1="-0.267" y1="0.146" x2="1.267" y2="0.854" gradientUnits="objectBoundingBox">
      <stop offset="0" stop-color="#f2f3f4"/>
      <stop offset="0.479" stop-color="#edeeee"/>
      <stop offset="1" stop-color="#e2e2e2"/>
    </linearGradient>
    <linearGradient id="linear-gradient-2" y1="0.5" x2="0.116" y2="0.5" gradientUnits="objectBoundingBox">
      <stop offset="0" stop-color="#666"/>
      <stop offset="1"/>
    </linearGradient>
    <linearGradient id="linear-gradient-3" x1="0.9" y1="0.5" x2="1.018" y2="0.5" gradientUnits="objectBoundingBox">
      <stop offset="0"/>
      <stop offset="1" stop-color="#666"/>
    </linearGradient>
    <linearGradient id="linear-gradient-4" x1="0.5" y1="1" x2="0.5" y2="0.199" gradientUnits="objectBoundingBox">
      <stop offset="0" stop-color="#959595"/>
      <stop offset="1"/>
    </linearGradient>
    <linearGradient id="linear-gradient-5" x1="0.5" y1="0.765" x2="0.5" y2="-0.235" gradientUnits="objectBoundingBox">
      <stop offset="0"/>
      <stop offset="1" stop-color="gray"/>
    </linearGradient>
    <linearGradient id="linear-gradient-6" y1="0.5" x2="1" y2="0.5" gradientUnits="objectBoundingBox">
      <stop offset="0" stop-color="#f1f1f1"/>
      <stop offset="0.001" stop-color="#f0f0f0"/>
      <stop offset="0.138" stop-color="#b7b7b7"/>
      <stop offset="0.271" stop-color="#888"/>
      <stop offset="0.397" stop-color="#636363"/>
      <stop offset="0.513" stop-color="#484848"/>
      <stop offset="0.617" stop-color="#383838"/>
      <stop offset="0.698" stop-color="#333"/>
    </linearGradient>
    <linearGradient id="linear-gradient-7" y1="0.5" x2="1" y2="0.5" gradientUnits="objectBoundingBox">
      <stop offset="0" stop-color="#1a1a1a"/>
      <stop offset="0.117" stop-color="#444"/>
      <stop offset="0.231" stop-color="#666"/>
      <stop offset="0.339" stop-color="#7e7e7e"/>
      <stop offset="0.439" stop-color="#8c8c8c"/>
      <stop offset="0.523" stop-color="#929292"/>
      <stop offset="0.593" stop-color="#8a8a8a"/>
      <stop offset="0.697" stop-color="#757575"/>
      <stop offset="0.825" stop-color="#545454"/>
      <stop offset="0.968" stop-color="#252525"/>
      <stop offset="1" stop-color="#1a1a1a"/>
    </linearGradient>
    <linearGradient id="linear-gradient-9" y1="0.5" x2="0.592" y2="0.5" gradientUnits="objectBoundingBox">
      <stop offset="0" stop-color="#c8c8c8"/>
      <stop offset="0.211" stop-color="#9f9f9f"/>
      <stop offset="0.587" stop-color="#5d5d5d"/>
      <stop offset="0.86" stop-color="#333"/>
      <stop offset="1" stop-color="#242424"/>
    </linearGradient>
    <linearGradient id="linear-gradient-10" y1="0.5" x2="1" y2="0.5" gradientUnits="objectBoundingBox">
      <stop offset="0" stop-color="#242424"/>
      <stop offset="0.14" stop-color="#333"/>
      <stop offset="0.413" stop-color="#5d5d5d"/>
      <stop offset="0.789" stop-color="#9f9f9f"/>
      <stop offset="1" stop-color="#c8c8c8"/>
    </linearGradient>
    <linearGradient id="linear-gradient-11" y1="0.5" x2="1" y2="0.5" gradientUnits="objectBoundingBox">
      <stop offset="0" stop-color="#333"/>
      <stop offset="0.09" stop-color="#2a2a2a"/>
      <stop offset="0.289" stop-color="#1e1e1e"/>
      <stop offset="0.479" stop-color="#1a1a1a"/>
      <stop offset="0.788" stop-color="#1b1b1b"/>
      <stop offset="0.9" stop-color="#222"/>
      <stop offset="0.979" stop-color="#2e2e2e"/>
      <stop offset="1" stop-color="#333"/>
    </linearGradient>
    <clipPath id="clip-path">
      <path id="Path_16921" data-name="Path 16921" d="M567.692,155.031h-.185l-.277-.029c-.328-.014-.627-.014-.9-.014h-29.6a3.42,3.42,0,0,0-3.231,3.067c-.007.114-.014.228-.014.348v.043a16.353,16.353,0,0,1-16.333,15.579H410.368a16.353,16.353,0,0,1-16.333-15.579V158.4c0-.121-.008-.235-.015-.348a3.419,3.419,0,0,0-3.231-3.067h-29.6c-.277,0-.576,0-.9.014l-.278.029h-.185a20.548,20.548,0,0,0-19.187,20.5V667.583a20.641,20.641,0,0,0,18.916,20.482l.277.022h.071l.057.007h.121l.043.007c.355.015.712.029,1.067.029H566.325c.356,0,.712-.014,1.068-.029l.042-.007h.121l.056-.007h.071l.278-.022a20.642,20.642,0,0,0,18.916-20.482V175.535A20.548,20.548,0,0,0,567.692,155.031Z" transform="translate(-322.86 -137.232)" fill="url(#linear-gradient)"/>
    </clipPath>
  </defs>
  <g id="Group_20555" data-name="Group 20555" transform="translate(-317.629 -131.985)">
    <g id="object" transform="translate(317.63 131.985)">
      <g id="Group_20256" data-name="Group 20256">
        <g id="Group_20255" data-name="Group 20255">
          <g id="Group_20253" data-name="Group 20253">
            <g id="Group_20251" data-name="Group 20251">
              <g id="Group_20247" data-name="Group 20247">
                <path id="Path_16907" data-name="Path 16907" d="M561.1,132.007H355.966a38.338,38.338,0,0,0-38.336,38.336V662.364A38.338,38.338,0,0,0,355.966,700.7H561.1a38.338,38.338,0,0,0,38.336-38.336V170.343A38.338,38.338,0,0,0,561.1,132.007Zm37.268,526.8a37.145,37.145,0,0,1-1.8,11.45c-.085.277-.178.555-.277.825s-.192.549-.3.819c-.071.206-.149.413-.235.612q-.363.907-.769,1.793c-.121.263-.242.526-.369.783-.178.363-.356.719-.549,1.075-.12.242-.249.477-.384.712s-.277.5-.427.747c-.4.683-.825,1.359-1.273,2.021-.143.206-.285.419-.434.626-.164.235-.328.463-.505.691s-.335.455-.512.683-.349.448-.534.669-.363.441-.556.661c-.362.434-.747.862-1.138,1.274-.6.641-1.217,1.259-1.865,1.864-.192.178-.384.356-.583.527-.448.4-.9.783-1.366,1.167-.2.157-.406.321-.612.477-.676.527-1.374,1.025-2.085,1.5-.235.164-.477.32-.719.47-.484.313-.975.6-1.473.889-.249.149-.491.285-.74.413-.8.441-1.622.854-2.462,1.225-.22.107-.441.2-.661.291-.263.121-.527.228-.8.335s-.541.213-.811.313c-.6.228-1.217.441-1.836.634-.213.071-.434.135-.655.2-.811.242-1.643.455-2.483.641-.292.064-.583.128-.882.185s-.619.121-.94.172q-.865.148-1.751.256h-.021c-.114.014-.228.029-.342.035a1.413,1.413,0,0,1-.242.022.48.48,0,0,1-.1.007c.527-.057,1.046-.128,1.566-.213.256-.043.512-.086.776-.135s.512-.1.761-.15c.769-.156,1.523-.348,2.27-.555.25-.064.5-.143.74-.221.491-.149.975-.313,1.459-.484q1.089-.4,2.136-.854c.235-.093.47-.2.7-.314s.456-.22.684-.327c.455-.228.9-.463,1.352-.7s.875-.5,1.309-.762c.392-.242.776-.491,1.161-.74a.614.614,0,0,0,.114-.078c.626-.427,1.239-.868,1.836-1.33.2-.15.4-.306.591-.47.555-.448,1.1-.918,1.622-1.4a33.707,33.707,0,0,0,3.594-3.886c.157-.192.313-.4.463-.6A33.8,33.8,0,0,0,592,675.857c.171-.385.335-.783.484-1.174a33.13,33.13,0,0,0,1.737-5.985c.078-.406.149-.818.213-1.232a34.47,34.47,0,0,0,.384-5.1V170.343a33.774,33.774,0,0,0-30.145-33.532c-.3-.029-.6-.057-.9-.079s-.619-.042-.925-.056h-.007c-.576-.029-1.146-.043-1.729-.043H355.973q-.876,0-1.729.043h-.022a33.762,33.762,0,0,0-31.967,33.667V662.364a33.766,33.766,0,0,0,29.926,33.505c-.228-.023-.457-.038-.685-.065h-.021q-.887-.107-1.751-.256a37.132,37.132,0,0,1-9.978-3.2c-.22-.107-.433-.213-.654-.321-.555-.291-1.1-.583-1.643-.9-.25-.142-.491-.285-.733-.434a36.467,36.467,0,0,1-3.53-2.427c-.206-.156-.406-.313-.605-.477-.6-.484-1.181-.982-1.743-1.494-.185-.171-.37-.342-.548-.52-.214-.2-.42-.4-.627-.6s-.406-.413-.6-.62c-.135-.135-.263-.27-.391-.413-.164-.178-.328-.355-.484-.534a37.738,37.738,0,0,1-2.669-3.352c-.149-.206-.291-.419-.433-.627-.449-.654-.868-1.324-1.267-2.007-.15-.242-.292-.491-.427-.74a37.036,37.036,0,0,1-2.612-5.807c-.1-.277-.192-.548-.277-.825a37.681,37.681,0,0,1-1.1-4.27c-.056-.292-.114-.584-.164-.875a37.6,37.6,0,0,1-.534-6.305V170.343c0-.37.008-.733.022-1.1,0-.278.014-.549.029-.819.029-.6.071-1.188.135-1.779.029-.306.064-.612.1-.911l.064-.484c.021-.192.049-.384.085-.583q.065-.459.15-.918.139-.8.32-1.58c.057-.263.121-.519.185-.776.185-.776.4-1.53.641-2.284.078-.235.156-.477.235-.712.1-.292.2-.584.306-.868.085-.242.178-.477.27-.712.078-.2.149-.392.235-.583.092-.235.192-.47.291-.7.079-.178.15-.348.235-.519.114-.257.228-.505.356-.762.206-.441.426-.882.661-1.317q.172-.33.363-.661c.135-.257.284-.513.434-.762a37.479,37.479,0,0,1,3.508-4.989c.185-.22.37-.441.563-.661.213-.242.426-.491.654-.733.37-.4.74-.79,1.124-1.167.413-.413.833-.812,1.259-1.2s.868-.769,1.317-1.139c.221-.185.449-.362.676-.548.456-.356.918-.7,1.4-1.046s.946-.662,1.437-.982.982-.619,1.487-.911c.25-.149.505-.292.762-.434s.512-.277.768-.413.52-.27.783-.4.527-.256.8-.384c.527-.242,1.068-.477,1.616-.7.257-.107.519-.213.783-.313a.285.285,0,0,1,.071-.029c.263-.1.534-.192.8-.292s.527-.178.79-.27c.3-.092.6-.192.9-.277.285-.085.569-.164.854-.242s.576-.157.868-.228.583-.142.875-.206c.59-.135,1.181-.249,1.779-.348.291-.05.59-.1.889-.142.641-.093,1.288-.171,1.935-.228.512-.049,1.032-.086,1.551-.114.313-.015.634-.029.953-.036s.641-.014.961-.014H561.1c.32,0,.641.007.96.014.263.008.534.015.8.029.6.029,1.2.072,1.8.128h.022c.305.029.6.064.9.1s.6.078.9.121.6.092.9.142.59.107.882.164c.007-.008.014-.008.014,0,.292.056.583.121.875.185.27.057.534.121.8.178.064.015.121.029.172.043.249.064.5.128.747.2.348.092.7.192,1.038.3.235.072.47.143.7.221.519.171,1.032.348,1.544.541.348.121.69.257,1.024.4.249.1.491.206.74.313.27.114.534.235.8.363s.526.249.79.377a36.089,36.089,0,0,1,5.337,3.21c.206.142.413.292.612.448.74.556,1.452,1.132,2.143,1.737q.459.394.9.811a36.175,36.175,0,0,1,3.359,3.572c.192.228.369.449.548.676.377.477.732.954,1.075,1.438.178.242.348.491.512.74.291.42.569.854.84,1.288.135.22.263.441.4.662.243.42.484.839.712,1.273.114.206.227.413.327.627.377.719.719,1.445,1.046,2.192.078.192.164.384.242.583.306.74.591,1.494.847,2.256.1.284.192.562.278.847a37.2,37.2,0,0,1,1.2,5.031q.043.267.085.555c.043.3.086.6.121.9s.071.6.1.911.057.612.086.918c.036.562.063,1.124.078,1.694q.021.545.021,1.089Z" transform="translate(-317.63 -132.007)" fill="#00000c"/>
                <g id="Group_20246" data-name="Group 20246" transform="translate(1.067 4.669)">
                  <path id="Path_16908" data-name="Path 16908" d="M352.708,697.271c-.3-.029-.6-.057-.9-.093h-.021q-.887-.107-1.751-.256a37.132,37.132,0,0,1-9.978-3.2c-.22-.107-.433-.213-.654-.321-.555-.291-1.1-.583-1.643-.9-.25-.142-.491-.285-.733-.434a36.467,36.467,0,0,1-3.53-2.427c-.206-.156-.406-.313-.605-.477-.6-.484-1.181-.982-1.743-1.494-.185-.171-.37-.342-.548-.52-.214-.2-.42-.4-.627-.6s-.406-.413-.6-.62c-.135-.135-.263-.27-.391-.413-.164-.178-.328-.355-.484-.534a37.738,37.738,0,0,1-2.669-3.352c-.149-.206-.291-.419-.433-.627-.449-.654-.868-1.324-1.267-2.007-.15-.242-.292-.491-.427-.74a37.036,37.036,0,0,1-2.612-5.807c-.1-.277-.192-.548-.277-.825a37.681,37.681,0,0,1-1.1-4.27c-.056-.292-.114-.584-.164-.875a37.6,37.6,0,0,1-.534-6.305v-484.9a37.321,37.321,0,0,1,35.526-37.225,33.762,33.762,0,0,0-31.967,33.667V663.738A33.768,33.768,0,0,0,352.708,697.271Z" transform="translate(-319.011 -138.05)" fill="url(#linear-gradient-2)"/>
                  <path id="Path_16909" data-name="Path 16909" d="M670.8,175.292V660.2a37.145,37.145,0,0,1-1.8,11.45c-.085.277-.178.555-.277.825s-.192.549-.3.819c-.071.206-.149.413-.235.612q-.363.907-.769,1.793c-.121.263-.242.526-.369.783-.178.363-.356.719-.549,1.075-.12.242-.249.477-.384.712s-.277.5-.427.747c-.4.683-.825,1.359-1.273,2.021-.143.206-.285.419-.434.626-.164.235-.335.463-.505.691s-.341.462-.512.683-.356.448-.534.669-.363.441-.556.661c-.37.434-.747.862-1.138,1.274-.6.641-1.217,1.259-1.865,1.864-.192.171-.384.348-.583.527-.448.4-.9.783-1.366,1.167-.2.157-.406.314-.612.477-.676.527-1.374,1.025-2.085,1.5-.235.156-.477.313-.719.47-.484.313-.975.6-1.473.889-.242.142-.491.285-.74.413-.8.441-1.622.854-2.462,1.225-.22.107-.441.2-.661.291-.263.121-.527.228-.8.335s-.541.213-.811.313c-.6.228-1.217.441-1.836.634-.221.071-.434.135-.655.2-.811.242-1.643.455-2.483.641-.292.064-.583.128-.882.185s-.619.121-.94.172q-.875.148-1.751.256H638c-.3.035-.6.064-.9.093a33.774,33.774,0,0,0,30.145-33.533V171.734A33.763,33.763,0,0,0,636.2,138.123,37.31,37.31,0,0,1,670.8,175.292Z" transform="translate(-391.129 -138.067)" fill="url(#linear-gradient-3)"/>
                  <path id="Path_16910" data-name="Path 16910" d="M598.686,813.832v3.558a37.307,37.307,0,0,1-37.268,37.269H356.287a37.314,37.314,0,0,1-37.276-37.269v-3.558a37.6,37.6,0,0,0,.534,6.306c.05.291.107.583.164.875a37.676,37.676,0,0,0,1.1,4.27c.085.277.178.548.277.825a37.038,37.038,0,0,0,2.612,5.807c.135.25.277.5.427.74.4.683.818,1.352,1.267,2.007.142.207.284.42.433.627a37.747,37.747,0,0,0,2.669,3.352c.157.178.321.356.484.534.128.142.256.277.391.413.2.206.406.413.6.62s.413.406.627.6c.178.178.362.349.548.52.562.512,1.146,1.01,1.743,1.494.2.164.4.321.605.477a36.479,36.479,0,0,0,3.53,2.427c.242.149.484.292.733.434.54.313,1.089.6,1.643.9.221.107.434.214.654.321a37.127,37.127,0,0,0,9.978,3.2q.865.148,1.751.256h.021c.6.071,1.2.128,1.8.171.307.022.62.042.926.057q.865.043,1.751.042H561.418c.583,0,1.16-.014,1.736-.042.306-.015.619-.036.925-.057.491-.036.975-.078,1.459-.135.114-.007.228-.022.342-.036h.021q.887-.107,1.751-.256.481-.075.94-.172c.3-.056.59-.121.882-.185.84-.185,1.672-.4,2.483-.641.221-.064.442-.128.655-.2.619-.192,1.231-.406,1.836-.634.27-.1.541-.206.811-.313s.534-.213.8-.335c.22-.093.441-.185.661-.291.84-.37,1.658-.783,2.462-1.225.25-.128.491-.264.74-.413.5-.284.989-.576,1.473-.889.242-.15.484-.306.719-.47.712-.477,1.409-.975,2.085-1.5.206-.156.413-.32.612-.477.463-.384.918-.768,1.366-1.167.2-.171.392-.348.583-.527.648-.6,1.267-1.224,1.865-1.864.391-.413.776-.84,1.138-1.274q.289-.33.556-.661c.185-.221.363-.441.534-.669s.348-.456.512-.683.341-.456.505-.691c.149-.206.291-.42.434-.626.448-.662.875-1.338,1.273-2.021q.225-.373.427-.747c.135-.235.263-.47.384-.712.192-.356.37-.712.549-1.075.128-.256.256-.519.369-.783q.406-.887.769-1.793c.086-.2.164-.406.235-.612.107-.27.206-.541.3-.819s.192-.548.277-.825A37.144,37.144,0,0,0,598.686,813.832Z" transform="translate(-319.011 -291.702)" fill="url(#linear-gradient-4)"/>
                </g>
                <path id="Path_16911" data-name="Path 16911" d="M598.686,170.658v3.558a37.3,37.3,0,0,0-33.7-37.09c-.3-.029-.6-.057-.9-.079s-.619-.042-.925-.056h-.007c-.576-.029-1.146-.043-1.729-.043H356.287q-.876,0-1.729.043h-.022a37.321,37.321,0,0,0-35.526,37.225v-3.558c0-.37.008-.733.022-1.1,0-.278.014-.549.029-.819.029-.6.071-1.188.135-1.779.029-.306.064-.612.1-.911l.064-.484c.021-.192.049-.384.085-.583q.065-.459.15-.918.139-.8.32-1.58c.057-.263.121-.519.185-.776.185-.776.4-1.53.641-2.284.078-.235.156-.477.235-.712.1-.292.2-.584.306-.868.085-.242.178-.477.27-.712.078-.2.149-.392.235-.583.092-.235.192-.47.291-.7.079-.178.15-.348.235-.519.114-.257.228-.505.356-.762.206-.441.426-.882.661-1.317q.172-.33.363-.661c.135-.257.284-.513.434-.762a37.478,37.478,0,0,1,3.508-4.989c.185-.22.37-.441.563-.661.213-.242.426-.491.654-.733.37-.4.74-.79,1.124-1.167.413-.413.833-.812,1.259-1.2s.868-.769,1.317-1.139c.221-.185.449-.362.676-.548.456-.356.918-.7,1.4-1.046s.946-.662,1.437-.982.982-.619,1.487-.911c.25-.149.505-.292.762-.434s.512-.277.768-.413.52-.27.783-.4.527-.256.8-.384c.527-.242,1.068-.477,1.616-.7.257-.107.519-.213.783-.313a.285.285,0,0,1,.071-.029c.263-.1.534-.192.8-.292s.527-.178.79-.27c.3-.092.6-.192.9-.277.285-.085.569-.164.854-.242s.576-.157.868-.228.583-.142.875-.206c.59-.135,1.181-.249,1.779-.348.291-.05.59-.1.889-.142.641-.093,1.288-.171,1.935-.228.512-.049,1.032-.086,1.551-.114.313-.015.634-.029.953-.036s.641-.014.961-.014H561.418c.32,0,.641.007.96.014.263.008.534.015.8.029.6.029,1.2.072,1.8.128H565c.305.029.6.064.9.1s.6.078.9.121.6.092.9.142.59.107.882.164c.007-.008.014-.008.014,0,.292.056.583.121.875.185.27.057.534.121.8.178.064.015.121.029.172.043.249.064.5.128.747.2.348.092.7.192,1.038.3.235.072.47.143.7.221.519.171,1.032.348,1.545.541.348.121.69.257,1.024.4.249.1.491.206.74.313.27.114.534.235.8.363s.526.249.79.377a36.083,36.083,0,0,1,5.337,3.21c.206.142.413.292.612.448.74.556,1.452,1.132,2.143,1.737q.459.394.9.811a36.176,36.176,0,0,1,3.359,3.572c.192.228.369.449.548.676.377.477.732.954,1.075,1.438.178.242.348.491.512.74.291.42.569.854.84,1.288.135.22.263.441.4.662.243.42.484.839.712,1.273.114.206.227.413.327.627.377.719.719,1.445,1.046,2.192.078.192.164.384.242.583.306.74.591,1.494.847,2.256.1.284.192.562.278.847a37.2,37.2,0,0,1,1.2,5.031q.043.267.085.555c.043.3.086.6.121.9s.071.6.1.911.057.612.086.918c.036.562.063,1.124.078,1.694Q598.686,170.114,598.686,170.658Z" transform="translate(-317.944 -132.321)" fill="url(#linear-gradient-5)"/>
              </g>
              <g id="Group_20248" data-name="Group 20248" transform="translate(4.626 4.626)">
                <path id="Path_16912" data-name="Path 16912" d="M564.2,138.037h-.007q-.854-.043-1.729-.043H357.335q-.876,0-1.729.043h-.022A33.762,33.762,0,0,0,323.617,171.7V663.725a33.757,33.757,0,0,0,31.041,33.611c.307.022.62.042.926.057q.865.043,1.751.042h205.13c.583,0,1.16-.014,1.736-.042.306-.015.619-.036.925-.057a33.763,33.763,0,0,0,31.049-33.611V171.7A33.758,33.758,0,0,0,564.2,138.037Zm29.127,525.688a31.011,31.011,0,0,1-28.4,30.772c-.284.022-.576.042-.868.05-.527.028-1.061.043-1.594.043H357.335c-.541,0-1.082-.015-1.616-.043-.285-.008-.576-.029-.84-.05a31.007,31.007,0,0,1-28.416-30.772V171.7a30.85,30.85,0,0,1,29.2-30.821h.015l.071-.007c.519-.022,1.053-.036,1.587-.036h205.13c.533,0,1.067.014,1.587.036l.049.007A30.841,30.841,0,0,1,593.329,171.7Z" transform="translate(-323.617 -137.994)"/>
              </g>
              <path id="Path_16913" data-name="Path 16913" d="M669.764,175.2V667.223a30.521,30.521,0,0,1-4.035,15.172c-.235.413-.484.818-.733,1.217q-.577.9-1.2,1.751a31.887,31.887,0,0,1-3.971,4.455,32.065,32.065,0,0,0,4.241-15.955v-5.672c.015-.335.022-.676.022-1.018V175.152c0-.348-.007-.7-.022-1.038v-5.551a32.221,32.221,0,0,0-4.248-16.061A30.805,30.805,0,0,1,669.764,175.2Z" transform="translate(-395.434 -136.667)" fill="url(#linear-gradient-6)"/>
              <g id="Group_20249" data-name="Group 20249" transform="translate(10.318 10.319)">
                <path id="Path_16914" data-name="Path 16914" d="M565.628,145.4l-.131-.01c-.446-.017-.9-.029-1.357-.029H359.009c-.466,0-.933.012-1.387.03l-.14.012h-.066a28.016,28.016,0,0,0-26.431,27.975V665.4a28.144,28.144,0,0,0,25.8,27.934c.212.017.447.036.677.041l.082,0c.484.026.974.039,1.463.039H564.14c.483,0,.965-.013,1.441-.039l.086,0c.242-.005.484-.024.712-.042A28.138,28.138,0,0,0,592.158,665.4V173.38A28,28,0,0,0,565.628,145.4Zm19.057,520a20.628,20.628,0,0,1-18.891,20.484c-.1.007-.2.017-.3.021h-.064l-.065,0-.086,0-.05,0-.051,0c-.344.019-.693.028-1.038.028H359.009c-.354,0-.713-.01-1.066-.029l-.041,0-.04,0-.082,0-.06,0-.066,0c-.088,0-.176-.012-.28-.02A20.639,20.639,0,0,1,338.457,665.4V173.38a20.554,20.554,0,0,1,19.186-20.5h.184l.278-.025c.33-.012.627-.017.9-.017H564.14c.278,0,.581.006.924.018l.073.005.1.005a20.531,20.531,0,0,1,19.449,20.516Z" transform="translate(-330.985 -145.363)"/>
                <path id="Path_16915" data-name="Path 16915" d="M549.218,155.034v2.683a16.355,16.355,0,0,1-16.353,16.354H426.089a16.355,16.355,0,0,1-16.354-16.354v-2.683Z" transform="translate(-348.89 -147.562)"/>
              </g>
              <path id="Path_16916" data-name="Path 16916" d="M549.218,155.039v2.683a16.355,16.355,0,0,1-16.353,16.354H426.089a16.355,16.355,0,0,1-16.354-16.354v-2.683Z" transform="translate(-338.572 -137.244)"/>
              <g id="Group_20250" data-name="Group 20250" transform="translate(7.472 7.622)">
                <path id="Path_16917" data-name="Path 16917" d="M590.145,819.649v5.672a32.066,32.066,0,0,1-4.241,15.955,30.688,30.688,0,0,1-18.446,8.127c-.285.021-.576.042-.868.049-.526.029-1.06.042-1.594.042H359.866c-.541,0-1.082-.014-1.616-.042-.284-.007-.576-.029-.84-.049-.391-.029-.783-.072-1.174-.121a30.634,30.634,0,0,1-17.271-8,32.065,32.065,0,0,1-4.277-16.012v-6.639a25.2,25.2,0,0,0,8.86,19.122,24.939,24.939,0,0,0,14.311,5.97c.178.015.355.036.533.036l.079.007h.078c.434.021.875.036,1.317.036H565c.427,0,.861-.015,1.288-.036h.086l.078-.007c.2,0,.391-.022.583-.036A25.271,25.271,0,0,0,590.145,819.649Z" transform="translate(-328.981 -295.746)" fill="url(#linear-gradient-7)"/>
                <path id="Path_16918" data-name="Path 16918" d="M595.839,172.786l.021-.05a30.841,30.841,0,0,0-29.227-30.821l-.049-.007c-.519-.022-1.053-.036-1.587-.036H359.866c-.534,0-1.067.014-1.587.036l-.071.007h-.014c-.669.036-1.323.093-1.979.171a30.748,30.748,0,0,0-17.278,7.95,32.22,32.22,0,0,0-4.249,16.061v6.639a25.165,25.165,0,0,1,23.67-25.127h.134l.185-.022c.434-.014.825-.021,1.188-.021H565c.328,0,.683.007,1.075.021h.007l.257.015a25.153,25.153,0,0,1,23.811,24.1v-5.551a32.221,32.221,0,0,0-4.248-16.061A30.805,30.805,0,0,1,595.839,172.786Z" transform="translate(-328.981 -141.872)" fill="url(#linear-gradient-7)"/>
                <path id="Path_16919" data-name="Path 16919" d="M337.271,689.617a30.884,30.884,0,0,1-9.97-22.652V174.944a30.805,30.805,0,0,1,9.941-22.7,32.222,32.222,0,0,0-4.248,16.062v505.3A32.073,32.073,0,0,0,337.271,689.617Z" transform="translate(-327.301 -144.23)" fill="url(#linear-gradient-9)"/>
                <path id="Path_16920" data-name="Path 16920" d="M669.756,175.2V667.223a30.521,30.521,0,0,1-4.035,15.172c-.235.413-.484.818-.732,1.217q-.555.9-1.2,1.751a30.609,30.609,0,0,1-4.006,4.512c.014-.022.021-.036.035-.057a32.065,32.065,0,0,0,4.241-15.955v-505.3a32.221,32.221,0,0,0-4.248-16.061A30.805,30.805,0,0,1,669.756,175.2Z" transform="translate(-402.898 -144.289)" fill="url(#linear-gradient-10)"/>
              </g>
            </g>
            <g id="Group_20252" data-name="Group 20252" transform="translate(123.676 20.001)">
              <rect id="Rectangle_20856" data-name="Rectangle 20856" width="32.735" height="3.44" rx="1.72" fill="url(#linear-gradient-11)"/>
            </g>
          </g>
          <g id="Group_20254" data-name="Group 20254" transform="translate(17.777 17.757)">
            <path id="Path_16921-2" data-name="Path 16921" d="M567.692,155.031h-.185l-.277-.029c-.328-.014-.627-.014-.9-.014h-29.6a3.42,3.42,0,0,0-3.231,3.067c-.007.114-.014.228-.014.348v.043a16.353,16.353,0,0,1-16.333,15.579H410.368a16.353,16.353,0,0,1-16.333-15.579V158.4c0-.121-.008-.235-.015-.348a3.419,3.419,0,0,0-3.231-3.067h-29.6c-.277,0-.576,0-.9.014l-.278.029h-.185a20.548,20.548,0,0,0-19.187,20.5V667.583a20.641,20.641,0,0,0,18.916,20.482l.277.022h.071l.057.007h.121l.043.007c.355.015.712.029,1.067.029H566.325c.356,0,.712-.014,1.068-.029l.042-.007h.121l.056-.007h.071l.278-.022a20.642,20.642,0,0,0,18.916-20.482V175.535A20.548,20.548,0,0,0,567.692,155.031Z" transform="translate(-340.638 -154.989)" fill="url(#linear-gradient)"/>
          </g>
        </g>
      </g>
    </g>
  </g>
</svg>
