<?xml version="1.0" encoding="UTF-8"?>
<svg id="Layer_2" data-name="Layer 2" xmlns="http://www.w3.org/2000/svg" viewBox="0 0 10.58 10.25">
  <defs>
    <style>
      .cls-1 {
        fill: #fffdfd;
      }
    </style>
  </defs>
  <g id="Layer_1-2" data-name="Layer 1">
    <path class="cls-1" d="M10.27,8.09c-.92-.59-1.78-.95-2.62-1.09-.2-.04-.42,.03-.57,.18l-.56,.52c-.2,.18-.5,.22-.73,.09-.68-.39-1.32-.87-1.89-1.44-.43-.43-.82-.91-1.16-1.42-.16-.24-.13-.56,.06-.77l.6-.64c.15-.15,.21-.37,.18-.57-.14-.84-.5-1.69-1.09-2.62-.13-.2-.34-.32-.56-.32-.06,0-.12,0-.18,.03-.37,.12-.76,.35-1.14,.7C.19,1.1-.03,1.67,0,2.23c.12,1.84,1.07,3.74,2.67,5.34,1.88,1.88,4.15,2.85,6.23,2.66,.6-.05,1.13-.38,1.42-.88,.1-.17,.17-.34,.23-.5,.09-.28-.03-.59-.29-.76h0Z"/>
  </g>
</svg>