<svg xmlns="http://www.w3.org/2000/svg" viewBox="0 0 2988.33 884.4"><defs><style>.cls-1{fill:#00784a;}.cls-2{fill:#fcfdfc;}.cls-3{fill:#f1822b;}.cls-4{fill:#028855;}</style></defs><g id="Layer_2" data-name="Layer 2"><g id="Layer_1-2" data-name="Layer 1"><rect class="cls-1" width="2988.33" height="884.4"/><path class="cls-2" d="M176,133.64c2,1.17,4.31.87,6.57.87,51.16,0,102.32,0,153.48.14a234.52,234.52,0,0,1,39.28,3.29c18.4,3.19,35.63,8.95,50.23,21,18.18,15,26,35.18,28.87,57.93,6.95,55.51-24.08,93.89-62.88,115.59-3.93,2.2-4.71,3.95-2.88,8,16,35.49,33.26,70.4,51,105.05,10.85,21.17,20.69,42.92,33.67,62.94,11.62,17.94,26.43,33,43.29,46a80.23,80.23,0,0,0,35.73,15.52c10,1.71,20,4.32,30.37,3.73,1.82-.11,4.19-.74,3.94,2.73-.19,2.88-1.27,3.87-4.22,4.14-10.42,1-20.84.69-31.26.54-25.6-.38-51-3-75.14-11.93-26.24-9.64-48.53-25.53-67.29-46.06-6.09-6.67-10.42-15-15.38-22.65-8.7-13.45-15-28.12-22-42.51-8.84-18.41-16.69-37.27-25.43-55.74-4.23-8.93-7.53-18.34-12.16-27.17-6.24-11.91-16.1-17.84-29.27-18.53-6.15-.32-12.33-.06-18.49-.21-2,0-3,.41-3,2.72.64,42-1.25,84,1.28,125.92a43.87,43.87,0,0,0,1.16,6.89c1.86,8.33,7.11,13.42,15.36,15.21,5.68,1.23,11.46,2,17.21,2.94,1.58.25,2.93.31,2.86,2.49-.12,3.67-.07,7.33,0,11,0,2-1.08,2.57-2.86,2.48-1.16-.06-2.33,0-3.49,0-44.83,0-89.66,0-134.49.11-3.6,0-4.81-1-4.39-4.42a33.32,33.32,0,0,0,0-4c0-7.46,0-7.39,7.25-8.37,4.12-.56,8.22-1.28,12.3-2.12q13.42-2.75,16.06-16.27A130.35,130.35,0,0,0,213.46,466q0-135.47,0-270.93c0-6.65-.48-13.32-1.1-19.94-1.17-12.61-5.72-19-15.08-21.24-4.68-1.13-9.46-2-14.23-2.68-7.69-1.13-8.63-1.66-7.81-9C175.52,139.42,175.12,136.6,176,133.64ZM283.13,247.78h0v40.48c0,13.66.08,27.32-.08,41,0,3.28.48,4.72,4.27,4.57,10.65-.42,21.34,0,32-.6,31.27-1.91,53.13-19.43,61.75-49.42,5.32-18.5,6-37.48,3.89-56.47-2-18.27-8.18-35.1-21.32-48.47-21-21.36-46.73-24.89-74.82-19.17-4.31.87-5.85,2.51-5.81,7.16C283.27,193.81,283.13,220.8,283.13,247.78Z"/><path class="cls-2" d="M964.32,379.15c0-29.82-.08-59.64.09-89.46,0-3.75-.93-4.72-4.65-4.7q-38,.25-76,.05c-3.29,0-4.55.61-4.53,4.3.22,45.81.08,91.63.45,137.45.14,16.3,1,32.64,6.43,48.31,6.27,18.09,18.29,27,37.35,27.43,8.72.22,17.35-.47,25.58-3.52,3.1-1.14,4.14-.42,4.5,2.73A23.14,23.14,0,0,0,955.4,509c1.88,4-.5,6.26-3.23,7.52-15.24,7-30.24,14.64-46.95,17.72-7.48,1.37-15,3.87-22.46,3.62-9-.31-18.3-.56-27.21-3.48-13.39-4.39-23-12.55-29.53-25.11-6.26-12.05-8-25-9.74-38.08-1.84-14.28-1.09-28.62-1.13-42.93-.13-46.15,0-92.3-.06-138.45,0-2.93.73-4.62-4.51-5.36-10.62-1.49-21.44-1.87-31.94-4.3-2.59-.6-4.73-1-4.33-4.59a83.62,83.62,0,0,0,.11-10.14c0-2.29,1.65-2.08,3.09-2.28,11.21-1.58,22.4-3.29,33.63-4.66,3.25-.39,4.15-1.62,4-4.73-.23-5.83.16-11.68-.14-17.49-.17-3.4,1.37-5.49,3.62-7.62,12.78-12.1,26.41-23.2,40.19-34.11,5.81-4.61,12.36-8.34,18.72-12.21,3.72-2.26,8.22,1.14,7.78,5.87-1.1,11.76-2.49,23.5-3.55,35.27-.89,10-1.43,19.93-2.27,29.88-.26,3,.29,4.59,3.81,4.58,25.66-.08,51.32,0,77,0,3,0,4.11-1.31,4.05-4.27-.13-6.33,0-12.67-.07-19,0-2.11.73-3.28,2.35-4.84,17.53-16.91,36.82-31.61,56.41-46,2.63-1.92,5.9-3.44,9-1.94s2.7,4.8,2.35,7.9c-2.37,21-4.35,42.07-5.68,63.19-.26,4.12,1,5,4.74,5.33,16.42,1.46,32.81,3.31,49.23,4.78,3.49.31,4.71,1.59,4.27,5a37.9,37.9,0,0,0,0,5c0,6.39-1.71,7.91-8.4,7.45a14.18,14.18,0,0,0-3,.24c-14.16,2.27-28.47,3-42.76,3.58-3.1.13-4.39.75-4.36,4.17.45,49.81-.81,99.63.88,149.43.42,12.48,1.68,24.92,5.85,36.85,7.24,20.7,23.82,30.56,45.5,27.61,6.36-.86,12.69-1.48,18.74-3.72,1.89-.69,2.86-.14,3,1.86a2.92,2.92,0,0,0,.12.49c.91,4,3.18,8.4,2.35,12-.88,3.9-6.45,4.24-9.94,6.1-21.63,11.52-44.59,18.1-69.29,18.08-19.27,0-35.44-6.08-47-22.31-7.93-11.1-10.26-23.95-12.27-36.9-1.92-12.37-2.07-24.88-2.06-37.39Q964.34,409.9,964.32,379.15Z"/><path class="cls-2" d="M2375.34,285q0,77.7,0,155.41c0,14.16.5,28.36,3.91,42.18,1.58,6.4,3.6,12.71,7.51,18.4a23,23,0,0,0,13.21,9.38c3.25.92,4.26,2.33,3.92,5.49a27.15,27.15,0,0,0,0,7.48c.77,4.4-2.08,5.13-5.1,5.18-22.66.4-45.33.67-68,1-8.79.11-9.58-.51-12.25-9.09a13.15,13.15,0,0,0-.48-1.92c-1.21-2.5-1.66-5.45-4.15-7.21-3.56-2.52-4.75,1.64-6.84,2.72-9.08,4.71-17.42,11.25-26.92,14.66-11.91,4.28-24.36,7.81-37.4,7.54-11.5-.24-22.81-1.29-34-4.37a110.36,110.36,0,0,1-31.11-13.73c-19.15-12.48-32.73-29.87-41.82-50.88-11.08-25.6-12.8-52.43-11.24-79.79a167.41,167.41,0,0,1,7-40.69,132.45,132.45,0,0,1,23.85-44.64c20.19-24.55,46.53-38.9,76.84-46.61a171.28,171.28,0,0,1,74.77-2.72c3.83.72,4.42-.21,4.39-3.73-.17-23.32.07-46.64-.27-70-.18-11.62,0-23.32-2.88-34.76-3.42-13.51-10.78-15.69-24-13-4.17.83-5.75.29-5.86-3.77-.29-11.44-.32-11.57,10.76-14,26.54-5.7,53.17-10.74,80.47-11.23,4.73-.09,5.66,1.35,5.65,5.78q-.21,88.45-.1,176.91Zm-63.87,107.48q0-47.47,0-95c0-1.92.56-4-1.09-5.68-9.22-9.58-19.69-16.86-33.31-18.62-32.53-4.19-59.33,10.35-72.56,41.58-18.59,43.9-16.56,88.11,2.37,131.42,9.45,21.61,24.38,39,46.28,49.12,18,8.33,36.16,9.64,54.06-.86,3.28-1.93,4.37-4.23,4.35-8C2311.39,455.11,2311.46,423.78,2311.47,392.46Z"/><path class="cls-2" d="M1459.23,283.38A113.85,113.85,0,0,1,1497.55,257c9.65-4.14,20.22-6.31,30.87-7.39,20.14-2,39.86-.83,58.12,8.69,8.36,4.35,15,11.26,20.2,19.11,10.46,15.94,14.58,34,16.56,52.75,1.9,18,1,36,1.06,54,.18,31,.06,62,.1,93,0,7.63.42,15.27,2.56,22.63,1.58,5.42,5.66,8.77,11,10.34,5,1.46,10.16,1.82,15.31,2.12,2.94.17,4.34.85,4.34,4.35,0,11.74.16,11.74-11.53,11.74-38,0-76.07-.08-114.1.09a5,5,0,0,1-5.07-5.2c.3-10.1.08-10.11,10-11.47,17.83-2.44,21-5.67,22.63-23.56.35-3.68.5-7.38.51-11.08,0-35.29.12-70.58-.09-105.86-.11-17-.84-34-5.94-50.44-3.86-12.39-9.57-23.87-21.52-30.44-11.76-6.47-24.1-8.18-37.72-5.5-13.27,2.6-23.42,9.09-32.37,18.5a7.73,7.73,0,0,0-2.3,5.76q.12,86,.19,171.93a83.2,83.2,0,0,0,1.3,14.44,19.14,19.14,0,0,0,16,15.55c2.83.42,5.67.74,8.51,1,7.16.7,7.16.68,7.17,8.11,0,8.15,0,8.15-8,8.15-38.66,0-77.32-.1-116,.12-4.76,0-5.75-1.44-5.63-5.82.27-9.64.06-9.64,9.34-10.79,2.15-.27,4.31-.47,6.45-.83a18.13,18.13,0,0,0,15.6-17.89,105,105,0,0,1,.73-10.82,15.09,15.09,0,0,0,.1-1.73c-.16-53,0-106-.2-158.94,0-6.88,0-13.91-1.68-20.69a51.35,51.35,0,0,0-3.68-10.46c-2.16-4.38-6-6.48-11-6.43a41,41,0,0,0-13.19,2.43c-2.56.89-3.83.56-3.53-2.43a12.34,12.34,0,0,0,0-1.49c-.06-12.46,0-12.3,11.93-16.53a339.47,339.47,0,0,1,61-15c6.45-1,12.94-.91,19.34-1.91,3.3-.51,4.36.5,4.29,3.89C1459.1,262.61,1459.23,272.22,1459.23,283.38Z"/><path class="cls-2" d="M1927.36,283.31a114.61,114.61,0,0,1,26.46-20.13c25.11-13.74,51.83-17.1,79.82-12.24a62.29,62.29,0,0,1,40.84,25.65c8,11.09,12.1,24.27,14.75,37.76,2.73,13.84,3.35,27.84,3.36,41.9q0,60.24.12,120.47a100.85,100.85,0,0,0,1.41,18.91c1.87,9.62,6.09,13.88,15.76,15.37a101.79,101.79,0,0,0,11.93,1.25c3.29.11,4.1,1.5,4.13,4.62.09,11.46.2,11.46-11.39,11.46-38.16,0-76.32-.07-114.48.09-4,0-5-1-4.91-4.94.24-10.41.06-10.36,10.38-11.81,6.34-.88,12.86-1,17.52-6.83,2.56-3.21,3.51-6.75,4.06-10.45a94.32,94.32,0,0,0,1.1-13.93c0-39.49.16-79-.24-118.47-.18-17-1.88-33.95-8.8-49.84-6.25-14.35-16.59-24-32.19-27.25-17.64-3.74-33.77-.62-48.11,10.69-3.39,2.68-5.4,6.68-9.17,9-1.6,1-1.27,2.92-1.27,4.59q0,84.73.06,169.46a88,88,0,0,0,1.41,16.91c2,10.13,6.38,14.23,16.67,15.58,3.8.49,7.62.79,11.42,1.25,1.4.17,3.4-.18,3.48,1.94a91,91,0,0,1,0,12.47c-.26,2.73-2.93,1.5-4.49,1.5q-42.5.12-85,.05c-12,0-24-.11-36,.06-3,0-3.94-.72-4-3.85-.09-11.48-.22-11.49,11.31-13,4.92-.64,9.68-1.18,13.84-4.7a13.94,13.94,0,0,0,5.09-9.29c.79-7,2-14,2-21.1-.17-52.65-.12-105.31-.22-158,0-7.5-.59-15-2.83-22.23-3.2-10.28-7.47-12.76-18.94-11.77a24,24,0,0,0-3.42.74c-7.8,1.83-7.8,1.83-7.79-6.53,0-8.6,0-8.58,8.34-11.5,27-9.45,54.57-16,83.16-18.09,4.11-.3,5,.82,4.91,4.73C1927.17,263.16,1927.36,272.49,1927.36,283.31Z"/><path class="cls-2" d="M2773.46,391.14c.56,31.16-.82,56,1.75,80.77,1.28,12.24,3.48,24.16,11.82,34.16,5.69,6.82,12.92,9,21.16,9,2.62,0,4.48,0,4.82,3.21.3,2.81.66,4.57-2.79,6.58-11.48,6.7-23.56,11.45-36.76,12.14-22.84,1.19-41.28-2-55-24.69-3.23-5.32-3.33-5.35-8.35-1.22-20.55,16.95-43.73,26.57-70.75,26.18a79.42,79.42,0,0,1-36-8.85c-28.22-14.65-36.61-45.06-30.65-73.37,3.55-16.87,12.6-30.46,25.15-42,18-16.53,39.9-25.66,62.32-34.07,14.54-5.45,29.62-9,44.45-13.42,3.44-1,4.83-2.55,4.81-6.22-.11-14.33.23-28.71-3.86-42.64-8.79-29.92-33-39.86-62.24-29.58-16.46,5.8-26.79,18.72-34.43,34.21-3.05,6.19-6,12.39-8.75,18.73a4.23,4.23,0,0,1-7.15.71c-5.59-8.31-10.73-16.87-12.94-26.84a4.21,4.21,0,0,1,1-4.07c23.24-27.51,50-49.79,86.22-58a121.84,121.84,0,0,1,58.28.67c22.06,5.73,35.24,20.44,41.69,41.93,4.82,16.05,5.86,32.53,6.13,49.08C2773.68,361.52,2773.46,379.51,2773.46,391.14Zm-64.13,48.48c0-17.21-.07-30.54.06-43.87,0-3-.48-4.56-3.95-4.62-18-.34-34.4,4.17-47.86,16.54-18.48,17-23.71,48-12.55,72.06,7.77,16.74,21.71,24.63,39.94,22.48,8.71-1,16-5.19,22.85-10.47a7.89,7.89,0,0,0,3.35-8.09C2709.15,467.74,2709.11,451.75,2709.33,439.62Z"/><path class="cls-2" d="M1232.62,248.86c16.25-.44,31.81,2.17,46.3,10a47.66,47.66,0,0,1,18.52,18.1c5.57,9.35,8.84,19.49,10.75,30.18,2.85,16,3.16,32.09,3.29,48.25.27,35.64-.79,71.3.79,106.94.5,11.41,2,22.72,6.21,33.43,5.17,13.34,14.23,19.42,28.35,19.29,2.49,0,3.55.53,4,3s1,4.75-1.82,6.47c-20.68,12.45-42.78,16-66.12,9.93-11.53-3-19.64-11-25.84-21-3.85-6.22-4.1-6.45-9.87-1.61a119.46,119.46,0,0,1-39.29,21.76c-8.48,2.81-17.87,3.27-27,3.8-11.78.69-23-1.87-33.72-5.53-23-7.86-38.95-34.25-38.43-60.82a77.66,77.66,0,0,1,19.77-51.09c6.89-7.85,15.44-14.11,24.31-19.81,20.73-13.29,43.77-21,67.09-28.09q11.7-3.54,23.48-6.78c2.36-.65,3.89-1.58,3.91-4.27.12-15.21.19-30.45-4-45.23-4.1-14.35-12.17-25.82-27.06-30.11-13.1-3.77-26-3-38.85,3.36-20.51,10.22-29.89,28.62-38,48.24-.86,2.08-1,4.44-3.83,5-3.27.66-4.69-1.41-6.16-3.77-4.68-7.53-9.26-15.08-11.19-23.91-.38-1.73-.6-2.95.68-4.51,19.78-24,42.89-43.42,72.48-54.28C1204.62,250.88,1218.48,249,1232.62,248.86Zm14.61,189.08c0-17.92-.14-30.07.09-42.21.06-3.56-1.18-4.56-4.5-4.64a74.9,74.9,0,0,0-23.63,3.2c-38.58,11.53-55.34,60.55-31.9,93.1,14.81,20.58,43.07,19.36,60.83,2.18,1.34-1.3,1.21-2.61,1-4.08C1247,467.77,1247.14,450,1247.23,437.94Z"/><path class="cls-2" d="M752.67,399.91c.18,18.31-.4,38.81.58,59.29.55,11.5,1.7,22.91,5.33,33.94,2.4,7.27,6.35,13.72,12.82,17.6,4.66,2.81,10,5.2,16,4.43,1.85-.24,4-.86,4.42,2.31.37,2.65,1.35,4.94-1.92,6.78-6.84,3.86-13.77,7.44-21.27,9.8-16.07,5.06-32.12,4.37-47.88-1.06-11-3.79-18.55-12-24-22-1.77-3.28-3-3.95-6-1.26a117,117,0,0,1-38.31,22.83c-10,3.49-21,4.37-31.9,4.85-15.07.66-28.76-3.67-41.48-10.54-8.33-4.51-15.06-11.88-20.24-20.09-9.12-14.44-10-30.43-8-46.82a69.54,69.54,0,0,1,12.87-32.83c7.49-10.28,17.39-18.73,28.3-25.76,17.08-11,35.68-18.59,54.82-24.95,11.14-3.7,22.48-6.79,33.75-10.12,7.7-2.27,9.08-4,7.69-12.07-.41-2.36,0-4.41,0-6.61,0-12.68-1.14-25.29-5.76-37.24-5.13-13.26-13.92-22.91-28.44-25.59-10.68-2-21-1.6-31.68,2.69-12.67,5.08-21.73,13.38-29,24.19a128.79,128.79,0,0,0-13.95,27.71c-.52,1.44-.08,4-2.34,3.67s-5.44.11-6.48-2.52c-3.14-8-8-15.16-10.7-23.38-1.62-4.82-.13-7.87,2.8-10.94,7.21-7.56,14.16-15.4,21.86-22.42,5.35-4.88,11.67-8.74,17.74-12.79,31.62-21.14,66.07-27.35,102.92-18.23,25.75,6.36,37.78,25.37,43.13,49.79,3.84,17.53,4.23,35.34,4.28,53.18C752.7,369.74,752.67,383.73,752.67,399.91ZM688.38,436c0-17.21-.08-29,.06-40.87,0-2.73-.76-3.92-3.55-4-19.14-.5-36.46,4.43-50.09,18.34C619,425.69,616.09,445.68,620,467.07c2.29,12.56,8,23.4,19.18,30.3,14.83,9.12,33.72,6.4,48.53-6.38a6.54,6.54,0,0,0,2.58-6.44C688,466.65,688.27,448.65,688.38,436Z"/><path class="cls-2" d="M1743.71,528.32c-22.66,0-45.32-.09-68,.11-3.84,0-4.68-1.08-4.62-4.74.17-11.08,0-11.29,11.1-12.39,6.78-.67,12.67-3.36,18.41-6.6,2.43-1.37,3.71-3.82,4.59-6.35a47.87,47.87,0,0,0,2.82-19.44c-.23-3,.94-6.39.94-9.65q0-136.92,0-273.85c0-8.83-.37-17.73-2.6-26.39-2.8-10.9-10.67-14.05-21.36-15.46-4.13-.55-8.22-1.39-12.33-2.05-1.38-.22-1.4-1.19-1.41-2.21,0-3.66.06-7.33,0-11,0-2.08,1-2.56,2.78-2.46,1.17.06,2.33,0,3.5,0,44.31,0,88.63.07,133-.11,4.79,0,7.33.85,6.31,6.17a8.12,8.12,0,0,0,0,3c1,5.31-1.23,7.3-6.57,7.54A68.39,68.39,0,0,0,1796,155c-10.67,2.82-15.49,10.68-15.27,21.91.07,3.69-1.49,7.64-1.52,11.59q-1.05,141.42,0,282.84c0,7.17.13,14.41,1.85,21.47,2,8.23,5.51,14.11,15.22,16,5.7,1.1,11.49,2.41,17.27,3.52,1.08.21,2.79-.11,2.87,1.37a92.65,92.65,0,0,1,.08,13.43c-.21,2.22-2.78,1.17-4.25,1.17Q1778,528.38,1743.71,528.32Z"/><path class="cls-3" d="M787.75,652.37q303,0,606,0c6.71,0,6.35-1.17,6.21,6.33-.09,4.76,2,10.92-1,13.9-2.77,2.71-8.63.76-13.13.76q-602.83.06-1205.67.11c-3.5,0-5-.58-4.72-4.75.26-4.38.92-8.91-.64-13.3-.61-1.72.28-2.94,2.14-3s3.55,0,5.32,0Z"/><path class="cls-2" d="M2525,370.31v111a75,75,0,0,0,1.56,15.88c1.57,7.28,6,11.79,13.3,13.15a136.1,136.1,0,0,0,14.34,2c3,.25,3.83,1.37,3.88,4.32.17,11.76.27,11.76-11.55,11.76-37.83,0-75.65-.07-113.47.08-4.26,0-6.1-.64-5.88-5.55.44-9.74.12-9.78,9.65-11,16.82-2.22,22.93-4.49,23.2-26.13.63-51.8.34-103.62.38-155.42,0-10.49.33-21-2.22-31.32a35.66,35.66,0,0,0-2.61-7.48c-2.52-5-6.48-7.75-12.43-7.41a62,62,0,0,0-13.66,2.77c-2.2.64-3.2.82-2.46-2.41.81-3.48.38-7.29.23-10.94-.09-2.36.63-3.59,3-4.34,7.2-2.26,14.27-5,21.5-7.14a336.93,336.93,0,0,1,42.23-9.87c8.85-1.47,17.76-1.95,26.63-3,3.75-.46,4.36.88,4.36,4.27q-.16,58.47-.07,117Z"/><path class="cls-2" d="M515.19,234.85c0,24.07-6.16,43.35-17.93,60.91-12,18-28.12,31.4-46.92,41.7-3,1.66-4.21,3-2.57,6.42,8.87,18.48,17.33,37.14,26.46,55.51,7.6,15.28,14.79,30.8,22.63,46,11.35,22,22,44.37,34.76,65.64,12.11,20.12,29.32,32.73,52,38.16,2.41.58,4.29,1,3.92,4.43s-2.58,3.5-4.91,3.25A131,131,0,0,1,568,554.58c-30.89-6.9-50.89-27.55-67.51-52.71-20.71-31.35-36.26-65.45-52.92-98.95C438,383.72,428.64,364.4,420,344.75c-1.66-3.78-1.18-5.45,2.62-7.59,29.83-16.82,52.73-39.93,61.05-74.09,7.08-29,4.46-57.66-10.63-84.12-9.9-17.36-25.84-27.33-44.49-33.37a23.5,23.5,0,0,1-2.39-.7c-1.21-.56-3.66-.36-2.81-2.5.66-1.63,2.52-1.85,4.48-1.13,11.09,4.11,22.66,6.78,33.5,11.73,27.94,12.75,46,33.4,51.93,63.89A104.46,104.46,0,0,1,515.19,234.85Z"/><path class="cls-3" d="M2490.23,143.32c20.91-.14,38.69,17,38.89,37.55.22,22.18-16.32,39.54-38.11,39.86-23.71.35-37.29-16.43-39.27-33.85C2448.61,159.33,2471.05,142.54,2490.23,143.32Z"/><path class="cls-4" d="M1648.54,649.65a3.28,3.28,0,0,1,.35-3.17l.73,2.43Z"/><path class="cls-2" d="M1668.54,623.59h-2c-3.86-.08-5.62,1.39-5.57,5.65.22,16.16.09,32.33.09,48.49v4.07c-8.1-15.08-17-29.38-23.85-44.62-4.9-10.88-11.92-15-23.39-13.49-5.55.74-7.52,2-7.53,7.62,0,24.49,0,49-.08,73.47,0,3.1,1,4.76,4.12,4.88,2,.08,4,.07,6,.18,4.94.25,6.57-2,6.46-6.94-.39-18-.38-36-.52-53.95a3.27,3.27,0,0,1,.35-3.18c.29,1,.5,1.7.72,2.43,9,17,18.34,33.9,26.8,51.2,3.54,7,9.62,10.93,18.2,10.43,7.08-.61,8.66-1.87,8.66-9.11q0-34.5,0-69C1677,623.56,1677,623.56,1668.54,623.59Z"/><path class="cls-2" d="M2539.56,661.71c-5.78-3.26-11.95-5.82-17.85-8.86-4.42-2.29-6.94-5.91-5.55-11s5.47-6.1,10.13-6.32c5.74-.27,10.72,1.87,15.65,4.36,1.6.8,3.29,2.19,4.8,0,2.81-4.11,0-13.36-4.59-15.33a34.27,34.27,0,0,0-16.22-2.8c-1,0-2.68-.11-4.34,0-11.53.84-21,8.2-23.2,18-2.71,11.87,1.48,21.68,12.24,28,3.72,2.17,7.73,3.84,11.63,5.71,3,1.44,6.07,2.75,8.53,5.07,5.13,4.84,4.11,12.07-2.16,15.36a16.35,16.35,0,0,1-7.18,1.81c-7.08.23-13.38-2.08-19.33-5.66-1.88-1.12-3.85-2.53-5.33.57-2.62,5.46-.05,13.25,5.46,15.66a43.81,43.81,0,0,0,32.57,1.47c7.85-2.67,13.5-7.81,16.21-15.75C2555.28,679.58,2551.06,668.19,2539.56,661.71Z"/><path class="cls-2" d="M2800.49,661.71c-5.77-3.26-11.94-5.82-17.84-8.86-4.43-2.29-6.94-5.91-5.55-11s5.47-6.1,10.12-6.32c5.75-.27,10.73,1.87,15.66,4.36,1.6.8,3.29,2.19,4.79,0,2.82-4.11,0-13.36-4.58-15.33a34.29,34.29,0,0,0-16.23-2.8c-1,0-2.68-.11-4.33,0-11.53.84-21,8.2-23.21,18-2.7,11.87,1.49,21.68,12.24,28,3.72,2.17,7.74,3.84,11.63,5.71,3,1.44,6.07,2.75,8.53,5.07,5.14,4.84,4.12,12.07-2.16,15.36a16.3,16.3,0,0,1-7.17,1.81c-7.08.23-13.38-2.08-19.34-5.66-1.87-1.12-3.84-2.53-5.33.57-2.62,5.46,0,13.25,5.47,15.66a43.81,43.81,0,0,0,32.57,1.47c7.85-2.67,13.49-7.81,16.21-15.75C2816.22,679.58,2812,668.19,2800.49,661.71Z"/><path class="cls-2" d="M1540.3,694.55h-42.6a3,3,0,0,1-3-3v-18a3,3,0,0,1,3-3h37.49a2,2,0,0,0,2-2v-8.91a2,2,0,0,0-2-2H1497.7a3,3,0,0,1-3-3V639.87a3,3,0,0,1,3-3h42.54a2,2,0,0,0,2-2v-9.19a2,2,0,0,0-2-2h-52.17a14.39,14.39,0,0,0-6,1.06,6.81,6.81,0,0,0-3.43,3.4,14.27,14.27,0,0,0-1.1,6v63.5q0,5.52,2.45,8c1.64,1.65,4.31,2.47,8,2.47h52.23a2,2,0,0,0,2-2v-9.59A2,2,0,0,0,1540.3,694.55Z"/><path class="cls-2" d="M1810.45,623.68h-68.39a2,2,0,0,0-2,2v10.11a2,2,0,0,0,2,2h23.67a2,2,0,0,1,2,2v66.37a2,2,0,0,0,2,2h13.06a2,2,0,0,0,2-2V639.79a2,2,0,0,1,2-2h23.66a2,2,0,0,0,2-2V625.68A2,2,0,0,0,1810.45,623.68Z"/><path class="cls-2" d="M2067,687.2a73,73,0,0,0-7.4-10.05,31.37,31.37,0,0,0-8.7-7.15q10.83-2.36,16.16-8t5.33-15.09a24,24,0,0,0-1.59-8.73,20.72,20.72,0,0,0-4.64-7.23,21.23,21.23,0,0,0-7-4.79,24.7,24.7,0,0,0-7.37-2,83.76,83.76,0,0,0-9.85-.49h-27.83q-5.53,0-8,2.47t-2.48,8v65c0,3.41.75,6,2.25,7.77a7.85,7.85,0,0,0,6.34,2.65,8,8,0,0,0,6.16-2.53c1.58-1.69,2.36-4.32,2.36-7.89V672h6a20.18,20.18,0,0,1,7.54,1.21,16.18,16.18,0,0,1,5.91,4.49,62.82,62.82,0,0,1,6.6,9.57l6.85,11.4c1.62,2.69,2.89,4.73,3.84,6.11a13,13,0,0,0,3.37,3.43,8.29,8.29,0,0,0,4.84,1.35,9.1,9.1,0,0,0,4.26-1,7.47,7.47,0,0,0,2.91-2.59,6,6,0,0,0,1.06-3.31q0-1.62-1.81-5.91A74.42,74.42,0,0,0,2067,687.2Zm-20.6-28.52a43,43,0,0,1-10.37,1.06h-15.33V636.53h15.79q8.82,0,11.81,1.26a10.66,10.66,0,0,1,6.74,10.2,10.48,10.48,0,0,1-2.21,7.06A12.15,12.15,0,0,1,2046.41,658.68Z"/><path class="cls-2" d="M2196.64,630a22.23,22.23,0,0,0-9-4.79q-5.23-1.49-15-1.49h-21.95c-3.77,0-6.51.8-8.24,2.42s-2.59,4.3-2.59,8.06v72.1a2,2,0,0,0,2,2l13.11-.09a2,2,0,0,0,2-2V677.24a2,2,0,0,1,2-2h13.67q15.74,0,23.68-6.65t7.95-19.56a28.68,28.68,0,0,0-2-10.89A21.35,21.35,0,0,0,2196.64,630Zm-11.78,27a11.78,11.78,0,0,1-6.19,4.15,34.29,34.29,0,0,1-10.12,1.27H2159a2,2,0,0,1-2-2V638.53a2,2,0,0,1,2-2h9.52q11.47,0,15.16,3.74a12.79,12.79,0,0,1,3.28,9.1A12.38,12.38,0,0,1,2184.86,656.92Z"/><path class="cls-2" d="M2333.25,687.2a73.1,73.1,0,0,0-7.41-10.05,31.09,31.09,0,0,0-8.7-7.15q10.83-2.36,16.16-8t5.33-15.09a24.19,24.19,0,0,0-1.58-8.73,21,21,0,0,0-4.64-7.23,21.43,21.43,0,0,0-7-4.79,24.86,24.86,0,0,0-7.37-2,83.94,83.94,0,0,0-9.86-.49h-27.83q-5.52,0-8,2.47t-2.47,8v74H2287V672h6a20.24,20.24,0,0,1,7.55,1.21,16.18,16.18,0,0,1,5.91,4.49,63.61,63.61,0,0,1,6.59,9.57l6.86,11.4c1.15,1.92,2.12,3.5,2.93,4.75a7,7,0,0,0,4.39,3.14c2.64.56,6.12.28,9.83-.24a3.62,3.62,0,0,0,3.13-3.58v0c0-1.08-.61-3.05-1.81-5.91A77,77,0,0,0,2333.25,687.2Zm-20.6-28.52a43,43,0,0,1-10.37,1.06H2287V636.53h15.79q8.81,0,11.81,1.26a10.69,10.69,0,0,1,6.74,10.2,10.43,10.43,0,0,1-2.22,7.06A12.16,12.16,0,0,1,2312.65,658.68Z"/><rect class="cls-2" x="2406.84" y="623.61" width="17.11" height="84.55" rx="2"/><path class="cls-2" d="M1936,694.55h-42.6a3,3,0,0,1-3-3v-18a3,3,0,0,1,3-3h37.49a2,2,0,0,0,2-2v-8.91a2,2,0,0,0-2-2h-37.49a3,3,0,0,1-3-3V639.87a3,3,0,0,1,3-3H1936a2,2,0,0,0,2-2v-9.19a2,2,0,0,0-2-2h-52.17a14.47,14.47,0,0,0-6,1.06,6.84,6.84,0,0,0-3.43,3.4,14.28,14.28,0,0,0-1.09,6v63.5c0,3.68.81,6.35,2.45,8s4.31,2.47,8,2.47H1936a2,2,0,0,0,2-2v-9.59A2,2,0,0,0,1936,694.55Z"/><path class="cls-2" d="M2685.66,694.55h-42.6a3,3,0,0,1-3-3v-18a3,3,0,0,1,3-3h37.49a2,2,0,0,0,2-2v-8.91a2,2,0,0,0-2-2h-37.49a3,3,0,0,1-3-3V639.87a3,3,0,0,1,3-3h42.54a2,2,0,0,0,2-2v-9.19a2,2,0,0,0-2-2h-52.17a14.39,14.39,0,0,0-6,1.06,6.81,6.81,0,0,0-3.43,3.4,14.28,14.28,0,0,0-1.09,6v63.5c0,3.68.81,6.35,2.45,8s4.31,2.47,8,2.47h52.23a2,2,0,0,0,2-2v-9.59A2,2,0,0,0,2685.66,694.55Z"/></g></g></svg>