<svg xmlns="http://www.w3.org/2000/svg" width="234.754" height="71.625" viewBox="0 0 234.754 71.625">
  <g id="wefin-final" transform="translate(-66.42 -134.8)">
    <g id="Group_1" data-name="Group 1" transform="translate(66.42 136.366)">
      <path id="Path_1" data-name="Path 1" d="M79.328,218.047,67.076,182.695a11.965,11.965,0,0,1-.656-3.46,6.552,6.552,0,0,1,6.826-6.451c3.553,0,5.895,2.242,6.92,5.52l7.669,25.441L95.69,178.4a7.505,7.505,0,0,1,7.294-5.707h.843a7.5,7.5,0,0,1,7.294,5.707l7.95,25.441,7.856-25.628c.936-2.992,3.085-5.426,6.826-5.426a6.467,6.467,0,0,1,6.639,6.545,12.5,12.5,0,0,1-.468,2.9L127.3,218.047c-1.5,4.4-4.4,6.358-7.856,6.358h-.468c-3.46,0-6.358-1.967-7.669-6.082l-7.95-25.254L95.31,218.322C94,222.438,91.1,224.4,87.642,224.4h-.468c-3.46,0-6.358-1.967-7.856-6.358Z" transform="translate(-66.42 -154.543)" fill="#151515"/>
      <path id="Path_2" data-name="Path 2" d="M236.075,224.343c-15.056,0-26.185-10.567-26.185-25.9v-.187c0-14.307,10.192-26.091,24.785-26.091,16.742,0,24.13,13.751,24.13,24.13a6.483,6.483,0,0,1-6.639,6.826H224.015c1.4,6.451,5.895,9.823,12.252,9.823a16.412,16.412,0,0,0,10.1-3.366,5.307,5.307,0,0,1,3.46-1.124,5.436,5.436,0,0,1,5.52,5.614,5.575,5.575,0,0,1-1.873,4.209,25.972,25.972,0,0,1-17.4,6.077Zm9.167-30.113c-.843-6.358-4.584-10.66-10.567-10.66s-9.729,4.209-10.848,10.66h21.419Z" transform="translate(-135.248 -154.289)" fill="#151515"/>
      <path id="Path_3" data-name="Path 3" d="M314.307,168.771h-.562a5.791,5.791,0,0,1-5.895-5.8,5.866,5.866,0,0,1,5.895-5.895h.562V153.9c0-5.52,1.4-9.542,4.022-12.159s6.451-3.928,11.5-3.928a34.781,34.781,0,0,1,5.8.375,5.782,5.782,0,0,1,4.865,5.707,5.908,5.908,0,0,1-5.8,5.895h-1.217c-3.272,0-5.145,1.686-5.145,5.426v1.961h6.17a5.8,5.8,0,1,1,0,11.6H328.52V200.2a7.107,7.107,0,1,1-14.214,0V168.776Zm33.947-5.614a7.107,7.107,0,0,1,14.214,0v37.038a7.107,7.107,0,1,1-14.214,0V163.157Z" transform="translate(-182.243 -137.81)" fill="#151515"/>
      <path id="Path_4" data-name="Path 4" d="M429.38,179.631a7.107,7.107,0,0,1,14.214,0v.562c3.272-4.209,7.481-8.043,14.682-8.043,10.754,0,17.023,7.107,17.023,18.61v25.9a7.107,7.107,0,0,1-14.214,0V195.245c0-6.732-3.179-10.192-8.605-10.192s-8.886,3.46-8.886,10.192v21.419a7.107,7.107,0,0,1-14.214,0V179.626Z" transform="translate(-240.545 -154.284)" fill="#151515"/>
    </g>
    <circle id="Ellipse_1" data-name="Ellipse 1" cx="8.402" cy="8.402" r="8.402" transform="translate(231.354 134.8)" fill="#f68c1f"/>
  </g>
</svg>
