<svg xmlns="http://www.w3.org/2000/svg" width="23.732" height="26.909" viewBox="0 0 23.732 26.909">
  <path id="get-app-appstore-icon.7574675c" d="M20.659,1a7.182,7.182,0,0,0-4.391,2.055,4.581,4.581,0,0,0-1.4,3.926,6.011,6.011,0,0,0,4.391-1.963A4.924,4.924,0,0,0,20.659,1Zm.092,5.978c-2.434,0-3.452,1.5-5.137,1.5-1.734,0-3.32-1.4-5.419-1.4C7.34,7.074,3,9.719,3,15.95c0,5.668,5.136,11.959,8.036,11.959,1.761.017,2.188-1.107,4.578-1.119s2.908,1.134,4.672,1.119c1.986-.015,3.537-2.2,4.67-3.926a19.44,19.44,0,0,0,1.776-3.269c-4.673-1.184-5.6-8.719,0-10.277A8.513,8.513,0,0,0,20.751,6.978Z" transform="translate(-3 -1)" fill="#018754"/>
</svg>
