<svg xmlns="http://www.w3.org/2000/svg" width="75.008" height="62.055" viewBox="0 0 75.008 62.055">
  <g id="Group_20219" data-name="Group 20219" transform="translate(-2764.725 -43.328)">
    <path id="Path_16785" data-name="Path 16785" d="M2924.5,204.821a1.635,1.635,0,0,1-.132.641,1.639,1.639,0,0,1-.353.525,1.68,1.68,0,0,1-.525.353,1.642,1.642,0,0,1-.308.1,1.85,1.85,0,0,1-.333.032h-40.73a4.721,4.721,0,0,1-3.447-1.451l-.027-.028a5.339,5.339,0,0,1-1.1-1.82h45.308a1.645,1.645,0,0,1,1.519,1.009,1.6,1.6,0,0,1,.1.308A1.658,1.658,0,0,1,2924.5,204.821Z" transform="translate(-84.766 -120.101)" fill="#047c4c"/>
    <path id="Path_16786" data-name="Path 16786" d="M2937.234,43.328h11.843v.852c0,6.667.011,13.335-.024,20a2.18,2.18,0,0,1-.552,1.355c-1.492,1.576-3.044,3.095-4.588,4.621-.555.55-1.017,1.114-.672,1.956a1.631,1.631,0,0,0,1.833.951c.3-.015.609,0,.969,0v8.887h-8.809Zm2.98,20.816v2.9h1.345v-2.9Zm4.466.018v2.9h1.365v-2.9Zm1.375-14.957V46.316h-1.385V49.2Zm-1.4,5.928h1.377V52.264h-1.377Zm-4.46-8.831v2.882h1.377V46.3Zm1.382,8.879V52.286h-1.357V55.18Zm-1.374,3.009v2.894h1.357V58.189Zm4.461.028V61.09h1.37V58.218Z" transform="translate(-129.618 0)" fill="#047c4c"/>
    <path id="Path_16787" data-name="Path 16787" d="M2883.332,115.18h10.307v20.727h-10.307Zm4.327,5.882v-2.9H2886.3v2.9Zm4.466,0v-2.895h-1.357v2.895Zm-5.824,3.027v2.894h1.357v-2.894Zm5.829,2.929v-2.9h-1.365v2.9Zm-5.819,3.047v2.9h1.371v-2.9Zm5.837,2.9v-2.872h-1.37v2.872Z" transform="translate(-89.118 -53.988)" fill="#047c4c"/>
    <path id="Path_16788" data-name="Path 16788" d="M2982.677,126.478l7.986-7.989,7.983,7.989Z" transform="translate(-163.763 -56.474)" fill="#047c4c"/>
    <path id="Path_16789" data-name="Path 16789" d="M2999.848,163.19v8.821h-2.932q0-2.211,0-4.423c0-.5.022-.994-.009-1.488a1.437,1.437,0,0,0-1.482-1.474q-2.976-.048-5.953,0c-.948.017-1.474.635-1.483,1.66-.017,1.886,0,3.772,0,5.714h-2.933V163.19Z" transform="translate(-165.546 -90.061)" fill="#047c4c"/>
    <path id="Path_16790" data-name="Path 16790" d="M3011.922,181.065v4.361h-2.89v-4.361Z" transform="translate(-183.565 -103.492)" fill="#047c4c"/>
    <g id="Group_20087" data-name="Group 20087" transform="translate(2769.013 58.121)">
      <path id="Path_16669" data-name="Path 16669" d="M2782.069,191.595a1.4,1.4,0,0,1,.824-.367,3.83,3.83,0,0,1,1.807.075,1.51,1.51,0,0,1,.443.221.261.261,0,0,1,0,.459,1.541,1.541,0,0,1-.759.3,3.964,3.964,0,0,1-1.808-.078,1.093,1.093,0,0,1-.506-.287A.234.234,0,0,1,2782.069,191.595Z" transform="translate(-2781.999 -169.193)" fill="#047c4c"/>
      <path id="Path_16670" data-name="Path 16670" d="M2782.043,196.813a3.521,3.521,0,0,0,1.862.367,3.386,3.386,0,0,0,1.236-.285l.152-.064a5.435,5.435,0,0,1-.01.694.367.367,0,0,1-.21.225c-.283.112-.576.2-.866.291l-.039.011a.927.927,0,0,1-.223.024h-.558a.929.929,0,0,1-.216-.027l-.034-.007a1.753,1.753,0,0,1-1.094-.484Z" transform="translate(-2782.025 -173.445)" fill="#047c4c"/>
      <path id="Path_16671" data-name="Path 16671" d="M2814.618,132.009a16.658,16.658,0,0,0-2.8-7.415,12.911,12.911,0,0,0-4.1-3.884.436.436,0,0,0-.276-.081,6.13,6.13,0,0,0-.63.222c.276.258.535.491.78.736a.741.741,0,0,1,.2.316.417.417,0,0,1-.235.491.449.449,0,0,1-.559-.1c-.449-.417-.9-.837-1.347-1.254a2.413,2.413,0,0,0-.3-.192V122.2c0,.352-.166.556-.45.563s-.473-.2-.474-.567v-1.343a2.04,2.04,0,0,0-.285.175c-.452.414-.891.844-1.353,1.245a.642.642,0,0,1-.454.154.447.447,0,0,1-.2-.788c.268-.266.545-.518.837-.791a2.08,2.08,0,0,1-.407-.133.545.545,0,0,0-.629.063,13.228,13.228,0,0,0-3.713,3.425.459.459,0,0,1-.623.186.451.451,0,0,1-.062-.04.467.467,0,0,1-.094-.653.459.459,0,0,1,.039-.046c.239-.31.5-.605.731-.919a.618.618,0,0,0,.128-.336c.01-.927.006-1.854.005-2.784,0-.063-.009-.125-.013-.2a6.144,6.144,0,0,1-5.135-.01v.279c0,.927.01,1.857-.006,2.785,0,.253.059.327.32.34a4.365,4.365,0,0,1,2.157.619,1.551,1.551,0,0,1,.808,1.429c-.024,2.172-.008,4.343-.008,6.514v.322c.51,0,.988-.027,1.46.006a4.231,4.231,0,0,1,1.888.566,1.612,1.612,0,0,1,.872,1.527c-.028,1.515-.009,3.032-.009,4.548v.314h.238c2.742,0,5.485.012,8.227-.009a7.383,7.383,0,0,0,1.713-.218,4.639,4.639,0,0,0,3.42-2.823A7.041,7.041,0,0,0,2814.618,132.009Zm-7.361-4.5h-1.016a1.245,1.245,0,0,1,.285.569h.731v.616h-.691a1.478,1.478,0,0,1-.4.915,1.671,1.671,0,0,1-.919.47,1.082,1.082,0,0,1,.415.192,1.468,1.468,0,0,1,.346.393l1.145,1.708h-1.183l-1.155-1.745a1.033,1.033,0,0,0-.327-.35.888.888,0,0,0-.458-.1h-1.108v-.777h1.638a1.247,1.247,0,0,0,.709-.177.764.764,0,0,0,.323-.523h-2.672v-.616h2.639a.7.7,0,0,0-.339-.427,1.355,1.355,0,0,0-.661-.142h-1.639v-.617h4.341Zm6.468,6.155a3.905,3.905,0,0,1-3.334,3.91,9.142,9.142,0,0,1-1.162.143.453.453,0,0,1-.505-.344.409.409,0,0,1,.184-.491.751.751,0,0,1,.336-.086,5.133,5.133,0,0,0,1.924-.45,2.944,2.944,0,0,0,1.624-2.539c.012-.109,0-.222.021-.331a.454.454,0,0,1,.489-.415l.029,0a.436.436,0,0,1,.4.474v0c0,.062,0,.123,0,.121Z" transform="translate(-2790.392 -115.283)" fill="#047c4c"/>
      <path id="Path_16672" data-name="Path 16672" d="M2782.013,145.677a6.078,6.078,0,0,0,5.125,0v.263q0,2.706,0,5.413c0,.182-.055.249-.229.32a5.962,5.962,0,0,0-1.078.559,1.277,1.277,0,0,0-.558,1.14c.015.979,0,1.957,0,2.936v.336a3.409,3.409,0,0,0-3.271-.048Z" transform="translate(-2782 -135.023)" fill="#047c4c"/>
      <path id="Path_16673" data-name="Path 16673" d="M2798.849,181.365a6.008,6.008,0,0,0,5.133,0c.005.112.014.2.014.288,0,1.412-.01,1.084.008,2.5a.732.732,0,0,1-.42.718,4.112,4.112,0,0,1-1.733.46,4.971,4.971,0,0,1-2.442-.378.839.839,0,0,1-.572-.879c.033-1.377.011-1.016.011-2.394Z" transform="translate(-2794.641 -161.838)" fill="#047c4c"/>
      <path id="Path_16674" data-name="Path 16674" d="M2829.036,107.5c.255-.6.507-1.178.752-1.764a2.694,2.694,0,0,0,.135-.436.451.451,0,0,0-.3-.561l-.006,0a.466.466,0,0,0-.57.306c-.252.6-.505,1.2-.767,1.8a3.146,3.146,0,0,1-.248.416c-.245.382-.579.382-.822.005a8.775,8.775,0,0,1-.972-2.072.94.94,0,0,0-.167-.337.42.42,0,0,0-.537-.081.4.4,0,0,0-.226.491,6.753,6.753,0,0,0,.288.868c.19.453.406.894.621,1.363a1.786,1.786,0,0,1-1.193-.416,4.3,4.3,0,0,1-1.438-2.436c-.054-.214-.072-.436-.122-.65a.442.442,0,0,1,.16-.5.491.491,0,0,1,.575-.015,1.99,1.99,0,0,0,1.745.174,2.7,2.7,0,0,0,.782-.46,1.224,1.224,0,0,1,1.73-.009,2.2,2.2,0,0,0,2.578.288.451.451,0,0,1,.722.412,4.606,4.606,0,0,1-1.541,3.175A1.771,1.771,0,0,1,2829.036,107.5Z" transform="translate(-2813.13 -102.826)" fill="#047c4c"/>
      <path id="Path_16675" data-name="Path 16675" d="M2854.249,111.312c.069,0,.139.007.208.014a2.32,2.32,0,0,0,1.567-.318,1.2,1.2,0,0,0-.072-2.168h0a.448.448,0,0,1-.224-.468l.012-.067a.444.444,0,0,1,.648-.309,2.3,2.3,0,0,1,1.042,1.161,2.03,2.03,0,0,1-.553,2.4c.177.051.333.094.491.143a4.549,4.549,0,0,1,1.793.986,1.717,1.717,0,0,1,.236.268.467.467,0,0,1-.709.6,3.788,3.788,0,0,0-2.436-1.133,2.687,2.687,0,0,1-1.363-.591,7.864,7.864,0,0,0-.658-.446Z" transform="translate(-2836.263 -106.67)" fill="#047c4c"/>
      <path id="Path_16676" data-name="Path 16676" d="M2799.731,173.973a1.364,1.364,0,0,1-.4-.169c-.2-.115-.41-.237-.414-.507a.559.559,0,0,1,.4-.509,4.415,4.415,0,0,1,.886-.306,5.866,5.866,0,0,1,3,.119,2.225,2.225,0,0,1,.57.273c.371.251.364.584-.008.841a3.168,3.168,0,0,1-1.393.454l-.126.016a5.118,5.118,0,0,1-1.363-.036Z" transform="translate(-2794.706 -155.059)" fill="#047c4c"/>
      <path id="Path_16677" data-name="Path 16677" d="M2785.867,138.388a6.768,6.768,0,0,1-2.6-.019c-.174-.034-.35-.071-.524-.112a1.53,1.53,0,0,1-.557-.3.413.413,0,0,1,0-.725,1.964,1.964,0,0,1,.6-.318,5.9,5.9,0,0,1,3.587.023,1.82,1.82,0,0,1,.454.226c.385.262.394.608,0,.851a2.679,2.679,0,0,1-.815.34Z" transform="translate(-2781.97 -128.241)" fill="#047c4c"/>
      <path id="Path_16678" data-name="Path 16678" d="M2795.056,110.439a5.886,5.886,0,0,1,1.745.078c.257.049.53.1.8.164a1.435,1.435,0,0,1,.457.218c.412.273.422.635,0,.879a3.257,3.257,0,0,1-.895.35,6.023,6.023,0,0,1-3.027-.074,2.3,2.3,0,0,1-.6-.273c-.416-.268-.428-.642,0-.872a4.624,4.624,0,0,1,1.145-.406A3.207,3.207,0,0,1,2795.056,110.439Z" transform="translate(-2790.424 -108.523)" fill="#047c4c"/>
    </g>
    <g id="Group_20222" data-name="Group 20222" transform="translate(2782.859 44.474)">
      <path id="Path_16791" data-name="Path 16791" d="M2837.663,55.29a7.36,7.36,0,1,1,7.323,7.371A7.367,7.367,0,0,1,2837.663,55.29Zm1.387,0a5.973,5.973,0,1,0,5.984-5.97A5.966,5.966,0,0,0,2839.05,55.292Z" transform="translate(-2837.663 -47.937)" fill="#fa0"/>
      <path id="Path_16792" data-name="Path 16792" d="M2860.61,64.543l.006.006a.468.468,0,0,1,0,.661l-5.6,5.6a.464.464,0,0,1-.654,0l-.009-.008a.468.468,0,0,1,0-.664l5.6-5.6A.468.468,0,0,1,2860.61,64.543Z" transform="translate(-2850.097 -60.31)" fill="#fa0"/>
      <path id="Path_16793" data-name="Path 16793" d="M2870.972,82.824a1.576,1.576,0,0,1,.014-3.153,1.6,1.6,0,0,1,1.573,1.572A1.579,1.579,0,0,1,2870.972,82.824Zm.531-1.575a.536.536,0,0,0-.534-.522.52.52,0,0,0-.507.542.5.5,0,0,0,.511.5A.52.52,0,0,0,2871.5,81.249Z" transform="translate(-2861.515 -71.781)" fill="#fa0"/>
      <path id="Path_16794" data-name="Path 16794" d="M2854.033,65.913a1.574,1.574,0,1,1,1.565-1.565A1.561,1.561,0,0,1,2854.033,65.913Zm-.534-1.577a.529.529,0,0,0,.529.525.508.508,0,0,0,.513-.5.517.517,0,0,0-.5-.544A.535.535,0,0,0,2853.5,64.336Z" transform="translate(-2848.769 -59.077)" fill="#fa0"/>
    </g>
    <g id="Group_16552-2" data-name="Group 16552-2" transform="translate(2764.725 82.556)">
      <path id="Path_7801" data-name="Path 7801" d="M2872.59,210.053a1.162,1.162,0,0,0-.1.234,5.552,5.552,0,0,1-2.845,3.858q-5.786,3.36-11.567,6.735a22.456,22.456,0,0,1-11.554,3.05q-12.66-.012-25.317,0h-.713V205.075a3.273,3.273,0,0,1,2.8-3.686c.081-.011.164-.019.242-.024a19.758,19.758,0,0,1,6.728.057,3.572,3.572,0,0,1,2.415,1.662,6.129,6.129,0,0,0,5.364,2.9c2.084.01,4.166-.015,6.25.01a2.033,2.033,0,1,1-.046,4.048H2833.42a1.943,1.943,0,0,0-.218,3.88h.142c1.01.018,2.019,0,3.031,0,3.522,0,7.044-.066,10.565.018a25.163,25.163,0,0,0,11.51-2.529c4.091-1.931,8.237-3.738,12.352-5.606.121-.052.235-.094.372-.148a5.882,5.882,0,0,1,1.414,2.836Z" transform="translate(-2806.603 -201.104)" fill="#fa0"/>
      <path id="Path_7802" data-name="Path 7802" d="M2774.648,207.892v21.019c-.06.037-.1.077-.132.077-2.639,0-5.279.041-7.917,0a1.879,1.879,0,0,1-1.867-1.89v-.091q-.015-8.562,0-17.124a1.867,1.867,0,0,1,1.749-1.979h.112C2769.256,207.868,2771.914,207.892,2774.648,207.892Z" transform="translate(-2764.725 -206.199)" fill="#fa0"/>
    </g>
    <g id="Group_20223" data-name="Group 20223" transform="translate(2778.947 53.453)" opacity="0.1">
      <path id="Path_16795" data-name="Path 16795" d="M2946.034,84.709v1.022h-1.377v-.659q-1.57.433-3.1.965-1.309.455-2.583.975-.877.358-1.735.746v24.791h8.809v-8.886c-.361,0-.666-.012-.969,0a1.63,1.63,0,0,1-1.833-.952c-.345-.84.117-1.4.671-1.954,1.544-1.527,3.1-3.046,4.587-4.622a2.167,2.167,0,0,0,.552-1.355q.03-5.367.025-10.728Q2947.54,84.336,2946.034,84.709Zm-4.473,12.929h-1.345V94.744h1.345Zm0-5.955H2940.2V88.789h1.357Zm3.1-2.867h1.37v2.872h-1.37Zm1.385,8.844h-1.365v-2.9h1.365Z" transform="translate(-2908.568 -84.053)" fill="#fff"/>
      <path id="Path_16796" data-name="Path 16796" d="M2889.409,115.183a52.088,52.088,0,0,0-6.081,4.7v16.024h10.308V115.183Zm-3.112,2.986h1.36v2.9h-1.36Zm0,5.922h1.357v2.892H2886.3Zm1.38,8.871h-1.373v-2.9h1.373Zm3.085-14.793h1.358v2.894h-1.358Zm0,5.952h1.365v2.9h-1.365Zm1.382,8.841h-1.37v-2.872h1.37Z" transform="translate(-2868.062 -107.443)" fill="#fff"/>
      <path id="Path_16797" data-name="Path 16797" d="M2982.677,126.478l7.986-7.989,7.983,7.989Z" transform="translate(-2942.71 -109.927)" fill="#fff"/>
      <path id="Path_16798" data-name="Path 16798" d="M2999.848,163.19v8.821h-2.932q0-2.211,0-4.423c0-.5.022-.994-.009-1.488a1.437,1.437,0,0,0-1.482-1.474q-2.976-.048-5.953,0c-.948.017-1.474.635-1.483,1.66-.017,1.886,0,3.772,0,5.714h-2.933V163.19Z" transform="translate(-2944.493 -143.514)" fill="#fff"/>
      <path id="Path_16799" data-name="Path 16799" d="M3011.922,181.065v4.361h-2.89v-4.361Z" transform="translate(-2962.512 -156.945)" fill="#fff"/>
      <g id="Group_20087-2" data-name="Group 20087" transform="translate(3.387 15.311)">
        <path id="Path_16671-2" data-name="Path 16671" d="M2846.453,151.717a16.625,16.625,0,0,0-1.979-6.084,52.15,52.15,0,0,0-8.565,12.019c-.122.236-.241.472-.361.711,1.8,0,3.613,0,5.42-.01a7.389,7.389,0,0,0,1.713-.219,4.639,4.639,0,0,0,3.418-2.824A7.042,7.042,0,0,0,2846.453,151.717Zm-.893,1.651a3.909,3.909,0,0,1-3.334,3.911,9.187,9.187,0,0,1-1.164.142.451.451,0,0,1-.5-.343.409.409,0,0,1,.184-.49.758.758,0,0,1,.336-.087,5.137,5.137,0,0,0,1.924-.448,2.941,2.941,0,0,0,1.624-2.541c.012-.107,0-.221.022-.331a.453.453,0,0,1,.487-.415l.03,0a.435.435,0,0,1,.4.472v0C2845.563,153.308,2845.56,153.37,2845.56,153.368Z" transform="translate(-2835.548 -145.633)" fill="#fff"/>
      </g>
      <g id="Group_16552-2-2" data-name="Group 16552-2" transform="translate(0 29.102)">
        <path id="Path_16800" data-name="Path 16800" d="M2873.691,210.053a1.071,1.071,0,0,0-.1.234,5.555,5.555,0,0,1-2.846,3.857q-5.785,3.36-11.569,6.735a22.457,22.457,0,0,1-11.552,3.05q-12.415-.012-24.823,0a42.707,42.707,0,0,1-.874-8.617c0-.356,0-.709.014-1.062a42.539,42.539,0,0,1,1.247-9.259q.283-1.139.63-2.254.207-.667.435-1.324c.047-.008.093-.016.14-.022.081-.01.165-.02.244-.024a19.736,19.736,0,0,1,6.726.057,3.574,3.574,0,0,1,2.415,1.662,6.127,6.127,0,0,0,5.364,2.9c2.083.01,4.166-.014,6.249.01a2.033,2.033,0,1,1,.343,4.052,1.887,1.887,0,0,1-.388,0h-10.825a1.944,1.944,0,0,0-.217,3.881h.142c1.01.018,2.019,0,3.03,0,3.522,0,7.044-.067,10.565.018a25.17,25.17,0,0,0,11.51-2.531c4.09-1.931,8.238-3.737,12.351-5.606.122-.053.235-.093.374-.148a5.889,5.889,0,0,1,1.413,2.835Z" transform="translate(-2821.926 -201.103)" fill="#fff"/>
      </g>
      <path id="Path_16801" data-name="Path 16801" d="M2924.5,204.821a1.635,1.635,0,0,1-.132.641,1.639,1.639,0,0,1-.353.525,1.68,1.68,0,0,1-.525.353,1.642,1.642,0,0,1-.308.1,1.85,1.85,0,0,1-.333.032h-40.73a4.721,4.721,0,0,1-3.447-1.451l-.027-.028a5.339,5.339,0,0,1-1.1-1.82h45.308a1.645,1.645,0,0,1,1.519,1.009,1.6,1.6,0,0,1,.1.308A1.658,1.658,0,0,1,2924.5,204.821Z" transform="translate(-2863.713 -173.554)" fill="#fff"/>
    </g>
    <path id="Path_16802" data-name="Path 16802" d="M2886.958,210.957" transform="translate(-91.842 -125.952)" fill="#fff"/>
    <path id="Path_16803" data-name="Path 16803" d="M2887.851,206.83" transform="translate(-92.514 -122.851)" fill="#fff"/>
  </g>
</svg>
