<svg xmlns="http://www.w3.org/2000/svg" xmlns:xlink="http://www.w3.org/1999/xlink" width="82.091" height="82.091" viewBox="0 0 82.091 82.091">
  <defs>
    <clipPath id="clip-path">
      <path id="Path_38302" data-name="Path 38302" d="M82.091,41.047A41.045,41.045,0,1,1,41.045,0,41.045,41.045,0,0,1,82.091,41.047" transform="translate(0 -0.002)" fill="#a1952e"/>
    </clipPath>
  </defs>
  <g id="Group_44925" data-name="Group 44925" transform="translate(13168 12161.998)">
    <path id="Path_38301" data-name="Path 38301" d="M82.091,41.047A41.045,41.045,0,1,1,41.045,0,41.045,41.045,0,0,1,82.091,41.047" transform="translate(-13168 -12162)" fill="#dca736"/>
    <g id="Mask_Group_20345" data-name="Mask Group 20345" transform="translate(-13168 -12161.998)" clip-path="url(#clip-path)">
      <g id="Group_44924" data-name="Group 44924" transform="translate(21.448 21.055)">
        <g id="BAG" transform="translate(3.39 0)">
          <g id="Group_44910" data-name="Group 44910" transform="translate(4.668 0.825)" opacity="0.25">
            <path id="Path_38241" data-name="Path 38241" d="M217.682,120.943s.36-1.2,1.275-1.2,1.479.635,2.388.6,1.99-1.227,3.07-1.057,2.275.814,2.1,1.658S219.876,123.255,217.682,120.943Z" transform="translate(-211.732 -119.268)" fill="#081228"/>
            <path id="Path_38243" data-name="Path 38243" d="M231.706,229.259v-1.506h-9.582v1.506h2.285a2.433,2.433,0,0,1,2.3,1.674h-4.588v1.506h4.709v.248a2.431,2.431,0,0,1-2.423,2.424h-1.5l0,0,0,0h-.784v1.383l.057.013,4.007,4.008,1.371,1.37h2.125l0,0-5.266-5.266h.266a3.682,3.682,0,0,0,3.67-3.671v-.507h3.349v-1.506h-3.384a3.649,3.649,0,0,0-.678-1.674h4.061Z" transform="translate(-215.536 -212.165)" fill="#081228" fill-rule="evenodd"/>
            <path id="Path_38246" data-name="Path 38246" d="M231.246,158.976l-.042,0a38.34,38.34,0,0,1-6.363-1.335.341.341,0,0,1,.21-.649,37.567,37.567,0,0,0,6.237,1.307.341.341,0,0,1-.041.68Z" transform="translate(-217.66 -151.555)" fill="#081228"/>
            <path id="Path_38247" data-name="Path 38247" d="M224.946,160.7a.341.341,0,0,1-.046-.679,41.15,41.15,0,0,0,6.242-1.287.341.341,0,0,1,.209.65,40.974,40.974,0,0,1-6.357,1.313A.333.333,0,0,1,224.946,160.7Z" transform="translate(-217.661 -153.053)" fill="#081228"/>
            <path id="Path_38248" data-name="Path 38248" d="M176.618,176.328a.341.341,0,0,1-.341-.33c-.119-3.637,3.532-8.228,5.714-10.971a39.037,39.037,0,0,0,3.817-6.113.341.341,0,0,1,.613.3,39.832,39.832,0,0,1-3.9,6.238c-1.984,2.494-5.676,7.137-5.566,10.524a.341.341,0,0,1-.33.352Z" transform="translate(-176.274 -153.054)" fill="#081228"/>
            <path id="Path_38249" data-name="Path 38249" d="M226.862,160.543a7.963,7.963,0,0,0,1.765.513,13.732,13.732,0,0,0,3.113,0,5.686,5.686,0,0,0,1.3-.208c0-.2.022-.415.022-.415a12.03,12.03,0,0,1-2.577.454c-.388-.123-3.736-.741-3.736-.741Z" transform="translate(-219.498 -154.272)" fill="#081228" opacity="0.3"/>
            <path id="Path_38250" data-name="Path 38250" d="M225.692,168.093s.15.157,1.771-.192a13.63,13.63,0,0,1,2.117-.356s2.22.343,2.75.356a1.142,1.142,0,0,1-.089-.413,19.858,19.858,0,0,0-2.9-.362l-3.511.6Z" transform="translate(-218.591 -160.249)" fill="#081228" opacity="0.3"/>
            <path id="Path_38251" data-name="Path 38251" d="M186.084,166.862a19.166,19.166,0,0,1-3.479,5.447c-2.585,2.964-4.9,6.738-5.16,8.4s-.043,1.962-.6,2.26-.549-.99-.46-1.514a30.308,30.308,0,0,1,4.426-7.954,76.636,76.636,0,0,0,5.071-7.139C186.349,165.886,186.084,166.862,186.084,166.862Z" transform="translate(-176.333 -159.484)" fill="#081228" opacity="0.3"/>
            <path id="Path_38252" data-name="Path 38252" d="M243.349,162.141l.164.021s-.513.907-.62,1.089l-.139.025S243.186,162.428,243.349,162.141Z" transform="translate(-233.202 -155.981)" fill="#081228"/>
            <path id="Path_38253" data-name="Path 38253" d="M244.257,166.478l1.12.231-.256.053-.982-.142Z" transform="translate(-234.388 -159.695)" fill="#081228"/>
            <path id="Path_38254" data-name="Path 38254" d="M235.4,169.123l.181-.326-.41.363Z" transform="translate(-226.706 -161.68)" fill="#081228"/>
            <path id="Path_38255" data-name="Path 38255" d="M252.751,162.955l1.711.3.094-.024-1.6-.319Z" transform="translate(-241.763 -156.64)" fill="#081228"/>
          </g>
          <g id="Group_44912" data-name="Group 44912" transform="translate(0)">
            <g id="Group_44911" data-name="Group 44911">
              <path id="Path_38256" data-name="Path 38256" d="M217.682,116.943s.36-1.2,1.275-1.2,1.479.635,2.388.6,1.99-1.227,3.07-1.057,2.275.814,2.1,1.658S219.876,119.255,217.682,116.943Z" transform="translate(-207.065 -115.018)" fill="#20203d"/>
              <path id="Path_38257" data-name="Path 38257" d="M173.973,136.426c-.856-8.984-9.036-11.941-10.941-13.761a3.322,3.322,0,0,1-.72-3.828c.774-1.382,2.581-1.688,2.637-2.882s-2.1-1.649-2.957-.625-1.877-.284-2.331-1.365-1.535.057-1.877,1.08-1.023,1.479-1.592.91-.91-.8-2.388-.341-1.137,1.99-.4,2.076a2.31,2.31,0,0,1,2.264,1.566h0a3.232,3.232,0,0,1-.871,3.408c-1.9,1.82-10.085,4.777-10.941,13.761-.774,8.124,4.924,11.863,13.626,12.318v.036q.727.018,1.431.01.7.008,1.431-.01v-.036C169.049,148.289,174.747,144.55,173.973,136.426Z" transform="translate(-143.789 -113.528)" fill="#fff"/>
              <path id="Path_38258" data-name="Path 38258" d="M231.706,225.259v-1.506h-9.582v1.506h2.285a2.433,2.433,0,0,1,2.3,1.674h-4.588v1.506h4.709v.248a2.431,2.431,0,0,1-2.423,2.424h-1.5l0,0,0,0h-.784v1.383l.057.013,4.007,4.008,1.371,1.37h2.125l0,0-5.266-5.266h.266a3.682,3.682,0,0,0,3.67-3.671v-.507h3.349v-1.506h-3.384a3.649,3.649,0,0,0-.678-1.674h4.061Z" transform="translate(-210.868 -207.915)" fill="#111" fill-rule="evenodd"/>
              <path id="Path_38259" data-name="Path 38259" d="M178.646,240.65a14.307,14.307,0,0,0-.56-2.847h0s-1.413-3.278-5.933-2.419-8.577,7.875-13.074,8.547-8.6-1.49-9.833,2.335c1.794,4.277,6.548,6.369,12.912,6.7V253q.727.018,1.431.01.7.008,1.431-.01v-.036C173.722,252.513,179.42,248.774,178.646,240.65Z" transform="translate(-148.462 -217.752)" opacity="0.3"/>
              <path id="Path_38260" data-name="Path 38260" d="M217.562,130.916a4.054,4.054,0,0,1,.24-.776c.774-1.382,2.581-1.688,2.637-2.882a.9.9,0,0,0-.141-.531h0a2.015,2.015,0,0,1-1.549,1.27,4.074,4.074,0,0,0-2.913,1.82c-.459.967-1.539.4-1.71,0s-1.448-1.023-1.719-.512-1.673-.171-2.479-.455a1.725,1.725,0,0,0-1.34.01h0a.6.6,0,0,0,.307.133,2.31,2.31,0,0,1,2.264,1.566c.034.114.065.24.092.375l2.626.676Z" transform="translate(-199.278 -124.83)" fill="#dca736" opacity="0.3"/>
              <g id="TIE" transform="translate(4.668 5.668)">
                <path id="Path_38261" data-name="Path 38261" d="M231.246,154.976l-.042,0a38.342,38.342,0,0,1-6.363-1.335.341.341,0,0,1,.21-.649,37.567,37.567,0,0,0,6.237,1.307.341.341,0,0,1-.041.68Z" transform="translate(-217.66 -152.973)" fill="#20203d"/>
                <path id="Path_38262" data-name="Path 38262" d="M224.946,156.7a.341.341,0,0,1-.046-.679,41.149,41.149,0,0,0,6.242-1.287.341.341,0,0,1,.209.65,40.974,40.974,0,0,1-6.357,1.313A.333.333,0,0,1,224.946,156.7Z" transform="translate(-217.661 -154.471)" fill="#20203d"/>
                <path id="Path_38263" data-name="Path 38263" d="M176.618,172.328a.341.341,0,0,1-.341-.33c-.119-3.637,3.532-8.228,5.714-10.971a39.039,39.039,0,0,0,3.817-6.113.341.341,0,0,1,.613.3,39.833,39.833,0,0,1-3.9,6.238c-1.984,2.494-5.676,7.137-5.566,10.524a.341.341,0,0,1-.33.352Z" transform="translate(-176.274 -154.472)" fill="#20203d"/>
              </g>
            </g>
          </g>
        </g>
        <g id="ARM_HAND" data-name="ARM/HAND" transform="translate(0 10.131)">
          <g id="Group_44913" data-name="Group 44913" transform="translate(1.839 20.752)" opacity="0.25">
            <path id="Path_38272" data-name="Path 38272" d="M368.308,371.909c.954-.349,1.3,1.167.5,1.359C367.934,373.476,367.364,372.255,368.308,371.909Z" transform="translate(-334.08 -365.622)" fill="#081228"/>
            <path id="Path_38273" data-name="Path 38273" d="M385.048,367.568c.953-.349,1.3,1.167.5,1.359C384.674,369.134,384.1,367.913,385.048,367.568Z" transform="translate(-348.414 -361.905)" fill="#081228"/>
            <path id="Path_38275" data-name="Path 38275" d="M133.461,328.632a16.005,16.005,0,0,0,1.836,1.217,34.928,34.928,0,0,1,3.719,2.43c.546.5,2.43.942,3.868,1.885a13.1,13.1,0,0,0,2.827,1.389,5.584,5.584,0,0,1-2.232-.546,35.194,35.194,0,0,0-3.174-1.648,25.326,25.326,0,0,1-3.472-2.17,29.906,29.906,0,0,1-3.839-2.722Z" transform="translate(-132.995 -328.466)" fill="#081228"/>
            <path id="Path_38276" data-name="Path 38276" d="M210.1,337.961a6.171,6.171,0,0,1,2.827,0,2.841,2.841,0,0,0-1.721-.441s-.394.1-.521.143A3.766,3.766,0,0,0,210.1,337.961Z" transform="translate(-199.025 -336.214)" fill="#081228"/>
            <path id="Path_38277" data-name="Path 38277" d="M203.177,347.328s.376.879,2.732,1.648h-.794a7.873,7.873,0,0,0,2.637.992,19.665,19.665,0,0,1,2.917.347,7.4,7.4,0,0,0,2.653.372c-.173.248-1.785,0-2.777-.124a16.129,16.129,0,0,1-4.538-.769,8.815,8.815,0,0,1-2.827-2.051A.4.4,0,0,1,203.177,347.328Z" transform="translate(-193.044 -344.618)" fill="#081228"/>
            <path id="Path_38278" data-name="Path 38278" d="M280.278,376.575s-.112,1.079-1.748,1.265C279.274,378.249,280.948,377.914,280.278,376.575Z" transform="translate(-257.619 -369.662)" fill="#081228"/>
            <path id="Path_38281" data-name="Path 38281" d="M343.2,371.337c.953-.349,1.3,1.167.5,1.359C342.824,372.9,342.254,371.683,343.2,371.337Z" transform="translate(-312.577 -365.133)" fill="#081228"/>
          </g>
          <g id="Group_44918" data-name="Group 44918">
            <g id="Group_44917" data-name="Group 44917">
              <path id="Path_38284" data-name="Path 38284" d="M368.283,195.163c-3.783,2.349-19.06,11.9-29.53,15.552-2.464.859-4.567,1.507-4.567,1.507s3.712,11.121,3.969,11.862a125.575,125.575,0,0,0,22.9-8.13Z" transform="translate(-303.439 -195.163)" fill="#111"/>
              <g id="Group_44914" data-name="Group 44914" transform="translate(35.58 26.292)">
                <path id="Path_38285" data-name="Path 38285" d="M368.308,367.074c.954-.349,1.3,1.167.5,1.359C367.934,368.641,367.364,367.42,368.308,367.074Z" transform="translate(-367.821 -367.022)" fill="#fff"/>
              </g>
              <g id="Group_44915" data-name="Group 44915" transform="translate(37.985 25.669)">
                <path id="Path_38286" data-name="Path 38286" d="M385.048,362.733c.953-.349,1.3,1.167.5,1.359C384.674,364.3,384.1,363.079,385.048,362.733Z" transform="translate(-384.56 -362.681)" fill="#fff"/>
              </g>
              <path id="Path_38287" data-name="Path 38287" d="M151.762,320.241a8.115,8.115,0,0,0-5.087-.679c-3.1.5-4.94,1.077-7.581.679-2.209-.332-4.639-.793-5.978.132s-.942,1.378-.942,1.378a23.784,23.784,0,0,1-2.48-1.156,10.612,10.612,0,0,0-3.819-2.448c-2.033-.57-3.82-.547-3.373.643a4.177,4.177,0,0,0-1.884-.419c-.793.05-.694,1.8,2.331,3.379a65.28,65.28,0,0,1,5.7,3.365c1.19.744,4.315,2.976,6.2,3.224a46.351,46.351,0,0,0,12.894-1.209,45.068,45.068,0,0,0,5.547-2.013l-1.43-4.664" transform="translate(-120.197 -298.567)" fill="#fab29a"/>
              <path id="Path_38288" data-name="Path 38288" d="M133.461,323.8a16,16,0,0,0,1.836,1.217,34.9,34.9,0,0,1,3.719,2.43c.546.5,2.43.942,3.868,1.884a13.1,13.1,0,0,0,2.827,1.389,5.585,5.585,0,0,1-2.232-.546,35.187,35.187,0,0,0-3.174-1.648,25.329,25.329,0,0,1-3.472-2.17,29.906,29.906,0,0,1-3.839-2.722Z" transform="translate(-131.156 -303.573)" fill="#e08972"/>
              <path id="Path_38289" data-name="Path 38289" d="M210.1,333.126a6.171,6.171,0,0,1,2.827,0,2.841,2.841,0,0,0-1.721-.441s-.394.1-.521.143A3.765,3.765,0,0,0,210.1,333.126Z" transform="translate(-197.186 -311.321)" fill="#e08972"/>
              <path id="Path_38290" data-name="Path 38290" d="M203.177,342.493s.376.879,2.732,1.648h-.794a7.873,7.873,0,0,0,2.637.992,19.674,19.674,0,0,1,2.917.347,7.4,7.4,0,0,0,2.653.372c-.173.248-1.785,0-2.777-.124a16.129,16.129,0,0,1-4.538-.769,8.815,8.815,0,0,1-2.827-2.051A.4.4,0,0,1,203.177,342.493Z" transform="translate(-191.205 -319.725)" fill="#e08972"/>
              <path id="Path_38291" data-name="Path 38291" d="M280.278,371.74s-.112,1.079-1.748,1.265C279.274,373.414,280.948,373.079,280.278,371.74Z" transform="translate(-255.78 -344.77)" fill="#cc8a83"/>
              <path id="Path_38292" data-name="Path 38292" d="M147.745,330.585a45.072,45.072,0,0,0,5.547-2.013l-.759-2.475a11.268,11.268,0,0,0-4.3.874c-1.376.83-3.245,2.632-4.821,3.2s-8.067-.555-10.436-1.583c0,0-2.01-.92-2.942-1.321a40.2,40.2,0,0,1-3.764-2.212c-.773-.491-3.647-2.72-3.647-2.72s-.067-.043-.181-.113a3.973,3.973,0,0,0-1.821-.4c-.793.05-.694,1.8,2.331,3.379a65.288,65.288,0,0,1,5.7,3.365c1.19.744,4.315,2.976,6.2,3.224A46.349,46.349,0,0,0,147.745,330.585Z" transform="translate(-120.197 -302.021)" fill="#e08972"/>
              <g id="Group_44916" data-name="Group 44916" transform="translate(28.606 17.944)">
                <path id="Path_38293" data-name="Path 38293" d="M321.719,308.92l-2.437.668,3.039,10.071,2.822-.508Z" transform="translate(-319.282 -308.92)" fill="#fff"/>
              </g>
              <path id="Path_38294" data-name="Path 38294" d="M343.2,366.5c.953-.349,1.3,1.167.5,1.359C342.824,368.068,342.254,366.848,343.2,366.5Z" transform="translate(-310.738 -340.24)" fill="#111"/>
              <path id="Path_38295" data-name="Path 38295" d="M380.814,262.863s-16.9,13.791-27.267,14.793l1.187,3.547s15.451-4.133,24.729-9.056l.8-4.244Z" transform="translate(-320.018 -252.283)"/>
              <path id="Path_38296" data-name="Path 38296" d="M334.482,308.92l-.3.081s1.59,7.963.584,9.619l.313,1.039,2.822-.5Z" transform="translate(-303.439 -290.976)" fill="#111" opacity="0.2"/>
            </g>
          </g>
        </g>
        <g id="SPARKLE" transform="translate(8.809 4.845)">
          <g id="Group_44923" data-name="Group 44923" transform="translate(0 0)">
            <g id="Group_44922" data-name="Group 44922">
              <g id="Group_44920" data-name="Group 44920" transform="translate(0.776)">
                <path id="Path_38299" data-name="Path 38299" d="M188.74,150.758c-.029.073-.078.074-.109,0l-.449-1.058a.407.407,0,0,0-.189-.187l-1.032-.427c-.073-.03-.074-.083,0-.117l1.024-.485a.461.461,0,0,0,.19-.192l.455-.99c.033-.072.085-.071.115,0l.433,1.044a.4.4,0,0,0,.188.188l1.051.439c.073.03.072.079,0,.107l-1.062.411a.375.375,0,0,0-.187.186Z" transform="translate(-186.905 -147.25)" fill="#fff" fill-rule="evenodd"/>
              </g>
              <g id="Group_44921" data-name="Group 44921" transform="translate(0 3.283)">
                <path id="Path_38300" data-name="Path 38300" d="M182.691,172.367c-.019.048-.05.048-.07,0l-.29-.683a.263.263,0,0,0-.122-.121l-.667-.276c-.047-.02-.048-.053,0-.075l.662-.313a.3.3,0,0,0,.123-.124l.294-.64c.021-.046.055-.046.074,0l.279.675a.259.259,0,0,0,.121.122l.679.284c.047.02.047.051,0,.069l-.686.265a.243.243,0,0,0-.121.12Z" transform="translate(-181.506 -170.1)" fill="#fff" fill-rule="evenodd"/>
              </g>
            </g>
          </g>
        </g>
      </g>
    </g>
  </g>
</svg>
