<svg xmlns="http://www.w3.org/2000/svg" width="14.751" height="14.733" viewBox="0 0 14.751 14.733">
  <g id="Group_16987" data-name="Group 16987" transform="translate(0)">
    <path id="Path_8261" data-name="Path 8261" d="M1543.617,115.672a7.313,7.313,0,0,1,.181-.838,4.1,4.1,0,0,1,3.434-2.925,3.536,3.536,0,0,1,.5-.033.451.451,0,0,1,.493.388c.212.973.419,1.947.629,2.921q.041.19.083.379a.514.514,0,0,1-.154.51c-.376.37-.747.745-1.12,1.118-.024.024-.046.048-.067.071a12.142,12.142,0,0,0,5.371,5.369c.383-.384.773-.766,1.153-1.159a.58.58,0,0,1,.6-.173c1.052.232,2.106.454,3.16.678.361.077.479.226.472.6a4.163,4.163,0,0,1-3.46,3.971c-.112.018-.224.039-.336.059h-.691c-.027-.008-.053-.019-.08-.025a8.666,8.666,0,0,1-1.015-.245,14.789,14.789,0,0,1-6.385-4.523,14.45,14.45,0,0,1-2.546-4.5,8.487,8.487,0,0,1-.219-.977Zm13.789,7.146c-.886-.189-1.752-.372-2.616-.562a.2.2,0,0,0-.213.061c-.383.39-.771.775-1.158,1.161a.473.473,0,0,1-.625.1,12.985,12.985,0,0,1-6.145-6.138.479.479,0,0,1,.107-.648c.383-.384.764-.768,1.151-1.148a.2.2,0,0,0,.062-.213c-.108-.476-.207-.954-.309-1.432-.084-.392-.168-.784-.254-1.181-.055,0-.1,0-.139.01a3.212,3.212,0,0,0-2.52,4.3,13.8,13.8,0,0,0,8.343,8.346,3.193,3.193,0,0,0,3.876-1.353A3.09,3.09,0,0,0,1557.406,122.817Z" transform="translate(-1543.617 -111.873)" fill="#028855"/>
    <path id="Path_8262" data-name="Path 8262" d="M1731.111,119c0,.067,0,.134,0,.2a.463.463,0,0,1-.459.457.457.457,0,0,1-.459-.457,6.02,6.02,0,0,0-.277-1.855,6.351,6.351,0,0,0-4.989-4.477,8.087,8.087,0,0,0-1.142-.114.478.478,0,0,1-.5-.464.466.466,0,0,1,.514-.46,7.363,7.363,0,0,1,7.2,6.1c.059.354.088.713.13,1.069Z" transform="translate(-1716.378 -111.832)" fill="#028855"/>
    <path id="Path_8263" data-name="Path 8263" d="M1723.886,159.68a5.536,5.536,0,0,1,5.222,4.27,8.722,8.722,0,0,1,.146,1.2.455.455,0,0,1-.448.522.468.468,0,0,1-.469-.507,4.589,4.589,0,0,0-3.509-4.419,8.122,8.122,0,0,0-1.109-.137.476.476,0,0,1-.444-.431.458.458,0,0,1,.368-.481A1.693,1.693,0,0,1,1723.886,159.68Z" transform="translate(-1716.368 -157.841)" fill="#028855"/>
    <path id="Path_8264" data-name="Path 8264" d="M1723.826,207.666a3.7,3.7,0,0,1,3.543,3.051,4.761,4.761,0,0,1,.055.586.459.459,0,0,1-.453.505.466.466,0,0,1-.466-.5,2.76,2.76,0,0,0-2.131-2.652,3.172,3.172,0,0,0-.569-.072c-.318-.016-.526-.195-.522-.471a.47.47,0,0,1,.535-.452Z" transform="translate(-1716.376 -203.982)" fill="#028855"/>
  </g>
</svg>
