<svg xmlns="http://www.w3.org/2000/svg" width="67.445" height="67.48" viewBox="0 0 67.445 67.48">
  <g id="Group_20074" data-name="Group 20074" transform="translate(-1057.698 -564.631)">
    <g id="Group_16549" data-name="Group 16549" transform="translate(1057.698 564.631)">
      <path id="Path_7789" data-name="Path 7789" d="M1121.878,625.415h-60.884a4.206,4.206,0,0,1-2.766-2.1,12.447,12.447,0,0,1-.529-1.586V587.6a.965.965,0,0,0,.083-.178,3.982,3.982,0,0,1,4.4-3.466h58.5a6.043,6.043,0,0,1,1.563.167,3.941,3.941,0,0,1,2.889,4.133q.006,9.747,0,19.5v13.436a3.957,3.957,0,0,1-1.776,3.543A10.391,10.391,0,0,1,1121.878,625.415Zm-50.769-21.322c1.212,0,2.415.015,3.622,0a3.165,3.165,0,0,0,3.307-3.014v-.051c.092-2.059.092-4.128,0-6.187a3.133,3.133,0,0,0-3.22-3.048h-.035q-3.654-.038-7.31,0a3.241,3.241,0,0,0-3.309,3.173c0,.061,0,.121,0,.182q-.02,2.8,0,5.6a3.258,3.258,0,0,0,3.172,3.344h.149c1.2.016,2.411,0,3.619,0Zm-7.191,12.717h9.7v-3.85h-9.7Zm15.147-3.874V616.8h9.68v-3.865Zm15.071,0v3.877h9.673v-3.877Zm24.823.013h-9.7V616.8h9.7Z" transform="translate(-1057.698 -557.939)" fill="#047c4c"/>
      <path id="Path_7790" data-name="Path 7790" d="M1106.051,574.231c-.7.751-1.359,1.456-2.02,2.155q-4.678,4.959-9.37,9.907a1.383,1.383,0,0,1-.893.4q-10.97.032-21.941.015c-.167,0-.333-.027-.6-.048.2-.225.339-.386.486-.539q10.015-10.017,20.033-20.03a3.969,3.969,0,0,1,5.585-.572,3.876,3.876,0,0,1,.549.544C1100.588,568.763,1103.286,571.465,1106.051,574.231Z" transform="translate(-1053.008 -564.631)" fill="#fa0"/>
      <path id="Path_7791" data-name="Path 7791" d="M1101.456,573.877l3.116,3.1a4.417,4.417,0,0,1-.277.353q-2.731,2.9-5.472,5.791a1.021,1.021,0,0,1-.582.359c-1.885.027-3.771.016-5.853.016Z" transform="translate(-1045.672 -561.426)" fill="#fa0"/>
      <path id="Path_7792" data-name="Path 7792" d="M1108.1,582.077h-6.978l-.08-.249,3.294-3.5Z" transform="translate(-1042.673 -559.883)" fill="#fa0"/>
      <path id="Path_7793" data-name="Path 7793" d="M1065.453,597.061v-4.332h5.943v4.332Z" transform="translate(-1055.01 -554.89)" fill="#047c4c"/>
    </g>
    <g id="Group_16549-2" data-name="Group 16549" transform="translate(1074.574 577.082)">
      <path id="Path_7789-2" data-name="Path 7789" d="M1117.9,584.126a6.213,6.213,0,0,0-1.575-.175h-29.681c-.2.189-.391.391-.579.593-.7.741-1.374,1.495-2.033,2.276-.5.593-1,1.185-1.468,1.8-.62.795-1.226,1.616-1.8,2.451-.377.539-.754,1.091-1.1,1.643a58.593,58.593,0,0,0-5.387,10.41c-.013.04-.027.067-.041.108a58.069,58.069,0,0,0-3.622,14.611q-.2,1.7-.283,3.434c-.067,1.064-.094,2.155-.094,3.232,0,.3,0,.606.013.9h47.3a10.353,10.353,0,0,0,1.468-.687,3.965,3.965,0,0,0,1.778-3.542V588.26A3.932,3.932,0,0,0,1117.9,584.126ZM1084.4,616.8h-9.682v-3.865h9.682Zm15.069.013H1089.8v-3.878h9.669Zm15.15-.013h-9.7v-3.852h9.7Z" transform="translate(-1070.23 -570.385)" fill="rgba(255,255,255,0.07)"/>
      <path id="Path_16639" data-name="Path 16639" d="M1096.021,575.76c-2.1,2.235-4.215,4.458-6.316,6.679a1.468,1.468,0,0,1-.889.4h-3.286l.242-.2c.013-.013.04-.027.054-.04.054-.041.094-.081.148-.121.848-.714,1.737-1.414,2.639-2.074.808-.593,1.63-1.172,2.465-1.71,1.2-.808,2.437-1.562,3.7-2.276.364-.2.727-.4,1.091-.579C1095.926,575.814,1095.967,575.787,1096.021,575.76Z" transform="translate(-1064.926 -573.224)" fill="rgba(255,255,255,0.07)"/>
      <path id="Path_7791-2" data-name="Path 7791" d="M1101.456,573.877l3.116,3.1a4.417,4.417,0,0,1-.277.353q-2.731,2.9-5.472,5.791a1.021,1.021,0,0,1-.582.359c-1.885.027-3.771.016-5.853.016Z" transform="translate(-1062.548 -573.877)" fill="rgba(255,255,255,0.07)"/>
      <path id="Path_7792-2" data-name="Path 7792" d="M1108.1,582.077h-6.978l-.08-.249,3.294-3.5Z" transform="translate(-1059.549 -572.334)" fill="rgba(255,255,255,0.07)"/>
    </g>
  </g>
</svg>
