<svg version="1.1" id="Layer_1" xmlns="http://www.w3.org/2000/svg" x="0" y="0" viewBox="0 0 45 45" style="enable-background:new 0 0 45 45" xml:space="preserve"><style type="text/css">.st0{fill:#2e0080}.st1{fill:#ff5800}</style><path class="st0" d="M44.5 18.7c-.2-.1-.4-.2-.6-.1-2.8.6-5.6-1.2-6.2-4 0-.2-.1-.4-.1-.5 0-.4-.4-.7-.8-.7-.1 0-.2 0-.3.1-2.5 1.5-5.7.7-7.2-1.8-.7-1.2-.9-2.7-.5-4.1.1-.4-.1-.8-.5-.9H28c-2.8.5-5.5-1.4-6-4.3-.1-.5-.1-1 0-1.5 0-.2 0-.4-.2-.6-.3-.2-.5-.3-.7-.3C8.7.8-.7 11.6.2 24s11.6 21.8 23.9 20.9c11.8-.8 21-10.6 21-22.5 0-1.1-.1-2.2-.2-3.2-.1-.2-.2-.4-.4-.5zm-22 24.8c-11.6 0-21-9.5-20.9-21.1 0-10.7 8.1-19.6 18.7-20.8.1 3.7 3.1 6.6 6.8 6.6V9c0 3.7 3 6.7 6.7 6.8.9 0 1.7-.2 2.5-.5.9 3.2 3.9 5.2 7.1 5 1.3 11.5-7 21.9-18.6 23.1-.8 0-1.5.1-2.3.1z"/><path class="st1" d="M20.2 15.7c-2.1 0-3.8 1.7-3.8 3.8s1.7 3.8 3.8 3.8 3.8-1.7 3.8-3.8c0-2.1-1.7-3.8-3.8-3.8zm0 6c-1.2 0-2.2-1-2.2-2.2s1-2.2 2.2-2.2 2.2 1 2.2 2.2-.9 2.2-2.2 2.2zM15 30.7c-2.1 0-3.8 1.7-3.8 3.8s1.7 3.8 3.8 3.8 3.8-1.7 3.8-3.8-1.7-3.8-3.8-3.8zm0 6c-1.2 0-2.2-1-2.2-2.2s1-2.2 2.2-2.2 2.2 1 2.2 2.2-1 2.2-2.2 2.2zM31.5 30.7c-2.1 0-3.8 1.7-3.8 3.8s1.7 3.8 3.8 3.8 3.8-1.7 3.8-3.8-1.7-3.8-3.8-3.8zm0 6c-1.2 0-2.2-1-2.2-2.2s1-2.2 2.2-2.2 2.2 1 2.2 2.2-1 2.2-2.2 2.2z"/><circle class="st0" cx="8.2" cy="22.5" r="1.5"/><circle class="st0" cx="26.2" cy="30" r="1.5"/><circle class="st0" cx="34.5" cy="21" r="1.5"/><path class="st1" d="m14.6 7.1-.7-1.3c-.8.4-1.6.9-2.4 1.4l.9 1.2c.7-.5 1.4-.9 2.2-1.3z"/><path class="st0" d="m4.6 17 1.4.4c.9-3 2.6-5.7 5-7.8l-1-1.1c-2.5 2.3-4.4 5.2-5.4 8.5z"/></svg>