<svg xmlns="http://www.w3.org/2000/svg" xmlns:xlink="http://www.w3.org/1999/xlink" width="432.727" height="432.729" viewBox="0 0 432.727 432.729">
  <defs>
    <clipPath id="clip-path">
      <path id="Path_23841" data-name="Path 23841" d="M1518.64,216.366c0,119.494-96.869,216.364-216.364,216.364s-216.363-96.87-216.363-216.364S1182.782,0,1302.276,0s216.364,96.87,216.364,216.364" transform="translate(-15601 -13074)" fill="#39b1b9"/>
    </clipPath>
    <clipPath id="clip-path-2">
      <circle id="Ellipse_573" data-name="Ellipse 573" cx="216.364" cy="216.364" r="216.364" transform="translate(996.292 216.367) rotate(-45)" fill="none"/>
    </clipPath>
    <clipPath id="clip-path-3">
      <rect id="Rectangle_23099" data-name="Rectangle 23099" width="73.1" height="60.07" transform="translate(1208.88 279.14)" fill="none"/>
    </clipPath>
  </defs>
  <g id="Mask_Group_20314" data-name="Mask Group 20314" transform="translate(14515.087 13073.998)" clip-path="url(#clip-path)">
    <g id="Group_22659" data-name="Group 22659">
      <path id="Path_23840" data-name="Path 23840" d="M1518.64,216.366c0,119.494-96.869,216.364-216.364,216.364s-216.363-96.87-216.363-216.364S1182.782,0,1302.276,0s216.364,96.87,216.364,216.364" transform="translate(-15601 -13074)" fill="#39b1b9"/>
      <g id="Group_22658" data-name="Group 22658" transform="translate(-15601 -13074)">
        <g id="Group_22559" data-name="Group 22559" clip-path="url(#clip-path-2)">
          <path id="Path_23527" data-name="Path 23527" d="M1460.177,115.072l-140.678.056a6.9,6.9,0,0,0-6.985,6.81l.032,77.991a6.883,6.883,0,0,0,6.974,6.788l140.695-.056a6.883,6.883,0,0,0,6.97-6.795l-.033-78a6.884,6.884,0,0,0-6.975-6.789" fill="#e94c40"/>
          <path id="Path_23528" data-name="Path 23528" d="M1346.137,125.382l-15.692.006c-4.261,0-5.788,1.5-5.787,5.675l.007,15.285c0,4.185,1.529,5.67,5.791,5.668l15.692-.006c4.3,0,5.854-1.488,5.851-5.673l-.006-15.285c0-4.171-1.559-5.672-5.856-5.67" fill="#ffd426"/>
          <path id="Path_23529" data-name="Path 23529" d="M1447.84,176.217l-19.985.008c-5.449,0-7.409.989-7.408,3.78l0,10.174c0,2.79,1.962,3.79,7.412,3.787l19.985-.008c5.419,0,7.38-1,7.379-3.792l-.005-10.176c0-2.791-1.962-3.775-7.382-3.773" fill="#fff"/>
          <path id="Path_23530" data-name="Path 23530" d="M1430.108,129.747a4.181,4.181,0,0,1-.655.046,2.267,2.267,0,0,1-.81-.137,1.379,1.379,0,0,1-.623-.424,2.26,2.26,0,0,1-.437-.712,3.4,3.4,0,0,1-.124-1.018,2.664,2.664,0,0,1,.5-1.758,1.758,1.758,0,0,1,1.433-.622c.155,0,.279.015.373.015a2.777,2.777,0,0,1,.31.046.986.986,0,0,1,.251.059c.093.017.188.046.249.061a.737.737,0,0,0,.124-.334,1.349,1.349,0,0,0,.093-.348,5.56,5.56,0,0,0-.623-.166,4.5,4.5,0,0,0-.842-.061,3.325,3.325,0,0,0-1.181.213,2.609,2.609,0,0,0-.873.637,2.527,2.527,0,0,0-.558.971,4.187,4.187,0,0,0-.217,1.288,4.09,4.09,0,0,0,.218,1.274,2.7,2.7,0,0,0,.558.955,2.755,2.755,0,0,0,.875.606,3.326,3.326,0,0,0,1.181.213,4.231,4.231,0,0,0,.809-.076,3.521,3.521,0,0,0,.75-.213,2.077,2.077,0,0,0-.25-.682,4.282,4.282,0,0,1-.529.167" fill="#fff"/>
          <path id="Path_23531" data-name="Path 23531" d="M1434.5,127.879c.126-.059.279-.151.437-.241a4.876,4.876,0,0,0,.372-.365,2.385,2.385,0,0,0,.279-.47,1.244,1.244,0,0,0,.094-.591,1.9,1.9,0,0,0-.188-.895,1.617,1.617,0,0,0-.558-.56,2.067,2.067,0,0,0-.749-.289,5.242,5.242,0,0,0-.872-.075h-.34c-.094.016-.22.016-.311.03a1.362,1.362,0,0,0-.282.032c-.124.014-.25.014-.377.03l0,5.959a1.356,1.356,0,0,0,.252.014c.059,0,.124.016.186.016.094,0,.156-.016.249-.016a.817.817,0,0,0,.189-.015l0-5.307c.122-.015.184-.015.277-.03h.28a1.433,1.433,0,0,1,.966.287,1.027,1.027,0,0,1,.344.879,1.069,1.069,0,0,1-.123.562,1.28,1.28,0,0,1-.376.379,1.369,1.369,0,0,1-.466.257,4.544,4.544,0,0,1-.467.168l-.062.015v.03l1.929,2.76c.159.014.312.03.471.03.185,0,.369-.016.527-.031l-1.808-2.5Z" fill="#fff"/>
          <path id="Path_23532" data-name="Path 23532" d="M1440.506,129.7h-2.583v-2.032h1.989a.4.4,0,0,0,.064-.182v-.378a.3.3,0,0,0-.064-.168h-1.989v-1.714h2.489a.431.431,0,0,0,.062-.182v-.2a1.539,1.539,0,0,0-.062-.363l-3.33,0,0,5.959,3.425,0c0-.061.029-.121.029-.182v-.182a1.557,1.557,0,0,0-.03-.379" fill="#fff"/>
          <path id="Path_23533" data-name="Path 23533" d="M1443.151,124.389c-.281,0-.563.016-.81.031-.282.031-.5.045-.686.061l0,5.959c.187.03.374.044.653.076.28.014.53.03.778.029a3.486,3.486,0,0,0,2.431-.758,2.961,2.961,0,0,0,.806-2.322,3.058,3.058,0,0,0-.778-2.274,3.272,3.272,0,0,0-2.4-.8m2.116,4.184a1.763,1.763,0,0,1-.463.728,2.342,2.342,0,0,1-.717.379,3.9,3.9,0,0,1-.934.108,2.284,2.284,0,0,1-.346-.016,1.188,1.188,0,0,1-.278-.03l0-4.564c.062-.016.188-.016.312-.032h.371a3.167,3.167,0,0,1,.875.121,2.119,2.119,0,0,1,.718.411,1.8,1.8,0,0,1,.463.712,3.382,3.382,0,0,1,.159,1.06,3.733,3.733,0,0,1-.158,1.123" fill="#fff"/>
          <path id="Path_23534" data-name="Path 23534" d="M1448.224,124.462c-.065,0-.156-.014-.218-.014s-.158.014-.216.014c-.093,0-.158.016-.22.016l0,5.959c.062.015.127.015.189.03h.495c.065-.016.127-.016.188-.03l0-5.959c-.062,0-.124-.016-.218-.016" fill="#fff"/>
          <path id="Path_23535" data-name="Path 23535" d="M1453.456,124.476l-4.049,0a.36.36,0,0,0-.032.181v.378a.354.354,0,0,0,.033.182h1.587l0,5.217a3.964,3.964,0,0,0,.435.03,3.642,3.642,0,0,0,.436-.031l0-5.216h1.589c0-.06.03-.121.03-.183v-.378c0-.06-.03-.122-.03-.181" fill="#fff"/>
          <path id="Path_23536" data-name="Path 23536" d="M1430.111,139.678a3.906,3.906,0,0,1-.654.062,2.22,2.22,0,0,1-.81-.137,1.633,1.633,0,0,1-.623-.424,2.647,2.647,0,0,1-.438-.712,3.532,3.532,0,0,1-.124-1.031,2.7,2.7,0,0,1,.5-1.76,1.75,1.75,0,0,1,1.433-.607,2.458,2.458,0,0,1,.373.016,1.446,1.446,0,0,1,.311.03.984.984,0,0,1,.25.061.874.874,0,0,1,.249.075.864.864,0,0,0,.124-.349,1.23,1.23,0,0,0,.094-.348c-.186-.062-.406-.107-.623-.168a6.352,6.352,0,0,0-.842-.059,3.032,3.032,0,0,0-1.181.228,2.356,2.356,0,0,0-.874.623,2.549,2.549,0,0,0-.557.984,4.04,4.04,0,0,0-.217,1.275,3.99,3.99,0,0,0,.218,1.273,2.452,2.452,0,0,0,.557.955,2.334,2.334,0,0,0,.875.606,3.347,3.347,0,0,0,1.181.211,6.319,6.319,0,0,0,.81-.06,3.536,3.536,0,0,0,.75-.228,2.324,2.324,0,0,0-.251-.681,2.756,2.756,0,0,1-.529.165" fill="#fff"/>
          <path id="Path_23537" data-name="Path 23537" d="M1434.125,134.4c-.065,0-.188-.016-.248-.016s-.186.016-.25.016a1.125,1.125,0,0,0-.25.03l-1.99,5.961c.064,0,.126.014.217.014s.159.016.221.016c.093,0,.154-.016.248-.016.062,0,.123-.014.188-.014l.434-1.38h2.3l.439,1.38c.062,0,.126.013.22.013s.153.016.218.016c.094,0,.187-.016.246-.016.094,0,.188-.014.252-.014l-2-5.959a1.03,1.03,0,0,0-.248-.03m-1.18,3.867.9-3.033.967,3.032Z" fill="#fff"/>
          <path id="Path_23538" data-name="Path 23538" d="M1439.729,137.824a3.128,3.128,0,0,0,.436-.257,3.948,3.948,0,0,0,.374-.363,2.054,2.054,0,0,0,.31-.471,1.689,1.689,0,0,0,.093-.592,1.867,1.867,0,0,0-.216-.879,1.306,1.306,0,0,0-.562-.561,1.654,1.654,0,0,0-.748-.288,3.7,3.7,0,0,0-.839-.09,2.39,2.39,0,0,0-.342.015,1.726,1.726,0,0,0-.31.015c-.126.015-.218.015-.311.031-.127.015-.218.015-.344.03l0,5.975c.062,0,.155.014.217.014h.438a.821.821,0,0,1,.185-.014l0-5.308a2.738,2.738,0,0,1,.313-.03,1.2,1.2,0,0,1,.248-.015,1.529,1.529,0,0,1,1,.288,1.033,1.033,0,0,1,.34.879.824.824,0,0,1-.155.56.894.894,0,0,1-.343.4,2.342,2.342,0,0,1-.464.258,4.575,4.575,0,0,1-.5.152l-.064.016v.029l1.933,2.775c.188.014.311.014.5.014s.34,0,.5-.014l-1.777-2.518Z" fill="#fff"/>
          <path id="Path_23539" data-name="Path 23539" d="M1443.836,134.336a7.322,7.322,0,0,0-.808.03c-.248.016-.5.031-.683.061l0,5.961c.186.014.406.045.652.06.282.015.529.029.781.029a3.493,3.493,0,0,0,2.425-.743,2.979,2.979,0,0,0,.809-2.321,3.081,3.081,0,0,0-.778-2.288,3.262,3.262,0,0,0-2.4-.789m2.121,4.184a1.664,1.664,0,0,1-.468.714,1.808,1.808,0,0,1-.713.379,3.168,3.168,0,0,1-.906.122,2.277,2.277,0,0,1-.371-.031c-.125,0-.218-.015-.283-.015l0-4.563a1.479,1.479,0,0,1,.312-.032c.126,0,.252-.015.375-.015a2.688,2.688,0,0,1,.873.135,1.837,1.837,0,0,1,.713.4,1.738,1.738,0,0,1,.469.712,3.547,3.547,0,0,1,.157,1.062,3.847,3.847,0,0,1-.156,1.136" fill="#fff"/>
          <path id="Path_23540" data-name="Path 23540" d="M1330.586,168.394a.54.54,0,0,1-.278-.3,4.828,4.828,0,0,1-.062-.955l0-7.718h-.217l-2.3,1.091.126.213a1.977,1.977,0,0,1,.681-.213.4.4,0,0,1,.311.106.463.463,0,0,1,.188.318,5.626,5.626,0,0,1,.066,1.275l0,4.929a3.116,3.116,0,0,1-.065.985.487.487,0,0,1-.279.273,2.713,2.713,0,0,1-.842.106v.257h3.52V168.5a2.882,2.882,0,0,1-.843-.1" fill="#fff"/>
          <path id="Path_23541" data-name="Path 23541" d="M1338.994,167.465a1.681,1.681,0,0,1-.561.211,7.2,7.2,0,0,1-1.06.063h-2.425c.279-.256.993-1,2.114-2.214a8.441,8.441,0,0,0,1.68-2.321,3.177,3.177,0,0,0,.344-1.379,2.264,2.264,0,0,0-.783-1.684,2.582,2.582,0,0,0-1.9-.726,2.428,2.428,0,0,0-1.773.682,2.878,2.878,0,0,0-.9,1.911h.248a2.578,2.578,0,0,1,.809-1.168,2.136,2.136,0,0,1,1.245-.395,1.733,1.733,0,0,1,1.31.56,1.941,1.941,0,0,1,.528,1.441,4.377,4.377,0,0,1-.962,2.5,23.991,23.991,0,0,1-3.457,3.55v.258l5.543,0,.654-1.758h-.249a2.622,2.622,0,0,1-.405.47" fill="#fff"/>
          <path id="Path_23542" data-name="Path 23542" d="M1344.412,163.338a2.936,2.936,0,0,0,1.273-2.063,1.679,1.679,0,0,0-.467-1.136,2.072,2.072,0,0,0-1.745-.727,2.254,2.254,0,0,0-1.493.515,3.55,3.55,0,0,0-1.027,1.427l.217.1a2.156,2.156,0,0,1,1.807-1.123,1.606,1.606,0,0,1,1.122.44,1.383,1.383,0,0,1,.435,1.106,1.77,1.77,0,0,1-.248.971,1.982,1.982,0,0,1-.811.774,2.819,2.819,0,0,1-1.089.379v.213h.217a2.53,2.53,0,0,1,1.06.212,2.387,2.387,0,0,1,.808.484,1.378,1.378,0,0,1,.405.576,2.392,2.392,0,0,1,.253,1.031,1.814,1.814,0,0,1-1.775,1.8,1.94,1.94,0,0,1-.531-.076c-.094-.03-.28-.119-.59-.257a4.02,4.02,0,0,0-.5-.243,1.126,1.126,0,0,0-.375-.06.577.577,0,0,0-.373.152.439.439,0,0,0-.188.349c0,.168.126.333.373.485a2.39,2.39,0,0,0,1.276.227,3.679,3.679,0,0,0,2.927-1.139,2.911,2.911,0,0,0,.778-2.048,2.5,2.5,0,0,0-.436-1.438,2.9,2.9,0,0,0-1.306-.941" fill="#fff"/>
          <path id="Path_23543" data-name="Path 23543" d="M1353.936,165.365h-1.274l0-5.958h-.78l-4.355,6.067v.864h3.986v2.41h1.151v-2.409h1.274Zm-5.727,0,3.3-4.535,0,4.534Z" fill="#fff"/>
          <path id="Path_23544" data-name="Path 23544" d="M1362.28,159.571a2.043,2.043,0,0,0-1.248.44,3.523,3.523,0,0,0-1.306,1.684,7.048,7.048,0,0,0-.495,2.7,6.156,6.156,0,0,0,.747,3.123,2.657,2.657,0,0,0,2.244,1.547,2.583,2.583,0,0,0,1.432-.5,3.765,3.765,0,0,0,1.18-1.607,7.01,7.01,0,0,0,.5-2.714,5.541,5.541,0,0,0-1.089-3.6,2.5,2.5,0,0,0-1.962-1.075m1.373,7.641a2.341,2.341,0,0,1-.621,1.093,1.184,1.184,0,0,1-.782.333c-.528,0-.9-.333-1.15-1a7.879,7.879,0,0,1-.5-3.078,15.317,15.317,0,0,1,.187-2.365,3.291,3.291,0,0,1,.683-1.76,1.058,1.058,0,0,1,.811-.41,1.026,1.026,0,0,1,.684.213,2.125,2.125,0,0,1,.655,1.106,8.851,8.851,0,0,1,.345,2.608,14.462,14.462,0,0,1-.311,3.26" fill="#fff"/>
          <path id="Path_23545" data-name="Path 23545" d="M1369.378,159.568a2.189,2.189,0,0,0-1.276.44,3.675,3.675,0,0,0-1.277,1.684,6.481,6.481,0,0,0-.494,2.7,6.157,6.157,0,0,0,.747,3.123,2.582,2.582,0,0,0,2.243,1.546,2.474,2.474,0,0,0,1.4-.5,3.561,3.561,0,0,0,1.213-1.608,7.064,7.064,0,0,0,.468-2.714,5.355,5.355,0,0,0-1.094-3.594,2.4,2.4,0,0,0-1.929-1.075m1.342,7.641a2.3,2.3,0,0,1-.589,1.093,1.318,1.318,0,0,1-.81.333c-.5,0-.876-.332-1.154-1a7.929,7.929,0,0,1-.469-3.078,15.317,15.317,0,0,1,.187-2.365,3.088,3.088,0,0,1,.651-1.76,1.127,1.127,0,0,1,.842-.41,1.079,1.079,0,0,1,.685.213,2.1,2.1,0,0,1,.622,1.106,7.807,7.807,0,0,1,.378,2.608,12.567,12.567,0,0,1-.343,3.26" fill="#fff"/>
          <path id="Path_23546" data-name="Path 23546" d="M1376.476,159.565a2.351,2.351,0,0,0-1.306.441,3.879,3.879,0,0,0-1.279,1.683,6.534,6.534,0,0,0-.463,2.7,6.145,6.145,0,0,0,.748,3.123,2.333,2.333,0,0,0,3.642,1.045,4.036,4.036,0,0,0,1.213-1.608,7.1,7.1,0,0,0,.436-2.714,5.538,5.538,0,0,0-1.061-3.594,2.455,2.455,0,0,0-1.93-1.076m1.31,7.642a1.85,1.85,0,0,1-.593,1.093,1.221,1.221,0,0,1-.775.333c-.5,0-.905-.332-1.187-1a8.619,8.619,0,0,1-.464-3.078,14.934,14.934,0,0,1,.184-2.365,3.293,3.293,0,0,1,.654-1.76,1.171,1.171,0,0,1,.872-.411,1.084,1.084,0,0,1,.684.213,2.357,2.357,0,0,1,.623,1.107,7.853,7.853,0,0,1,.344,2.608,11.244,11.244,0,0,1-.342,3.26" fill="#fff"/>
          <path id="Path_23547" data-name="Path 23547" d="M1383.543,159.562a2.182,2.182,0,0,0-1.273.441,3.668,3.668,0,0,0-1.309,1.683,7.037,7.037,0,0,0-.466,2.7,5.883,5.883,0,0,0,.778,3.123,2.306,2.306,0,0,0,3.613,1.045,3.553,3.553,0,0,0,1.214-1.608,7.051,7.051,0,0,0,.466-2.714,5.7,5.7,0,0,0-1.061-3.594,2.546,2.546,0,0,0-1.962-1.076m1.342,7.642a1.869,1.869,0,0,1-.622,1.093,1.1,1.1,0,0,1-.746.333c-.528,0-.934-.333-1.187-1a8.576,8.576,0,0,1-.5-3.078,15.342,15.342,0,0,1,.185-2.366,3.57,3.57,0,0,1,.686-1.759,1.111,1.111,0,0,1,.839-.41,1.03,1.03,0,0,1,.688.213,2.37,2.37,0,0,1,.651,1.106,9.985,9.985,0,0,1,.312,2.608,12.729,12.729,0,0,1-.309,3.26" fill="#fff"/>
          <path id="Path_23548" data-name="Path 23548" d="M1330.221,177.916a1.5,1.5,0,0,0-.875.3,2.879,2.879,0,0,0-.933,1.183,5.544,5.544,0,0,0-.31,1.88,4.693,4.693,0,0,0,.5,2.185,1.865,1.865,0,0,0,1.588,1.09,1.67,1.67,0,0,0,.966-.35,2.527,2.527,0,0,0,.869-1.136,5.574,5.574,0,0,0,.309-1.9,3.889,3.889,0,0,0-.746-2.517,1.755,1.755,0,0,0-1.368-.743m.936,5.353a1.241,1.241,0,0,1-.405.758.891.891,0,0,1-.528.228c-.376,0-.658-.227-.842-.7a5.978,5.978,0,0,1-.346-2.153,15.587,15.587,0,0,1,.126-1.667,2.4,2.4,0,0,1,.495-1.228.742.742,0,0,1,.564-.289.787.787,0,0,1,.5.166,1.623,1.623,0,0,1,.438.758,6.128,6.128,0,0,1,.247,1.835,7.6,7.6,0,0,1-.245,2.29" fill="#fff"/>
          <path id="Path_23549" data-name="Path 23549" d="M1335.2,177.915a1.586,1.586,0,0,0-.9.3,2.845,2.845,0,0,0-.9,1.182,4.316,4.316,0,0,0-.343,1.881,4.081,4.081,0,0,0,.528,2.184,1.638,1.638,0,0,0,2.555.742,2.488,2.488,0,0,0,.839-1.137,4.843,4.843,0,0,0,.346-1.9,3.908,3.908,0,0,0-.751-2.517,1.8,1.8,0,0,0-1.37-.743m.936,5.353a1.436,1.436,0,0,1-.435.758.9.9,0,0,1-.56.227c-.344,0-.623-.227-.81-.7a6.047,6.047,0,0,1-.313-2.153,10.069,10.069,0,0,1,.126-1.667,2.376,2.376,0,0,1,.463-1.229.712.712,0,0,1,.594-.289.7.7,0,0,1,.468.167,1.611,1.611,0,0,1,.465.758,7.287,7.287,0,0,1,.218,1.834,10.408,10.408,0,0,1-.216,2.291" fill="#fff"/>
          <path id="Path_23550" data-name="Path 23550" d="M1340.15,177.913a1.63,1.63,0,0,0-.9.3,2.567,2.567,0,0,0-.9,1.182,4.817,4.817,0,0,0-.347,1.881,4.055,4.055,0,0,0,.565,2.184,1.6,1.6,0,0,0,2.52.741,2.506,2.506,0,0,0,.841-1.136,4.909,4.909,0,0,0,.312-1.9,3.9,3.9,0,0,0-.75-2.517,1.62,1.62,0,0,0-1.339-.743m.936,5.353a1.4,1.4,0,0,1-.405.758.881.881,0,0,1-.558.227c-.377,0-.623-.226-.81-.7a5.342,5.342,0,0,1-.343-2.153,10.065,10.065,0,0,1,.124-1.667,2.412,2.412,0,0,1,.464-1.229.79.79,0,0,1,.592-.288.7.7,0,0,1,.469.166,1.611,1.611,0,0,1,.464.758,5.983,5.983,0,0,1,.222,1.835,8.729,8.729,0,0,1-.219,2.29" fill="#fff"/>
          <path id="Path_23551" data-name="Path 23551" d="M1345.1,177.911a1.468,1.468,0,0,0-.869.3,2.836,2.836,0,0,0-.933,1.183,5.519,5.519,0,0,0-.311,1.88,4.7,4.7,0,0,0,.5,2.185,1.84,1.84,0,0,0,1.589,1.091,1.682,1.682,0,0,0,.966-.35,2.543,2.543,0,0,0,.871-1.137,5.545,5.545,0,0,0,.311-1.895,3.917,3.917,0,0,0-.747-2.517,1.764,1.764,0,0,0-1.374-.743m.938,5.353a1.259,1.259,0,0,1-.437.758.811.811,0,0,1-.5.227c-.371,0-.654-.227-.84-.7a5.965,5.965,0,0,1-.342-2.153,15.307,15.307,0,0,1,.123-1.667,2.4,2.4,0,0,1,.5-1.229.686.686,0,0,1,.559-.289.775.775,0,0,1,.5.167,1.6,1.6,0,0,1,.439.758,6.02,6.02,0,0,1,.25,1.834,8.566,8.566,0,0,1-.249,2.291" fill="#fff"/>
          <path id="Path_23552" data-name="Path 23552" d="M1383.894,177.9a1.4,1.4,0,0,0-.871.3,2.818,2.818,0,0,0-.933,1.182,5.525,5.525,0,0,0-.311,1.881,4.693,4.693,0,0,0,.5,2.185,1.833,1.833,0,0,0,1.586,1.09,1.687,1.687,0,0,0,.966-.349,2.541,2.541,0,0,0,.87-1.137,5.528,5.528,0,0,0,.311-1.9,3.908,3.908,0,0,0-.746-2.516,1.762,1.762,0,0,0-1.372-.744m.936,5.353a1.12,1.12,0,0,1-.437.758.8.8,0,0,1-.5.227.886.886,0,0,1-.843-.7,6,6,0,0,1-.341-2.154,15.325,15.325,0,0,1,.123-1.667,2.394,2.394,0,0,1,.5-1.229.687.687,0,0,1,.561-.289.777.777,0,0,1,.5.167,1.6,1.6,0,0,1,.438.758,5.989,5.989,0,0,1,.251,1.835,8.563,8.563,0,0,1-.249,2.29" fill="#fff"/>
          <path id="Path_23553" data-name="Path 23553" d="M1388.876,177.893a1.742,1.742,0,0,0-.933.3,2.534,2.534,0,0,0-.874,1.182,4.365,4.365,0,0,0-.34,1.881,4.052,4.052,0,0,0,.528,2.184,1.794,1.794,0,0,0,1.557,1.091,1.866,1.866,0,0,0,1-.349,2.736,2.736,0,0,0,.838-1.137,4.877,4.877,0,0,0,.343-1.9,3.735,3.735,0,0,0-.78-2.517,1.7,1.7,0,0,0-1.338-.743m.936,5.353a1.686,1.686,0,0,1-.435.759.9.9,0,0,1-.563.226c-.341,0-.623-.226-.81-.7a6.054,6.054,0,0,1-.313-2.154,7.5,7.5,0,0,1,.126-1.667,2.406,2.406,0,0,1,.436-1.229.8.8,0,0,1,.623-.288.761.761,0,0,1,.467.166,1.613,1.613,0,0,1,.467.758,7.428,7.428,0,0,1,.219,1.835,10.578,10.578,0,0,1-.217,2.29" fill="#fff"/>
          <path id="Path_23554" data-name="Path 23554" d="M1391.338,184.55h.4l2.364-6.84h-.376Z" fill="#fff"/>
          <path id="Path_23555" data-name="Path 23555" d="M1396.6,177.89a1.745,1.745,0,0,0-.933.3,2.546,2.546,0,0,0-.874,1.183,4.354,4.354,0,0,0-.34,1.88,4.048,4.048,0,0,0,.529,2.185,1.792,1.792,0,0,0,1.557,1.09,1.948,1.948,0,0,0,1-.349,2.456,2.456,0,0,0,.81-1.137,4.418,4.418,0,0,0,.34-1.9,3.907,3.907,0,0,0-.746-2.517,1.7,1.7,0,0,0-1.34-.743m.936,5.353a1.7,1.7,0,0,1-.434.758.9.9,0,0,1-.563.228c-.37,0-.623-.227-.808-.7a5.893,5.893,0,0,1-.345-2.153,7.729,7.729,0,0,1,.155-1.667,2.389,2.389,0,0,1,.437-1.228.806.806,0,0,1,.622-.29.618.618,0,0,1,.436.167,1.416,1.416,0,0,1,.469.758,6.22,6.22,0,0,1,.218,1.835,10.853,10.853,0,0,1-.187,2.29" fill="#fff"/>
          <path id="Path_23556" data-name="Path 23556" d="M1401.546,177.888a1.581,1.581,0,0,0-.9.3,2.58,2.58,0,0,0-.9,1.182,4.783,4.783,0,0,0-.343,1.881,4.357,4.357,0,0,0,.529,2.185,1.792,1.792,0,0,0,1.559,1.09,1.749,1.749,0,0,0,.995-.349,2.478,2.478,0,0,0,.839-1.137,4.873,4.873,0,0,0,.311-1.9,3.9,3.9,0,0,0-.746-2.516,1.659,1.659,0,0,0-1.34-.744m.936,5.353a1.439,1.439,0,0,1-.434.758.825.825,0,0,1-.529.228c-.376,0-.657-.227-.842-.7a5.965,5.965,0,0,1-.345-2.154,15.583,15.583,0,0,1,.125-1.667,2.741,2.741,0,0,1,.5-1.229.744.744,0,0,1,1.059-.122,1.605,1.605,0,0,1,.437.758,5.22,5.22,0,0,1,.248,1.835,8.842,8.842,0,0,1-.216,2.29" fill="#fff"/>
          <path id="Path_23557" data-name="Path 23557" d="M1395.529,159.557a2.219,2.219,0,0,0-1.307.441,3.724,3.724,0,0,0-1.308,1.683,7.079,7.079,0,0,0-.463,2.7,5.873,5.873,0,0,0,.777,3.123,2.514,2.514,0,0,0,2.213,1.546,2.471,2.471,0,0,0,1.4-.5,3.539,3.539,0,0,0,1.214-1.608,7.029,7.029,0,0,0,.469-2.714,5.7,5.7,0,0,0-1.064-3.594,2.545,2.545,0,0,0-1.929-1.076m1.31,7.642a1.864,1.864,0,0,1-.623,1.093,1.1,1.1,0,0,1-.745.333c-.529,0-.934-.333-1.184-1a8.552,8.552,0,0,1-.5-3.078,15.065,15.065,0,0,1,.184-2.365,3.575,3.575,0,0,1,.683-1.76,1.118,1.118,0,0,1,.84-.411,1.021,1.021,0,0,1,.686.214,2.316,2.316,0,0,1,.653,1.106,10.039,10.039,0,0,1,.312,2.608,12.685,12.685,0,0,1-.309,3.26" fill="#fff"/>
          <path id="Path_23558" data-name="Path 23558" d="M1402.6,159.554a2.131,2.131,0,0,0-1.275.441,3.527,3.527,0,0,0-1.309,1.684,7.066,7.066,0,0,0-.5,2.7,6.175,6.175,0,0,0,.75,3.123,2.661,2.661,0,0,0,2.243,1.546,2.553,2.553,0,0,0,1.431-.5,3.515,3.515,0,0,0,1.185-1.608,7.022,7.022,0,0,0,.5-2.713,5.529,5.529,0,0,0-1.094-3.6,2.5,2.5,0,0,0-1.931-1.076m1.342,7.642a2.236,2.236,0,0,1-.623,1.093,1.107,1.107,0,0,1-.774.333c-.531,0-.9-.332-1.155-1a8.532,8.532,0,0,1-.5-3.078,14.956,14.956,0,0,1,.183-2.365,3.32,3.32,0,0,1,.684-1.76,1.06,1.06,0,0,1,.81-.41,1.024,1.024,0,0,1,.686.213,2.127,2.127,0,0,1,.653,1.106,8.867,8.867,0,0,1,.341,2.608,14.3,14.3,0,0,1-.309,3.26" fill="#fff"/>
          <path id="Path_23559" data-name="Path 23559" d="M1409.665,159.552a2.2,2.2,0,0,0-1.278.44,3.687,3.687,0,0,0-1.276,1.684,7.047,7.047,0,0,0-.5,2.7,6.2,6.2,0,0,0,.749,3.123,2.664,2.664,0,0,0,2.244,1.546,2.618,2.618,0,0,0,1.429-.5,3.7,3.7,0,0,0,1.185-1.608,7.029,7.029,0,0,0,.464-2.713,5.376,5.376,0,0,0-1.088-3.6,2.418,2.418,0,0,0-1.932-1.075m1.342,7.641a2.011,2.011,0,0,1-.593,1.093,1.229,1.229,0,0,1-.775.333c-.532,0-.9-.332-1.186-1a7.975,7.975,0,0,1-.465-3.078,14.956,14.956,0,0,1,.183-2.365,3.3,3.3,0,0,1,.655-1.76,1.112,1.112,0,0,1,.839-.41,1.085,1.085,0,0,1,.687.213,2.134,2.134,0,0,1,.623,1.106,7.9,7.9,0,0,1,.37,2.608,12.6,12.6,0,0,1-.338,3.26" fill="#fff"/>
          <path id="Path_23560" data-name="Path 23560" d="M1416.764,159.549a2.376,2.376,0,0,0-1.31.441,4.154,4.154,0,0,0-1.274,1.683,7.074,7.074,0,0,0-.467,2.7,6.181,6.181,0,0,0,.749,3.122,2.583,2.583,0,0,0,2.244,1.547,2.541,2.541,0,0,0,1.4-.5,3.772,3.772,0,0,0,1.215-1.607,7.062,7.062,0,0,0,.434-2.714,5.519,5.519,0,0,0-1.059-3.594,2.458,2.458,0,0,0-1.931-1.076m1.341,7.642a2.044,2.044,0,0,1-.622,1.092,1.238,1.238,0,0,1-.778.334c-.5,0-.9-.333-1.183-1a8.581,8.581,0,0,1-.472-3.079,15.327,15.327,0,0,1,.187-2.365,3.3,3.3,0,0,1,.687-1.759,1.069,1.069,0,0,1,.84-.411,1.088,1.088,0,0,1,.686.213,2.376,2.376,0,0,1,.624,1.107,7.992,7.992,0,0,1,.341,2.608,12.815,12.815,0,0,1-.31,3.26" fill="#fff"/>
          <path id="Path_23561" data-name="Path 23561" d="M1428.717,159.544a2.377,2.377,0,0,0-1.307.441,4.172,4.172,0,0,0-1.276,1.684,6.569,6.569,0,0,0-.466,2.7,6.176,6.176,0,0,0,.75,3.123,2.582,2.582,0,0,0,2.241,1.546,2.545,2.545,0,0,0,1.4-.5,3.764,3.764,0,0,0,1.215-1.607,7.088,7.088,0,0,0,.434-2.715,5.531,5.531,0,0,0-1.059-3.594,2.459,2.459,0,0,0-1.932-1.076m1.312,7.642a1.844,1.844,0,0,1-.592,1.093,1.232,1.232,0,0,1-.778.333c-.5,0-.9-.333-1.184-1a8.589,8.589,0,0,1-.468-3.078,14.838,14.838,0,0,1,.187-2.365,3.562,3.562,0,0,1,.654-1.76,1.168,1.168,0,0,1,.869-.41,1.074,1.074,0,0,1,.687.213,2.339,2.339,0,0,1,.622,1.106,8.8,8.8,0,0,1,.342,2.608,11.4,11.4,0,0,1-.339,3.26" fill="#fff"/>
          <path id="Path_23562" data-name="Path 23562" d="M1435.786,159.541a2.286,2.286,0,0,0-1.277.44,3.705,3.705,0,0,0-1.307,1.684,7.094,7.094,0,0,0-.466,2.7,5.886,5.886,0,0,0,.781,3.123,2.3,2.3,0,0,0,3.611,1.045,3.784,3.784,0,0,0,1.214-1.608,7.034,7.034,0,0,0,.464-2.714,5.713,5.713,0,0,0-1.058-3.6,2.562,2.562,0,0,0-1.962-1.075m1.341,7.642a1.72,1.72,0,0,1-.621,1.093,1.111,1.111,0,0,1-.749.333c-.528,0-.933-.332-1.183-1a8.525,8.525,0,0,1-.5-3.079,15.3,15.3,0,0,1,.187-2.364,3.546,3.546,0,0,1,.687-1.76,1.113,1.113,0,0,1,.839-.411,1.022,1.022,0,0,1,.684.213,2.384,2.384,0,0,1,.655,1.107,8.923,8.923,0,0,1,.312,2.608,12.77,12.77,0,0,1-.31,3.26" fill="#fff"/>
          <path id="Path_23563" data-name="Path 23563" d="M1442.885,159.538a2.125,2.125,0,0,0-1.277.441,3.517,3.517,0,0,0-1.306,1.683,7.039,7.039,0,0,0-.5,2.7,5.88,5.88,0,0,0,.779,3.122,2.335,2.335,0,0,0,3.643,1.046,3.486,3.486,0,0,0,1.183-1.608,6.987,6.987,0,0,0,.494-2.714,5.531,5.531,0,0,0-1.086-3.593,2.5,2.5,0,0,0-1.932-1.077m1.341,7.642a2.075,2.075,0,0,1-.622,1.093,1.111,1.111,0,0,1-.748.333c-.562,0-.935-.331-1.183-1a8.5,8.5,0,0,1-.5-3.078,15.187,15.187,0,0,1,.187-2.365,3.284,3.284,0,0,1,.685-1.76,1.055,1.055,0,0,1,.809-.411,1.025,1.025,0,0,1,.683.213,2.359,2.359,0,0,1,.687,1.108,10.028,10.028,0,0,1,.313,2.608,14.248,14.248,0,0,1-.31,3.259" fill="#fff"/>
          <path id="Path_23564" data-name="Path 23564" d="M1449.951,159.535a2.2,2.2,0,0,0-1.276.441,3.663,3.663,0,0,0-1.274,1.684,7.044,7.044,0,0,0-.5,2.7,6.185,6.185,0,0,0,.748,3.123,2.367,2.367,0,0,0,3.676,1.045,3.734,3.734,0,0,0,1.182-1.608,7.049,7.049,0,0,0,.465-2.713,5.355,5.355,0,0,0-1.091-3.6,2.408,2.408,0,0,0-1.931-1.076m1.374,7.642a2.324,2.324,0,0,1-.621,1.093,1.25,1.25,0,0,1-.811.333c-.5,0-.873-.332-1.151-1a8.562,8.562,0,0,1-.471-3.078,15.2,15.2,0,0,1,.187-2.365,3.046,3.046,0,0,1,.686-1.76,1.008,1.008,0,0,1,.807-.41,1.073,1.073,0,0,1,.685.213,2.346,2.346,0,0,1,.657,1.106,8.8,8.8,0,0,1,.342,2.608,14.251,14.251,0,0,1-.31,3.26" fill="#fff"/>
          <path id="Path_23565" data-name="Path 23565" d="M1370.724,178.476h.033a1.109,1.109,0,0,1,.185.061c0,.031.062.062.062.092a.924.924,0,0,1-.124.272l-.529,1.322-.592-1.337a.737.737,0,0,1-.1-.257.147.147,0,0,1,.065-.1.423.423,0,0,1,.218-.046v-.061h-1v.061a.679.679,0,0,1,.187.029.588.588,0,0,1,.123.092c0,.015.033.076.066.182l.9,1.971h.062l.81-1.956a.479.479,0,0,1,.154-.244.527.527,0,0,1,.186-.076v-.059h-.714Z" fill="#fff"/>
          <path id="Path_23566" data-name="Path 23566" d="M1373.34,180.554a.631.631,0,0,1-.186-.289l-.812-1.91h-.061l-.843,1.881a.87.87,0,0,1-.184.333c-.032.032-.061.046-.185.062v.06h.746v-.06a.429.429,0,0,1-.217-.046c-.033-.031-.066-.06-.066-.092a.686.686,0,0,1,.065-.2l.156-.365h.9l.159.333a.407.407,0,0,1,.058.228c0,.046,0,.075-.058.091,0,.03-.064.047-.188.047v.059h.933v-.06a.281.281,0,0,1-.217-.076m-1.525-.743.4-.926.406.925Z" fill="#fff"/>
          <path id="Path_23567" data-name="Path 23567" d="M1375.458,180.371a.412.412,0,0,1-.221.136.952.952,0,0,1-.37.046h-.158c-.152,0-.247-.015-.279-.015s-.062-.031-.062-.06a1.135,1.135,0,0,1-.033-.183v-1.441a1.57,1.57,0,0,1,.032-.257c0-.046.062-.061.123-.091.031-.031.125-.031.25-.031v-.06h-1.06v.06h.065c.125,0,.187.016.219.076.028.03.028.122.028.258v1.729a.3.3,0,0,1-.247.091h-.064v.061h1.808l.184-.621-.061-.016c-.065.152-.123.257-.155.319" fill="#fff"/>
          <path id="Path_23568" data-name="Path 23568" d="M1376.609,180.6c-.032-.031-.062-.046-.062-.076a2.092,2.092,0,0,1-.03-.228v-1.487a2.085,2.085,0,0,1,.029-.257.344.344,0,0,1,.218-.076h.094v-.06h-1v.06h.064a.418.418,0,0,1,.188.03c0,.03.058.046.058.076v1.713a.57.57,0,0,1-.028.259c-.03.045-.095.076-.218.076h-.065v.06h1v-.06h-.094a1.066,1.066,0,0,1-.156-.03" fill="#fff"/>
          <path id="Path_23569" data-name="Path 23569" d="M1378.756,178.52a2.215,2.215,0,0,0-.777-.106h-1v.061h.127a.24.24,0,0,1,.184.075.4.4,0,0,1,.064.257v1.487a.409.409,0,0,1-.064.242.215.215,0,0,1-.184.092h-.127v.061h1.06a1.373,1.373,0,0,0,1.028-.349,1.04,1.04,0,0,0,.277-.805,1.074,1.074,0,0,0-.151-.62.856.856,0,0,0-.439-.394m-.031,1.774a1,1,0,0,1-.684.288,2.081,2.081,0,0,1-.373-.046V178.58a1.582,1.582,0,0,1,.374-.045.986.986,0,0,1,.684.272,1.231,1.231,0,0,1,0,1.487" fill="#fff"/>
          <path id="Path_23570" data-name="Path 23570" d="M1369.074,182.557l-.029.531h.064c.03-.106.03-.182.091-.244.033-.06.061-.106.127-.121a.519.519,0,0,1,.246-.031h.282v1.745c0,.136,0,.211-.029.243a.3.3,0,0,1-.221.09h-.094v.062h1v-.061h-.06c-.094,0-.186-.031-.186-.06-.066-.046-.066-.137-.066-.273v-1.745h.311a.547.547,0,0,1,.252.045c.06.03.124.077.124.137.062.046.062.121.062.213h.062v-.531Z" fill="#fff"/>
          <path id="Path_23571" data-name="Path 23571" d="M1373.372,184.723c-.062-.014-.062-.03-.094-.06a.487.487,0,0,1-.028-.227V182.95c0-.107,0-.183.028-.213.032-.046.032-.075.094-.091.032-.03.065-.03.124-.03h.094v-.06h-.995v.06h.094a.2.2,0,0,1,.126.03.281.281,0,0,1,.091.076.42.42,0,0,1,.033.228v.653h-1.122v-.652a.316.316,0,0,1,.061-.213c0-.046,0-.076.062-.092a.2.2,0,0,1,.126-.03h.127v-.06h-1.028v.061h.09c.062,0,.127,0,.156.029s.065.046.065.076a.477.477,0,0,1,.029.229v1.486c0,.135,0,.227-.063.257a.21.21,0,0,1-.186.076h-.09v.061h1.028v-.062h-.127a.21.21,0,0,1-.126-.045c-.062-.014-.062-.03-.062-.06a.4.4,0,0,1-.061-.227v-.7h1.122v.7a.388.388,0,0,1-.065.257.251.251,0,0,1-.184.076h-.095v.062h1v-.062h-.095a.154.154,0,0,1-.123-.046" fill="#fff"/>
          <path id="Path_23572" data-name="Path 23572" d="M1375.459,184.373l-.466-.652a1.1,1.1,0,0,0,.434-.212.717.717,0,0,0,.123-.378.607.607,0,0,0-.124-.335.562.562,0,0,0-.31-.2,2.384,2.384,0,0,0-.529-.045h-.839v.06h.058c.095,0,.159.016.188.076.065.03.065.121.065.259v1.485c0,.122,0,.211-.031.243-.033.06-.094.09-.221.09h-.059v.062h1v-.062h-.127a.326.326,0,0,1-.185-.075c-.033-.03-.033-.121-.033-.257v-.668h.218l.81,1.062h.623v-.062a.945.945,0,0,1-.311-.09,1.089,1.089,0,0,1-.28-.3m-.966-.712h-.094v-.955a1.825,1.825,0,0,1,.283-.029.484.484,0,0,1,.341.135.49.49,0,0,1,.159.349.479.479,0,0,1-.188.365.816.816,0,0,1-.5.135" fill="#fff"/>
          <path id="Path_23573" data-name="Path 23573" d="M1377.731,182.614h.062c.094,0,.188.016.217.075.033.031.033.123.033.26v.923a1.1,1.1,0,0,1-.062.516.44.44,0,0,1-.249.257.873.873,0,0,1-.406.092.471.471,0,0,1-.278-.06c-.124-.045-.188-.091-.217-.152a2.157,2.157,0,0,1-.1-.272v-1.3a.588.588,0,0,1,.029-.259c.032-.046.094-.076.217-.076h.065v-.06h-1v.061h.064c.123,0,.185.015.217.062a.5.5,0,0,1,.062.272v.894c0,.273.033.47.033.561a.759.759,0,0,0,.311.349.953.953,0,0,0,.558.136.965.965,0,0,0,.564-.136.65.65,0,0,0,.279-.335,1.927,1.927,0,0,0,.09-.53V182.72a.281.281,0,0,1,.252-.106h.059v-.06h-.807Z" fill="#fff"/>
          <path id="Path_23574" data-name="Path 23574" d="M1330.229,198.069a3.459,3.459,0,0,1-.564.046,2.39,2.39,0,0,1-.684-.105,1.773,1.773,0,0,1-.528-.364,1.281,1.281,0,0,1-.344-.59,3.313,3.313,0,0,1-.124-.85,2.126,2.126,0,0,1,.433-1.472,1.493,1.493,0,0,1,1.183-.515c.127,0,.25.014.315.014.124.016.185.016.247.03.094.016.188.032.25.045.06.031.126.046.184.077.065-.106.065-.213.126-.3,0-.077.062-.183.062-.288a4.694,4.694,0,0,0-.528-.122,3.2,3.2,0,0,0-.717-.06,2.441,2.441,0,0,0-.962.183,2.068,2.068,0,0,0-1.215,1.335,2.905,2.905,0,0,0-.158,1.077,2.838,2.838,0,0,0,.159,1.059,2.178,2.178,0,0,0,.466.79,2.039,2.039,0,0,0,.75.5,2.49,2.49,0,0,0,.991.181,2.865,2.865,0,0,0,.658-.06,2.448,2.448,0,0,0,.622-.167,1.115,1.115,0,0,0-.188-.578,2.223,2.223,0,0,1-.434.137" fill="#fff"/>
          <path id="Path_23575" data-name="Path 23575" d="M1333.556,193.671h-.4c-.094,0-.156.014-.218.014l-1.647,4.975c.061,0,.122.016.188.016h.372c.062,0,.123-.016.185-.016l.31-1.153h1.933l.375,1.153c.059,0,.124.016.185.016h.374c.094,0,.155-.016.188-.016l-1.623-4.974c-.062,0-.124-.015-.218-.015m-1.026,3.23.81-2.548.747,2.548Z" fill="#fff"/>
          <path id="Path_23576" data-name="Path 23576" d="M1338.229,196.521a2.142,2.142,0,0,0,.342-.214,1.292,1.292,0,0,0,.342-.3,1.364,1.364,0,0,0,.217-.394,1.2,1.2,0,0,0,.094-.485,1.35,1.35,0,0,0-.156-.744,1.477,1.477,0,0,0-.468-.469,2.293,2.293,0,0,0-.622-.242,3.556,3.556,0,0,0-.716-.062h-.311c-.062.016-.157.016-.25.032a1.41,1.41,0,0,0-.25.015c-.062.015-.184.015-.278.03l0,4.975c.062,0,.126.015.184.015h.159a.724.724,0,0,0,.185-.016h.188l0-4.428a1.673,1.673,0,0,1,.25-.015.739.739,0,0,1,.188-.016,1.289,1.289,0,0,1,.84.243.93.93,0,0,1,.278.742.715.715,0,0,1-.127.456.864.864,0,0,1-.274.318,1.862,1.862,0,0,1-.406.228c-.126.045-.252.09-.375.121l-.061.016v.03l1.618,2.3c.126,0,.25.015.375.015.189,0,.311-.016.434-.016l-1.494-2.093Z" fill="#fff"/>
          <path id="Path_23577" data-name="Path 23577" d="M1341.621,193.607c-.188,0-.437.015-.655.031s-.4.03-.593.045l0,4.975c.188.015.376.029.564.045a5.037,5.037,0,0,0,.684.029,2.856,2.856,0,0,0,1.993-.622,2.468,2.468,0,0,0,.684-1.926,2.6,2.6,0,0,0-.656-1.91,2.812,2.812,0,0,0-2.023-.667m1.806,3.5a2.148,2.148,0,0,1-.4.592,1.333,1.333,0,0,1-.593.3,3.118,3.118,0,0,1-.745.107c-.124,0-.25-.015-.311-.015a2.376,2.376,0,0,1-.25-.031v-3.79a1.336,1.336,0,0,1,.249-.031h.31a2.787,2.787,0,0,1,.746.09,1.4,1.4,0,0,1,.594.348,2.157,2.157,0,0,1,.4.593,3.493,3.493,0,0,1,.125.879,4,4,0,0,1-.124.955" fill="#fff"/>
          <path id="Path_23578" data-name="Path 23578" d="M1348.781,193.665h-.374c-.06,0-.126.014-.186.014v2.048h-2.179v-2.047c-.061,0-.094-.015-.155-.015h-.377c-.057,0-.123.015-.151.015v4.975c.029,0,.095.015.152.015h.377c.062,0,.094-.016.155-.016v-2.3h2.179v2.306c.061,0,.127.015.186.015h.374c.064,0,.123-.016.188-.016l0-4.974c-.065,0-.124-.015-.188-.015" fill="#fff"/>
          <path id="Path_23579" data-name="Path 23579" d="M1353.762,194.329a1.479,1.479,0,0,0-.654-.53,2.151,2.151,0,0,0-.962-.2,1.919,1.919,0,0,0-.935.2,1.846,1.846,0,0,0-1.06,1.35,2.678,2.678,0,0,0-.125,1.017,2.783,2.783,0,0,0,.125,1.031,1.757,1.757,0,0,0,.375.8,2.018,2.018,0,0,0,.688.546,2.094,2.094,0,0,0,.933.18,2.364,2.364,0,0,0,.963-.181,1.643,1.643,0,0,0,.654-.547,2.9,2.9,0,0,0,.437-.8,5.557,5.557,0,0,0,.124-1.031,5.28,5.28,0,0,0-.125-1.016,3.018,3.018,0,0,0-.438-.82m-.309,2.654a1.907,1.907,0,0,1-.249.622,1.141,1.141,0,0,1-.435.379,1.341,1.341,0,0,1-.622.138,1.207,1.207,0,0,1-.594-.137.949.949,0,0,1-.433-.379,1.884,1.884,0,0,1-.253-.622,3.409,3.409,0,0,1-.091-.818,3.194,3.194,0,0,1,.09-.8,1.744,1.744,0,0,1,.252-.621.958.958,0,0,1,.434-.38,1.213,1.213,0,0,1,.594-.137,1.362,1.362,0,0,1,.621.136,1.156,1.156,0,0,1,.436.38,1.741,1.741,0,0,1,.248.622,3.176,3.176,0,0,1,.092.8,3.351,3.351,0,0,1-.09.818" fill="#fff"/>
          <path id="Path_23580" data-name="Path 23580" d="M1356.069,198.029l0-4.352c-.064,0-.124-.015-.187-.015h-.374c-.032,0-.094.015-.126.015v4.974h2.679a1.079,1.079,0,0,0,.032-.319v-.152a.261.261,0,0,0-.032-.151Z" fill="#fff"/>
          <path id="Path_23581" data-name="Path 23581" d="M1360.113,193.6c-.218,0-.435.016-.653.032s-.4.03-.592.045l0,4.975c.156.015.344.028.56.045a5.2,5.2,0,0,0,.685.029,2.85,2.85,0,0,0,1.993-.623,2.566,2.566,0,0,0,.683-1.926,2.609,2.609,0,0,0-.684-1.909,2.686,2.686,0,0,0-1.994-.668m1.777,3.5a1.372,1.372,0,0,1-.405.592,1.244,1.244,0,0,1-.56.3,3.191,3.191,0,0,1-.778.106c-.094,0-.218-.014-.312-.014s-.155-.015-.219-.031l0-3.791a1.159,1.159,0,0,1,.252-.03h.312a3.22,3.22,0,0,1,.745.089,1.141,1.141,0,0,1,.56.349,1.373,1.373,0,0,1,.406.592,2.512,2.512,0,0,1,.157.88,2.836,2.836,0,0,1-.156.955" fill="#fff"/>
          <path id="Path_23582" data-name="Path 23582" d="M1364.535,198.026v-1.7h1.684v-.151c0-.06,0-.107,0-.166v-.289h-1.683v-1.426h2.087c0-.045.032-.09.032-.151v-.151a.981.981,0,0,0-.032-.319h-2.8v4.974h2.836c.029-.045.029-.106.059-.152v-.167a1.021,1.021,0,0,0-.059-.3Z" fill="#fff"/>
          <path id="Path_23583" data-name="Path 23583" d="M1369.7,196.508a2.256,2.256,0,0,0,.344-.213,1.865,1.865,0,0,0,.309-.3,1.383,1.383,0,0,0,.247-.4,1.184,1.184,0,0,0,.095-.484,1.337,1.337,0,0,0-.19-.745,1.364,1.364,0,0,0-.433-.468,2.743,2.743,0,0,0-.624-.243,4.07,4.07,0,0,0-.745-.061h-.282c-.093.016-.155.016-.281.031a1.758,1.758,0,0,0-.246.015c-.066.016-.159.016-.25.03l0,4.975c.031,0,.091.016.185.016h.188a.662.662,0,0,0,.156-.015h.154v-4.429a1.906,1.906,0,0,1,.249-.014.881.881,0,0,1,.22-.016,1.187,1.187,0,0,1,.807.242.853.853,0,0,1,.313.743.718.718,0,0,1-.126.456,2.8,2.8,0,0,1-.28.317,1.429,1.429,0,0,1-.436.228,3.265,3.265,0,0,1-.371.121l-.064.016v.03l1.621,2.3c.124,0,.247.016.374.016.185,0,.311-.016.437-.016l-1.467-2.093Z" fill="#fff"/>
          <path id="Path_23584" data-name="Path 23584" d="M1376.928,193.654h-.347c-.059,0-.123.014-.153.014l0,3.73-2.244-3.729c-.061,0-.123-.015-.155-.015h-.344c-.062,0-.124.014-.188.014l0,4.975c.065,0,.127.015.188.015h.376c.03,0,.1-.016.124-.016l0-3.715,2.243,3.715c.063,0,.124.015.186.015h.314c.059,0,.124-.015.185-.016l0-4.974c-.061,0-.126-.015-.185-.015" fill="#fff"/>
          <path id="Path_23585" data-name="Path 23585" d="M1380.1,193.653h-.439c-.059,0-.123.015-.185.015l-1.648,4.975c.033,0,.092.015.157.015h.4c.029,0,.094-.015.153-.015l.375-1.153h1.932l.374,1.152c.06,0,.09.016.154.016h.406c.062,0,.123-.016.188-.016l-1.656-4.974c-.061,0-.155-.014-.215-.014m-.995,3.23.777-2.548.779,2.548Z" fill="#fff"/>
          <path id="Path_23586" data-name="Path 23586" d="M1386.889,193.649h-.406c-.061,0-.126.015-.156.015l-1.336,3.112-1.341-3.11c-.029,0-.093-.015-.188-.015h-.434c-.064,0-.123.016-.187.016l-.216,4.974c.062,0,.094.015.156.015h.372c.034,0,.094-.015.124-.015l.186-3.883,1.187,2.851a1.95,1.95,0,0,0,.28.015,1.762,1.762,0,0,0,.278-.015l1.244-2.837.189,3.868c.065,0,.094.014.156.014h.344c.06,0,.122-.014.186-.014l-.252-4.976c-.03,0-.092-.015-.186-.015" fill="#fff"/>
          <path id="Path_23587" data-name="Path 23587" d="M1389.2,198.016v-1.7h1.679a.282.282,0,0,1,.033-.151V196c0-.046,0-.092,0-.152a.239.239,0,0,1-.032-.136h-1.679v-1.426h2.116v-.622h-2.8l0,4.975,2.865,0v-.319c0-.106,0-.211,0-.3Z" fill="#fff"/>
          <path id="Path_23588" data-name="Path 23588" d="M1202.569,160.837l.207,0c4.573-.033,9.736,1.9,10.594,7.919.921-.153,1.1-.2,2.137-.376l-.045-5.894a11.611,11.611,0,0,1,11.459-11.764h.233c12.261-.6,11.644,11.6,11.644,11.6.8-.188,1.567-.362,2.376-.559l-.064-7.191a11.652,11.652,0,0,1,11.557-11.754l.236,0a11.665,11.665,0,0,1,11.733,11.588l.013,1.666c.863-.318,1.621-.678,2.461-1.008l.219-30.122s-.353-9.682,1.568-13.629c2.021-4.149,16.893-12.887,48.807-13.43,5.855-.1,15.608.453,19.078,3.426,5.284,4.527,2.769,13.093-4.1,14.6l-8.948.777-21.775,1.892c-4.032.884-11.087,5.471-11.087,20.374l.167,73.345c.618.867,12.445,7.472,15.584,5.158,7.3-5.382,31.8-17.934,58.925-13.508,6.35,1.036,4.186,5.462,4.186,5.462l-88.029,66.484-.162,37.581h-72.589l-.02-34.285c-1.864-3.7-15.9-25.8-15.926-29.923l-.578-76.79c-.048-6.382,4.49-11.59,10.135-11.63" fill="#efc39a"/>
          <g id="Group_22558" data-name="Group 22558" opacity="0.75" style="mix-blend-mode: multiply;isolation: isolate">
            <g id="Group_22557" data-name="Group 22557">
              <g id="Group_22556" data-name="Group 22556" clip-path="url(#clip-path-3)">
                <rect id="Rectangle_23098" data-name="Rectangle 23098" width="73.101" height="60.072" transform="translate(1208.879 279.142)" fill="#efc39a"/>
              </g>
            </g>
          </g>
          <rect id="Rectangle_23100" data-name="Rectangle 23100" width="82.129" height="164.474" transform="translate(1204.101 286.947)" fill="#ffd426"/>
        </g>
      </g>
    </g>
  </g>
</svg>
