<svg xmlns="http://www.w3.org/2000/svg" xmlns:xlink="http://www.w3.org/1999/xlink" width="70" height="70" viewBox="0 0 70 70">
  <defs>
    <clipPath id="clip-path">
      <rect id="Rectangle_24356" data-name="Rectangle 24356" width="48.938" height="44.12" fill="none"/>
    </clipPath>
  </defs>
  <g id="Icon" transform="translate(-295 -843)">
    <path id="Rectangle" d="M295,847a4,4,0,0,1,4-4h62a4,4,0,0,1,4,4v62a4,4,0,0,1-4,4H299a4,4,0,0,1-4-4Z" fill="#f8f6ff"/>
    <g id="Group_24430" data-name="Group 24430" transform="translate(305.531 855.94)">
      <g id="Group_24429" data-name="Group 24429" clip-path="url(#clip-path)">
        <path id="Path_27252" data-name="Path 27252" d="M44.24,333.081c1.236,0,2.473.021,3.709,0a.977.977,0,0,1,.989.5v.478a1.1,1.1,0,0,1-1.015.474q-23.45-.013-46.9-.008a2.935,2.935,0,0,1-.334-.005A.726.726,0,0,1,0,333.8a.7.7,0,0,1,.743-.7c1.114-.011,2.229,0,3.343-.005.222,0,.445-.013.667-.019a1.149,1.149,0,0,1,.645-.123q2.858,0,5.716,0a1.046,1.046,0,0,1,.643.123h3.8a1.11,1.11,0,0,1,.645-.123q2.858,0,5.715,0a1.074,1.074,0,0,1,.644.123l3.8,0a1.08,1.08,0,0,1,.644-.127q2.863,0,5.726,0a1.118,1.118,0,0,1,.645.127H37.17a1.057,1.057,0,0,1,.645-.127q2.866,0,5.732,0a1.335,1.335,0,0,1,.694.135" transform="translate(0 -290.411)" fill="#407093"/>
        <path id="Path_27253" data-name="Path 27253" d="M291.035,159.488c-.005-.175-.016-.35-.016-.525q0-10.895,0-21.79c0-1.021.28-1.3,1.305-1.3,1.561,0,3.122,0,4.684,0a.9.9,0,0,1,1,1.006q0,11.253,0,22.506c0,.032,0,.063-.007.1a.877.877,0,0,1-.631.155q-2.853.005-5.707,0a.832.832,0,0,1-.63-.15" transform="translate(-253.841 -118.515)" fill="#8ac9fe"/>
        <path id="Path_27254" data-name="Path 27254" d="M58.879,21.266c1.675-.6,3.37-1.135,5.023-1.8a50.574,50.574,0,0,0,14.536-8.544,28.513,28.513,0,0,0,5.335-5.959c.234-.359.27-.563-.149-.806-.548-.319-1.05-.718-1.574-1.08a.552.552,0,0,1-.312-.589c.052-.265.263-.346.481-.4Q86.164,1.062,90.111.043c.478-.123.683.013.736.514.224,2.12.436,4.241.653,6.361.057.554.116,1.107.174,1.661.027.258.049.517-.214.683s-.481.027-.7-.124c-.534-.375-1.068-.75-1.607-1.117-.126-.086-.234-.227-.417-.2a2.387,2.387,0,0,1-.65-.392c-.413-.251-.548-.244-.851.129-.563.692-1.112,1.393-1.695,2.069a32.526,32.526,0,0,1-9.2,7.428A36.351,36.351,0,0,1,64.251,20.9c-1.511.226-3.035.343-4.554.49-.271.026-.575.106-.817-.125" transform="translate(-51.357 0)" fill="#fe4755"/>
        <path id="Path_27255" data-name="Path 27255" d="M206.437,195.275c-.007-.286-.019-.573-.019-.859q0-8.124,0-16.247c0-1,.268-1.265,1.278-1.265,1.561,0,3.122,0,4.684,0a.91.91,0,0,1,1.038,1.023q.006,8.578,0,17.155c0,.063-.011.127-.017.19a.858.858,0,0,1-.63.152q-2.852.006-5.7,0a.84.84,0,0,1-.63-.151" transform="translate(-180.047 -154.303)" fill="#97da7c"/>
        <path id="Path_27256" data-name="Path 27256" d="M121.832,230.722c-.007-.716-.019-1.432-.02-2.148q0-4.919,0-9.838c0-.842.342-1.188,1.182-1.191q2.316-.007,4.633,0c.838,0,1.187.355,1.188,1.192q0,5.779,0,11.557c0,.143-.013.286-.02.429a.836.836,0,0,1-.629.151q-2.852.006-5.7,0a.855.855,0,0,1-.63-.152" transform="translate(-106.25 -189.751)" fill="#feb957"/>
        <path id="Path_27257" data-name="Path 27257" d="M37.3,266.507c0-2.324-.012-4.648-.007-6.972a.882.882,0,0,1,.955-.957q2.508-.014,5.015,0a.929.929,0,0,1,1.017.963c.006,2.324-.006,4.648-.011,6.972a.832.832,0,0,1-.63.149q-2.854.007-5.707,0a.878.878,0,0,1-.631-.155" transform="translate(-32.53 -225.538)" fill="#fee17a"/>
        <path id="Path_27258" data-name="Path 27258" d="M53.807,69.653A26.837,26.837,0,0,0,57.07,69.4c1.2-.1,2.385-.293,3.57-.493a36.053,36.053,0,0,0,6.338-1.669,31.37,31.37,0,0,0,7.257-3.758A34.586,34.586,0,0,0,82.1,55.8c.257-.333.544-.474.918-.135.208.189.513.264.651.539a33.78,33.78,0,0,1-7.789,7.746,40.011,40.011,0,0,1-15.885,6.667,45.286,45.286,0,0,1-5.865.77.882.882,0,0,1-1.028-.648.866.866,0,0,1,.707-1.09" transform="translate(-46.285 -48.387)" fill="#fb2b3a"/>
        <path id="Path_27259" data-name="Path 27259" d="M290.983,320.7l6.967,0a13.109,13.109,0,0,0,.079,1.7l-7.071-.007q.012-.845.024-1.689" transform="translate(-253.789 -279.728)" fill="#6cc3fe"/>
        <path id="Path_27260" data-name="Path 27260" d="M37.226,320.693l6.968.005.016,1.685h-7q.01-.845.02-1.69" transform="translate(-32.453 -279.725)" fill="#f8ce58"/>
        <path id="Path_27261" data-name="Path 27261" d="M121.836,320.712H128.8q.01.843.02,1.687h-7l.021-1.688" transform="translate(-106.253 -279.741)" fill="#feab3e"/>
        <path id="Path_27262" data-name="Path 27262" d="M206.395,320.713h6.964q.013.845.026,1.691h-7.016q.013-.845.026-1.69" transform="translate(-180.005 -279.741)" fill="#81d261"/>
      </g>
    </g>
  </g>
</svg>
