<svg xmlns="http://www.w3.org/2000/svg" xmlns:xlink="http://www.w3.org/1999/xlink" width="70" height="70" viewBox="0 0 70 70">
  <defs>
    <clipPath id="clip-path">
      <rect id="Rectangle_24357" data-name="Rectangle 24357" width="52.397" height="52.249" fill="none"/>
    </clipPath>
  </defs>
  <g id="Icon" transform="translate(-295 -843)">
    <path id="Rectangle" d="M295,847a4,4,0,0,1,4-4h62a4,4,0,0,1,4,4v62a4,4,0,0,1-4,4H299a4,4,0,0,1-4-4Z" fill="#f8f6ff"/>
    <g id="Group_24431" data-name="Group 24431" transform="translate(303.802 851.875)">
      <g id="Group_24431-2" data-name="Group 24431" clip-path="url(#clip-path)">
        <path id="Path_27263" data-name="Path 27263" d="M274.367,226.669a.765.765,0,0,1-.705.272c-.353-.018-.708-.007-1.063-.009a.431.431,0,0,1-.077-.329c0-.66,0-1.32,0-1.98a1.457,1.457,0,0,1,.41-1.044c.3-.318.613-.623.926-.928.078-.076.155-.187.3-.113.132.113.123.3.214.43Z" transform="translate(-235.255 -192.087)" fill="#c6cee1"/>
        <path id="Path_27264" data-name="Path 27264" d="M178.369,144.971a4.7,4.7,0,0,1-1.12,3.391,1.341,1.341,0,0,1-.277.288.813.813,0,0,0-.367.865c.023.382.008.768,0,1.152a.215.215,0,0,0,.168.254.155.155,0,0,1-.227.016,2.1,2.1,0,0,1-.06-.821c0-.3.007-.6,0-.948a4.6,4.6,0,0,1-2.941.746c-.246-.039-.367-.235-.505-.408-.083-.1-.167-.209-.245-.317a4.651,4.651,0,0,1-.708-2.543c.007-.991,0-1.981,0-2.972a.983.983,0,0,1,.954-1.107,7.957,7.957,0,0,1,3.647.3,5.939,5.939,0,0,1,.758.333,2.893,2.893,0,0,0,.79,1.148.5.5,0,0,1,.123.346.946.946,0,0,0,.017.273" transform="translate(-148.547 -123.001)" fill="#efbf86"/>
        <path id="Path_27265" data-name="Path 27265" d="M172.888,115.756a1.4,1.4,0,0,0-.5-.675,1.11,1.11,0,0,1-.372-.768c-.01-.015-.027-.03-.027-.045-.007-.456-.334-.655-.674-.848a6.5,6.5,0,0,0-2.465-.755c-.525-.064-1.052-.017-1.576-.07a1.844,1.844,0,0,1-1.42-1.281,1.793,1.793,0,0,1,1.093-2.26c.035.007.02-.048.014-.013,0,0-.006,0-.015,0a.124.124,0,0,1-.14-.049,1.355,1.355,0,0,1,.477-.04q2.561,0,5.122,0a.9.9,0,0,1,.96.975c0,1.207,0,2.413,0,3.62a4.91,4.91,0,0,1-.3,1.619,1.923,1.923,0,0,0-.142.594q-.023.039-.042,0" transform="translate(-143.105 -94.05)" fill="#694b4b"/>
        <path id="Path_27266" data-name="Path 27266" d="M193.387,217.632h-4.014a1.451,1.451,0,0,1-.134-.748c-.1-.894-.168-1.79-.264-2.685a1.009,1.009,0,0,1,.007-.345c.036-.127.171-.181.22-.3a.774.774,0,0,0,.049-.287c.023-.159.1-.173.218-.08s.231.223.345.335c.351.344.545.337.85-.053.389-.5.756-1.015,1.15-1.51.065-.081.11-.188.229-.211l2.407.863a1.945,1.945,0,0,1,.9.363c.1.071.206.143.213.286a.616.616,0,0,1-.218.3q-.652.656-1.308,1.308a1.8,1.8,0,0,0-.583,1.415c.016.348,0,.7,0,1.045a.4.4,0,0,1-.068.3" transform="translate(-163.124 -182.794)" fill="#fe507d"/>
        <path id="Path_27267" data-name="Path 27267" d="M140.2,217.633h-4.014a.4.4,0,0,1-.068-.3c0-.365-.011-.731,0-1.1a1.73,1.73,0,0,0-.54-1.32c-.444-.45-.894-.894-1.34-1.343a.717.717,0,0,1-.226-.293.123.123,0,0,1,.082-.136,5.053,5.053,0,0,1,1.525-.693c.633-.241,1.272-.466,1.909-.7a2.15,2.15,0,0,1,.539.614c.292.36.554.743.84,1.107.306.389.5.4.85.053.108-.106.208-.221.325-.317.152-.124.212-.1.24.09a.754.754,0,0,0,.045.261c.047.118.182.17.219.3a8.788,8.788,0,0,1-.1,1.463c-.055.684-.125,1.366-.195,2.049-.01.1,0,.2-.091.269" transform="translate(-115.687 -182.794)" fill="#fe507d"/>
        <path id="Path_27268" data-name="Path 27268" d="M156.28,135.1a10.278,10.278,0,0,1,2.568.216,6.185,6.185,0,0,1,1.808.762.711.711,0,0,1,.391.8c-.354-.094-.667-.292-1.022-.39a7.274,7.274,0,0,0-2.871-.261c-.219.028-.441,0-.664.052a.873.873,0,0,0-.745.877c0,1.152-.022,2.3.007,3.456a4.082,4.082,0,0,0,.583,1.976.574.574,0,0,1,.107.242c.05.108.171.22.04.333a.33.33,0,0,1-.379,0c-.358-.182-.733-.327-1.088-.514-.185-.1-.266-.339-.505-.357a4.275,4.275,0,0,1-1.395-2.717,9.169,9.169,0,0,1-.045-1.362,1.128,1.128,0,0,1,.338-.475,1.361,1.361,0,0,0,.5-1.212,4.945,4.945,0,0,1,0-.669.512.512,0,0,1,.4-.513,6.074,6.074,0,0,1,1.977-.244" transform="translate(-132.134 -116.616)" fill="#e5ae78"/>
        <path id="Path_27269" data-name="Path 27269" d="M93.644,220.227l-.059.1a.434.434,0,0,1-.046.125,2.484,2.484,0,0,0-.407,1.574q0,.8,0,1.6a1.9,1.9,0,0,0,.127.917c.024.047.062.119-.028.156-1.506,0-3.011,0-4.516,0-.172-.047-.13-.2-.131-.308-.008-.587-.013-1.174,0-1.761a1.019,1.019,0,0,0-.422-.874q-.409-.322-.812-.65c-.082-.067-.176-.125-.2-.242a1.345,1.345,0,0,1,.6-.465c.308-.133.6-.295.9-.445a.456.456,0,0,1,.217.189,2.489,2.489,0,0,0,1.975.959,2.536,2.536,0,0,0,2.015-.937c.069-.081.123-.176.235-.207l.546.264" transform="translate(-75.235 -189.881)" fill="#d4dbec"/>
        <path id="Path_27270" data-name="Path 27270" d="M105.345,158.929a3.035,3.035,0,0,1,3.24,1.376,4.519,4.519,0,0,1,.58,1.947,14.707,14.707,0,0,0,.626,3.073c.186.578.128.708-.43.937a7.433,7.433,0,0,1-1.812.521c-.258.02-.275-.185-.33-.354a2.958,2.958,0,0,1-.045-.939c.03-.157.164-.226.274-.314a2.669,2.669,0,0,0,.823-1,2.811,2.811,0,0,0,.2-.662.559.559,0,0,0-.229-.607,7.78,7.78,0,0,0-2.8-1.417,1.121,1.121,0,0,1-.154-.046,1.436,1.436,0,0,1-.506-2,1.551,1.551,0,0,1,.553-.513" transform="translate(-90.28 -137.123)" fill="#694b4b"/>
        <path id="Path_27271" data-name="Path 27271" d="M247.51,180.878a3.419,3.419,0,0,1-.309,1.869,2.948,2.948,0,0,1-.976,1.04.4.4,0,0,1-.083.106,2.6,2.6,0,0,1-1.77.3.605.605,0,0,1-.316-.13,2.47,2.47,0,0,1-.586-1.679c.009-.419,0-.839,0-1.258a.9.9,0,0,1,.973-.965,9.227,9.227,0,0,1,2.61.4c.178.051.4.075.454.318" transform="translate(-210.176 -155.526)" fill="#efbf86"/>
        <path id="Path_27272" data-name="Path 27272" d="M259.09,215.938c-.026.005-.061,0-.077.017a11.371,11.371,0,0,0-1.278,1.32,1.106,1.106,0,0,0-.2.678q0,1.189,0,2.378l-2.257,0a1.05,1.05,0,0,1-.076-.443c-.008-.364-.034-.728-.045-1.091-.022-.737-.084-1.472-.086-2.209a1.4,1.4,0,0,0,.232-.574c.123-.09.192.03.275.077.228.132.3.12.435-.1.187-.294.329-.613.509-.911.045-.075.068-.166.153-.214.532.161,1.063.327,1.6.481a1.392,1.392,0,0,1,.819.589" transform="translate(-220.193 -185.486)" fill="#d4dbec"/>
        <path id="Path_27273" data-name="Path 27273" d="M237.315,158.04a1.514,1.514,0,0,1,1.177-.47c.936.01,1.873,0,2.809,0a.917.917,0,0,1,1.019,1,7.257,7.257,0,0,1-.407,2.65c-.078.044-.118-.01-.148-.065a1.988,1.988,0,0,0-1.1-.855,5.84,5.84,0,0,0-1.9-.408,4.476,4.476,0,0,0-.852-.023,1.165,1.165,0,0,1-.718-.311,1.07,1.07,0,0,1,.116-1.52" transform="translate(-204.536 -136.023)" fill="#694b4b"/>
        <path id="Path_27274" data-name="Path 27274" d="M89.338,159.466c.073.08-.026.089-.053.1a1.386,1.386,0,0,0-.015,2.323c.014.008.02.028.03.043a1.508,1.508,0,0,0-.549.6,2.99,2.99,0,0,1-1.067.955c-.357.226-.406.34-.3.753a2.524,2.524,0,0,0,.968,1.465c.1.072.215.133.254.266a5.88,5.88,0,0,1,.015.919c-.049.172-.047.379-.288.42a8.3,8.3,0,0,1-1.914-.585c-.362-.16-.453-.324-.331-.694a18.154,18.154,0,0,0,.748-3.8,3.234,3.234,0,0,1,2.292-2.731c.068-.019.14-.025.21-.037" transform="translate(-74.272 -137.66)" fill="#5a4146"/>
        <path id="Path_27275" data-name="Path 27275" d="M153.44,112.818c-.6.094-1.2.132-1.788.267-.416.094-.519.2-.52.631,0,.267,0,.535,0,.8a.954.954,0,0,1-.2.648c-.228.259-.465.51-.7.764-.078-.448-.306-.859-.351-1.313a5.907,5.907,0,0,1,.313-3.433,3.373,3.373,0,0,1,2.8-1.913l.34.023a1.827,1.827,0,0,0-1.221,1.2,1.768,1.768,0,0,0,1.085,2.222c.081.03.175.034.24.1" transform="translate(-129.294 -94.329)" fill="#5a4146"/>
        <path id="Path_27276" data-name="Path 27276" d="M130.577,226.983a.618.618,0,0,1-.218-.5c.016-.964-.052-1.929.04-2.891a1.406,1.406,0,0,1,.475-.957c.489.555,1.034,1.054,1.553,1.579a1.875,1.875,0,0,1,.6,1.453c-.019.453,0,.908-.005,1.362h-2.344c-.034-.016-.084,0-.1-.049" transform="translate(-112.525 -192.194)" fill="#d13c69"/>
        <path id="Path_27277" data-name="Path 27277" d="M221.282,227.026c0-.481.007-.962,0-1.443a1.753,1.753,0,0,1,.546-1.313c.468-.476.944-.945,1.415-1.418.068-.069.128-.147.191-.22.163,0,.225.123.3.233a2.109,2.109,0,0,1,.306,1.15c.021.794.016,1.589,0,2.383-.006.384-.126.546-.413.629h-2.342" transform="translate(-191.019 -192.188)" fill="#d13c69"/>
        <path id="Path_27278" data-name="Path 27278" d="M235.331,174.113c1.5-.016,2.984.007,4,1.388l-.044.154a1.49,1.49,0,0,0-.821-.346,9.475,9.475,0,0,0-2.345-.3.78.78,0,0,0-.783.7,8.573,8.573,0,0,0,.091,2.236,4.9,4.9,0,0,0,.435.877c-.169.1-.295-.059-.45-.075-.053.142.018.3-.064.438a.055.055,0,0,1-.068.014.316.316,0,0,1,0-.053.882.882,0,0,0-.423-.9,2.386,2.386,0,0,1-.874-1.765,3.946,3.946,0,0,0-.038-.717.947.947,0,0,1,.331-.779c.209-.207.412-.421.626-.622a.621.621,0,0,1,.428-.243" transform="translate(-201.952 -150.302)" fill="#e5ae78"/>
        <path id="Path_27279" data-name="Path 27279" d="M230.365,220.309a.549.549,0,0,0,.322-.539c-.015-.968.055-1.939-.04-2.905a1.393,1.393,0,0,0-.475-.951,2.553,2.553,0,0,0-1.085-.626,10.492,10.492,0,0,0,1.564-.439,7.835,7.835,0,0,1,.484.826c.044.066.073.143.114.212.188.319.244.332.563.145.063-.037.125-.117.211-.036a2.232,2.232,0,0,0,.19.571,4.045,4.045,0,0,1,.017.881c-.05.747-.087,1.494-.1,2.242a1.162,1.162,0,0,1-.126.62l-1.632,0" transform="translate(-197.76 -185.471)" fill="#d4dbec"/>
        <path id="Path_27280" data-name="Path 27280" d="M163.629,187.788c.172,0,.3-.011.42.21.092.171.4.226.615.333a2.972,2.972,0,0,1,.623.291.243.243,0,0,0,.279,0c.108-.084-.039-.195,0-.3.156.084.226.248.33.376a.976.976,0,0,0,.315.267c-.083.085-.182.051-.278.037a4.59,4.59,0,0,1-1.626-.593c-.2-.118-.215-.108-.224.122-.023.593-.029.611.525.835a5.157,5.157,0,0,0,4.211-.065c.139-.062.263-.2.443-.122l.005.855c-.026.112-.129.142-.21.191-.716.436-1.432.873-2.141,1.321a.454.454,0,0,1-.569-.01c-.822-.49-1.6-1.048-2.466-1.468a.076.076,0,0,1-.031-.042c.113-.043.12-.134.119-.238-.006-.517-.021-1.034,0-1.551.008-.259-.251-.28-.331-.45" transform="translate(-141.254 -162.109)" fill="#e5ae78"/>
        <path id="Path_27281" data-name="Path 27281" d="M98.776,214.183A.678.678,0,0,0,99,213.8a.184.184,0,0,1,.2-.026,3.5,3.5,0,0,0,2.262.011c.091-.03.2-.061.253.066s.087.3.27.335c0,.162.146.175.239.236a3.649,3.649,0,0,0,.352.185,2.558,2.558,0,0,1-2.145,1.21,2.529,2.529,0,0,1-2.3-1.213c.219-.134.486-.2.642-.424" transform="translate(-84.715 -184.53)" fill="#e5ae78"/>
        <path id="Path_27282" data-name="Path 27282" d="M183.209,205.632a.442.442,0,0,0,.555-.023c.773-.489,1.56-.956,2.342-1.43l.211-.005a.484.484,0,0,1,.361.318c.115.238.226.478.339.718-.447.6-.887,1.2-1.343,1.788-.316.409-.555.415-.919.046-.137-.139-.263-.289-.405-.446-.124.155-.008.319-.11.431a.111.111,0,0,1-.064-.108c.058-.463-.323-.654-.569-.928a.165.165,0,0,0-.237-.03c-.062.039-.133.113-.2,0a.317.317,0,0,1,.042-.334" transform="translate(-158.096 -176.254)" fill="#d13c69"/>
        <path id="Path_27283" data-name="Path 27283" d="M163,205.619l0,.385c.017.114-.063.18-.133.242a.684.684,0,0,0-.291.611.155.155,0,0,1-.073.159c-.09-.116-.012-.26-.08-.445-.184.194-.343.37-.511.535-.259.255-.507.269-.73-.008-.5-.623-.972-1.266-1.456-1.9.112-.239.223-.479.338-.717a.462.462,0,0,1,.412-.321,1.79,1.79,0,0,1,.8.391c.576.35,1.145.713,1.716,1.07" transform="translate(-137.889 -176.241)" fill="#d13c69"/>
        <path id="Path_27284" data-name="Path 27284" d="M85.456,226.612c.363.284.729.561,1.086.852a1.034,1.034,0,0,1,.421.874c-.019.694-.005,1.388-.005,2.083.019.011.025.023.018.034s-.013.016-.02.016c-.428,0-.856.006-1.284,0a.45.45,0,0,1-.484-.478q0-1.337,0-2.675a1.165,1.165,0,0,1,.267-.709" transform="translate(-73.539 -195.624)" fill="#c6cee1"/>
        <path id="Path_27285" data-name="Path 27285" d="M179.254,230.249c.075-1.143.2-2.281.315-3.42.014-.141.007-.284.009-.426a3.77,3.77,0,0,1,1.089,0,13.5,13.5,0,0,0,.119,1.539c.06.769.165,1.535.205,2.307h-1.737" transform="translate(-154.742 -195.41)" fill="#707486"/>
        <path id="Path_27286" data-name="Path 27286" d="M241.863,208.919c-.506.394-.586.376-.876-.2a5.554,5.554,0,0,1-.465-.928c.136-.17.194-.412.439-.484l.042.007c.119.02.177.124.261.192.275.289.607.518.873.817.126.141.246.111.363-.007.293-.3.6-.574.909-.856a.5.5,0,0,0,.155-.407.427.427,0,0,1,.068-.328l.05-.051c-.142.484.223.772.433,1.12a9.9,9.9,0,0,1-.67,1.271.232.232,0,0,1-.347.083c-.114-.067-.218-.153-.326-.23-.1.03-.17-.044-.228-.1a.3.3,0,0,0-.479.014c-.053.05-.107.123-.2.085" transform="translate(-207.633 -178.414)" fill="#c6cee1"/>
        <path id="Path_27287" data-name="Path 27287" d="M232.753,162.8a6.945,6.945,0,0,0-1.159,1.088,1.157,1.157,0,0,0-.226.556,5.279,5.279,0,0,1-.4-2.239,1.294,1.294,0,0,1,1.184-1.2,2.392,2.392,0,0,0-.272.571.879.879,0,0,0,.762,1.161.155.155,0,0,1,.111.063" transform="translate(-199.374 -138.989)" fill="#5a4146"/>
        <path id="Path_27288" data-name="Path 27288" d="M250.376,230.263c.05-.92.1-1.84.147-2.761.016-.347.008-.694.011-1.042a.456.456,0,0,1,.538.007,8.368,8.368,0,0,1,.084,1.383c.057.771.061,1.547.112,2.319,0,.031-.027.065-.042.1l-.85-.005" transform="translate(-216.139 -195.421)" fill="#aeb8d1"/>
        <path id="Path_27289" data-name="Path 27289" d="M98.129,254.47c0-.016,0-.033,0-.049l4.632-.007.1.049-4.736.008" transform="translate(-84.711 -219.624)" fill="#d8d5db"/>
        <path id="Path_27290" data-name="Path 27290" d="M217.762,158.729a.166.166,0,0,0,.042,0l0,.264c-.07-.08-.037-.175-.039-.265" transform="translate(-187.979 -137.024)" fill="#ab8973"/>
        <path id="Path_27291" data-name="Path 27291" d="M171.57,191.25c-.366.137-.709.326-1.083.452a4.758,4.758,0,0,1-1.546.229,4.946,4.946,0,0,1-2.432-.6c-.133-.075-.207-.146-.193-.306s0-.321.005-.482c.005-.092-.056-.219.046-.269.079-.038.153.067.226.112a4.416,4.416,0,0,0,1.925.655,4.612,4.612,0,0,0,3.051-.85Z" transform="translate(-143.566 -164.18)" fill="#d19a6e"/>
        <path id="Path_27292" data-name="Path 27292" d="M181.2,217.807a2.623,2.623,0,0,1-1.089,0,.27.27,0,0,1-.217-.218c-.113-.474.229-.725.5-1.012.277-.233.277-.233.544.033a.878.878,0,0,0,.094.093.866.866,0,0,1,.389.886.271.271,0,0,1-.217.218" transform="translate(-155.277 -186.814)" fill="#5b5d6e"/>
        <path id="Path_27293" data-name="Path 27293" d="M107.973,186.382a2.8,2.8,0,0,1-1.079,1.227,1.746,1.746,0,0,1-1.078.388,1.231,1.231,0,0,1-.731-.063,2.239,2.239,0,0,1-.877-2.292.411.411,0,0,1,.174-.29,2.359,2.359,0,0,0,.582-.622.356.356,0,0,1,.481-.154,6.85,6.85,0,0,1,2.082,1.184c.115.1.236.191.346.295.1.089.17.187.1.327" transform="translate(-89.938 -159.305)" fill="#efbf86"/>
        <path id="Path_27294" data-name="Path 27294" d="M100.019,180.329a.317.317,0,0,0-.138-.274,7.2,7.2,0,0,0-2.427-1.474.277.277,0,0,0-.392.139,1.881,1.881,0,0,1-.581.618c-.073.049-.157.11-.159.206a2.714,2.714,0,0,0,.278,1.71,5.483,5.483,0,0,0,.52.573.869.869,0,0,1-.867-.318,2.642,2.642,0,0,1-1.27-1.863.472.472,0,0,1,.248-.545,3.186,3.186,0,0,0,1.385-1.336.438.438,0,0,1,.4-.238,6.84,6.84,0,0,1,2.2.908c.241.15.468.324.7.482a.646.646,0,0,1,.317.792,2.111,2.111,0,0,1-.219.62" transform="translate(-81.984 -153.251)" fill="#e5ae78"/>
        <path id="Path_27295" data-name="Path 27295" d="M104.348,206.638a1.8,1.8,0,0,0,.867.318,2.527,2.527,0,0,0,1.576-.171l.244-.1a8.448,8.448,0,0,0,.045,1.02c-.232-.085-.423.077-.633.118a3.436,3.436,0,0,1-1.977-.16.376.376,0,0,0-.105-.01q-.009-.509-.017-1.017" transform="translate(-90.079 -178.382)" fill="#d19a6e"/>
        <path id="Path_27296" data-name="Path 27296" d="M246.671,207.05c0,.122-.007.246.005.367a.39.39,0,0,1-.22.431,2.53,2.53,0,0,1-2.2,0,.575.575,0,0,1-.213-.21v-.564l.539.181a2.59,2.59,0,0,0,1.939-.161.959.959,0,0,1,.15-.045" transform="translate(-210.672 -178.737)" fill="#d19b6e"/>
        <path id="Path_27297" data-name="Path 27297" d="M251.026,221.647l-.538-.007c-.221-.127-.147-.345-.165-.534.559-.431.351-.406.909,0-.008.2.056.435-.207.541" transform="translate(-216.093 -190.6)" fill="#959cb5"/>
        <path id="Path_27298" data-name="Path 27298" d="M245.6,212.885a9.4,9.4,0,0,0,.993.164,5.383,5.383,0,0,0,1.207-.165q-.483.457-.966.914a.172.172,0,0,1-.273.009q-.479-.463-.961-.922" transform="translate(-212.017 -183.773)" fill="#e5ae78"/>
        <path id="Path_27299" data-name="Path 27299" d="M0,178.932a.766.766,0,0,1,0,.819Z" transform="translate(0 -154.464)" fill="#adeba8"/>
        <path id="Path_27300" data-name="Path 27300" d="M99.47,79.082a5.927,5.927,0,0,1-1.455.166,26.4,26.4,0,0,1-11.936-1.842,24.494,24.494,0,0,1-5.227-2.867c.089-.269.306-.157.469-.137.59.073,1.173.193,1.762.28.663.1.855-.08.763-.743-.136-.976-.331-1.943-.473-2.918a1.347,1.347,0,0,1-.016-.606c.267-.208.449.029.622.15A20.325,20.325,0,0,0,88.4,72.9a21.816,21.816,0,0,0,6.014,1.34,20.157,20.157,0,0,0,9.6-1.532,20.839,20.839,0,0,0,10.757-9.9,20.61,20.61,0,0,0,2.24-7.5A20.89,20.89,0,0,0,113.73,41.66a21.772,21.772,0,0,0-2.179-2.833c-.371-.414-.608-.425-1.029-.037-.138.127-.262.269-.406.389-.559.467-1.1.287-1.233-.435-.163-.905-.327-1.811-.443-2.724a3.166,3.166,0,0,0-.083-.613,2.255,2.255,0,0,0-.07-.529,1.041,1.041,0,0,1-.033-.154,1.654,1.654,0,0,0-.115-.552,9.664,9.664,0,0,1-.311-1.908c-.056-.711.253-1,.943-.872a9.928,9.928,0,0,1,2.384.492l2.945.521c.064.241-.126.375-.237.535-.34.491-.733.941-1.1,1.411a.632.632,0,0,0,.05.942,26.877,26.877,0,0,1,7.06,15.077,25.807,25.807,0,0,1,.179,4.59,26.023,26.023,0,0,1-6.259,15.718,25.71,25.71,0,0,1-7.685,6.09,22.974,22.974,0,0,1-5.473,2.085c-.219.058-.461.007-.663.144-.161.062-.355-.062-.5.086" transform="translate(-69.796 -27.073)" fill="#90ddb5"/>
        <path id="Path_27301" data-name="Path 27301" d="M225.233,85.29a25.823,25.823,0,0,0,16.39-13.024,26.2,26.2,0,0,0,2.61-7.74,24.99,24.99,0,0,0,.319-5.89,26.628,26.628,0,0,0-1.74-8.017,25.778,25.778,0,0,0-3.957-6.922c-.524-.646-1.052-1.289-1.621-1.894a.568.568,0,0,1-.048-.85l1.549-2.017a4.106,4.106,0,0,1,1.111.137c.605.1.748.582.337,1.031-.941,1.026-.946,1.031-.035,2.059a26.246,26.246,0,0,1,.963,33.828A25.636,25.636,0,0,1,226.8,85.143c-.443.111-.9.169-1.35.252-.113.049-.223.093-.213-.106" transform="translate(-194.434 -33.603)" fill="#6ed4a0"/>
        <path id="Path_27302" data-name="Path 27302" d="M39.011,4.469c.779.138,1.566.23,2.349.342a3.91,3.91,0,0,0-.345-.3A26.064,26.064,0,0,0,27.735,0l-.513.005H25.167l-.51,0a15.148,15.148,0,0,0-1.942.2,4.071,4.071,0,0,0-1.238.179l-.016.005c-.027.01-.053.021-.081.031a2.205,2.205,0,0,0-.357.021,27.649,27.649,0,0,0-5.985,1.983A26.267,26.267,0,0,0,.3,22.073,9.332,9.332,0,0,1,0,23.956v.511a1.33,1.33,0,0,1,0,.819v3.07c.129.075.093.205.105.319A28.493,28.493,0,0,0,.69,32.187,26.341,26.341,0,0,0,6.668,43.654c.911,1.034.9,1.039-.031,2.057-.4.438-.254.941.338,1.032a3.945,3.945,0,0,0,1.11.131,1.647,1.647,0,0,0,.492.109,15.62,15.62,0,0,1,2.481.483,9.8,9.8,0,0,1,2.219.309c.764.131,1.046-.083.938-.846-.174-1.217-.4-2.427-.6-3.64a.223.223,0,0,0,.085-.179,19.225,19.225,0,0,0-.477-2.818.62.62,0,0,0-1-.308,6.319,6.319,0,0,0-.644.581c-.342.291-.595.291-.882-.042-.268-.31-.557-.6-.811-.922A20.877,20.877,0,0,1,5.241,23.558,20.431,20.431,0,0,1,12.934,9.7a20.47,20.47,0,0,1,14.9-4.645,20.515,20.515,0,0,1,10.3,3.617c.19.131.368.321.641.246a1.635,1.635,0,0,0-.1-.617c-.122-.153.019-.357-.1-.51,0-.034,0-.07,0-.1-.123-.153.018-.357-.1-.51-.1-.666-.238-1.329-.3-2-.064-.7.141-.833.834-.71M21.7.518l-.011.005L21.715.5,21.7.518" transform="translate(-0.002)" fill="#b9efb3"/>
        <path id="Path_27303" data-name="Path 27303" d="M281.42,52.988c-.167-.144-.077-.338-.1-.51.167.144.081.337.1.51" transform="translate(-242.848 -45.302)" fill="#bbefb5"/>
        <path id="Path_27304" data-name="Path 27304" d="M282.169,57.482c-.167-.144-.077-.338-.1-.51.167.144.081.337.1.51" transform="translate(-243.494 -49.181)" fill="#bbeeb6"/>
      </g>
    </g>
  </g>
</svg>
