<?xml version="1.0" encoding="utf-8"?>
<!-- Generator: Adobe Illustrator 26.0.1, SVG Export Plug-In . SVG Version: 6.00 Build 0)  -->
<svg version="1.1" id="Layer_1" xmlns="http://www.w3.org/2000/svg" xmlns:xlink="http://www.w3.org/1999/xlink" x="0px" y="0px"
	 viewBox="0 0 24 15" style="enable-background:new 0 0 24 15;" xml:space="preserve">
<style type="text/css">
	.st0{fill-rule:evenodd;clip-rule:evenodd;fill:#052F5F;}
</style>
<desc>Created with sketchtool.</desc>
<g id="Final">
	<g id="Home-Page-Signed-Out-" transform="translate(-8.000000, -13.000000)">
		<g id="Header">
			<g id="Hamburger">
				<g id="Icon" transform="translate(8.000000, 13.000000)">
					<path id="Path" class="st0" d="M0,0.5C0,0.2,0.2,0,0.5,0l23,0C23.8,0,24,0.2,24,0.5S23.8,1,23.5,1h-23C0.2,1,0,0.8,0,0.5z"/>
					<path id="Path_00000019670967945287192540000007628096475388216200_" class="st0" d="M8,7.5C8,7.2,8.1,7,8.3,7h15.3
						C23.9,7,24,7.2,24,7.5S23.9,8,23.7,8H8.3C8.1,8,8,7.8,8,7.5z"/>
					<path id="Path_00000075141526795324683860000016661573750537004695_" class="st0" d="M4,14.5C4,14.2,4.2,14,4.4,14h19.2
						c0.2,0,0.4,0.2,0.4,0.5S23.8,15,23.6,15H4.4C4.2,15,4,14.8,4,14.5z"/>
				</g>
			</g>
		</g>
	</g>
</g>
</svg>
