<svg xmlns="http://www.w3.org/2000/svg" width="70.981" height="67.48" viewBox="0 0 70.981 67.48">
  <g id="Group_20072" data-name="Group 20072" transform="translate(-906.44 -604.581)">
    <g id="Group_16546" data-name="Group 16546" transform="translate(906.44 604.581)">
      <path id="Path_7777" data-name="Path 7777" d="M972.963,644.3a1.233,1.233,0,0,0-.11.251,5.97,5.97,0,0,1-3.061,4.151q-6.224,3.616-12.443,7.245a24.138,24.138,0,0,1-12.428,3.281q-13.616-.013-27.233,0h-.767V638.946a3.519,3.519,0,0,1,3.008-3.967c.09-.013.181-.021.272-.027a21.327,21.327,0,0,1,7.236.06,3.85,3.85,0,0,1,2.6,1.789,6.6,6.6,0,0,0,5.768,3.124c2.241.011,4.48-.016,6.721.01a2.183,2.183,0,0,1,2.305,2.71,2.224,2.224,0,0,1-2.354,1.643H930.836a2.088,2.088,0,1,0-.153,4.174l.068,0c1.085.02,2.171,0,3.256,0,3.789,0,7.578-.071,11.364.018a27.067,27.067,0,0,0,12.381-2.722c4.4-2.077,8.859-4.025,13.294-6.029.124-.056.253-.1.4-.158a6.331,6.331,0,0,1,1.519,3.051Z" transform="translate(-901.985 -591.75)" fill="#fa0"/>
      <path id="Path_7778" data-name="Path 7778" d="M917.114,635.955v22.611c-.063.037-.1.081-.143.081-2.839.009-5.677.043-8.516,0a2.022,2.022,0,0,1-2.011-2.031c0-.034,0-.069,0-.1q-.015-9.211,0-18.419a2.013,2.013,0,0,1,1.889-2.128l.108,0C911.313,635.927,914.174,635.955,917.114,635.955Z" transform="translate(-906.44 -591.207)" fill="#fa0"/>
      <path id="Path_7779" data-name="Path 7779" d="M974.19,630.707q-5.251-4.412-10.508-8.821a1.224,1.224,0,0,1-.484-1.056q.024-6.964,0-13.932a2.121,2.121,0,0,0-1.933-2.3,2.049,2.049,0,0,0-.349,0q-3.918-.013-7.832,0a2.1,2.1,0,0,0-2.274,2.234c-.024,1.155,0,2.311-.01,3.465,0,.191-.033.384-.06.663-.224-.178-.368-.285-.5-.4q-3.1-2.608-6.208-5.215a2.178,2.178,0,0,0-3.323,0q-5.257,4.41-10.505,8.827-9.866,8.293-19.719,16.6a2.842,2.842,0,0,0-.889,1.265,2.059,2.059,0,0,0,2.14,2.618c3,.02,6.007,0,9.009,0h.81v9.195a25.05,25.05,0,0,1,7.65-.428,8.552,8.552,0,0,1,7.56,3.982,2.4,2.4,0,0,0,2.172,1.141c2.311,0,4.62-.024,6.931,0a6.3,6.3,0,0,1,6.289,5.359,20.092,20.092,0,0,1,.024,3.088,18.179,18.179,0,0,0,2.886-.656c2.637-1.033,5.235-2.172,7.834-3.305.168-.073.3-.428.3-.656.024-1.732.014-3.466.014-5.2v-12.52h9.55a2.15,2.15,0,0,0,1.426-3.967Zm-28.045-6.116a2.828,2.828,0,0,1,.285.856h3.709l-1.349,2.98h-2.364a4.627,4.627,0,0,1-.669,1.759,5.349,5.349,0,0,1-1.26,1.368,6.6,6.6,0,0,1-1.712.937,7.74,7.74,0,0,1-2.023.452l7.332,7.735h-4.771l-6.767-7.521v-2.98h2q.376,0,.957-.053a5.483,5.483,0,0,0,1.152-.237,3.631,3.631,0,0,0,1.044-.526,1.727,1.727,0,0,0,.648-.936h-6.47l1.347-2.98h5.109a1.562,1.562,0,0,0-.593-.849,3.021,3.021,0,0,0-1.03-.465,6.962,6.962,0,0,0-1.342-.2c-.492-.026-1.006-.04-1.535-.04h-1.956l1.348-2.98h12.9l-1.349,2.98H945.7a3.474,3.474,0,0,1,.441.693Z" transform="translate(-905.13 -604.581)" fill="#047c4c"/>
    </g>
    <g id="Group_16546-2" data-name="Group 16546" transform="translate(912.973 614.507)">
      <path id="Path_7777-2" data-name="Path 7777" d="M972.963,644.3a1.233,1.233,0,0,0-.11.251,5.97,5.97,0,0,1-3.061,4.151q-6.224,3.616-12.443,7.245a24.138,24.138,0,0,1-12.428,3.281q-13.616-.013-27.233,0h-.767V638.946a3.519,3.519,0,0,1,3.008-3.967c.09-.013.181-.021.272-.027a21.327,21.327,0,0,1,7.236.06,3.85,3.85,0,0,1,2.6,1.789,6.6,6.6,0,0,0,5.768,3.124c2.241.011,4.48-.016,6.721.01a2.183,2.183,0,0,1,2.305,2.71,2.224,2.224,0,0,1-2.354,1.643H930.836a2.088,2.088,0,1,0-.153,4.174l.068,0c1.085.02,2.171,0,3.256,0,3.789,0,7.578-.071,11.364.018a27.067,27.067,0,0,0,12.381-2.722c4.4-2.077,8.859-4.025,13.294-6.029.124-.056.253-.1.4-.158a6.331,6.331,0,0,1,1.519,3.051Z" transform="translate(-908.518 -601.676)" fill="rgba(255,255,255,0.07)"/>
      <path id="Path_16638" data-name="Path 16638" d="M915.156,638.48v19c-.057.043-.1.086-.143.086-1.327.014-2.667.029-3.994.029q.086-1.84.3-3.637A61.521,61.521,0,0,1,915.156,638.48Z" transform="translate(-911.02 -600.053)" fill="rgba(255,255,255,0.07)"/>
      <path id="Path_7779-2" data-name="Path 7779" d="M970.584,627.73c-3.509-2.953-6.989-5.877-10.5-8.815a1.212,1.212,0,0,1-.485-1.056c.014-2.111.014-4.208.014-6.319-.171.014-.342.043-.514.071-.414.071-.827.157-1.227.228-.043.014-.086.014-.128.029-.6.128-1.212.257-1.811.4q-1.006.214-1.969.471c-.827.214-1.64.442-2.439.7-1.526.456-3.01.984-4.479,1.569-.756.3-1.5.613-2.239.942-.128.043-.257.114-.4.171-1.241.556-2.468,1.17-3.666,1.826h5.791l-1.341,2.981h-3.1a3.223,3.223,0,0,1,.442.7,2.637,2.637,0,0,1,.285.856h3.709l-1.341,2.981h-2.368a4.536,4.536,0,0,1-.67,1.755,5.207,5.207,0,0,1-1.255,1.369,6.689,6.689,0,0,1-1.712.941,7.565,7.565,0,0,1-2.026.442l7.332,7.745h-4.764l-6.775-7.531V627.2h2c.257,0,.571-.014.956-.043a5.2,5.2,0,0,0,1.155-.243,3.59,3.59,0,0,0,1.041-.528,1.8,1.8,0,0,0,.656-.927h-6.476l1.355-2.981h5.107a1.656,1.656,0,0,0-.6-.856,3.025,3.025,0,0,0-1.027-.456,6.093,6.093,0,0,0-1.341-.2h-.114c-.884.57-1.755,1.184-2.61,1.811-.956.7-1.9,1.441-2.8,2.2-.057.043-.1.086-.157.128-.014.014-.043.029-.057.043a60.829,60.829,0,0,0-5.306,5.021c-.742.785-1.455,1.583-2.154,2.411-.528.628-1.056,1.255-1.555,1.911-.656.842-1.3,1.712-1.911,2.6-.4.571-.8,1.155-1.17,1.74v2.054a25.485,25.485,0,0,1,7.646-.428,8.561,8.561,0,0,1,7.56,3.994,2.446,2.446,0,0,0,2.182,1.141c2.311,0,4.622-.028,6.932,0a6.278,6.278,0,0,1,6.276,5.349,18.71,18.71,0,0,1,.028,3.1,17.948,17.948,0,0,0,2.881-.656c2.639-1.041,5.235-2.168,7.845-3.309a.868.868,0,0,0,.3-.656c.014-1.726.014-3.466.014-5.192V631.7h9.543a2.15,2.15,0,0,0,1.426-3.965Z" transform="translate(-908.065 -611.54)" fill="rgba(255,255,255,0.07)"/>
    </g>
  </g>
</svg>
