<svg xmlns="http://www.w3.org/2000/svg" width="95.082" height="63.126" viewBox="0 0 95.082 63.126">
  <g id="Group_20207" data-name="Group 20207" transform="translate(-1450.778 -588.702)">
    <g id="Group_20209" data-name="Group 20209" transform="translate(1442.479 588.702)">
      <rect id="Rectangle_20845" data-name="Rectangle 20845" width="95.081" height="7.213" transform="translate(8.299 43.886)" fill="#fa0"/>
      <path id="Path_16711" data-name="Path 16711" d="M1622.618,831.519l14.845-14.828,16.121,14.865Z" transform="translate(-1584.486 -768.431)" fill="#047c4c"/>
      <g id="Group_20207-2" data-name="Group 20207" transform="translate(64.483 6.614)">
        <path id="Path_16712" data-name="Path 16712" d="M1822.412,619.946h.073v37.223h-4.42v-8.8h-10.813v8.789h-4.4v-.284q0-15-.006-30a.38.38,0,0,1,.317-.429q7.847-2.628,15.688-5.271C1820.038,620.772,1821.224,620.356,1822.412,619.946Zm-4.369,12.657v-5.866h-2.129V632.6Zm-4.3.03v-4.412h-2.149v4.412Zm-4.325,3.631h-2.134V639.2h2.134Zm4.317,2.952V636.28h-2.142v2.935Zm4.307-.006v-2.943h-2.122v2.943Zm-4.314,6.614v-2.948H1811.6v2.948Zm-6.448-16.176V632.6h2.156c0-.935,0-1.851-.009-2.767a.274.274,0,0,0-.2-.18C1808.593,629.64,1807.954,629.646,1807.281,629.646Zm2.135,16.148v-2.927h-2.13v2.927Zm6.493,0h2.133v-2.927h-2.133Z" transform="translate(-1794.042 -619.946)" fill="#028855"/>
        <path id="Path_16713" data-name="Path 16713" d="M1761.275,689.062l6.6-1.649v22.963h-6.6Zm4.345,19.112v-6.6h-2.143v6.6Zm-2.144-10.622h2.138v-5.568h-2.138Z" transform="translate(-1761.275 -673.131)" fill="#028855"/>
        <path id="Path_16714" data-name="Path 16714" d="M1906.068,652.74l6.577-1.642v30.628h-6.577Zm4.391,26.808v-6.6h-2.139v6.6Zm-2.137-22.442v5.562h2.141v-5.562Zm2.149,9.242h-2.151v2.924h2.151Z" transform="translate(-1875.418 -644.504)" fill="#028855"/>
        <path id="Path_16715" data-name="Path 16715" d="M1836.232,771.242h-2.087v-6.6h2.087Z" transform="translate(-1818.72 -734.013)" fill="#028855"/>
        <path id="Path_16716" data-name="Path 16716" d="M1856.606,771.2h-2.089V764.59h2.089Z" transform="translate(-1834.779 -733.971)" fill="#028855"/>
      </g>
      <g id="Group_20208" data-name="Group 20208" transform="translate(10.414)">
        <g id="Group_20033" data-name="Group 20033" transform="translate(9.774)">
          <g id="Group_20034" data-name="Group 20034" transform="translate(0 0)">
            <rect id="Rectangle_18622" data-name="Rectangle 18622" width="4.753" height="9.758" transform="translate(0 0.543) rotate(-6.559)" fill="#028855"/>
            <path id="Path_16575" data-name="Path 16575" d="M1524.571,591.392l-2.178.25a.855.855,0,0,1-.751.947l.822,7.149a.855.855,0,0,1,.947.752l2.178-.25a.855.855,0,0,1,.752-.947h0l-.822-7.149a.855.855,0,0,1-.947-.751Z" transform="translate(-1521.073 -590.823)" fill="#40b378"/>
            <circle id="Ellipse_441" data-name="Ellipse 441" cx="2.001" cy="2.001" r="2.001" transform="translate(0.917 3.117)" fill="#028855"/>
            <g id="Group_20033-2" data-name="Group 20033-2" transform="translate(1.669 4.358)">
              <path id="Path_16576" data-name="Path 16576" d="M1527.057,609.442l.183,1.589.195-.022-.057-.5a.566.566,0,0,1,.387-.526l.108.942.1-.011-.108-.943a.612.612,0,0,1,.534.592,1.649,1.649,0,0,1,.014.334l.149-.017a.005.005,0,0,1,0,0l.992-1.25-.033-.275-.947,1.192v0a.818.818,0,0,0-.736-.8l-.045-.388-.1.011.045.388a.636.636,0,0,0-.412.311l-.075-.648Z" transform="translate(-1527.01 -609.339)" fill="#3c5f42" opacity="0.3" style="mix-blend-mode: normal;isolation: isolate"/>
              <path id="Path_16577" data-name="Path 16577" d="M1526.837,609.38l.183,1.589.195-.022-.057-.5a.566.566,0,0,1,.387-.526l.108.942.1-.011-.109-.942a.611.611,0,0,1,.534.591,1.624,1.624,0,0,1,.015.334l.149-.017a0,0,0,0,1,0,0l.992-1.25-.033-.275-.946,1.192v0a.818.818,0,0,0-.736-.8l-.045-.388-.1.011.045.388a.636.636,0,0,0-.411.311l-.075-.648Z" transform="translate(-1526.837 -609.29)" fill="#fff"/>
            </g>
          </g>
          <path id="Path_16578" data-name="Path 16578" d="M1524.79,598.4l-1.115-9.694-4.722.543C1521.718,590.959,1523.553,594.191,1524.79,598.4Z" transform="translate(-1518.953 -588.702)" fill="#02864d" opacity="0.2" style="mix-blend-mode: normal;isolation: isolate"/>
        </g>
        <g id="Group_20033-2-2" data-name="Group 20033" transform="translate(13.41 0.104)">
          <g id="Group_20034-2" data-name="Group 20034">
            <rect id="Rectangle_18622-2" data-name="Rectangle 18622" width="9.758" height="4.753" transform="matrix(0.234, -0.972, 0.972, 0.234, 0, 9.487)" fill="#028855"/>
            <path id="Path_16575-2" data-name="Path 16575" d="M1544.347,593.077l-2.131-.513a.855.855,0,0,1-1.031.631l-1.684,7a.855.855,0,0,1,.631,1.031l2.131.513a.855.855,0,0,1,1.031-.631h0l1.684-7a.855.855,0,0,1-.632-1.031Z" transform="translate(-1538.787 -591.85)" fill="#40b378"/>
            <circle id="Ellipse_441-2" data-name="Ellipse 441" cx="2.001" cy="2.001" r="2.001" transform="translate(1.451 3.299)" fill="#028855"/>
            <g id="Group_20033-2-3" data-name="Group 20033-2" transform="translate(2.135 4.241)">
              <path id="Path_16576-2" data-name="Path 16576" d="M1546.775,609.361l-.374,1.555.191.046.118-.49a.566.566,0,0,1,.544-.361l-.222.922.094.022.222-.922a.611.611,0,0,1,.3.739,1.607,1.607,0,0,1-.1.318l.146.035a0,0,0,0,1,0,0l1.361-.833.064-.269-1.3.795v0a.818.818,0,0,0-.418-1l.091-.38-.094-.022-.091.38a.636.636,0,0,0-.493.151l.153-.634Z" transform="translate(-1546.362 -609.332)" fill="#3c5f42" opacity="0.3" style="mix-blend-mode: normal;isolation: isolate"/>
              <path id="Path_16577-2" data-name="Path 16577" d="M1546.59,609.226l-.374,1.555.191.046.118-.49a.566.566,0,0,1,.544-.361l-.222.922.094.022.222-.922a.612.612,0,0,1,.3.739,1.639,1.639,0,0,1-.1.318l.146.035a.005.005,0,0,1,0,0l1.361-.833.064-.27-1.3.795v0a.818.818,0,0,0-.418-1l.091-.38-.093-.022-.091.38a.635.635,0,0,0-.493.151l.153-.634Z" transform="translate(-1546.216 -609.226)" fill="#fff"/>
            </g>
          </g>
          <path id="Path_16578-2" data-name="Path 16578" d="M1549.255,599.792l2.283-9.487-4.621-1.112C1548.925,591.753,1549.538,595.418,1549.255,599.792Z" transform="translate(-1544.633 -589.193)" fill="#02864d" opacity="0.2" style="mix-blend-mode: normal;isolation: isolate"/>
        </g>
        <path id="Path_16717" data-name="Path 16717" d="M1502.878,652.506a8.052,8.052,0,0,1-3.5,4.21,15.492,15.492,0,0,1-5.691,1.947,17.006,17.006,0,0,1-2.884.231.175.175,0,0,0-.132.037h-4.3c-.671-.092-1.352-.047-2.025-.121a16.719,16.719,0,0,1-7.834-2.494,8.136,8.136,0,0,1-3.624-5.881,13.074,13.074,0,0,1,.5-5.487,26.437,26.437,0,0,1,5.3-9.543,23.051,23.051,0,0,1,4.337-4.041,13.412,13.412,0,0,1,1.184-.74c.359-.2.353-.216.04-.469a10.315,10.315,0,0,1-3.576-5.361,3.96,3.96,0,0,1-.134-1.206,1.372,1.372,0,0,1,1.443-1.395,6.2,6.2,0,0,1,2.381.706c.374.159.751.308,1.134.442a3.594,3.594,0,0,0,2.146.1c1.169-.3,2.318-.668,3.493-.942a9.1,9.1,0,0,1,1.91-.261c.644-.01.962.215.893,1.045a7.969,7.969,0,0,1-.8,2.663,12.517,12.517,0,0,1-2.839,4.137.151.151,0,0,0-.069.126,20.3,20.3,0,0,1,6.321,4.789,29.264,29.264,0,0,1,4.459,6.208,19.667,19.667,0,0,1,2.237,6.353A10.025,10.025,0,0,1,1502.878,652.506Z" transform="translate(-1472.781 -615.103)" fill="#028855"/>
        <path id="Path_16718" data-name="Path 16718" d="M1533.879,707.168a.286.286,0,0,0-.2-.075H1532.2a2.9,2.9,0,0,0-.555-1.221h2.013a.272.272,0,0,0,.276-.269v-.865a.272.272,0,0,0-.274-.27h-7.187a.274.274,0,0,0-.277.27h0v1.127a.274.274,0,0,0,.277.27h1.253q1.823,0,2.317.958h-3.569a.275.275,0,0,0-.277.272v.863a.267.267,0,0,0,.078.2.26.26,0,0,0,.2.075h3.691a1.662,1.662,0,0,1-.886,1.059,3.986,3.986,0,0,1-1.837.363h-.965a.285.285,0,0,0-.194.082.248.248,0,0,0-.08.19v1.085a.24.24,0,0,0,.077.185q1.661,1.725,4.3,4.829a.255.255,0,0,0,.216.1h1.685a.246.246,0,0,0,.249-.152.229.229,0,0,0-.033-.288q-2.523-3.028-3.965-4.536a4.434,4.434,0,0,0,2.392-.937,3.14,3.14,0,0,0,1.108-1.982h1.45a.278.278,0,0,0,.2-.075.246.246,0,0,0,.078-.194v-.862A.274.274,0,0,0,1533.879,707.168Z" transform="translate(-1514.89 -679.962)" fill="#fa0"/>
        <ellipse id="Ellipse_501" data-name="Ellipse 501" cx="5.223" cy="0.962" rx="5.223" ry="0.962" transform="translate(9.339 14.146)" fill="#028855"/>
      </g>
      <g id="Group_20210" data-name="Group 20210" transform="translate(46.483 19.876)">
        <path id="Path_16719" data-name="Path 16719" d="M1730.1,796.02v7.214h-58.79a44,44,0,0,1,2.951-7.214Z" transform="translate(-1673.203 -772.011)" fill="rgba(255,255,255,0.08)"/>
        <path id="Path_16720" data-name="Path 16720" d="M1684.684,831.554l-22.614-.025a44.333,44.333,0,0,1,1.3-9.651l2.352-2.35,2.843-2.839,3.078,2.839Z" transform="translate(-1662.07 -788.306)" fill="#047c4c"/>
        <g id="Group_20210-2" data-name="Group 20210" transform="translate(18.001)">
          <path id="Path_16721" data-name="Path 16721" d="M1817.375,682.6a44.285,44.285,0,0,0-14.515,2.43q.006,10.618,0,21.234v.284h4.405v-8.789h10.813v8.8h4.42V682.894A44.514,44.514,0,0,0,1817.375,682.6Zm-7.944,12.584h-2.13v-2.925h2.13Zm0-6.594H1807.3v-2.936h2.134Zm4.31,6.624h-2.125v-2.949h2.125Zm.008-6.609h-2.142v-2.934h2.142Zm4.306,6.575h-2.134v-2.925h2.134Zm0-6.581h-2.121v-2.942h2.121Z" transform="translate(-1794.058 -682.6)" fill="rgba(255,255,255,0.08)"/>
          <path id="Path_16722" data-name="Path 16722" d="M1761.28,701.359v17.362h6.6V698A44.174,44.174,0,0,0,1761.28,701.359Zm2.2-1.031h2.14V705.9h-2.14Zm2.144,16.192h-2.142v-6.6h2.142Z" transform="translate(-1761.28 -694.74)" fill="rgba(255,255,255,0.08)"/>
          <path id="Path_16723" data-name="Path 16723" d="M1910.464,686.423v3.334h-2.142v-3.863q-1.118-.248-2.252-.434v23.355h6.577V687.081Q1911.567,686.723,1910.464,686.423Zm0,20.213h-2.14v-6.6h2.14Zm.013-10.277h-2.151v-2.923h2.151Z" transform="translate(-1875.421 -684.855)" fill="rgba(255,255,255,0.08)"/>
          <path id="Path_16724" data-name="Path 16724" d="M1836.232,771.242h-2.087v-6.6h2.087Z" transform="translate(-1818.721 -747.276)" fill="rgba(255,255,255,0.08)"/>
          <path id="Path_16725" data-name="Path 16725" d="M1856.606,771.2h-2.089V764.59h2.089Z" transform="translate(-1834.78 -747.234)" fill="rgba(255,255,255,0.08)"/>
        </g>
      </g>
    </g>
  </g>
</svg>
