<svg xmlns="http://www.w3.org/2000/svg" width="14.751" height="19.137" viewBox="0 0 14.751 19.137">
  <g id="Group_16990" data-name="Group 16990" transform="translate(-2185.686 -157.66)">
    <path id="Path_8265" data-name="Path 8265" d="M2192.912,176.8a5.516,5.516,0,0,1-.469-.358,28.555,28.555,0,0,1-5.046-6.118,12.435,12.435,0,0,1-1.566-3.852,7.384,7.384,0,0,1,3.78-7.943,7.291,7.291,0,0,1,8.864,1.529,7.166,7.166,0,0,1,1.662,7.049,14.186,14.186,0,0,1-2.123,4.336,30,30,0,0,1-4.472,5.126,2.863,2.863,0,0,1-.331.231Zm.147-1.418c.035-.031.063-.054.089-.079a30.291,30.291,0,0,0,3.524-4.03,14.914,14.914,0,0,0,2.231-4.2,6.353,6.353,0,0,0,.2-3.315A6.175,6.175,0,0,0,2187,166.183a11.437,11.437,0,0,0,1.525,3.686,26.134,26.134,0,0,0,3.505,4.475C2192.36,174.695,2192.71,175.03,2193.059,175.379Z" fill="#028855"/>
    <g id="Group_16989" data-name="Group 16989" transform="translate(2189.754 161.939)">
      <path id="Path_8266" data-name="Path 8266" d="M2270.431,271.985a2.45,2.45,0,0,1-.21-.16,12.809,12.809,0,0,1-2.262-2.743,5.57,5.57,0,0,1-.7-1.727,3.31,3.31,0,0,1,1.695-3.561,3.269,3.269,0,0,1,3.974.685,3.214,3.214,0,0,1,.745,3.161,6.364,6.364,0,0,1-.952,1.944,13.45,13.45,0,0,1-2.005,2.3,1.285,1.285,0,0,1-.148.1Zm.066-1.383.032-.028a10.844,10.844,0,0,0,1.261-1.442,5.343,5.343,0,0,0,.8-1.5,2.276,2.276,0,0,0,.072-1.186,2.21,2.21,0,0,0-4.333.869,4.092,4.092,0,0,0,.545,1.319,9.356,9.356,0,0,0,1.254,1.6C2270.247,270.357,2270.373,270.477,2270.5,270.6Z" transform="translate(-2267.192 -263.405)" fill="#028855"/>
    </g>
  </g>
</svg>
