<svg id="Group_16986" data-name="Group 16986" xmlns="http://www.w3.org/2000/svg" width="14.751" height="10.375" viewBox="0 0 14.751 10.375">
  <path id="Path_8260" data-name="Path 8260" d="M916.834,242.434c.022-.078.04-.157.065-.234a1.3,1.3,0,0,1,1.235-.889c.9,0,1.8,0,2.707,0h9.374a1.291,1.291,0,0,1,1.32.964,1.54,1.54,0,0,1,.046.384q0,3.838,0,7.677a1.3,1.3,0,0,1-1.353,1.349h-12.01a1.3,1.3,0,0,1-1.366-1.071.375.375,0,0,0-.022-.052Zm1.511-.251c.041.045.068.076.1.105l5.379,5.4a.5.5,0,0,0,.782-.006l5.379-5.4c.028-.028.052-.06.086-.1Zm-.01,8.623h11.749l-3.707-3.675c-.028.027-.066.062-.1.1-.359.36-.717.722-1.078,1.081a1.363,1.363,0,0,1-1.972,0c-.218-.217-.433-.436-.651-.653l-.53-.529Zm-.63-.664,3.685-3.648-3.685-3.655Zm13.008-7.308-3.7,3.664,3.7,3.667Z" transform="translate(-916.834 -241.31)" fill="#028855"/>
</svg>
