<svg xmlns="http://www.w3.org/2000/svg" xmlns:xlink="http://www.w3.org/1999/xlink" width="432.727" height="432.729" viewBox="0 0 432.727 432.729">
  <defs>
    <clipPath id="clip-path">
      <path id="Path_23792" data-name="Path 23792" d="M432.727,216.366c0,119.494-96.869,216.364-216.364,216.364S0,335.86,0,216.366,96.869,0,216.363,0s216.364,96.87,216.364,216.364" transform="translate(-13200 -12816)" fill="#3974b9"/>
    </clipPath>
    <clipPath id="clip-path-2">
      <circle id="Ellipse_576" data-name="Ellipse 576" cx="216.364" cy="216.364" r="216.364" transform="translate(-89.621 216.367) rotate(-45)" fill="none"/>
    </clipPath>
    <clipPath id="clip-path-3">
      <rect id="Rectangle_23456" data-name="Rectangle 23456" width="394.845" height="217.03" transform="translate(103.072 86.3)" fill="none"/>
    </clipPath>
    <clipPath id="clip-path-4">
      <rect id="Rectangle_23457" data-name="Rectangle 23457" width="12.172" height="25.39" transform="translate(264.211 218.3)" fill="none"/>
    </clipPath>
    <clipPath id="clip-path-5">
      <rect id="Rectangle_23458" data-name="Rectangle 23458" width="26.309" height="17.31" transform="translate(234.926 186.38)" fill="none"/>
    </clipPath>
    <clipPath id="clip-path-6">
      <rect id="Rectangle_23459" data-name="Rectangle 23459" width="9.124" height="39.95" transform="translate(248.949 212.96)" fill="none"/>
    </clipPath>
    <clipPath id="clip-path-7">
      <rect id="Rectangle_23460" data-name="Rectangle 23460" width="22.978" height="44.72" transform="translate(230.578 214.03)" fill="none"/>
    </clipPath>
    <clipPath id="clip-path-8">
      <rect id="Rectangle_23461" data-name="Rectangle 23461" width="4.564" height="14.57" transform="translate(253.865 187.12)" fill="none"/>
    </clipPath>
    <clipPath id="clip-path-9">
      <rect id="Rectangle_23462" data-name="Rectangle 23462" width="36.845" height="20.71" transform="translate(214.199 218.06)" fill="none"/>
    </clipPath>
    <clipPath id="clip-path-10">
      <rect id="Rectangle_23478" data-name="Rectangle 23478" width="72.587" height="22.51" transform="translate(215.403 216.17)" fill="none"/>
    </clipPath>
    <clipPath id="clip-path-11">
      <rect id="Rectangle_23479" data-name="Rectangle 23479" width="59.755" height="52.96" transform="translate(313.473 142.91)" fill="none"/>
    </clipPath>
    <clipPath id="clip-path-12">
      <rect id="Rectangle_23480" data-name="Rectangle 23480" width="3.62" height="16.02" transform="translate(317.243 186.38)" fill="none"/>
    </clipPath>
    <clipPath id="clip-path-13">
      <rect id="Rectangle_23481" data-name="Rectangle 23481" width="34.628" height="55.35" transform="translate(328.23 140.3)" fill="none"/>
    </clipPath>
  </defs>
  <g id="Mask_Group_20313" data-name="Mask Group 20313" transform="translate(13200 12815.998)" clip-path="url(#clip-path)">
    <g id="Group_22656" data-name="Group 22656">
      <path id="Path_23754" data-name="Path 23754" d="M432.727,216.366c0,119.494-96.869,216.364-216.364,216.364S0,335.86,0,216.366,96.869,0,216.363,0s216.364,96.87,216.364,216.364" transform="translate(-13200 -12816)" fill="#3974b9"/>
      <g id="Group_22655" data-name="Group 22655" transform="translate(-13200 -12816)" clip-path="url(#clip-path-2)">
        <g id="Group_22624" data-name="Group 22624" opacity="0.5" style="mix-blend-mode: multiply;isolation: isolate">
          <g id="Group_22623" data-name="Group 22623">
            <g id="Group_22622" data-name="Group 22622" clip-path="url(#clip-path-3)">
              <path id="Path_23755" data-name="Path 23755" d="M332.057,147.251l1,2.64v0l-4.828,1.966-8.043,3.275,1.358,3.76-8.071,3.144-10.772,4.2-.013,0-42.323,5.288c-3.055.829-6.977,4.114-10.932,8.379l-.768-2.9L103.6,215.4l2.743,10.364-2.659.914,2.775,8.069-3.386,1.2,23.822,67.383,105.47-37.288c.056.159.1.323.166.478,3.555,8.9,16.9,11.925,19.731-5.723q.147-.921.274-1.886l2.282-.807a8.949,8.949,0,0,0,2.483,2.578h0a9.018,9.018,0,0,0,8.509.889l1.9-.785c3.308-1.622,4.39-5.607,4.6-9.827l-.411-2.6,0-.007v0l0,0c.022.027.049.05.071.077a9.156,9.156,0,0,0,1.849,1.741c.092.065.187.124.281.186a9.147,9.147,0,0,0,.824.479c.1.053.2.108.306.156a9.048,9.048,0,0,0,1.163.462,9.142,9.142,0,0,0,11.829-8.982l-.039-1.348-.185-6.866h0c9.906-2.343,20.9-8.786,29.251-24.087l3.011-1.158,13.983-5.379,3.059-1.177,1.957,5.411,13.2-4.453.716-.244,3.389,8.967,13.66-4.52.025-.008a5.2,5.2,0,0,0,8-2.658l.012,0h.01l8.4-2.78h.01l.014,0a5.195,5.195,0,0,0,8.463-2.809l.023-.007,1.8-.6,100.94-31.98V86.3Z" fill="#999"/>
            </g>
          </g>
        </g>
        <path id="Path_23756" data-name="Path 23756" d="M287.587,211.587l.586,21.773.039,1.348a9.139,9.139,0,0,1-17.727,3.352l-2.472-6.838-3.8-10.507,4.277-1.668,1.915-.751Z" fill="#fab29a"/>
        <g id="Group_22627" data-name="Group 22627" opacity="0.5" style="mix-blend-mode: multiply;isolation: isolate">
          <g id="Group_22626" data-name="Group 22626">
            <g id="Group_22625" data-name="Group 22625" clip-path="url(#clip-path-4)">
              <path id="Path_23757" data-name="Path 23757" d="M273.973,218.848l2.41,24.842a9.163,9.163,0,0,1-5.9-5.63l-6.274-17.345L270.4,218.3Z" fill="#cc8a79"/>
            </g>
          </g>
        </g>
        <path id="Path_23758" data-name="Path 23758" d="M342.645,142.911l19.9,10.139,1.819,4.737-12.209,4.57-10.044,3.756-3.01,1.126-10.335,3.869-5.81,2.174L264.7,195.08l2.826,17.9.957,6.07,1.25,7.909.8,5.058,1.353,8.576,0,.007.411,2.6c-.206,4.221-1.288,8.206-4.6,9.828l-1.9.784a8.994,8.994,0,0,1-11.363-4.071l-1.433-3.211-4.063-9.115-.58-1.287-2.01-4.513-.321-.718-.712-1.6-1.668-3.74-1.272-2.853-.87-1.955-.124-.279-2.025-4.538-2.225-4.994-1.24-2.786-.985-2.207-1.125-2.523a10.218,10.218,0,0,1-1.2-5.313,10.483,10.483,0,0,1,1.265-4.484q.486-.891,1.067-1.866c.152-.255.3-.516.462-.778s.318-.525.483-.795.333-.545.507-.822.351-.558.532-.837c.02-.028.036-.059.054-.083.207-.321.417-.646.634-.973.23-.354.469-.714.714-1.077,6.381-9.505,15.947-20.966,22.053-22.624l42.323-5.287.013,0,10.772-4.194,8.071-3.145,8.442-3.287,4.556-1.778Z" fill="#fab29a"/>
        <g id="Group_22630" data-name="Group 22630" opacity="0.5" style="mix-blend-mode: multiply;isolation: isolate">
          <g id="Group_22629" data-name="Group 22629">
            <g id="Group_22628" data-name="Group 22628" clip-path="url(#clip-path-5)">
              <path id="Path_23759" data-name="Path 23759" d="M238.313,186.38l22.922,11.677-2.868,5.629-23.442-11.941c.963-1.65,2.115-3.469,3.388-5.365" fill="#cc8a79"/>
            </g>
          </g>
        </g>
        <g id="Group_22633" data-name="Group 22633" opacity="0.5" style="mix-blend-mode: multiply;isolation: isolate">
          <g id="Group_22632" data-name="Group 22632">
            <g id="Group_22631" data-name="Group 22631" clip-path="url(#clip-path-6)">
              <path id="Path_23760" data-name="Path 23760" d="M258.073,212.96l-.773,39.955a8.961,8.961,0,0,1-2.855-3.181l-5.5-12.326,1.913-22.328Z" fill="#cc8a79"/>
            </g>
          </g>
        </g>
        <path id="Path_23761" data-name="Path 23761" d="M251.485,199.92s.832,7.391,1.41,17.217c.029.485.056.974.085,1.469.605,11.025.843,24.687-.72,34.424-2.829,17.648-16.176,14.619-19.731,5.723a11.947,11.947,0,0,1-.653-2.227c-.417-2.179-.861-5.981-1.3-10.648-1.684-17.853-3.329-48.3-3.329-48.3Z" fill="#fab29a"/>
        <g id="Group_22636" data-name="Group 22636" opacity="0.5" style="mix-blend-mode: multiply;isolation: isolate">
          <g id="Group_22635" data-name="Group 22635">
            <g id="Group_22634" data-name="Group 22634" clip-path="url(#clip-path-7)">
              <path id="Path_23762" data-name="Path 23762" d="M246.8,214.032l6.757,3.442L232.53,258.753a11.937,11.937,0,0,1-.653-2.228c-.417-2.179-.861-5.981-1.3-10.647Z" fill="#cc8a79"/>
            </g>
          </g>
        </g>
        <g id="Group_22639" data-name="Group 22639" opacity="0.5" style="mix-blend-mode: multiply;isolation: isolate">
          <g id="Group_22638" data-name="Group 22638">
            <g id="Group_22637" data-name="Group 22637" clip-path="url(#clip-path-8)">
              <path id="Path_23763" data-name="Path 23763" d="M254.344,199.574s2.684-4.917-.479-12.452c0,0,6.611,5.7,3.919,11.691s-3.44.761-3.44.761" fill="#cc8a79"/>
            </g>
          </g>
        </g>
        <g id="Group_22642" data-name="Group 22642" style="mix-blend-mode: multiply;isolation: isolate">
          <g id="Group_22641" data-name="Group 22641">
            <g id="Group_22640" data-name="Group 22640" clip-path="url(#clip-path-9)">
              <path id="Path_23764" data-name="Path 23764" d="M251.044,218.064,240.7,238.371c-1.212.144-2.459.254-3.74.322-.851.047-1.718.075-2.594.078a24.214,24.214,0,0,1-10.347-2.078,20.589,20.589,0,0,1-6.926-5.126,18.677,18.677,0,0,1-2.732-3.992c-.11-.225-.162-.354-.162-.354l.391-.1,5.458-1.357,5.455-1.354,5.463-1.359,15.985-3.974Z" fill="#ccc"/>
            </g>
          </g>
        </g>
        <rect id="Rectangle_23463" data-name="Rectangle 23463" width="150.063" height="71.47" transform="matrix(0.967, -0.256, 0.256, 0.967, 103.599, 207.635)" fill="#f0f7ee"/>
        <rect id="Rectangle_23464" data-name="Rectangle 23464" width="141.391" height="62.796" transform="matrix(0.967, -0.256, 0.256, 0.967, 108.899, 210.717)" fill="#d3ccae"/>
        <path id="Path_23765" data-name="Path 23765" d="M200.843,218.863a71.26,71.26,0,0,1,1.041,32.2l-76.917,20.358L108.9,210.717l76.917-20.358a71.346,71.346,0,0,1,15.027,28.5" fill="#ad9f64"/>
        <path id="Path_23766" data-name="Path 23766" d="M178.566,224.759a48.4,48.4,0,0,1-3.088,33.295l-50.511,13.369L108.9,210.717l50.507-13.368a48.381,48.381,0,0,1,19.16,27.41" fill="#d3ccae"/>
        <path id="Path_23767" data-name="Path 23767" d="M158.682,230.018a28.022,28.022,0,0,1-35.72,33.83L110.9,218.293a28.023,28.023,0,0,1,47.778,11.725" fill="#ad9f64"/>
        <path id="Path_23768" data-name="Path 23768" d="M188.791,239.5s1.019-3.152,1.794-6.446-1.238-7.79-1.238-7.79l-.086-4.214c-.639-7.861-7.934-15.2-16.322-14.212a16.509,16.509,0,0,0-13.931,10.689c-1.328,3.852-.093,8.672-.093,8.672s-3.892.856-.164,7.163a7.1,7.1,0,0,0,5.45,3.785l.562,2.124-2.787,2.385a6.671,6.671,0,0,0-6.82,6.129c-3.912,2.871-6.27,8.034-7.024,9.889l-25.049,6.63,1.885,7.12L149.6,264.9l11.594-3.069,39.784-10.53A17.372,17.372,0,0,0,188.791,239.5" fill="#8c8251"/>
        <path id="Path_23769" data-name="Path 23769" d="M139.077,226.283l-.655-2.476-10.348,2.739L124.1,227.6l.656,2.476,3.97-1.051a3.992,3.992,0,0,1,4.341,1.652l-7.619,2.017.656,2.476,7.619-2.017a3.993,3.993,0,0,1-2.956,3.584l-3.97,1.051.655,2.476.8-.211a6.994,6.994,0,0,1,3.7.022,15.054,15.054,0,0,1,8.3,6.4l2.6-.689a18.184,18.184,0,0,0-9.027-7.789,6.571,6.571,0,0,0,2.454-5.522l4.139-1.1-.655-2.476-4.139,1.1a6.516,6.516,0,0,0-1.891-2.3Z" fill="#d3ccae"/>
        <path id="Path_23770" data-name="Path 23770" d="M232.583,198.418l-.588-2.22-9.279,2.456-3.56.942.588,2.22,3.56-.942a3.579,3.579,0,0,1,3.893,1.482l-6.832,1.808.588,2.22,6.832-1.808a3.582,3.582,0,0,1-2.651,3.213l-3.56.943.588,2.22.714-.189a6.263,6.263,0,0,1,3.319.02,13.5,13.5,0,0,1,7.447,5.739l2.332-.617a16.3,16.3,0,0,0-8.094-6.985,5.894,5.894,0,0,0,2.2-4.952l3.712-.982-.588-2.22-3.711.982a5.839,5.839,0,0,0-1.7-2.063Z" fill="#8c8251"/>
        <rect id="Rectangle_23465" data-name="Rectangle 23465" width="37.005" height="7.283" transform="matrix(0.967, -0.256, 0.256, 0.967, 214.926, 226.983)" fill="#ad9f64"/>
        <rect id="Rectangle_23466" data-name="Rectangle 23466" width="37.005" height="4.083" transform="matrix(0.967, -0.256, 0.256, 0.967, 217.603, 237.097)" fill="#ad9f64"/>
        <rect id="Rectangle_23467" data-name="Rectangle 23467" width="45.795" height="4.083" transform="matrix(0.967, -0.256, 0.256, 0.967, 196.845, 193.023)" fill="#ad9f64"/>
        <rect id="Rectangle_23468" data-name="Rectangle 23468" width="150.063" height="71.47" transform="translate(103.683 218.913) rotate(-18.976)" fill="#f0f7ee"/>
        <rect id="Rectangle_23469" data-name="Rectangle 23469" width="141.391" height="62.797" transform="translate(109.194 221.604) rotate(-18.976)" fill="#d3ccae"/>
        <path id="Path_23771" data-name="Path 23771" d="M201.486,223.073a71.272,71.272,0,0,1,3.369,32.042l-75.241,25.873L109.194,221.6l75.241-25.873a71.351,71.351,0,0,1,17.051,27.342" fill="#ad9f64"/>
        <path id="Path_23772" data-name="Path 23772" d="M179.694,230.566a48.4,48.4,0,0,1-.67,33.431l-49.411,16.99L109.193,221.6,158.6,204.615a48.375,48.375,0,0,1,21.094,25.951" fill="#d3ccae"/>
        <path id="Path_23773" data-name="Path 23773" d="M160.243,237.25a28.022,28.022,0,0,1-33.177,36.327l-15.324-44.563a28.021,28.021,0,0,1,48.5,8.236" fill="#ad9f64"/>
        <path id="Path_23774" data-name="Path 23774" d="M190.959,244.529s.788-3.218,1.323-6.559-1.8-7.68-1.8-7.68l-.391-4.2c-1.206-7.794-9.013-14.582-17.307-12.993a16.513,16.513,0,0,0-13.122,11.669c-1.045,3.938.535,8.657.535,8.657s-3.819,1.135.356,7.156a7.1,7.1,0,0,0,5.709,3.38l.714,2.078-2.607,2.58a6.671,6.671,0,0,0-6.358,6.607c-3.694,3.146-5.672,8.467-6.29,10.372l-24.5,8.426,2.395,6.964,24.094-8.285,11.341-3.9,38.917-13.382a17.37,17.37,0,0,0-13.007-10.893" fill="#8c8251"/>
        <path id="Path_23775" data-name="Path 23775" d="M140.419,234.944l-.834-2.422L129.464,236l-3.885,1.335.832,2.422,3.885-1.335a3.991,3.991,0,0,1,4.449,1.334l-7.453,2.562.833,2.422,7.453-2.562a3.994,3.994,0,0,1-2.687,3.788l-3.886,1.335.834,2.422.778-.268a7,7,0,0,1,3.694-.246,15.057,15.057,0,0,1,8.746,5.783l2.545-.875A18.2,18.2,0,0,0,136.035,247a6.568,6.568,0,0,0,2.047-5.685l4.05-1.392-.833-2.422-4.05,1.392a6.517,6.517,0,0,0-2.052-2.158Z" fill="#d3ccae"/>
        <path id="Path_23776" data-name="Path 23776" d="M231.662,200.384l-.747-2.172-9.077,3.121-3.483,1.2.747,2.172,3.483-1.2a3.582,3.582,0,0,1,3.99,1.2l-6.683,2.3.747,2.172,6.683-2.3a3.581,3.581,0,0,1-2.411,3.4l-3.483,1.2.747,2.172.7-.24a6.268,6.268,0,0,1,3.311-.221,13.509,13.509,0,0,1,7.844,5.186l2.281-.785a16.313,16.313,0,0,0-8.579-6.381,5.888,5.888,0,0,0,1.837-5.1l3.63-1.249-.746-2.171-3.631,1.248a5.844,5.844,0,0,0-1.841-1.935Z" fill="#8c8251"/>
        <rect id="Rectangle_23470" data-name="Rectangle 23470" width="37.005" height="7.284" transform="translate(216.12 230.152) rotate(-18.977)" fill="#ad9f64"/>
        <rect id="Rectangle_23471" data-name="Rectangle 23471" width="37.004" height="4.083" transform="translate(219.522 240.046) rotate(-18.977)" fill="#ad9f64"/>
        <rect id="Rectangle_23472" data-name="Rectangle 23472" width="45.794" height="4.083" transform="translate(195.628 197.59) rotate(-18.976)" fill="#ad9f64"/>
        <rect id="Rectangle_23473" data-name="Rectangle 23473" width="150.063" height="71.47" transform="translate(103.072 228.179) rotate(-19.47)" fill="#f0f7ee"/>
        <rect id="Rectangle_23474" data-name="Rectangle 23474" width="141.391" height="62.797" transform="translate(108.605 230.822) rotate(-19.47)" fill="#d3ccae"/>
        <path id="Path_23777" data-name="Path 23777" d="M200.906,231.495a71.264,71.264,0,0,1,3.645,32.012l-75.015,26.52-20.931-59.205L183.62,204.3a71.353,71.353,0,0,1,17.286,27.194" fill="#ad9f64"/>
        <path id="Path_23778" data-name="Path 23778" d="M179.18,239.176a48.4,48.4,0,0,1-.382,33.435l-49.262,17.416-20.931-59.205,49.258-17.414a48.381,48.381,0,0,1,21.317,25.768" fill="#d3ccae"/>
        <path id="Path_23779" data-name="Path 23779" d="M159.787,246.027a28.023,28.023,0,0,1-32.863,36.613l-15.707-44.431a28.023,28.023,0,0,1,48.57,7.818" fill="#ad9f64"/>
        <path id="Path_23780" data-name="Path 23780" d="M190.565,253.041s.76-3.225,1.266-6.57-1.865-7.664-1.865-7.664l-.427-4.194c-1.273-7.783-9.138-14.5-17.419-12.843a16.51,16.51,0,0,0-13.02,11.782c-1.012,3.947.61,8.652.61,8.652s-3.81,1.168.417,7.152a7.1,7.1,0,0,0,5.738,3.331l.732,2.071-2.584,2.6a6.67,6.67,0,0,0-6.3,6.661c-3.667,3.179-5.6,8.516-6.2,10.426l-24.429,8.637,2.455,6.944,24.021-8.493,11.307-4,38.8-13.718a17.372,17.372,0,0,0-13.1-10.78" fill="#8c8251"/>
        <path id="Path_23781" data-name="Path 23781" d="M139.944,243.892l-.854-2.415L129,245.045l-3.872,1.369.853,2.415,3.873-1.369a3.993,3.993,0,0,1,4.461,1.295l-7.431,2.627.854,2.415,7.43-2.627a3.991,3.991,0,0,1-2.655,3.811l-3.872,1.369.853,2.415.777-.275a6.994,6.994,0,0,1,3.691-.277,15.05,15.05,0,0,1,8.8,5.707l2.537-.9a18.188,18.188,0,0,0-9.628-7.033,6.569,6.569,0,0,0,2-5.7l4.037-1.427-.853-2.415-4.037,1.428a6.508,6.508,0,0,0-2.071-2.141Z" fill="#d3ccae"/>
        <path id="Path_23782" data-name="Path 23782" d="M230.886,208.547l-.766-2.165-9.049,3.2-3.472,1.228.765,2.165,3.473-1.228a3.581,3.581,0,0,1,4,1.162l-6.663,2.356.765,2.165,6.663-2.356a3.582,3.582,0,0,1-2.381,3.418l-3.473,1.227.766,2.166.7-.247a6.269,6.269,0,0,1,3.31-.249,13.5,13.5,0,0,1,7.887,5.118l2.275-.8a16.31,16.31,0,0,0-8.633-6.307,5.89,5.89,0,0,0,1.792-5.113l3.62-1.28-.765-2.165-3.621,1.279a5.846,5.846,0,0,0-1.856-1.919Z" fill="#8c8251"/>
        <rect id="Rectangle_23475" data-name="Rectangle 23475" width="37.004" height="7.283" transform="matrix(0.943, -0.333, 0.333, 0.943, 215.601, 238.448)" fill="#ad9f64"/>
        <rect id="Rectangle_23476" data-name="Rectangle 23476" width="37.004" height="4.083" transform="matrix(0.943, -0.333, 0.333, 0.943, 219.088, 248.312)" fill="#ad9f64"/>
        <rect id="Rectangle_23477" data-name="Rectangle 23477" width="45.795" height="4.083" transform="translate(194.828 206.064) rotate(-19.47)" fill="#ad9f64"/>
        <g id="Group_22645" data-name="Group 22645" opacity="0.5" style="mix-blend-mode: multiply;isolation: isolate">
          <g id="Group_22644" data-name="Group 22644">
            <g id="Group_22643" data-name="Group 22643" clip-path="url(#clip-path-10)">
              <path id="Path_23783" data-name="Path 23783" d="M215.4,228.786s4.11,14.4,22.964,8.453,25.983-8.745,25.983-8.745,14.584,5.954,23.64-2l-.106-6.592-23.253-3.728Z" fill="#cc8a79"/>
            </g>
          </g>
        </g>
        <path id="Path_23784" data-name="Path 23784" d="M342.645,142.911l19.9,10.139,1.819,4.737,8.861,23.085-12.668,4.873-9.642,3.707-1.164.448-12.46,4.791-3.059,1.178-13.983,5.378-3.011,1.158c-8.354,15.3-19.345,21.744-29.251,24.087a44.752,44.752,0,0,1-13.174,1.06,47.861,47.861,0,0,1-5.078-.6c-1.358-.227-2.548-.49-3.539-.74a30.437,30.437,0,0,1-3.28-.989l-5.115,1.714-4.43,1.488-3.762,1.263-2.744.918-.829.28-1.844.618-4.308,1.444-3.286,1.1-4.222,1.417c-.453.118-.908.218-1.366.29a12.7,12.7,0,0,1-1.279.162,16.636,16.636,0,0,1-5.136-.367,16.957,16.957,0,0,1-4.021-1.467,14.684,14.684,0,0,1-3.278-2.3s-.007-.009-.011-.011a2.252,2.252,0,0,1-.2-.2,10.956,10.956,0,0,1-2.479-3.539c-.006-.009-.008-.015-.015-.024l0-.013c-.068-.162-.13-.333-.191-.5-.037-.1-.071-.208-.1-.312a8.526,8.526,0,0,1-.338-1.49s-.925-4.4,5.741-8.607a25.974,25.974,0,0,1,2.525-1.39l4.1-2.269,1.8-.995,4.845-2.683,2.936-1.623,3.7-2.051,6.642-3.678,4.606-2.55.007,0,3.987-2.207.193-.106,2.484-1.377.9-.5,2.059-1.139s4.246-5.8,13.582-16.921c9.186-10.945,28.033-18.891,28.62-19.14l.013,0,10.772-4.194,8.071-3.145,8.442-3.287,4.556-1.778Z" fill="#fab29a"/>
        <g id="Group_22648" data-name="Group 22648" opacity="0.5" style="mix-blend-mode: multiply;isolation: isolate">
          <g id="Group_22647" data-name="Group 22647">
            <g id="Group_22646" data-name="Group 22646" clip-path="url(#clip-path-11)">
              <path id="Path_23785" data-name="Path 23785" d="M342.645,142.911l19.9,10.139,1.819,4.737,8.861,23.085-12.668,4.873-9.642,3.707-1.164.448-12.46,4.791-3.059,1.178-11.276-22.587-9.485-19.01,8.071-3.145,8.442-3.287,4.556-1.778Z" fill="#cc8a79"/>
            </g>
          </g>
        </g>
        <g id="Group_22651" data-name="Group 22651" opacity="0.5" style="mix-blend-mode: multiply;isolation: isolate">
          <g id="Group_22650" data-name="Group 22650">
            <g id="Group_22649" data-name="Group 22649" clip-path="url(#clip-path-12)">
              <path id="Path_23786" data-name="Path 23786" d="M318.525,186.38c.125.186,3.746,5.7,1.729,14.866l-3.011,1.159s3.459-8.276,1.282-16.025" fill="#cc8a79"/>
            </g>
          </g>
        </g>
        <path id="Path_23787" data-name="Path 23787" d="M337.526,140.3l8.206,4.18,6.426,17.873,8.4,23.389,2.3,6.393-9.69,3.267-.717.244-13.2,4.453-1.957-5.411-8.525-23.584-7.224-19.98-1.358-3.761,8.043-3.274,4.828-1.966Z" fill="#fff"/>
        <g id="Group_22654" data-name="Group 22654" style="mix-blend-mode: multiply;isolation: isolate">
          <g id="Group_22653" data-name="Group 22653">
            <g id="Group_22652" data-name="Group 22652" clip-path="url(#clip-path-13)">
              <path id="Path_23788" data-name="Path 23788" d="M337.526,140.3l8.206,4.18,6.426,17.873,8.4,23.389,2.3,6.393-9.69,3.267-.717.244-2.7-5.75L339.1,167.239l-9.117-19.4-1.757-3.747,4.828-1.966Z" fill="#ccc"/>
            </g>
          </g>
        </g>
        <path id="Path_23789" data-name="Path 23789" d="M497.917,78.533V159l-100.94,31.98-1.8.6-8.5,2.82h-.01l-8.4,2.78h-.01l-8.04,2.67-13.66,4.52-3.39-8.97-2.25-5.95-8.8-23.34-7.57-20.05-1.49-3.94-1-2.64Z"/>
        <path id="Path_23790" data-name="Path 23790" d="M376.841,191.744a5.248,5.248,0,1,1-7.417.261,5.248,5.248,0,0,1,7.417-.261" fill="#daa02a"/>
        <path id="Path_23791" data-name="Path 23791" d="M393.642,186.566a5.248,5.248,0,1,1-7.417.261,5.248,5.248,0,0,1,7.417-.261" fill="#daa02a"/>
      </g>
    </g>
  </g>
</svg>
