<svg xmlns="http://www.w3.org/2000/svg" width="92.575" height="71.13" viewBox="0 0 92.575 71.13">
  <g id="Group_20217" data-name="Group 20217" transform="translate(-3093.621 -574.18)">
    <g id="Group_20215" data-name="Group 20215" transform="translate(3092.621 574.18)">
      <path id="Path_16742" data-name="Path 16742" d="M3495.18,687.847q-.9-7.2-1.784-14.405c-.16-1.287-.341-2.57-.523-3.916a.505.505,0,0,0-.566-.432l-4.925.635a.506.506,0,0,0-.436.564c.816,6.506,1.616,12.889,2.432,19.389a.506.506,0,0,0,.566.438l4.986-.657a.466.466,0,0,0,.412-.484Zm-3.091.35a1.258,1.258,0,1,1,1.257-1.259A1.259,1.259,0,0,1,3492.089,688.2Z" transform="translate(-3401.767 -648.589)" fill="#047c4c"/>
      <path id="Path_16743" data-name="Path 16743" d="M3318.694,648.812l1.932,15.227c-3.264,1.051-6.447,1.994-9.566,3.114a6.38,6.38,0,0,1-4.291.049,42.163,42.163,0,0,1-10.158-5.328.827.827,0,0,1-.3-.677c.124-.7.34-1.383.558-2.216,3.8,2.951,7.557,5.819,12.676,4.991l.008-.335c-.49-.1-.977-.232-1.473-.284a15.68,15.68,0,0,1-9-3.992,7.394,7.394,0,0,0-5.719-1.97c-2.712.2-5.417.52-8.116.86a8.633,8.633,0,0,1-5.813-1.012,3.668,3.668,0,0,1-2-3.516c2-.259,3.956-.44,5.885-.779a38.814,38.814,0,0,0,8.668-2.406c2.721-1.164,5.639-1.868,8.471-2.77a2.511,2.511,0,0,0,1.081-.542,2.9,2.9,0,0,0-.614-.069,3.64,3.64,0,0,0-1.057.188c-3.524,1.474-6.919.422-10.326-.49a5.436,5.436,0,0,0-1.266-.237,4.306,4.306,0,0,1-3.25-1.678.507.507,0,0,1,.07-.733,15.231,15.231,0,0,1,1.957-1.38,25.7,25.7,0,0,0,4.8-3.564,1.826,1.826,0,0,1,2.524-.391c4.824,2.9,9.74,5.658,14.467,8.708,2.264,1.461,4.415,2.327,7.089,1.554A16.826,16.826,0,0,1,3318.694,648.812Z" transform="translate(-3237.508 -624.628)" fill="#047c4c"/>
      <path id="Path_16744" data-name="Path 16744" d="M3206.954,608.224c-4.108,3-8.215,6-12.388,9.051-3.8-6.582-10.025-10.448-15.747-14.859-3.594-2.771-7.024-5.7-9.4-9.658a19.685,19.685,0,0,1-2.5-6.707,1.434,1.434,0,0,1,.508-1.691c4.517-3.244,8.994-6.541,13.487-9.817.143-.106.3-.188.579-.363,2.438,7.86,7.925,13.314,13.649,18.6,2.32,2.141,4.6,4.322,6.9,6.489.251.238.469.508.907.987l-9.658,1.922c-.035-.076-.069-.151-.1-.229.095-.123.179-.257.285-.369a5.891,5.891,0,0,0,.568-8.009c-3.465-4.949-12.021-5.134-15.7-.341a5.785,5.785,0,0,0,1.115,8.467,11.419,11.419,0,0,0,9.668,2.065l.563-.119c.514,3.3,2.821,4.553,5.7,5.2a2.792,2.792,0,0,1,1.084.629,3.242,3.242,0,0,0,5.156-.7,1.214,1.214,0,0,1,.735-.51c1.49-.143,2.985-.218,4.478-.315C3206.874,608.039,3206.915,608.132,3206.954,608.224Z" transform="translate(-3150.812 -574.18)" fill="#047c4c"/>
      <path id="Path_16745" data-name="Path 16745" d="M3150.238,642.018c1.75,5.334,5.169,9.1,9.19,12.37,2.635,2.145,5.374,4.164,8.082,6.25-5.463-.987-18.272-8.731-21.517-13.055Z" transform="translate(-3134.465 -627.365)" fill="#047c4c"/>
      <path id="Path_16746" data-name="Path 16746" d="M3156.428,712.78c7.565,3.617,15.819,4.631,23.679,6.962l-.068.322c-1.851-.178-3.709-.309-5.553-.543q-7.355-.933-14.7-1.956a14.987,14.987,0,0,1-2.995-.834,1.169,1.169,0,0,1-.615-.879C3156.177,714.89,3156.322,713.928,3156.428,712.78Z" transform="translate(-3142.449 -682.842)" fill="#047c4c"/>
      <path id="Path_16747" data-name="Path 16747" d="M3168.964,693.783c-2.177-.52-4.358-1.02-6.528-1.563a55.038,55.038,0,0,1-12.451-4.312c-1.986-1.044-2-1.04-1.333-3.145.21-.668.473-1.319.77-2.138C3155.232,687.776,3162.192,690.577,3168.964,693.783Z" transform="translate(-3136.24 -659.2)" fill="#047c4c"/>
      <path id="Path_16748" data-name="Path 16748" d="M3475.206,683.9c.652,5.213,1.292,10.318,1.951,15.582l-2.548.388c-.657-5.22-1.3-10.352-1.964-15.617Z" transform="translate(-3390.558 -660.199)" fill="#047c4c"/>
      <path id="Path_16749" data-name="Path 16749" d="M3297.363,772.073l1.982-1.439,2.094,2.842.622-.507c1.023.819.562,3.758-.839,5.05Z" transform="translate(-3253.138 -728.199)" fill="#047c4c"/>
      <path id="Path_16750" data-name="Path 16750" d="M3316.579,746.558l-5.126,6.5-1.518-1.859,6.5-4.757Z" transform="translate(-3262.993 -709.231)" fill="#047c4c"/>
      <path id="Path_16751" data-name="Path 16751" d="M3331.117,744.584l-1.428-1.451,5.34-6.977.24.135Z" transform="translate(-3278.481 -701.168)" fill="#047c4c"/>
      <path id="Path_16752" data-name="Path 16752" d="M3324.153,777.481c-.472-1.392-.967-2.614-1.267-3.883-.092-.39.351-.905.538-1.34,1.247.324,1.448,1.856,2.826,2.049C3326.234,775.59,3325.481,776.565,3324.153,777.481Z" transform="translate(-3273.138 -729.472)" fill="#047c4c"/>
      <path id="Path_16753" data-name="Path 16753" d="M3344.932,740.186l3.742-7.873.3.106-2.841,8.706Z" transform="translate(-3290.431 -698.156)" fill="#047c4c"/>
      <path id="Path_16754" data-name="Path 16754" d="M3341.453,772.573c.458.4,1.412.618.385,1.635l-.77-1.456Z" transform="translate(-3287.402 -729.719)" fill="#047c4c"/>
      <circle id="Ellipse_502" data-name="Ellipse 502" cx="3.764" cy="3.764" r="3.764" transform="translate(21.728 7.687)" fill="#fdf8ee"/>
      <g id="Group_16552-2" data-name="Group 16552-2" transform="translate(1 45.903)">
        <path id="Path_7801" data-name="Path 7801" d="M3216.5,812.233a1.231,1.231,0,0,0-.119.244,5.9,5.9,0,0,1-3.2,3.967q-6.3,3.3-12.6,6.619a23.882,23.882,0,0,1-12.418,2.7q-13.45-.6-26.9-1.175l-.758-.033.875-20.034a3.481,3.481,0,0,1,3.147-3.786c.087-.008.175-.013.259-.015a21.015,21.015,0,0,1,7.146.373,3.8,3.8,0,0,1,2.489,1.878,6.518,6.518,0,0,0,5.564,3.333c2.214.107,4.427.178,6.64.3a2.162,2.162,0,1,1-.237,4.3l-11.5-.5a2.066,2.066,0,0,0-.412,4.112h0l.151.007c1.072.066,2.145.094,3.22.141,3.742.163,7.488.257,11.225.509a26.762,26.762,0,0,0,12.347-2.153c4.436-1.862,8.925-3.589,13.384-5.383.131-.05.254-.089.4-.14a6.251,6.251,0,0,1,1.371,3.078Z" transform="translate(-3145.834 -800.578)" fill="#fa0"/>
        <path id="Path_7802" data-name="Path 7802" d="M3104.05,805.48l-.975,22.333c-.066.036-.105.077-.144.075-2.8-.122-5.611-.2-8.412-.367a2,2,0,0,1-1.9-2.095l0-.1q.382-9.1.794-18.194a1.986,1.986,0,0,1,1.95-2.021h0l.117.005C3098.322,805.2,3101.146,805.353,3104.05,805.48Z" transform="translate(-3092.621 -804.134)" fill="#fa0"/>
      </g>
      <g id="Group_20214" data-name="Group 20214" transform="translate(42.154 20.343) rotate(115)">
        <path id="Path_16755" data-name="Path 16755" d="M3242.85,671.844c-2.38.3-4.29.58-5.678.841l-.819-.528c-.011-.023-.009-.032,0-.04l.466-.711a3.745,3.745,0,0,0,.656-1.623,1.686,1.686,0,0,0-.405-1.346l-.187-.213-1.949,2.971h0l-.032.011-.64-.42a.028.028,0,0,1-.006-.037l1.929-2.941-.353-.037c-.718-.076-1.4.378-2.038,1.347l-.608.928a.027.027,0,0,1-.039.01l-.832-.546a.03.03,0,0,1,0-.035l3.5-5.331a.029.029,0,0,1,.031,0l.642.422a.026.026,0,0,1,0,.032l-1.222,1.862.439-.035a2.369,2.369,0,0,1,1.075.167l.165.067.815-1.243a.048.048,0,0,1,.02-.018.024.024,0,0,1,.015,0l.646.423c.012.017.01.025.006.031l-.811,1.237.142.124a2.56,2.56,0,0,1,.857,1.645,3.7,3.7,0,0,1-.443,2.1l-.218.4.447-.083c1.2-.222,2.973-.468,5.271-.731l.023,0,.008.018,0,.009Z" transform="translate(-3232.302 -664.135)" fill="#fa0"/>
      </g>
      <g id="Group_20218" data-name="Group 20218" transform="translate(20.833 20.501)" opacity="0.08">
        <path id="Path_16756" data-name="Path 16756" d="M3495.18,687.847q-.9-7.2-1.784-14.405c-.16-1.287-.341-2.57-.523-3.916a.505.505,0,0,0-.566-.432l-4.925.635a.506.506,0,0,0-.436.564c.816,6.506,1.616,12.889,2.432,19.389a.506.506,0,0,0,.566.438l4.986-.657a.466.466,0,0,0,.412-.484Zm-3.091.35a1.258,1.258,0,1,1,1.257-1.259A1.259,1.259,0,0,1,3492.089,688.2Z" transform="translate(-3422.6 -669.089)" fill="#fff"/>
        <path id="Path_16757" data-name="Path 16757" d="M3321.232,694.383c-3.266,1.05-6.448,1.994-9.567,3.113a6.383,6.383,0,0,1-4.292.05,42.146,42.146,0,0,1-10.157-5.329.824.824,0,0,1-.3-.676c.123-.7.339-1.382.557-2.216,3.8,2.951,7.558,5.819,12.677,4.992,0-.19,0-.147.009-.335-.49-.1-.979-.233-1.473-.285a15.675,15.675,0,0,1-9-3.992,7.4,7.4,0,0,0-5.718-1.97c-2.713.205-5.417.521-8.117.86a8.634,8.634,0,0,1-5.813-1.011,3.992,3.992,0,0,1-1.838-2.147q.525-.373,1.061-.726.561-.373,1.132-.726c.138-.084.276-.171.415-.253,1.05-.127,2.089-.264,3.119-.443a38.855,38.855,0,0,0,8.668-2.406c2.722-1.164,5.64-1.868,8.472-2.771a2.488,2.488,0,0,0,1.08-.542,3,3,0,0,0-.613-.069,3.71,3.71,0,0,0-1.056.188,10.547,10.547,0,0,1-5.877.559c.434-.093.873-.181,1.311-.261a45.421,45.421,0,0,1,8.275-.756,44.931,44.931,0,0,1,4.534.227h0l.728.467c2.264,1.462,4.415,2.328,7.089,1.555a6.177,6.177,0,0,1,1.147-.2h0c.512-.048,1.05-.065,1.609-.125.031.231.059.464.089.7C3320.016,684.807,3320.634,689.678,3321.232,694.383Z" transform="translate(-3258.947 -675.472)" fill="#fff"/>
        <path id="Path_16758" data-name="Path 16758" d="M3307.659,690.423l-7.249,1.443c.858-.458,1.735-.886,2.625-1.285q.745-.337,1.508-.648c.644-.263,1.292-.51,1.95-.743l.259.246C3307,689.674,3307.22,689.944,3307.659,690.423Z" transform="translate(-3276.36 -684.848)" fill="#fff"/>
        <path id="Path_16759" data-name="Path 16759" d="M3278.074,720.83c-4.108,3-8.215,6-12.388,9.051a33.154,33.154,0,0,0-8.126-9.055c.078-.073.155-.145.235-.216q1.649-1.484,3.441-2.8c.911,2.16,2.894,3.106,5.266,3.64a2.791,2.791,0,0,1,1.084.629,3.242,3.242,0,0,0,5.156-.7,1.213,1.213,0,0,1,.734-.51c1.49-.143,2.985-.218,4.478-.315C3277.994,720.644,3278.035,720.737,3278.074,720.83Z" transform="translate(-3242.766 -707.286)" fill="#fff"/>
        <path id="Path_16760" data-name="Path 16760" d="M3249.563,741.168c-.024.108-.048.216-.069.322-1.574-.151-3.154-.268-4.724-.445q.214-.233.432-.46c.151-.16.3-.318.46-.475C3246.969,740.438,3248.271,740.786,3249.563,741.168Z" transform="translate(-3232.738 -724.769)" fill="#fff"/>
        <path id="Path_16761" data-name="Path 16761" d="M3475.206,683.9c.652,5.213,1.292,10.318,1.951,15.582l-2.548.388c-.657-5.22-1.3-10.352-1.964-15.617Z" transform="translate(-3411.391 -680.7)" fill="#fff"/>
        <path id="Path_16762" data-name="Path 16762" d="M3297.363,772.073l1.982-1.439,2.094,2.842.622-.507c1.023.819.562,3.758-.839,5.05Z" transform="translate(-3273.971 -748.7)" fill="#fff"/>
        <path id="Path_16763" data-name="Path 16763" d="M3316.579,746.558l-5.126,6.5-1.518-1.859,6.5-4.757Z" transform="translate(-3283.827 -729.732)" fill="#fff"/>
        <path id="Path_16764" data-name="Path 16764" d="M3331.117,744.584l-1.428-1.451,5.34-6.977.24.135Z" transform="translate(-3299.315 -721.669)" fill="#fff"/>
        <path id="Path_16765" data-name="Path 16765" d="M3324.153,777.481c-.472-1.392-.967-2.614-1.267-3.883-.092-.39.351-.905.538-1.34,1.247.324,1.448,1.856,2.826,2.049C3326.234,775.59,3325.481,776.565,3324.153,777.481Z" transform="translate(-3293.972 -749.973)" fill="#fff"/>
        <path id="Path_16766" data-name="Path 16766" d="M3344.932,740.186l3.742-7.873.3.106-2.841,8.706Z" transform="translate(-3311.265 -718.656)" fill="#fff"/>
        <path id="Path_16767" data-name="Path 16767" d="M3341.453,772.573c.458.4,1.412.618.385,1.635l-.77-1.456Z" transform="translate(-3308.236 -750.22)" fill="#fff"/>
        <g id="Group_16552-2-2" data-name="Group 16552-2" transform="translate(1 25.66)">
          <path id="Path_16768" data-name="Path 16768" d="M3238.967,811.512l-.069,1.657a1.1,1.1,0,0,0-.119.244,5.9,5.9,0,0,1-3.2,3.966q-6.3,3.3-12.6,6.621a23.888,23.888,0,0,1-12.416,2.7q-10.569-.473-21.134-.927a45.549,45.549,0,0,1-.352-5.672c0-.378,0-.754.015-1.13a45.238,45.238,0,0,1,1.326-9.848q.3-1.212.669-2.4.221-.71.462-1.408c.125-.369.259-.737.4-1.1q.463-1.244,1-2.452.7.107,1.382.263a3.8,3.8,0,0,1,2.489,1.879,6.519,6.519,0,0,0,5.564,3.331c2.214.108,4.428.179,6.64.3a2.163,2.163,0,1,1,.177,4.322,2.394,2.394,0,0,1-.413-.022l-11.5-.5a2.067,2.067,0,1,0-.413,4.113l.151.006c1.071.067,2.145.093,3.22.14,3.741.164,7.487.257,11.224.51a26.762,26.762,0,0,0,12.347-2.154c4.437-1.862,8.925-3.588,13.384-5.383.132-.05.255-.091.4-.14A6.268,6.268,0,0,1,3238.967,811.512Z" transform="translate(-3189.07 -801.77)" fill="#fff"/>
        </g>
      </g>
    </g>
  </g>
</svg>
