<svg xmlns="http://www.w3.org/2000/svg" width="23.726" height="26.909" viewBox="0 0 23.726 26.909">
  <path id="get-app-playstore-icon.4cd03680" d="M1.244,1,13.92,13.585,17.4,10.11,2.03,1.238A1.677,1.677,0,0,0,1.244,1ZM.183,1.585A1.457,1.457,0,0,0,0,2.3V26.757a1.3,1.3,0,0,0,.11.53L13.08,14.41.182,1.585Zm18.274,9.128-3.713,3.7,3.713,3.676,4.537-2.6a1.153,1.153,0,0,0,.018-2.14c-.386-.209-3.256-1.88-4.555-2.635Zm-4.536,4.519L1.134,27.909a1.458,1.458,0,0,0,.659-.183l10.628-6.147,4.994-2.872Z" transform="translate(0 -1)" fill="#018754"/>
</svg>
