<svg xmlns="http://www.w3.org/2000/svg" xmlns:xlink="http://www.w3.org/1999/xlink" width="70" height="70" viewBox="0 0 70 70">
  <defs>
    <clipPath id="clip-path">
      <rect id="Rectangle_24358" data-name="Rectangle 24358" width="52.252" height="52.249" fill="none"/>
    </clipPath>
  </defs>
  <g id="Icon" transform="translate(-295 -843)">
    <path id="Rectangle" d="M295,847a4,4,0,0,1,4-4h62a4,4,0,0,1,4,4v62a4,4,0,0,1-4,4H299a4,4,0,0,1-4-4Z" fill="#f8f6ff"/>
    <g id="Group_24432" data-name="Group 24432" transform="translate(303.566 851.875)">
      <g id="Group_24432-2" data-name="Group 24432" clip-path="url(#clip-path)">
        <path id="Path_27305" data-name="Path 27305" d="M0,26.927V25.3a.8.8,0,0,0,0-.612V23.97c.149-1,.1-2.023.308-3.022A26.076,26.076,0,0,1,6.936,8.125,26.352,26.352,0,0,1,19.358.671,18.262,18.262,0,0,1,23.576.051c.1,0,.2.027.291-.051h.51c.255.2.559.085.838.118A24.588,24.588,0,0,1,35.509,3.863a26.23,26.23,0,0,1,9.683,10.829,21.318,21.318,0,0,1,1.234,3.069c.074.235.2.483-.01.72-.314,0-.361-.269-.449-.478A21.494,21.494,0,0,0,37.06,7.684a20.7,20.7,0,0,0-8.886-2.911,16.143,16.143,0,0,0-1.83-.08c-.528.011-.765.182-.775.543-.01.377.24.559.794.578a20.25,20.25,0,0,1,12.54,4.6,19.732,19.732,0,0,1,7.177,12.319,19.639,19.639,0,0,1-4.2,16.061,19.683,19.683,0,0,1-12.816,7.364,20.914,20.914,0,0,1-11.926-1.772c-.357-.16-.684-.378-1.029-.56-.442-.233-.77-.193-.941.109s-.069.608.358.881a14.082,14.082,0,0,0,2.992,1.408,22.133,22.133,0,0,0,8.97,1.287,21.114,21.114,0,0,0,13.569-6.073,21.948,21.948,0,0,0,4.914-7.247c.084-.2.141-.432.419-.456.266.265.091.544.006.8a24.8,24.8,0,0,1-3.4,6.7,26.066,26.066,0,0,1-13.022,9.77,17.733,17.733,0,0,1-4.752,1.076,5.194,5.194,0,0,0-.547-.013c.1.05.329-.118.317.17a18.478,18.478,0,0,1-4.84-.5A26.346,26.346,0,0,1,.282,31.125,22.893,22.893,0,0,1,.051,28.6c-.009-.115.037-.239-.051-.342v-.51a1.364,1.364,0,0,0,0-.816" fill="#fee076"/>
        <path id="Path_27306" data-name="Path 27306" d="M182.49,0a8.955,8.955,0,0,0,1.832.287A25.383,25.383,0,0,1,196.3,5.432a25.408,25.408,0,0,1,9.55,15.087A25.392,25.392,0,0,1,201.8,40.985a25.582,25.582,0,0,1-15.059,10.463,25.192,25.192,0,0,1-7.517.758c-.166-.141-.393-.046-.644-.144a26.062,26.062,0,0,0,19.988-13.307,26.429,26.429,0,0,0,1.939-4.424,1.365,1.365,0,0,0,.131-.592c-.195-.215-.111-.453-.031-.671a20.22,20.22,0,0,0,1.123-5.457,19.1,19.1,0,0,0-.1-4.009,21.739,21.739,0,0,0-1.032-4.5.551.551,0,0,1,.04-.622,11.635,11.635,0,0,0-.923-2.685,25.778,25.778,0,0,0-6.455-9.039A26,26,0,0,0,178.87.2a.25.25,0,0,1-.255-.2h2.652a.8.8,0,0,0,.612,0Z" transform="translate(-154.237)" fill="#fed05b"/>
        <path id="Path_27307" data-name="Path 27307" d="M0,197.54a.781.781,0,0,1,0,.816Z" transform="translate(0 -170.613)" fill="#fee99e"/>
        <path id="Path_27308" data-name="Path 27308" d="M0,181.078a.478.478,0,0,1,0,.612Z" transform="translate(0 -156.395)" fill="#fee898"/>
        <path id="Path_27309" data-name="Path 27309" d="M140.463,46.856a26.847,26.847,0,0,1,1.155,4.734,21.7,21.7,0,0,1-1,9.986c-.06.176-.105.356-.157.535a26.332,26.332,0,0,1-2.089,4.066,21.294,21.294,0,0,1-14.921,9.688,21.661,21.661,0,0,1-13.495-2.21,5.349,5.349,0,0,1-.652-.4.788.788,0,0,1-.272-1.105.776.776,0,0,1,1.12-.208,14.543,14.543,0,0,0,3.53,1.561c7.725,2.3,14.63.848,20.513-4.712a19.072,19.072,0,0,0,5.881-11.854,20.062,20.062,0,0,0-19.337-22.52c-.153-.005-.306-.005-.459-.012-.571-.026-.923-.349-.9-.82s.371-.739.923-.737a20.964,20.964,0,0,1,10.331,2.7A21.488,21.488,0,0,1,140.3,46.543c.044.108.107.209.162.313" transform="translate(-94.062 -28.372)" fill="#2abbc7"/>
        <path id="Path_27310" data-name="Path 27310" d="M129.656,130.8a2.129,2.129,0,0,1-.7,1.4q-3.74,3.725-7.467,7.462-2.795,2.795-5.59,5.589a1.863,1.863,0,0,1-2.972,0q-2.922-2.92-5.844-5.84a1.675,1.675,0,0,1-.534-1.886,1.967,1.967,0,0,1,1.649-1.346,1.675,1.675,0,0,1,1.458.57c1.442,1.443,2.9,2.869,4.316,4.338.377.392.555.326.9-.02q5.733-5.77,11.494-11.513a1.7,1.7,0,0,1,1.833-.567,2.048,2.048,0,0,1,1.414,1.542c.024.1.032.2.044.276" transform="translate(-91.928 -111.326)" fill="#fefefe"/>
        <path id="Path_27311" data-name="Path 27311" d="M54.007,110.478a.784.784,0,0,1-.038-1.567.73.73,0,0,1,.774.76.755.755,0,0,1-.735.807" transform="translate(-45.969 -94.065)" fill="#2cbcc6"/>
        <path id="Path_27312" data-name="Path 27312" d="M78.524,78.695a.725.725,0,0,1-.762-.769.744.744,0,0,1,.739-.8.784.784,0,0,1,.023,1.567" transform="translate(-67.162 -66.615)" fill="#2cbcc6"/>
        <path id="Path_27313" data-name="Path 27313" d="M110.986,53.7a.74.74,0,0,1-.76.773.762.762,0,0,1-.751-.792.746.746,0,0,1,.773-.763.71.71,0,0,1,.739.782" transform="translate(-94.552 -45.708)" fill="#2cbcc7"/>
        <path id="Path_27314" data-name="Path 27314" d="M53.82,263.915a.746.746,0,0,1-.75-.787.718.718,0,0,1,.752-.774.752.752,0,0,1,.763.777.77.77,0,0,1-.765.784" transform="translate(-45.836 -226.592)" fill="#2cbcc6"/>
        <path id="Path_27315" data-name="Path 27315" d="M78.071,295.642a.747.747,0,0,1-.768-.769.759.759,0,0,1,.756-.787.737.737,0,0,1,.755.777.713.713,0,0,1-.743.779" transform="translate(-66.765 -253.998)" fill="#2cbcc7"/>
        <path id="Path_27316" data-name="Path 27316" d="M33.468,185.559a.729.729,0,0,1,.7.821.746.746,0,1,1-1.489-.083.722.722,0,0,1,.786-.738" transform="translate(-28.226 -160.264)" fill="#2bbcc7"/>
        <path id="Path_27317" data-name="Path 27317" d="M38.492,226.808a.738.738,0,0,1-.744-.787.751.751,0,0,1,.771-.768.731.731,0,0,1,.732.8.709.709,0,0,1-.76.76" transform="translate(-32.603 -194.547)" fill="#2bbbc7"/>
        <path id="Path_27318" data-name="Path 27318" d="M38.733,147.441a.71.71,0,0,1-.757-.763.72.72,0,0,1,.735-.788.776.776,0,0,1,.022,1.55" transform="translate(-32.799 -126.004)" fill="#2bbbc7"/>
      </g>
    </g>
  </g>
</svg>
