<svg xmlns="http://www.w3.org/2000/svg" width="432.727" height="432.729" viewBox="0 0 432.727 432.729">
  <g id="Group_22660" data-name="Group 22660" transform="translate(13301 13391.998)">
    <path id="Path_23793" data-name="Path 23793" d="M964.727,216.366c0,119.494-96.869,216.364-216.364,216.364S532,335.86,532,216.366,628.869,0,748.363,0s216.364,96.87,216.364,216.364" transform="translate(-13833 -13392)" fill="#b9b439"/>
    <g id="Group_22657" data-name="Group 22657">
      <path id="Path_23794" data-name="Path 23794" d="M714.7,142.61a15.6,15.6,0,0,0-5.033,10.425l-7.044-.228S691.823,157,688.274,149.07l-8-5.653s-.247-5.99,0-12.562v0c.128-1.076.746-4.6,3.451-5.807,13.833-6.156,30.362,16.714,30.972,17.565" transform="translate(-13833 -13392)" fill="#ff6757"/>
      <path id="Path_23795" data-name="Path 23795" d="M712.168,145.617a14.173,14.173,0,0,0-2.506,7.417l-7.043-.228s-10.8,4.191-14.345-3.736l-8-5.653s-.247-5.99,0-12.563h0c.156.2,11.941,15.444,31.894,14.764" transform="translate(-13833 -13392)" fill="#f44e42"/>
      <path id="Path_23796" data-name="Path 23796" d="M716.225,141.3a14.357,14.357,0,0,0-1.529,1.3c-.611-.85-17.139-23.72-30.972-17.564-2.705,1.2-3.323,4.731-3.451,5.807a62.679,62.679,0,0,1,1.5-12.842s22.475,6.971,34.451,23.294" transform="translate(-13833 -13392)" fill="#434271"/>
      <path id="Path_23797" data-name="Path 23797" d="M711.3,132.456l-2.784.569-4.311-.569v-4.843s.676-7.081,6.459-8.25,8.073,2.4,8.073,2.4Z" transform="translate(-13833 -13392)" fill="#c3bfe8"/>
      <path id="Path_23798" data-name="Path 23798" d="M719.924,122.817s-4.72-5.553-8.811,1.362c-2.215,3.743.19,8.277.19,8.277l10.453,3.45,1.959-2.912-.605-2.391Z" transform="translate(-13833 -13392)" fill="#d4ceef"/>
      <path id="Path_23799" data-name="Path 23799" d="M730.323,128.6l-1.772,3.856-10.5-3.576a3.175,3.175,0,1,1,2.589-5.768Z" transform="translate(-13833 -13392)" fill="#20203d"/>
      <path id="Path_23800" data-name="Path 23800" d="M731.253,131.438a2.141,2.141,0,1,1-.979-2.866,2.141,2.141,0,0,1,.979,2.866" transform="translate(-13833 -13392)" fill="#ff6757"/>
      <path id="Path_23801" data-name="Path 23801" d="M731.936,140.643h0a1.51,1.51,0,0,1-2.063.431l-8.118-5.168,1.96-2.911,7.843,5.574a1.51,1.51,0,0,1,.378,2.074" transform="translate(-13833 -13392)" fill="#20203d"/>
      <path id="Path_23837" data-name="Path 23837" d="M889.006,218.231s16.044,30.119,23.755,39.8l-10.5-4.1-24.182-30.493Z" transform="translate(-13833 -13392)" fill="#d4ceef"/>
      <path id="Path_23838" data-name="Path 23838" d="M906.015,255.393l-3.755-1.467-24.181-30.492,4.359-2.076h0Z" transform="translate(-13833 -13392)" fill="#c3bfe8"/>
      <path id="Path_23820" data-name="Path 23820" d="M677.016,271.153a40.193,40.193,0,1,1-40.193-40.193,40.193,40.193,0,0,1,40.193,40.193" transform="translate(-13833 -13392)" fill="#20203d"/>
      <path id="Path_23821" data-name="Path 23821" d="M636.823,230.96v80.386a40.193,40.193,0,0,1,0-80.386" transform="translate(-13833 -13392)" fill="#131326"/>
      <path id="Path_23825" data-name="Path 23825" d="M660.693,271.153a23.87,23.87,0,1,1-23.87-23.87,23.87,23.87,0,0,1,23.87,23.87" transform="translate(-13833 -13392)" fill="#fff"/>
      <path id="Path_23826" data-name="Path 23826" d="M636.823,247.284v47.738a23.869,23.869,0,1,1,0-47.738" transform="translate(-13833 -13392)" fill="#ededed"/>
      <path id="Path_23819" data-name="Path 23819" d="M673.078,250.194l-23.525-3.864.559-5.28L630.26,257.7a19.212,19.212,0,0,0-3.279-11.978c-3.939-5.413-23.884-5.513-23.884-5.513a45.766,45.766,0,0,1,65.984-1.529Z" transform="translate(-13833 -13392)" fill="#434271"/>
      <path id="Path_23827" data-name="Path 23827" d="M892.951,271.153a40.193,40.193,0,1,1-40.193-40.193,40.193,40.193,0,0,1,40.193,40.193" transform="translate(-13833 -13392)" fill="#20203d"/>
      <path id="Path_23822" data-name="Path 23822" d="M649.553,246.331l.559-5.281L630.26,257.7a19.212,19.212,0,0,0-3.279-11.978c-1.517-2.086-5.41-3.382-9.624-4.188a35.449,35.449,0,0,1,46.924,7.214Z" transform="translate(-13833 -13392)" fill="#20203d"/>
      <path id="Path_23828" data-name="Path 23828" d="M852.758,230.96v80.386a40.193,40.193,0,0,1,0-80.386" transform="translate(-13833 -13392)" fill="#131326"/>
      <path id="Path_23829" data-name="Path 23829" d="M876.628,271.153a23.87,23.87,0,1,1-23.87-23.87,23.87,23.87,0,0,1,23.87,23.87" transform="translate(-13833 -13392)" fill="#fff"/>
      <path id="Path_23830" data-name="Path 23830" d="M852.758,247.284v47.738a23.869,23.869,0,1,1,0-47.738" transform="translate(-13833 -13392)" fill="#ededed"/>
      <path id="Path_23817" data-name="Path 23817" d="M636.6,272.2h0a2.575,2.575,0,0,1-1.251-3.224l20.587-53.633,4.626,2.316-20.406,53.162A2.574,2.574,0,0,1,636.6,272.2" transform="translate(-13833 -13392)" fill="#d4ceef"/>
      <path id="Path_23818" data-name="Path 23818" d="M636.823,272.311h0L658.246,216.5l2.313,1.158-20.5,53.4a2.346,2.346,0,0,1-3.24,1.257" transform="translate(-13833 -13392)" fill="#c3bfe8"/>
      <path id="Path_23802" data-name="Path 23802" d="M873.278,174.22s-20.853,14.616-48.379,13.559q-2.863-.108-5.813-.455c-30.35-3.611-44.624,8.529-55.2,17.553,0,0-12.058,3.445-17.47,4.429s.245-14.274,1.474-17.474,9.106-14.025,22.565-15.993,44.123.245,49.291-2.706,12.306-4.184,19.441-4.184,31.5-4.184,31.5-4.184l2.706,4.674a27.2,27.2,0,0,1-.11,4.781" transform="translate(-13833 -13392)" fill="#20203d"/>
      <path id="Path_23839" data-name="Path 23839" d="M898.981,200.2a39.517,39.517,0,0,1-2,7.029c-4.269,1.673-11.107,1.032-11.107,1.032a21.055,21.055,0,0,0,.747-6.013c7.82-1.461,12.356-2.048,12.356-2.048" transform="translate(-13833 -13392)" fill="#f44e42"/>
      <path id="Path_23836" data-name="Path 23836" d="M898.981,200.2s-4.536.587-12.356,2.048a5.415,5.415,0,0,0-.258-1.309c-.859-2.461-22.882-8.366-22.882-8.366,15.254-2.77,26.338.51,26.338.51a81.218,81.218,0,0,1,9.158,7.117" transform="translate(-13833 -13392)" fill="#ff6757"/>
      <path id="Path_23823" data-name="Path 23823" d="M823.68,251.63c-6.89,7.874-32.238,33.467-45.034,33.467h-12.8c26.456-40.357,61.766-44.047,61.766-44.047s2.955,2.706-3.935,10.58" transform="translate(-13833 -13392)" fill="#d4ceef"/>
      <path id="Path_23824" data-name="Path 23824" d="M827.615,241.049,778.1,285.1H765.85c26.455-40.357,61.765-44.048,61.765-44.048" transform="translate(-13833 -13392)" fill="#c3bfe8"/>
      <path id="Path_23803" data-name="Path 23803" d="M896.985,207.228a34.374,34.374,0,0,1-5.633,9.838c-41.879,20.957-63.738,23.984-63.738,23.984s-35.31,3.69-61.765,44.047H689.813c-6.4-20.425-33.222-62.5-37.406-69.885-2.965-5.233-5.31-3.79-7.477-5.659-.892-.769-1.752-2.1-2.613-4.676a7.12,7.12,0,0,1-.31-1.4l17.864-16.816,3.282-9.019L645.977,188.28a111.142,111.142,0,0,1,21.443-29.914C681.445,144.834,692.764,150,692.764,150s-22.8,29.282-23.622,40.768,6.328,30.363,30.585,72.159c.007.01.013.022.02.032l.011.019,74.089-4.336h0a33.767,33.767,0,0,0,2.182-2.659l.009-.01c3.989-5.324,11.253-17.584,2.526-27.31-11.484-12.795-15.584-18.209-14.683-23.787,10.579-9.023,24.853-21.164,55.2-17.552,1.964.234,3.9.382,5.814.455,27.525,1.056,48.378-13.56,48.378-13.56a29.553,29.553,0,0,1-2.1,8.265,129.805,129.805,0,0,1,18.65,10.6s-11.084-3.28-26.337-.511c0,0,22.022,5.906,22.882,8.367a5.379,5.379,0,0,1,.257,1.309,21.046,21.046,0,0,1-.747,6.012s6.838.643,11.108-1.031" transform="translate(-13833 -13392)" fill="#323260"/>
      <path id="Path_23816" data-name="Path 23816" d="M896.985,207.228a34.374,34.374,0,0,1-5.633,9.838c-41.879,20.957-63.738,23.984-63.738,23.984s-35.31,3.69-61.765,44.047H689.813c-6.4-20.425-33.222-62.5-37.406-69.885-2.965-5.233-5.31-3.79-7.477-5.659,0,0,5.4-2.038,17.082,4.164,11.536,6.129,37.116,48.225,37.735,49.244l.011.019,74.089-4.336h0a33.767,33.767,0,0,0,2.182-2.659l.009-.01c6.06-7.363,22.752-27.461,25.185-28.466a444.054,444.054,0,0,1,85.4-25.261,21.046,21.046,0,0,1-.747,6.012s6.838.643,11.108-1.031" transform="translate(-13833 -13392)" fill="#20203d"/>
      <path id="Path_23804" data-name="Path 23804" d="M773.848,258.644l-74.089,4.336c-24.281-41.831-31.437-60.73-30.616-72.212S692.765,150,692.765,150l6.4,2.379c9.348.818,10.58,3.278,10.58,3.278S693.5,181.745,690.8,193.309s17.716,67.672,17.716,67.672l45.773-2.7c13.78-23.133-.494-38.88-.494-38.88,1.232-7.139,10.09-14.52,10.09-14.52-.9,5.579,3.2,10.991,14.685,23.788s-4.719,29.98-4.719,29.98" transform="translate(-13833 -13392)" fill="#ff6757"/>
      <path id="Path_23815" data-name="Path 23815" d="M773.848,258.644l-74.089,4.336c-24.281-41.83-31.437-60.73-30.616-72.211v-.009c.4.323,13.084,10.338,21.438,4.139-.894,14.362,17.932,66.083,17.932,66.083l45.772-2.707c5.3-8.9,6.451-16.709,5.858-22.946.776.406,8.529,4.048,18.422-6.665,11.482,12.8-4.718,29.98-4.718,29.98" transform="translate(-13833 -13392)" fill="#f44e42"/>
      <path id="Path_23805" data-name="Path 23805" d="M661.4,182.473l-1.525,4.191-17.864,16.815c-.312-2.386.246-5.524,1.462-9.1h0Z" transform="translate(-13833 -13392)" fill="#f7b531"/>
      <path id="Path_23806" data-name="Path 23806" d="M663.154,177.645l-1.757,4.828-17.926,11.911a58.27,58.27,0,0,1,2.507-6.1Z" transform="translate(-13833 -13392)" fill="#ffc239"/>
      <path id="Path_23833" data-name="Path 23833" d="M849.186,200.176a5.835,5.835,0,1,1-5.835-5.835,5.834,5.834,0,0,1,5.835,5.835" transform="translate(-13833 -13392)" fill="#ff6757"/>
      <path id="Path_23834" data-name="Path 23834" d="M843.735,194.354V206c-.127.009-.255.013-.384.013a5.835,5.835,0,1,1,0-11.67c.129,0,.257,0,.384.013" transform="translate(-13833 -13392)" fill="#f44e42"/>
      <path id="Path_23835" data-name="Path 23835" d="M847.678,199.92a3.943,3.943,0,1,1-3.943-3.943,3.943,3.943,0,0,1,3.943,3.943" transform="translate(-13833 -13392)" fill="#ffc239"/>
      <path id="Path_23807" data-name="Path 23807" d="M691.784,149.658s6.248-23.511,13.367-25.169c5.987-1.394,2.7,2.337,0,2.707-4.347.6-12.387,22.805-12.387,22.805Z" transform="translate(-13833 -13392)" fill="#d4ceef"/>
      <path id="Path_23808" data-name="Path 23808" d="M704.208,132.456l-5.484,10.509a1.911,1.911,0,0,0,3.371,1.8l6.424-11.742Z" transform="translate(-13833 -13392)" fill="#d4ceef"/>
      <path id="Path_23809" data-name="Path 23809" d="M706.71,132.787l-7.021,12.83a1.91,1.91,0,0,1-.968-2.645l5.487-10.515Z" transform="translate(-13833 -13392)" fill="#c3bfe8"/>
      <path id="Path_23810" data-name="Path 23810" d="M713.764,105.131h-2.335a2.2,2.2,0,0,1-2.077-1.473L707.8,99.239A2.2,2.2,0,0,1,707.74,98l2.034-8.57a2.2,2.2,0,0,1,2.141-1.692h1.849Z" transform="translate(-13833 -13392)" fill="#434271"/>
      <path id="Path_23811" data-name="Path 23811" d="M716.088,118.395l-1.732-.406a1.677,1.677,0,0,1-1.284-1.454l-.38-3.546a1.673,1.673,0,0,1,.168-.928l3-6a1.676,1.676,0,0,1,1.882-.883l1.372.322Z" transform="translate(-13833 -13392)" fill="#434271"/>
      <path id="Path_23812" data-name="Path 23812" d="M713.764,105.131h0a1.23,1.23,0,0,1-1.23-1.23V88.972a1.23,1.23,0,1,1,2.46,0V103.9a1.23,1.23,0,0,1-1.23,1.23" transform="translate(-13833 -13392)" fill="#d4ceef"/>
      <path id="Path_23813" data-name="Path 23813" d="M710.975,120.483a.32.32,0,0,1-.32-.32V105.132a.32.32,0,1,1,.64,0v15.031a.32.32,0,0,1-.32.32" transform="translate(-13833 -13392)" fill="#20203d"/>
      <path id="Path_23814" data-name="Path 23814" d="M714.134,119.532a.365.365,0,0,1-.057,0,.32.32,0,0,1-.258-.372l.222-1.223a.32.32,0,1,1,.629.114l-.222,1.223a.319.319,0,0,1-.314.263" transform="translate(-13833 -13392)" fill="#20203d"/>
      <path id="Path_23831" data-name="Path 23831" d="M818.54,257.152l41.849,9.749a5.977,5.977,0,0,1-1.356,11.8h-35.19l-2.132-4.593-18.81-2.394Z" transform="translate(-13833 -13392)" fill="#d4ceef"/>
      <path id="Path_23832" data-name="Path 23832" d="M864.673,274.7a5.974,5.974,0,0,1-5.64,3.995H823.844l-2.132-4.594L802.9,271.712c-8.665,7.214-17.975,13.385-24.259,13.385h-12.8a113.967,113.967,0,0,1,17.417-20.867l24.312,3.127.308.04Z" transform="translate(-13833 -13392)" fill="#c3bfe8"/>
    </g>
  </g>
</svg>
