<svg xmlns="http://www.w3.org/2000/svg" width="99.672" height="61.55" viewBox="0 0 99.672 61.55">
  <g id="Group_20068" data-name="Group 20068" transform="translate(-699.781 -717.8)">
    <path id="Path_16710" data-name="Path 16710" d="M770.558,727.027c-.082-1.041-.164-3.08-.247-4.119l-1.573-2.689-.524-1.819-1.611-.6-.4,5.241,2.5-.16.256.43c.033.424.181,3.31.215,3.735" fill="#fa0"/>
    <g id="Group_20066" data-name="Group 20066">
      <path id="Path_16624" data-name="Path 16624" d="M770.3,726.134a7.924,7.924,0,0,0-2.97.638h0l-.321.562-1.642-.116h-.087a1.268,1.268,0,0,0-1.263,1.178,1.443,1.443,0,0,0,0,.208,1.306,1.306,0,0,0,1.23,1.142l1.354.1v.018l1.373,3.88a1.282,1.282,0,0,0,.682.72l.03.013,1.511-.173,1.91,4.265c-1.011-1.194-2.434-2.806-2.526-2.9a10.481,10.481,0,0,0-2.253-1.723,1.535,1.535,0,0,0-.78-.691,19.074,19.074,0,0,0-12.516-.68,3.66,3.66,0,0,0-1.489.841,2.368,2.368,0,0,1-1.182.519c-.181.044-.374.091-.578.153a5.724,5.724,0,0,0-2.794,2l-.027.034c-.458.541-.836,1-1.088,1.3a17.232,17.232,0,0,1-3.593.507c-.835-.054-6.3-1.471-7.959-1.9a3.131,3.131,0,0,0-2.274.267l-.161.085-2.116-3.044-.032-.046-13.851-1.714-.141-.018v1.1l-1.535-.489-4-.559a.344.344,0,0,0-.387.294.348.348,0,0,0,.114.309l6.965,6.089,2.217,1.241a35.389,35.389,0,0,0-13.786,2.912,1.6,1.6,0,0,0-.615.408.836.836,0,0,0-.179.742,2.485,2.485,0,0,0,1.246,1.381c-2.91,3.394-7.66,10.426-6.929,12.095a.653.653,0,0,0,.631.388h.078l.036-.069c2.857-5.449,8.5-9.7,15.484-11.67a40.274,40.274,0,0,1,10.474-1.406c.494-.009,1.1.044,1.749.1.2.017.41.033.619.049l4.176,2.337.293,4.971-2.067,2.067,2.962,2.367a.88.88,0,0,0-.509.458.563.563,0,0,0,.035.381l-.739.025-.7.622c-.021-.033-.046-.061-.067-.094s-.038-.074-.059-.108c-.161-.251-.348-.479-.523-.718-.148-.2-.286-.415-.443-.609-.192-.237-.4-.453-.61-.676s-.378-.43-.582-.628c-.173-.168-.361-.315-.542-.473-.26-.229-.515-.464-.789-.674-.134-.1-.279-.187-.417-.284-.337-.239-.673-.479-1.028-.689-.094-.056-.2-.1-.29-.152-.408-.229-.82-.451-1.249-.641-.079-.035-.163-.059-.242-.092a14.209,14.209,0,0,0-1.374-.515c-.14-.044-.287-.067-.428-.107-.415-.115-.83-.231-1.256-.309s-.855-.119-1.286-.16c-.154-.015-.3-.048-.459-.057l-.416-.027.783.589c-.318-.022-.634-.049-.958-.049a13.884,13.884,0,0,0-10.812,5.177l-.055-.041a13.938,13.938,0,1,0,24.778,8.774c0-.041-.006-.081-.007-.122l1.109-.115.055.092,6.958,4.831a1.183,1.183,0,0,1-.075.788.467.467,0,0,1-.315.112l-.131-.007-.005.423,17.676.307h.1l.336-1.191,6.071-2.958.051-.025.015-.054a5.756,5.756,0,0,1,1.855-2.877l.063-.052v-.158h.005l.156-6.2,8.342-6.954.847-.794.722,1.614.557,1.279c-.3.2-.593.4-.865.619a15.593,15.593,0,0,0-3.556,3.716l-.121.178h.019a13.952,13.952,0,1,0,14.279-5.884l-.009.009a14.824,14.824,0,0,0-3.318-.385h-.013a13.543,13.543,0,0,0-3.1.367c-.34.075-.68.172-1.015.28l-3.786-8.7,3.245,1.9a1.793,1.793,0,0,0,2.505-1.869,2.873,2.873,0,0,0-.5-2.655l-4.166-4.909.115.209a21.488,21.488,0,0,0-2.553-2.291l.374-.054a1.263,1.263,0,0,0,.994-1.717l-1.989-5.024a1.265,1.265,0,0,0-1.2-.8q-1.59.028-3.183.055Zm-14.357,43.025c0,.827-.467.827-.62.827s-.615,0-.615-.827.463-.823.615-.823S755.941,768.336,755.941,769.159Zm-1.682,0c0,.827-.465.827-.619.827s-.618,0-.618-.827.465-.823.618-.823S754.259,768.336,754.259,769.159Zm-2.976.53v-.249l.727-1.035h.359v1.1h.2v.185h-.2V770h-.256v-.308Zm-2.6-.45a.137.137,0,0,1,.01.036c-.036.147-.074.293-.112.44l-.029.11h-.237c.013-.05.026-.1.039-.147a.327.327,0,0,0-.158-.435.322.322,0,0,0-.193-.026c-.178.007-.355,0-.532,0h-.079a.2.2,0,0,0-.214.171c-.029.118-.06.236-.092.355l-.021.08h-.238l.183-.7a.214.214,0,0,1,.233-.172l1.128.005c.207,0,.248-.063.264-.253l.013-.136-1.478-.006v-.012c.014-.069.03-.137.044-.2l1.615.007c.047,0,.072.01.08.02s.013.037,0,.084h0c-.026.115-.056.231-.091.337a.428.428,0,0,1-.086.133.241.241,0,0,0-.052.309Zm1.133-.871.021.2c.024.27.047.537.078.82a.385.385,0,0,0,.051.12l.088.081.1-.054a.253.253,0,0,0,.1-.083c.224-.356.447-.714.67-1.083h.238l-.154.247c-.224.362-.449.725-.676,1.1a.229.229,0,0,1-.233.132h0c-.047,0-.093-.005-.14-.005h-.235c-.036,0-.051-.018-.054-.058-.021-.215-.04-.43-.06-.646l-.048-.525c-.008-.081-.015-.162-.022-.245Zm-11.875-7.331,4.568.233-6.414.694-2.035.044-.284.011.036.192-.081.008a13.8,13.8,0,0,0-.541-1.833l.325.245.1.5Zm26.405-13.95a2.283,2.283,0,0,1,2.281,2.28,2.255,2.255,0,0,1-.129.754l-.12.332.149-.09a2.4,2.4,0,0,1-2.181,1.409c-.045,0-.09-.007-.135-.01l.147-.088a2.667,2.667,0,0,1-1.559-.634,2.286,2.286,0,0,1-.732-1.673,2.236,2.236,0,0,1,.5-1.422l.119-.119a2.265,2.265,0,0,1,1.657-.74ZM722.938,761.1a4.842,4.842,0,0,0-2.282-.83c.3-1.765.659-3.863.809-4.783a9.7,9.7,0,0,1,4.525,1.872Zm1.726,2.1a4.911,4.911,0,0,0-.731-1.165c1.423-1.005,3.123-2.208,3.952-2.8a9.752,9.752,0,0,1,1.686,3.435Zm-5.39-2.9a4.868,4.868,0,0,0-1.944.8c-1.007-1.422-2.216-3.125-2.8-3.933a9.705,9.705,0,0,1,4.229-1.677Zm-2.21,8.672a4.872,4.872,0,0,0,2.207,1.019c-.289,1.7-.635,3.732-.8,4.768a9.73,9.73,0,0,1-4.431-2.006Zm3.566,1.057a4.887,4.887,0,0,0,2.6-1.075c1.01,1.43,2.215,3.133,2.8,3.953a9.711,9.711,0,0,1-4.907,1.956Zm-4.3-7.982a4.845,4.845,0,0,0-1.075,2.57c-1.748-.3-3.819-.642-4.785-.8A9.718,9.718,0,0,1,712.561,759ZM715.292,766a4.863,4.863,0,0,0,.806,1.962c-1.495,1.049-3.283,2.306-3.946,2.781a9.715,9.715,0,0,1-1.675-4.239Zm8.888,1.956a4.9,4.9,0,0,0,.8-1.95c1.71.294,3.768.646,4.768.811a9.718,9.718,0,0,1-1.827,4.193Zm64.138-6.641a4.85,4.85,0,0,0-2.284-.83c.3-1.765.66-3.863.81-4.783a9.73,9.73,0,0,1,4.527,1.87Zm-8.425-.521.153.186a3.27,3.27,0,0,0,1.206.912l.462.373a4.875,4.875,0,0,0-1.075,2.57c-1.748-.295-3.82-.643-4.787-.8a9.726,9.726,0,0,1,2.092-4.819Zm10.5,4.065a4.845,4.845,0,0,0-1.085-2.6c1.424-1.006,3.124-2.21,3.953-2.8a9.708,9.708,0,0,1,1.966,4.9Zm-9.725,1.36a4.874,4.874,0,0,0,.807,1.963c-1.5,1.049-3.285,2.306-3.947,2.781a9.689,9.689,0,0,1-1.675-4.24Zm1.771,2.972a4.873,4.873,0,0,0,2.206,1.018c-.289,1.7-.634,3.733-.8,4.769a9.76,9.76,0,0,1-4.432-2.006Zm3.566,1.058a4.859,4.859,0,0,0,2.6-1.076c1.011,1.431,2.216,3.135,2.8,3.953a9.729,9.729,0,0,1-4.907,1.956Zm3.552-2.074a4.87,4.87,0,0,0,.8-1.95c1.71.294,3.767.646,4.766.81a9.717,9.717,0,0,1-1.827,4.194Z" fill="#1d6b3a"/>
      <path id="Path_16625" data-name="Path 16625" d="M752.152,768.432l-.713,1.072h.713Z" fill="#1d6b3a"/>
      <path id="Path_16626" data-name="Path 16626" d="M755.321,768.56c-.372,0-.372.4-.372.6h0c0,.2,0,.6.372.6s.375-.407.375-.6h0C755.692,768.961,755.692,768.56,755.321,768.56Z" fill="#1d6b3a"/>
      <path id="Path_16627" data-name="Path 16627" d="M753.64,768.56c-.373,0-.373.4-.373.6h0c0,.2,0,.6.373.6s.372-.407.372-.6h0C754.012,768.961,754.011,768.56,753.64,768.56Z" fill="#1d6b3a"/>
    </g>
    <g id="Group_20067" data-name="Group 20067">
      <path id="Path_16628" data-name="Path 16628" d="M788.186,751.722a14.769,14.769,0,0,0-3.318-.386h-.013a13.543,13.543,0,0,0-3.1.367c-.34.075-.68.172-1.015.28l-3.785-8.691,3.244,1.9a1.943,1.943,0,0,0,.718.15,1.83,1.83,0,0,0,1.666-1.089,1.778,1.778,0,0,0,.128-.9c0-.01-.007-.019-.008-.03a2.875,2.875,0,0,0-.5-2.659l-4.166-4.909.158.287a20.593,20.593,0,0,0-2.6-2.366l.382-.056a1.267,1.267,0,0,0,1.062-1.443,1.25,1.25,0,0,0-.074-.276l-1.593-4.018-.111.034c-.756.237-1.564.526-2.468.883-.506.2-1.021.417-1.564.658a1.5,1.5,0,0,0-.17.071c-.038.017-.077.035-.123.054-1.165.527-2.3,1.1-3.388,1.714l-.134.076-.147.084-.093.051.8,2.229a1.249,1.249,0,0,0,.678.724l.031.014,1.509-.171,1.919,4.286c-1.042-1.229-2.516-2.893-2.536-2.916a10.647,10.647,0,0,0-2.256-1.723,1.613,1.613,0,0,0-.779-.7c-.519-.2-.95-.346-1.357-.472l-.056-.018-.049.032c-.645.422-1.259.844-1.83,1.257l-.714-.223.013.009-.015-.005.523.36-.1.076c-.66.483-1.322,1-1.964,1.543l-.152.122c-.522.432-1.026.887-1.46,1.284h0l-.05.047-.013.013-.16.147h.007c-.477.445-.97.912-1.448,1.412h0l-.05.049c-.13.13-.25.261-.369.391a1.381,1.381,0,0,0-.123.12l-.06.061c-.521.553-1.016,1.107-1.515,1.7-.255.3-.52.62-.77.942l-.019.021c-.106.127-.212.253-.306.385-.465.6-.918,1.211-1.345,1.826-.566.817-1.052,1.565-1.489,2.288h0v.006h0c-.228.357-.463.751-.729,1.229h0l-.028.051-.02.038-.107.191h.006c-.66,1.187-1.267,2.4-1.794,3.613l-.4.921.02-.025c-.092.22-.192.439-.28.657l-.041.106c-.024.06-.044.121-.064.181l-.017.044c-.258.647-.518,1.375-.789,2.2h0l-.039.13-.022.062-.024.077h0c-.088.293-.175.589-.264.887l-.1.345h0c-.13.449-.251.905-.362,1.355-.219.88-.4,1.759-.531,2.426l-.076.405.01-.01c-.014.079-.03.158-.042.235v.019a.633.633,0,0,0-.052.148,1.476,1.476,0,0,0-.044.482v.017c-.011.052-.021.1-.031.158l-.29.042.034.134a1.69,1.69,0,0,0,.17.432c-.1.647-.177,1.313-.236,1.98-.128,1.319-.191,2.651-.191,4.072,0,.712.013,1.3.04,1.866l.006.117,13.957.242h.1l.331-1.188,6.068-2.956.05-.024.016-.054a5.845,5.845,0,0,1,1.881-2.9l.044-.037v-.158h.005l.155-6.193,8.335-6.952.856-.794.721,1.61.557,1.279c-.3.2-.593.4-.865.619a15.6,15.6,0,0,0-3.556,3.716l-.121.178h.019a13.952,13.952,0,1,0,14.279-5.884Zm-32.249,17.442c0,.825-.463.825-.615.825-.264,0-.615-.086-.615-.825,0-.825.463-.825.615-.825C755.73,768.339,755.937,768.617,755.937,769.164Zm-1.68,0c0,.825-.47.825-.625.825s-.615,0-.615-.825c0-.547.207-.825.615-.825S754.257,768.617,754.257,769.164Zm-2.98.525v-.246l.729-1.034h.361v1.1h.2v.18h-.2V770h-.26v-.31Zm-1.469-1.32.02.209c.014.133.027.265.039.4s.025.267.04.389a.276.276,0,0,0,.043.135l.083.117.119-.078a.2.2,0,0,0,.1-.078l.207-.332c.153-.245.3-.489.464-.758h.239l-.261.418c-.19.306-.381.61-.566.922a.257.257,0,0,1-.242.136,1.969,1.969,0,0,0-.243,0c-.072,0-.173.024-.181-.057-.037-.32-.065-.64-.092-.959l-.007-.084c-.008-.126-.021-.252-.034-.378Zm16.684-18.247v.005a2.285,2.285,0,0,1-2.148,1.518c-.116,0-.232-.011-.34-.02h-.012a2.4,2.4,0,0,1-1.174-.561l-.026-.025a2.269,2.269,0,0,1-.262-3.05h0l.037-.047a2.253,2.253,0,0,1,1.772-.853,2.283,2.283,0,0,1,2.275,2.284A2.2,2.2,0,0,1,766.492,750.122Zm-17.815,19.119a.125.125,0,0,1,.007.047c-.031.112-.059.223-.087.333-.017.069-.036.138-.054.208h-.237c.013-.051.029-.1.043-.152a.364.364,0,0,0-.047-.341.335.335,0,0,0-.309-.117c-.13.007-.266,0-.4,0h-.2a.2.2,0,0,0-.222.168c-.033.146-.072.292-.112.432h-.238q.027-.114.063-.225c.04-.159.08-.308.122-.469a.213.213,0,0,1,.236-.176l1.121.01c.209,0,.251-.067.265-.256l.008-.133-1.473-.01.048-.211,1.612.01c.049,0,.075.01.082.019a.119.119,0,0,1,.008.083l-.025.087c-.021.081-.044.166-.072.251a.41.41,0,0,1-.088.134.237.237,0,0,0-.048.308Zm39.636-7.924a4.85,4.85,0,0,0-2.284-.83c.3-1.765.66-3.863.81-4.784a9.732,9.732,0,0,1,4.527,1.871Zm-8.425-.521.153.186a3.271,3.271,0,0,0,1.206.912l.462.372a4.882,4.882,0,0,0-1.075,2.57c-1.748-.294-3.82-.642-4.787-.8a9.726,9.726,0,0,1,2.092-4.819Zm10.5,4.065a4.845,4.845,0,0,0-1.085-2.6c1.424-1.006,3.124-2.21,3.953-2.8a9.708,9.708,0,0,1,1.966,4.9Zm-9.725,1.36a4.874,4.874,0,0,0,.807,1.963c-1.5,1.049-3.285,2.306-3.947,2.781a9.689,9.689,0,0,1-1.675-4.24Zm1.771,2.972a4.873,4.873,0,0,0,2.206,1.018c-.289,1.7-.634,3.732-.8,4.769a9.76,9.76,0,0,1-4.432-2.006ZM786,770.25a4.85,4.85,0,0,0,2.6-1.075c1.011,1.431,2.216,3.135,2.8,3.953a9.733,9.733,0,0,1-4.907,1.956Zm3.552-2.073a4.87,4.87,0,0,0,.8-1.95c1.71.294,3.767.646,4.766.81a9.717,9.717,0,0,1-1.827,4.194Z" fill="rgba(255,255,255,0.08)"/>
      <path id="Path_16629" data-name="Path 16629" d="M752.147,768.437l-.707,1.071h.707Z" fill="rgba(255,255,255,0.08)"/>
      <path id="Path_16630" data-name="Path 16630" d="M755.322,768.569c-.375,0-.375.387-.375.6h0c0,.211,0,.6.375.6s.375-.408.375-.6h0C755.7,768.983,755.692,768.569,755.322,768.569Z" fill="rgba(255,255,255,0.08)"/>
      <path id="Path_16631" data-name="Path 16631" d="M753.632,768.569c-.365,0-.365.387-.365.6h0c0,.211,0,.6.365.6s.375-.393.375-.6h0C754.007,768.953,754.005,768.569,753.632,768.569Z" fill="rgba(255,255,255,0.08)"/>
    </g>
    <path id="Path_16632" data-name="Path 16632" d="M764.322,748.5a.011.011,0,0,1-.01.01h0v-.01Z" fill="#23592a"/>
    <path id="Path_16633" data-name="Path 16633" d="M765.932,749.724c-.01.03-.04.039-.07.05-.16.06-.33.109-.5.169-.32.11-.65.22-.98.331a.126.126,0,0,0-.06.02l.02-.14.01-.01.1-.55.3.06-.03.159.41-.13h.01l.28-.1-.05-.05-.52-.43-.03.17-.3-.06.11-.591.02-.09c.01.01.02.02.03.02l.18.15h.01l.79.66.21.18c.01,0,.02.01.03.02a.116.116,0,0,1,.03.16Z" fill="#fa0"/>
    <path id="Path_16634" data-name="Path 16634" d="M764.372,748.494v.04l-.12.64-.3-.05.03-.16-.71.23.57.47.03-.16.31.06-.13.68c-.01-.01-.02-.01-.03-.02l-1.21-1c-.04-.031-.08-.07-.06-.12a.191.191,0,0,1,.05-.08.092.092,0,0,1,.07-.031l1.44-.48a.01.01,0,0,0,.01-.01h.01C764.342,748.5,764.352,748.494,764.372,748.494Z" fill="#fa0"/>
    <path id="Path_16635" data-name="Path 16635" d="M765.932,749.724c-.01.03-.04.039-.07.05-.16.06-.33.109-.5.169-.32.11-.65.22-.98.331a.126.126,0,0,0-.06.02l.02-.14.01-.01.1-.55.3.06-.03.159.41-.13h.01l.28-.1-.05-.05-.52-.43-.03.17-.3-.06.11-.591.02-.09c.01.01.02.02.03.02l.18.15h.01l.79.66.21.18c.01,0,.02.01.03.02a.116.116,0,0,1,.03.16Z" fill="rgba(255,255,255,0.08)"/>
    <path id="Path_16636" data-name="Path 16636" d="M764.372,748.494v.04l-.12.64-.3-.05.03-.16-.71.23.57.47.03-.16.31.06-.13.68c-.01-.01-.02-.01-.03-.02l-1.21-1c-.04-.031-.08-.07-.06-.12a.191.191,0,0,1,.05-.08.092.092,0,0,1,.07-.031l1.44-.48a.01.01,0,0,0,.01-.01h.01C764.342,748.5,764.352,748.494,764.372,748.494Z" fill="rgba(255,255,255,0.08)"/>
  </g>
</svg>
