<?xml version="1.0" encoding="utf-8"?>
<!-- Generator: Adobe Illustrator 26.0.2, SVG Export Plug-In . SVG Version: 6.00 Build 0)  -->
<svg version="1.1" id="Layer_1" xmlns="http://www.w3.org/2000/svg" xmlns:xlink="http://www.w3.org/1999/xlink" x="0px" y="0px"
	 viewBox="0 0 568.4 407.8" style="enable-background:new 0 0 568.4 407.8;" xml:space="preserve">
<style type="text/css">
	.st0{opacity:0.42;}
	.st1{fill:#FFFFFF;}
	.st2{fill:none;stroke:#F0F5FF;stroke-width:3;}
	.st3{fill:#F7FAFF;}
	.st4{fill:none;stroke:#E2EBFF;stroke-width:2;}
	.st5{fill:#E2EBFF;}
	.st6{fill:#FAFCFF;}
	.st7{fill:#ADC9FF;}
	.st8{fill:#D5E3FF;}
	.st9{fill:#D6E4FF;}
	.st10{fill:#D5E2FF;}
	.st11{fill:#E6EEFF;}
	.st12{fill:#F0F5FF;stroke:#E2EBFF;}
	.st13{fill:#C7D9FF;}
	.st14{fill:none;stroke:#1F1F1F;stroke-width:8;}
	.st15{fill-rule:evenodd;clip-rule:evenodd;fill:#B9E9D6;}
	.st16{fill:none;stroke:#89DCBD;stroke-width:9;stroke-linecap:round;stroke-linejoin:round;}
	.st17{fill:none;stroke:#FFFFFF;stroke-width:9;stroke-linecap:round;stroke-linejoin:round;}
	.st18{fill:none;stroke:#C2CFE5;stroke-width:7;stroke-linecap:round;stroke-linejoin:round;}
	.st19{fill:none;stroke:#5AB995;stroke-width:7;stroke-linecap:round;stroke-linejoin:round;}
	.st20{fill:#5AB995;}
	.st21{fill:#30A176;}
	.st22{fill:#ECECEC;}
	.st23{fill:url(#Path_9168_00000016756132044980380040000013278008609205661085_);}
	.st24{fill:#344F5C;}
	.st25{fill:#D4D4D4;}
	.st26{fill:#1F2E37;}
	.st27{fill:#334E5C;}
	.st28{fill:#CDCECF;}
	.st29{fill:#E9E9E9;}
	.st30{fill:#1F1F1F;}
	.st31{font-family:'Muli-SemiBold';}
	.st32{font-size:15px;}
	.st33{fill:#20A806;}
	.st34{fill:#163560;}
	.st35{fill:#E49963;}
	.st36{fill:#89DCBD;}
	.st37{fill:#FFB625;}
	.st38{fill:#FFC655;}
	.st39{fill:#FB8A77;}
	.st40{fill:#47AA85;}
	.st41{fill:#DD786E;}
	.st42{fill:#33143F;}
	.st43{fill:#4A75CB;}
	.st44{fill:#00A2D1;}
</style>
<g id="Group_20354" transform="translate(-634.063 -101.5)">
	<g id="Group_20081" transform="translate(-10 -34)">
		<g id="artwork2" transform="translate(942.447 51.104)" class="st0">
			<g id="Rectangle_2513" transform="translate(-139.997 220.338)">
				<rect id="Rectangle_18624" x="0" y="0" class="st1" width="114.8" height="157.7"/>
				<rect id="Rectangle_18625" x="1.7" y="1.7" class="st2" width="111.3" height="154.2"/>
			</g>
			<g id="Rectangle_2514" transform="translate(-12.485 299.163)">
				<rect id="Rectangle_18626" x="0" y="0" class="st1" width="135.6" height="136.8"/>
				<rect id="Rectangle_18627" x="1.7" y="1.7" class="st2" width="132.1" height="133.3"/>
			</g>
			<g id="Rectangle_2515" transform="translate(-12.485 197.154)">
				<rect id="Rectangle_18628" x="0" y="0" class="st1" width="66.1" height="89.3"/>
				<rect id="Rectangle_18629" x="1.7" y="1.7" class="st2" width="62.6" height="85.8"/>
			</g>
			<g id="Rectangle_2516" transform="translate(66.34 197.154)">
				<rect id="Rectangle_18630" x="0" y="0" class="st1" width="56.8" height="37.1"/>
				<rect id="Rectangle_18631" x="1.7" y="1.7" class="st2" width="53.3" height="33.6"/>
			</g>
			<g id="Rectangle_2517" transform="translate(66.34 249.318)">
				<rect id="Rectangle_18632" x="0" y="0" class="st1" width="56.8" height="37.1"/>
				<rect id="Rectangle_18633" x="1.7" y="1.7" class="st2" width="53.3" height="33.6"/>
			</g>
			<g id="Rectangle_2518" transform="translate(-166.658 390.74)">
				<rect id="Rectangle_18634" x="0" y="0" class="st1" width="54.5" height="45.2"/>
				<rect id="Rectangle_18635" x="1.7" y="1.7" class="st2" width="51" height="41.7"/>
			</g>
			<g id="Rectangle_2519" transform="translate(-99.425 390.74)">
				<rect id="Rectangle_18636" x="0" y="0" class="st1" width="74.2" height="45.2"/>
				<rect id="Rectangle_18637" x="1.7" y="1.7" class="st2" width="70.7" height="41.7"/>
			</g>
			<path id="Path_2713" class="st3" d="M-49.5,224l-85.3,99v48.8L-29,249v-25L-49.5,224z"/>
			<path id="Path_2715" class="st3" d="M90.1,303.6l-97.9,85.6v42.2l121.4-106.1v-21.7H90.1z"/>
			<path id="Path_2714" class="st3" d="M38.4,201l-47.2,54.1v26.7l58.5-67.1V201L38.4,201z"/>
			<line id="Line_222" class="st4" x1="146.9" y1="84.4" x2="146.9" y2="289.9"/>
			<line id="Line_223" class="st4" x1="226.3" y1="131.4" x2="226.3" y2="289.9"/>
			<rect id="Rectangle_2525" x="133.6" y="286.4" class="st5" width="106.6" height="7"/>
			<g id="books" transform="translate(151.541 251.803)">
				<g id="Group_4001" transform="translate(2.23 21.326)">
					<path id="Path_2743" class="st6" d="M31.4,11.2H5.1C2.3,11.2,0,8.9,0,6.1l0,0v-1C0,2.3,2.3,0,5.1,0c0,0,0,0,0,0h26.3V11.2z"/>
				</g>
				<g id="Group_4002" transform="translate(3.353 22.447)">
					<rect id="Rectangle_2526" x="0" y="0" class="st7" width="2.8" height="9"/>
				</g>
				<g id="Group_4003" transform="translate(1.107 11.786)">
					<path id="Path_2744" class="st6" d="M29.9,7.9H0V0h29.9c0.9,0,1.5,0.7,1.5,1.5v4.8C31.4,7.2,30.7,7.9,29.9,7.9L29.9,7.9
						L29.9,7.9z"/>
				</g>
				<g id="Group_4004" transform="translate(5.036 1.683)">
					<rect id="Rectangle_2527" x="0" y="0" class="st6" width="28.6" height="8.4"/>
				</g>
				<g id="Group_4005" transform="translate(1.211 20.204)">
					<path id="Path_2745" class="st8" d="M32.5,13.5H6.6c-3.7,0-6.7-3.1-6.7-6.8C0,3,3,0,6.6,0h25.8c0.6,0,1.1,0.5,1.2,1.1
						c0,0.6-0.5,1.1-1.1,1.2c0,0,0,0-0.1,0H6.6c-2.5,0-4.5,1.9-4.6,4.4c0,2.5,1.9,4.5,4.4,4.6c0,0,0.1,0,0.1,0h25.8
						c0.6,0,1.1,0.5,1.2,1.1C33.6,12.9,33.1,13.5,32.5,13.5C32.5,13.5,32.5,13.5,32.5,13.5L32.5,13.5L32.5,13.5z"/>
				</g>
				<g id="Group_4007" transform="translate(0 11.231)">
					<g id="Group_4006">
						<path id="Path_2746" class="st7" d="M30.3,9H0.6C0.3,9,0,8.7,0,8.4c0-0.3,0.3-0.6,0.6-0.6h29.7c0.9,0,1.7-0.8,1.7-1.7V2.8
							c0-0.9-0.8-1.7-1.7-1.7H0.6C0.3,1.1,0,0.9,0,0.6C0,0.3,0.3,0,0.6,0h29.7c1.5,0,2.8,1.3,2.8,2.8v3.4C33.1,7.7,31.9,9,30.3,9z"
							/>
					</g>
				</g>
				<g id="Group_4008" transform="translate(7.28 3.367)">
					<path id="Path_2747" class="st9" d="M26.4,1.1H0.6C0.3,1.1,0,0.9,0,0.6l0,0C0,0.3,0.3,0,0.6,0l0,0h25.8V1.1z"/>
				</g>
				<g id="Group_4009" transform="translate(7.28 5.612)">
					<path id="Path_2748" class="st9" d="M26.4,1.1H0.6C0.3,1.1,0,0.9,0,0.6l0,0C0,0.3,0.3,0,0.6,0l0,0h25.8V1.1z"/>
				</g>
				<g id="Group_4010" transform="translate(7.28 7.857)">
					<path id="Path_2749" class="st9" d="M26.4,1.1H0.6C0.3,1.1,0,0.9,0,0.6l0,0C0,0.3,0.3,0,0.6,0l0,0h25.8V1.1z"/>
				</g>
				<g id="Group_4011" transform="translate(1.107 13.469)">
					<path id="Path_2750" class="st9" d="M0,0h29.2c0.3,0,0.6,0.3,0.6,0.6c0,0,0,0,0,0l0,0c0,0.3-0.3,0.6-0.6,0.6H0V0z"/>
				</g>
				<g id="Group_4012" transform="translate(1.107 15.714)">
					<path id="Path_2751" class="st9" d="M0,0h29.2c0.3,0,0.6,0.3,0.6,0.6c0,0,0,0,0,0l0,0c0,0.3-0.3,0.6-0.6,0.6H0V0z"/>
				</g>
				<g id="Group_4013" transform="translate(1.107 17.958)">
					<path id="Path_2752" class="st9" d="M0,0h29.2c0.3,0,0.6,0.3,0.6,0.6c0,0,0,0,0,0l0,0c0,0.3-0.3,0.6-0.6,0.6c0,0,0,0,0,0H0V0z"
						/>
				</g>
				<g id="Group_4014" transform="translate(3.929)">
					<path id="Path_2753" class="st8" d="M30.3,11.2H3.4C1.5,11.2,0,9.7,0,7.9V3.4C0,1.5,1.5,0,3.4,0h26.9c0.6,0,1.1,0.5,1.2,1.1
						c0,0.6-0.5,1.1-1.1,1.2c0,0,0,0-0.1,0H3.4c-0.6,0-1.1,0.5-1.1,1.1v4.5C2.2,8.5,2.7,9,3.4,9h26.9c0.6,0,1.1,0.5,1.2,1.1
						C31.5,10.7,31,11.2,30.3,11.2C30.3,11.2,30.3,11.2,30.3,11.2L30.3,11.2z"/>
				</g>
				<g id="Group_4015" transform="translate(7.283 30.305)">
					<path id="Path_2754" class="st9" d="M0.6,0C0.2,0,0,0.3,0,0.6s0.3,0.6,0.6,0.6h25.8V0H0.6z"/>
				</g>
				<g id="Group_4016" transform="translate(7.283 28.06)">
					<path id="Path_2755" class="st9" d="M0.6,0C0.2,0,0,0.3,0,0.6s0.3,0.6,0.6,0.6h25.8V0L0.6,0z"/>
				</g>
				<g id="Group_4017" transform="translate(7.283 25.815)">
					<path id="Path_2756" class="st9" d="M0.6,0C0.2,0,0,0.3,0,0.6c0,0.3,0.3,0.6,0.6,0.6h25.8V0H0.6z"/>
				</g>
				<g id="Group_4018" transform="translate(7.283 23.57)">
					<path id="Path_2757" class="st9" d="M0.6,0C0.2,0,0,0.3,0,0.6c0,0.3,0.3,0.6,0.6,0.6h25.8V0H0.6z"/>
				</g>
			</g>
			<g id="Group_4000" transform="translate(191.605 193.968)">
				<path id="Path_2736" class="st10" d="M24.2,26.2c-3.2,0.2-6.3,1.5-8.7,3.6c5.1,4.5,12.7,4.3,17.5-0.4
					C30.6,27.4,27.5,26.3,24.2,26.2z"/>
				<path id="Path_2737" class="st10" d="M48.6,9.6c-3,1.2-6.3,1.5-9.4,0.7C41.7,4,48.6,0.8,55,2.8C53.7,5.7,51.4,8.1,48.6,9.6z"/>
				<path id="Path_2738" class="st11" d="M48.1,7.6c-3.2-0.1-6.4,0.8-9,2.6c4.5,5,12.1,5.7,17.5,1.6C54.3,9.5,51.3,8,48.1,7.6z"/>
				<path id="Path_2739" class="st11" d="M30.5,8.4c0.1,3.2-0.8,6.4-2.6,9.1C22.9,13,22.1,5.4,26.2,0C28.5,2.3,30,5.2,30.5,8.4z"/>
				<path id="Path_2740" class="st11" d="M7.7,38c1.5,2.8,2.1,6.1,1.7,9.3c-6.5-1.8-10.5-8.3-9.2-15C3.3,33.3,5.9,35.3,7.7,38z"/>
				<path id="Path_2741" class="st12" d="M15.1,82.9l-0.4-0.2c1.3-1.9,2-4.1,2-6.4c0-3.4-1.7-6.4-3.2-9.4c-0.3-0.6-0.6-1.1-0.9-1.7
					c-1.2-2.3-2.1-4.6-2.8-7.1c-2.5-9.2,0-20,6.5-29c5.2-7.1,12.9-13.3,23.6-19l0.2,0.4c-10.7,5.6-18.3,11.8-23.5,18.9
					c-6.5,8.8-8.9,19.5-6.4,28.6c0.7,2.4,1.6,4.8,2.8,7c0.3,0.6,0.6,1.1,0.9,1.7c1.6,3,3.3,6.2,3.3,9.7
					C17.2,78.6,16.4,80.9,15.1,82.9z"/>
				<circle id="Ellipse_413" class="st11" cx="61.1" cy="6.4" r="4.2"/>
				<rect id="Rectangle_2523" x="9.8" y="82" class="st13" width="10.1" height="10.1"/>
			</g>
		</g>
		<g id="Group_19257" transform="translate(-177.188 17.904)">
			<g id="Mask_Group_31" transform="translate(821.251 235.578)">
				<g id="Rectangle_18113" transform="translate(297.263 6.151)">
					<path class="st1" d="M24,0h216.6c13.3,0,24,10.7,24,24v268.9c0,13.3-10.7,24-24,24H24c-13.3,0-24-10.7-24-24V24
						C0,10.7,10.7,0,24,0z"/>
					<path class="st14" d="M24,4h216.6c11,0,20,9,20,20v268.9c0,11-9,20-20,20H24c-11,0-20-9-20-20V24C4,13,13,4,24,4z"/>
				</g>
				<g id="Group_18503" transform="translate(99.226 141.976)">
					<path id="Path_9162" class="st15" d="M217.7,0H11.5C5.1,0,0,5.1,0,11.5l0,0V63c0,6.3,5.1,11.5,11.5,11.5h206.2
						c6.3,0,11.5-5.1,11.5-11.5V11.5C229.1,5.1,224,0,217.7,0z"/>
					<g id="Group_18501" transform="translate(22.915 25.859)">
						<path id="Path_9163" class="st16" d="M0,0h114.6"/>
						<path id="Path_9164" class="st17" d="M0,23.2h13.5 M28.2,23.2h69.2"/>
					</g>
					<g id="Group_18502" transform="translate(160.425 22.915)">
						<path id="Path_9165" class="st18" d="M0,27.5c3.2-9.7,7.3-13.9,12.3-12.8c7.5,1.7,7.5,9.5,15.2,8.2S37.6,0,45.8,0"/>
						<path id="Path_9166" class="st19" d="M0,27.5c3.2-9.7,7.3-13.9,12.3-12.8c7.5,1.7,7.5,9.5,15.2,8.2c4.2-0.7,6.8-7.2,9.6-13.2"
							/>
					</g>
				</g>
				<g id="Group_18504" transform="translate(114.332 41.528)">
					<path id="Rectangle_18114" class="st20" d="M12,0h64.2c6.6,0,12,5.4,12,12v67.5c0,6.6-5.4,12-12,12H12c-6.6,0-12-5.4-12-12V12
						C0,5.4,5.4,0,12,0z"/>
					<path id="Rectangle_18115" class="st21" d="M16.3,19.6L16.3,19.6c3.6,0,6.5,2.9,6.5,6.5l0,0v52.3l0,0H9.8l0,0V26.1
						C9.8,22.5,12.7,19.6,16.3,19.6C16.3,19.6,16.3,19.6,16.3,19.6z"/>
					<path id="Rectangle_18116" class="st21" d="M42.5,19.6L42.5,19.6c3.6,0,6.5,2.9,6.5,6.5l0,0v52.3l0,0H35.9l0,0V26.1
						C35.9,22.5,38.9,19.6,42.5,19.6C42.5,19.6,42.5,19.6,42.5,19.6z"/>
					<path id="Rectangle_18117" class="st21" d="M68.6,19.6L68.6,19.6c3.6,0,6.5,2.9,6.5,6.5l0,0v52.3l0,0H62.1l0,0V26.1
						C62.1,22.5,65,19.6,68.6,19.6C68.6,19.6,68.6,19.6,68.6,19.6z"/>
					<path id="Rectangle_18118" class="st1" d="M16.3,35.9L16.3,35.9c3.6,0,6.5,2.9,6.5,6.5l0,0v35.9l0,0H9.8l0,0V42.5
						C9.8,38.9,12.7,35.9,16.3,35.9C16.3,35.9,16.3,35.9,16.3,35.9z"/>
					<path id="Rectangle_18119" class="st1" d="M42.5,45.7L42.5,45.7c3.6,0,6.5,2.9,6.5,6.5l0,0v26.1l0,0H35.9l0,0V52.3
						C35.9,48.7,38.9,45.7,42.5,45.7C42.5,45.7,42.5,45.7,42.5,45.7z"/>
					<path id="Rectangle_18120" class="st1" d="M68.6,39.2L68.6,39.2c3.6,0,6.5,2.9,6.5,6.5l0,0v32.7l0,0H62.1l0,0V45.7
						C62.1,42.1,65,39.2,68.6,39.2C68.6,39.2,68.6,39.2,68.6,39.2z"/>
				</g>
				<g id="Group_18506" transform="translate(349.529 70.022)">
					<path id="Path_9167" class="st22" d="M81.6,0C36.6,0,0,35.7,0,79.8s36.6,79.8,81.6,79.8s81.7-35.7,81.7-79.8S126.7,0,81.6,0z
						 M88.1,119.6c0.2,0.4,0.3,0.8,0.4,1.2h5.4l-2,4.3h-3.4c-0.1,0.9-0.5,1.8-1,2.6c-0.5,0.8-1.1,1.4-1.8,2c-0.8,0.6-1.6,1-2.5,1.4
						c-0.9,0.4-1.9,0.6-2.9,0.7L91,143h-7l-9.9-11v-4.3h2.9c0.4,0,0.8,0,1.4-0.1c0.6-0.1,1.1-0.2,1.7-0.3c0.5-0.2,1.1-0.4,1.5-0.8
						c0.5-0.3,0.8-0.8,0.9-1.4h-9.4l2-4.3h7.4c-0.1-0.5-0.4-0.9-0.9-1.2c-0.5-0.3-1-0.5-1.5-0.7c-0.6-0.2-1.3-0.3-2-0.3
						c-0.7,0-1.5-0.1-2.2-0.1h-2.8l2-4.3h18.8l-2,4.3h-4.5C87.7,118.9,87.9,119.2,88.1,119.6L88.1,119.6z"/>
					<g id="Group_18505" transform="translate(16.563 12.85)">
						
							<linearGradient id="Path_9168_00000021088126644497485420000004904025446855890070_" gradientUnits="userSpaceOnUse" x1="-386.9352" y1="397.7124" x2="-385.9352" y2="397.7124" gradientTransform="matrix(133.9014 0 0 -98.7793 51811.125 39335.1602)">
							<stop  offset="0" style="stop-color:#FF2A2A"/>
							<stop  offset="0.209" style="stop-color:#FBB527"/>
							<stop  offset="0.627" style="stop-color:#C0C224"/>
							<stop  offset="0.996" style="stop-color:#00A300"/>
						</linearGradient>
						<path id="Path_9168" style="fill:url(#Path_9168_00000021088126644497485420000004904025446855890070_);" d="M127.6,95.4
							c-1.3,2.8-3.7,4-6.3,3.2c-2.6-0.8-4-3.5-3.2-6.1c0.1-0.3,0.2-0.5,0.3-0.8c1.8-3.9,3.2-7.9,4.2-12c3-12.2,1.7-25-3.5-36.4
							c-0.2-0.5-0.5-1-0.7-1.6c-1.4-2.8-3.1-5.5-4.9-8.1c-0.5-0.9-1.2-1.8-2-2.6c-0.8-1.2-1.8-2.3-2.7-3.4c0.5-0.5,0.9-1.1,1.4-1.6
							c1.4-1.5,1.3-1.4-0.1-2.9c-0.7-0.7-1.1-0.7-1.7,0c-0.7,0.7-1.5,1.3-2.2,1.9c-7.8-7.2-17.3-12.1-27.7-14.3
							C74.7,10,70.8,9.6,67,9.6c-6.1,0-12.2,1-18,2.9c-13.7,4.6-25.1,14.1-32.1,26.7c-0.2,0.4-0.4,0.7-0.7,1
							c-2.1,4.2-3.7,8.6-4.9,13.2c-3.1,12.6-1.7,26,3.9,37.7c0.8,1.3,1,2.9,0.6,4.3c-0.6,1.8-2.2,3.1-4.2,3.2c-2.2,0.3-4.3-1-5.1-3
							c-2.6-5.3-4.4-11-5.3-16.8c-2.6-14.3-0.5-29.1,6.1-42.1c0.2-0.3,0.4-0.6,0.6-0.9c4.2-8.2,10.1-15.3,17.3-21.1
							c9.1-7.4,20.1-12.3,31.7-14c3.4-0.6,6.8-0.8,10.2-0.7c11.3-0.1,22.4,2.7,32.3,8.2c11.5,6.3,20.9,15.9,27,27.5
							c0.3,0.4,0.5,0.9,0.5,1.4c2.4,4.3,4.1,8.9,5.2,13.7C135.6,65.8,134.1,81.5,127.6,95.4z"/>
						<path id="Path_9169" class="st24" d="M106.2,25.1c0.7-0.6,1.5-1.2,2.2-1.9c0.6-0.7,1-0.7,1.7,0c1.4,1.5,1.5,1.4,0.1,2.9
							c-0.5,0.5-0.9,1.1-1.4,1.6c-5.2,5.6-10.4,11.2-15.6,16.8c-0.3,0.2-0.5,0.5-0.8,0.7C86.5,51.6,80.5,58,74.6,64.4
							c-1-2.4-2.8-4.2-5.2-5.2l35.7-33.1C105.5,25.8,105.8,25.4,106.2,25.1z"/>
						<path id="Path_9170" class="st25" d="M74.6,64.4c5.9-6.4,11.9-12.8,17.8-19.2c0.2-0.3,0.5-0.5,0.8-0.7
							c0.6,0.1,0.9-0.3,1.4-0.6c5.7-4.3,11.3-8.5,17-12.8c0.8,0.8,1.5,1.6,2,2.6c-3.3,3-6.6,5.9-9.9,8.9c-5.1,4.5-10.2,9-15.3,13.5
							c-3.4,3-6.7,6-10,9c-0.9,1-2,1.9-3.3,2.5C74.9,66.5,74.7,65.5,74.6,64.4z"/>
						<path id="Path_9171" class="st26" d="M74.6,64.4c0.1,1,0.3,2.1,0.4,3.1c-0.8,4.5-3.5,7-8.1,7.4l-1.9-0.3
							c-2.9-0.7-5.2-3-5.9-5.9c-1-4.3,1.7-8.6,6.1-9.6c0.4-0.1,0.8-0.1,1.2-0.2c1,0,2.1,0.1,3.1,0.3C71.8,60.2,73.7,62.1,74.6,64.4z
							"/>
						<path id="Path_9172" class="st27" d="M59.1,68.8c0.7,2.9,3,5.2,5.9,5.9c-2.6,2.9-5.2,5.8-7.8,8.7c-0.1,0.1-0.2,0.1-0.2,0.2
							c-0.8,0.8-1.5,2.1-2.3,2.2c-1,0.1-1.7-1.4-2.5-2.1c-1.2-1.2-2.4-2.4-3.6-3.6c-0.7-0.6-0.6-1,0.1-1.6
							C52.2,75.2,55.6,72,59.1,68.8z"/>
						<path id="Path_9173" class="st28" d="M57.2,83.4c2.6-2.9,5.2-5.8,7.8-8.7c0.6,0.1,1.2,0.2,1.9,0.3c-2.4,2.2-4.7,4.4-7.2,6.5
							C59,82.2,58.5,83.3,57.2,83.4z"/>
						<path id="Path_9174" class="st29" d="M111.6,31.1c-5.7,4.3-11.3,8.5-17,12.8c-0.4,0.3-0.8,0.7-1.3,0.6
							c5.2-5.6,10.4-11.2,15.6-16.8C109.8,28.7,110.7,29.9,111.6,31.1z"/>
					</g>
				</g>
				<text transform="matrix(1 0 0 1 335.962 236.192)" class="st30 st31 st32">300</text>
				<text transform="matrix(1 0 0 1 492.76 236.192)" class="st30 st31 st32">900</text>
				<text transform="matrix(1 0 0 1 391.758 259.058)" class="st33 st31 st32">Excellent</text>
				<g id="Group_18511" transform="translate(19.458 102.733)">
					<g id="Group_18510" transform="translate(0 0)">
						<path id="Path_9175" class="st34" d="M57.3,143.7c0,0,0.4,7,1.8,7.1c0.2,0,6.9,0,6.9,0l8.5-0.1c-0.1-1.3-1.2-2.4-2.5-2.5
							c-2.5-0.4-6.7-2.2-8.2-5.5C62.2,139.3,57.3,143.7,57.3,143.7z"/>
						<g id="Group_18507" transform="translate(22.148 25.687)">
							<path id="Path_9176" class="st35" d="M32.1,36.4c0,0,3.7,1,6.1,0.2s6.4,0.5,7.1,1.3s0.4,1.2-0.8,1.5s-5.3,2.1-8,1
								c-2-0.7-4.1-1-6.3-1.1L32.1,36.4z"/>
							<path id="Path_9177" class="st20" d="M0,4.1c0,0,4.2,29.7,11.1,32.3c3.4,1.3,18.5,4.3,22.9,4.6c0,0,1.1-0.9,0.8-4.5
								c0,0-15.8-5.8-18-9C13.5,22.9,18.9,8.4,14.7,4S3.5-2.3,0,4.1z"/>
						</g>
						<path id="Path_9178" class="st36" d="M22.7,144.1v-6.5H12.5c-0.3,0-0.5-0.2-0.5-0.5v-1c0-0.3,0.2-0.5,0.5-0.5h10.2V98.8
							c0-1,0.8-1.9,1.9-1.9h2c1,0,1.9,0.8,1.9,1.9v36.8h10.2c0.3,0,0.5,0.2,0.5,0.5v1c0,0.3-0.2,0.5-0.5,0.5H28.5v6.5
							c7.4,0.6,13.3,3.2,14.9,6.6H7.8C9.4,147.4,15.3,144.7,22.7,144.1z"/>
						<path id="Path_9179" class="st37" d="M23.6,92.3c1.2,2,2.6,4,4.1,5.8c4.5,5.7,9.4,10.3,10.2,14.7c0.2,1,0.5,1.9,0.8,2.8
							c0.4,1,0.8,2.1,1.3,3.2c2.2,4.5,4.7,8.9,7.6,13c4.9,7.3,9.5,13.4,9.5,13.4l8.5-0.4c-0.3-0.8-4-10.9-9-23.2l-6.2-15.4
							c-0.3-0.7-0.5-1.4-0.8-2c-0.6-1.6-1.2-3.1-1.9-4.6l-8.3-20.7c0,0-18.6-7-20.5-2.5C17.3,80.2,18.6,83.9,23.6,92.3z"/>
						<path id="Path_9180" class="st34" d="M37.7,123.7c0,0-5.9,3.8-5.3,5c0.1,0.2,3.3,6,3.3,6l4.2,7.4c1.1-0.8,1.5-2.2,0.9-3.4
							c-0.8-2.4-1.3-6.9,0.8-9.8C43.9,125.9,37.7,123.7,37.7,123.7z"/>
						<path id="Path_9181" class="st38" d="M45.7,75.6c0,0,23.3,14.5,25.9,24.3s-31,30.6-31,30.6s-3.7-3.2-4.3-5.6
							c0,0,15.2-18.2,18.5-22.3c2-2.5-29.9-8.7-33.8-14.7s-2.5-11.2-2.5-11.2L45.7,75.6z"/>
						<path id="Rectangle_18121" class="st30" d="M6.5,94.2h38.1c3.6,0,6.5,2.9,6.5,6.5l0,0c0,3.6-2.9,6.5-6.5,6.5H6.5
							c-3.6,0-6.5-2.9-6.5-6.5l0,0C0,97.1,2.9,94.2,6.5,94.2z"/>
						<path id="Path_9182" class="st39" d="M34.9,24.7c1.4,0.8,2.6,1.9,3.5,3.2c-5.6,1.4-14.8-3.7-14.8-3.7c2.5-1.9,4.2-4.7,4.9-7.7
							c0.1-0.3,0.1-0.5,0.2-0.8c0.2-1,0.3-1.9,0.3-2.9l2.6,2.3l4.3,3.8c-0.1,1.4-0.3,2.9-0.6,4.3C35.1,23.7,35,24.2,34.9,24.7z"/>
						<path id="Path_9183" class="st36" d="M17.8,51.1c0.8,10.8-0.5,27.1,0.4,29.9c0.8,2.4,10,1,13.5,0.2c1.3-0.3,2.9-0.7,4.6-1.2
							c4.6-1.4,9.6-3.5,10.1-5c0-0.1,0-0.1,0-0.2c0-0.2,0-0.4,0-0.6c-0.5-1.1-0.8-2.3-1-3.5c-0.1-2.1-0.1-4.6-0.2-7.3
							c0-0.3,0-0.6,0-0.9v-0.1c0-0.1,0-0.1,0-0.2c-0.1-3-0.2-6.2-0.4-9.3c-0.1-2-0.2-3.9-0.4-5.8c-0.2-4-0.8-7.9-1.7-11.8
							c-1-3.7-3.2-7-6.1-9.4L35,24.4c-2.1,0.4-4.2,0.1-6.2-0.8c-2.2-1-2.9-1.8-3.3-1.5C20.5,26,16.8,37.9,17.8,51.1z"/>
						<path id="Path_9184" class="st40" d="M36.2,80c4.6-1.4,9.6-3.5,10.1-5c0-0.1,0-0.1,0-0.2c0-0.2,0-0.4,0-0.6
							c-0.5-1.1-0.8-2.3-1-3.5c-0.1-2.1-0.1-4.6-0.2-7.3c0-0.3,0-0.6,0-0.9v-0.1c0-0.1,0-0.1,0-0.2l-17.4-7.9
							C27.9,54.3,26.9,68.3,36.2,80z"/>
						<path id="Path_9185" class="st41" d="M35.9,18.9c-0.1,1.4-0.3,2.9-0.6,4.3c-4.2-1.3-6-5.1-6.7-6.7c-0.2-0.5-0.3-0.7-0.3-0.7
							l0.4-0.1l2.9-0.6L35.9,18.9z"/>
						<path id="Path_9186" class="st39" d="M37.6,18.9c0,0-9.1,1-9.7-4.7s-2.1-9.4,3.7-10.3s7.2,1.2,7.8,3S39.9,18.4,37.6,18.9z"/>
						<path id="Path_9187" class="st42" d="M27.9,14.6c0.5-4.6,4.3-8.1,8.9-8.4c5.7-0.5,2.5-5.4,1.9-6.2c0,0-4.4,0.6-8.8,1.3
							C20.5,2.9,27,13.4,27.9,14.6z"/>
						<g id="Group_18508" transform="translate(49.839 48.586)">
							
								<rect id="Rectangle_18122" x="15.1" y="10.2" transform="matrix(0.309 -0.9511 0.9511 0.309 7.9609 32.1769)" class="st43" width="22" height="0.8"/>
							
								<rect id="Rectangle_18123" x="10.9" y="8.7" transform="matrix(2.136119e-02 -0.9998 0.9998 2.136119e-02 -8.9484 31.4197)" class="st43" width="1.4" height="23.1"/>
						</g>
						<g id="Group_18509" transform="translate(23.991 27.592)">
							<path id="Path_9188" class="st35" d="M28.4,39.1c0,0,3.6,1.4,6,0.9s6.3,1.2,6.9,2.1s0.3,1.2-0.9,1.4s-5.5,1.5-8.1,0.2
								c-1.9-0.9-4-1.5-6.1-1.7L28.4,39.1z"/>
							<path id="Path_9189" class="st20" d="M0,3.5c0,0,0.9,29.9,7.5,33.4c3.2,1.7,17.9,6.3,22.3,7.1c0,0,1.2-0.8,1.3-4.4
								c0,0-15.1-7.5-16.9-10.9c-2.8-5,4.2-18.8,0.5-23.7S4.1-2.5,0,3.5z"/>
						</g>
					</g>
				</g>
				<g id="Group_18514" transform="translate(321.531 34.534)">
					<g id="Group_18512" transform="translate(0.078 19.026)">
						<path id="Path_9190" d="M0,4.7V0.2h1.8c0.8-0.1,1.5,0.6,1.6,1.4C3.4,2.4,2.8,3.2,2,3.2c-0.1,0-0.1,0-0.2,0H0.3v1.5L0,4.7
							L0,4.7z M1.8,2.9C2.4,3,3,2.5,3.1,1.8S2.6,0.6,2,0.5c-0.1,0-0.1,0-0.2,0H0.3v2.4L1.8,2.9L1.8,2.9z M4.9,4.8
							c-0.6,0-1.1-0.3-1.1-0.9c0-0.7,0.6-1,1.2-1c0.4,0,0.8,0.1,1.2,0.2V2.6c0-0.6-0.6-0.7-1.1-0.7c-0.4,0-0.7,0.1-1,0.2L4.1,1.8
							c0.4-0.2,0.7-0.3,1.1-0.3c0.7,0,1.3,0.3,1.3,1V4c0,0.4,0,0.6,0.4,0.5l0,0.2C6.4,4.9,6.2,4.7,6.3,4.2C6,4.6,5.5,4.9,4.9,4.8
							L4.9,4.8z M6.2,3.4C5.9,3.2,5.5,3.1,5.1,3.2c-0.5,0-1,0.2-1,0.7c0,0.5,0.4,0.6,0.9,0.6c0.5,0.1,1-0.3,1.2-0.8V3.4L6.2,3.4z
							 M9,1.6c0.3,0,0.6,0.1,0.8,0.2L9.7,2.1C9.5,2,9.2,1.9,9,1.9c-0.5,0-0.9,0.3-0.9,0.8c0,0,0,0,0,0v2H7.7V2.4
							c0-0.3,0-0.5-0.4-0.4l0-0.3C7.8,1.5,8,1.7,8,2.1C8.2,1.8,8.6,1.6,9,1.6L9,1.6z"/>
						<path id="Path_9191" d="M11.1,1.6h1.2v0.3h-1.2v1.7c0,0.6,0.2,0.9,0.6,0.9c0.2,0,0.5-0.1,0.7-0.1l0,0.3
							c-0.3,0.1-0.5,0.1-0.8,0.1c-0.6,0-0.9-0.4-0.9-1.2V1.9l-0.7,0V1.7h0.7l0-0.9h0.3L11.1,1.6L11.1,1.6z M16.3,4.8
							c-0.9,0-1.6-0.7-1.7-1.6c0-0.9,0.7-1.6,1.6-1.7c0,0,0.1,0,0.1,0C17.2,1.5,17.9,2.2,18,3c0,0.1,0,0.1,0,0.2
							c0,0.9-0.7,1.6-1.5,1.6C16.4,4.8,16.4,4.8,16.3,4.8z M16.3,4.5c0.7,0,1.3-0.5,1.4-1.3c0,0,0,0,0-0.1c0-0.7-0.5-1.3-1.3-1.3
							c0,0-0.1,0-0.1,0c-0.7,0-1.3,0.5-1.4,1.2c0,0,0,0.1,0,0.1c0,0.7,0.5,1.3,1.2,1.3C16.2,4.5,16.3,4.5,16.3,4.5L16.3,4.5z
							 M19.1,1.9h-0.7V1.6h0.7V1.1c0-1.1,0.9-1.3,1.7-0.9l-0.1,0.3c-0.7-0.3-1.4-0.2-1.4,0.7v0.6h1.2v0.3h-1.2v2.8h-0.3L19.1,1.9
							L19.1,1.9z M22.2,0.5V0.2h3.4v0.3h-1.5v4.2h-0.3V0.5H22.2z M27.1,1.6c0.3,0,0.6,0.1,0.8,0.2l-0.1,0.3C27.6,2,27.3,1.9,27,1.9
							c-0.5,0-0.9,0.3-0.9,0.8c0,0,0,0,0,0v2h-0.3V2.4c0-0.3,0-0.5-0.4-0.4l0-0.3c0.5-0.1,0.7,0.1,0.7,0.5
							C26.3,1.8,26.7,1.6,27.1,1.6L27.1,1.6z M29.3,4.8c-0.6,0-1.1-0.3-1.1-0.9c0-0.7,0.6-1,1.2-1c0.4,0,0.8,0.1,1.2,0.2V2.6
							c0-0.6-0.6-0.7-1.1-0.7c-0.4,0-0.7,0.1-1,0.2l-0.1-0.3c0.4-0.2,0.7-0.3,1.1-0.3c0.7,0,1.3,0.3,1.3,1V4c0,0.4,0,0.6,0.4,0.5
							l0,0.2c-0.5,0.1-0.7-0.1-0.7-0.6C30.3,4.6,29.8,4.9,29.3,4.8L29.3,4.8z M30.6,3.4c-0.4-0.2-0.7-0.3-1.1-0.2
							c-0.5,0-1,0.2-1,0.7c0,0.5,0.4,0.6,0.9,0.6c0.5,0,1.1-0.3,1.2-0.8L30.6,3.4L30.6,3.4z M34.5,4.8V2.9c0-0.5-0.4-1-0.9-1
							c0,0-0.1,0-0.1,0c-0.6,0-1,0.4-1.1,0.9c0,0,0,0.1,0,0.1v1.8h-0.3V2.5c0-0.5-0.1-0.6-0.4-0.6l0-0.3c0.5-0.1,0.7,0,0.7,0.5
							c0.3-0.4,0.7-0.6,1.2-0.6c0.7-0.1,1.2,0.4,1.3,1.1c0,0.1,0,0.1,0,0.2v1.9L34.5,4.8L34.5,4.8z M35.9,3.9
							C36,4.4,36.5,4.6,37,4.6s1.1-0.2,1.1-0.6c0-0.6-0.6-0.6-1-0.6c-0.6-0.1-1.3-0.2-1.3-0.8s0.6-0.9,1.3-0.9s1.3,0.3,1.3,0.8H38
							c0-0.4-0.5-0.6-1-0.6c-0.5,0-1,0.2-1,0.6C36,3,36.7,3,37.1,3c0.7,0.1,1.3,0.1,1.3,0.9c0,0.6-0.6,0.9-1.4,0.9
							c-0.7,0-1.3-0.3-1.4-0.9L35.9,3.9L35.9,3.9z M39.2,3.2v-3h0.3v2.9c0.1,0.8,0.7,1.3,1.5,1.3c0.7-0.1,1.2-0.6,1.3-1.3v-3h0.3v3
							c0,0.9-0.6,1.6-1.5,1.6c-0.1,0-0.1,0-0.2,0c-0.9,0.1-1.6-0.5-1.7-1.4C39.2,3.3,39.2,3.3,39.2,3.2L39.2,3.2z M46.3,4.8V2.9
							c0-0.5-0.4-1-0.9-1c0,0-0.1,0-0.1,0c-0.6,0-1,0.4-1.1,0.9c0,0,0,0.1,0,0.1v1.8h-0.3V2.5c0-0.5-0.1-0.6-0.4-0.6l0-0.3
							c0.5-0.1,0.7,0,0.7,0.5c0.3-0.4,0.7-0.6,1.2-0.6C46,1.5,46.6,2,46.6,2.7c0,0.1,0,0.1,0,0.2v1.9L46.3,4.8L46.3,4.8z M47.7,0.3
							c0.1,0,0.2,0.1,0.2,0.2c0,0,0,0,0,0c0,0.1-0.1,0.2-0.2,0.2c0,0,0,0,0,0c-0.1,0-0.2-0.1-0.3-0.2c0,0,0,0,0,0
							C47.5,0.4,47.6,0.3,47.7,0.3C47.7,0.3,47.7,0.3,47.7,0.3L47.7,0.3z M47.9,4.8h-0.3V1.6h0.3V4.8L47.9,4.8z M50.5,4.8
							c-0.9,0-1.6-0.8-1.5-1.7c0-0.9,0.8-1.6,1.7-1.5c0.9,0,1.5,0.7,1.5,1.6c0,0.9-0.7,1.6-1.5,1.6C50.6,4.8,50.6,4.8,50.5,4.8
							L50.5,4.8z M50.5,4.5c0.7,0,1.3-0.5,1.3-1.3c0,0,0-0.1,0-0.1c0-0.7-0.6-1.4-1.3-1.4c-0.7,0-1.4,0.6-1.4,1.3S49.8,4.5,50.5,4.5
							C50.5,4.5,50.5,4.5,50.5,4.5L50.5,4.5z M55.6,4.8V2.9c0-0.5-0.4-1-0.9-1c0,0-0.1,0-0.1,0c-0.6,0-1,0.4-1.1,0.9
							c0,0,0,0.1,0,0.1v1.8h-0.3V2.5c0-0.5-0.1-0.6-0.4-0.6l0-0.3c0.5-0.1,0.7,0,0.7,0.5c0.3-0.4,0.7-0.6,1.2-0.6
							c0.7-0.1,1.2,0.4,1.3,1.1c0,0.1,0,0.1,0,0.2v1.9L55.6,4.8L55.6,4.8z"/>
					</g>
					<g id="Group_18513" transform="translate(0 0)">
						<path id="Path_9192" class="st44" d="M7.9,0c3.2-0.2,6.2,1.9,7,5.1h-2.5c-0.8-1.8-2.6-2.9-4.5-2.8c-3.2,0-5.3,2.3-5.3,5.5
							c-0.1,2.9,2.1,5.3,4.9,5.4c0.1,0,0.2,0,0.3,0c2,0.1,3.9-1.1,4.6-3H15c-0.8,3.7-4,5.3-7.1,5.3C3.7,15.5,0,12.7,0,7.8
							C-0.1,3.6,3.1,0.1,7.3,0C7.5,0,7.7,0,7.9,0 M23.1,13.3v2h-7.5v-2H18V2.2h-2.3v-2h7.1v2h-2.3v11.1H23.1z M34.1,7.4
							c1.6,0.4,2.6,1.9,2.5,3.5c0,2.7-1.9,4.5-4.9,4.5h-6.9V0.2H31c2.8,0,4.9,1.4,4.9,4.3C35.9,5.7,35.2,6.9,34.1,7.4L34.1,7.4
							L34.1,7.4z M27.3,2.4v4.2h3.5c1.5,0,2.5-0.6,2.5-2c0-1.5-1-2.1-2.5-2.1L27.3,2.4L27.3,2.4z M27.3,8.6v4.5h4.2
							c1.3,0.1,2.4-0.8,2.5-2c0-0.1,0-0.1,0-0.2c0-0.7-0.3-1.4-0.8-1.8c-0.6-0.4-1.3-0.5-2-0.5L27.3,8.6L27.3,8.6z M45.1,13.3v2
							h-7.5v-2h2.5V2.2h-2.3v-2h7.1v2h-2.3v11.1L45.1,13.3z M49.3,13.1H56v2.3h-9.3V0.2h2.6V13.1z"/>
					</g>
				</g>
			</g>
		</g>
	</g>
</g>
</svg>
