<?xml version="1.0" encoding="utf-8"?>
<!-- Generator: Adobe Illustrator 26.0.3, SVG Export Plug-In . SVG Version: 6.00 Build 0)  -->
<svg version="1.1" id="Group_22736" xmlns="http://www.w3.org/2000/svg" xmlns:xlink="http://www.w3.org/1999/xlink" x="0px"
	 y="0px" viewBox="0 0 565 320.9" style="enable-background:new 0 0 565 320.9;" xml:space="preserve">
<style type="text/css">
	.st0{clip-path:url(#SVGID_00000111891653195230583320000006536901839238540974_);}
	.st1{clip-path:url(#SVGID_00000038393626243132364560000004022426491432280970_);}
	.st2{fill:#FFE8CF;}
	.st3{fill:#3F9896;}
	.st4{fill:#90DDB8;}
	.st5{fill:#ED3B5E;}
	.st6{fill:#F99C50;}
	.st7{fill:#6EAFEA;}
	.st8{opacity:0.3;}
	.st9{clip-path:url(#SVGID_00000142160007646031389410000000688795481731475361_);}
	.st10{clip-path:url(#SVGID_00000165916946769605271340000006599233222008608641_);}
	.st11{clip-path:url(#SVGID_00000148619488592970941560000001781142968051840689_);}
	.st12{fill:#FECC86;}
	.st13{clip-path:url(#SVGID_00000011731450295516985330000011745868483295948933_);}
	.st14{fill:#FFFFFF;}
	.st15{fill:#49263E;}
	.st16{fill:#FFB294;}
	.st17{fill:#FEC786;}
	.st18{fill:#3AA1C9;}
	.st19{fill:#3D1F35;}
	.st20{fill:#1D1D1B;}
	.st21{fill:#FE9F73;}
	.st22{fill:#4C222E;}
	.st23{fill:#33192C;}
	.st24{fill:#F07162;}
	.st25{fill:#FBFDFC;}
	.st26{fill:#A5EFED;}
</style>
<g>
	<defs>
		<rect id="SVGID_1_" width="565" height="320.9"/>
	</defs>
	<clipPath id="SVGID_00000003070543123957459760000003469357750851810177_">
		<use xlink:href="#SVGID_1_"  style="overflow:visible;"/>
	</clipPath>
	<g id="Group_22750" style="clip-path:url(#SVGID_00000003070543123957459760000003469357750851810177_);">
		<g id="Group_22749">
			<g>
				<defs>
					<rect id="SVGID_00000024000417900011017250000015724002713045406132_" width="565" height="320.9"/>
				</defs>
				<clipPath id="SVGID_00000132051629923550916260000005009437211824796595_">
					<use xlink:href="#SVGID_00000024000417900011017250000015724002713045406132_"  style="overflow:visible;"/>
				</clipPath>
				<g id="Group_22748" style="clip-path:url(#SVGID_00000132051629923550916260000005009437211824796595_);">
					<path id="Path_23963" class="st2" d="M358.2,40.2c-99-2.8-78.4-40.1-168.3-40.2C-58.1-0.2,19.5,319,19.5,319l507.9,0.7
						C616.3,232.3,542.7,45.4,358.2,40.2"/>
					<path id="Path_23964" class="st3" d="M383.5,320.9c1.3-1,22.7-42.4,36.8-22.8c0,0,21.1-71.7,50.1-68.3
						c28.9,3.4,4.4,56.6,4.4,56.6s24.8-10.2,19,16.7c0,0,31.5-5.7,29.2,16.9L383.5,320.9z"/>
					<path id="Path_23965" class="st3" d="M502,252.4c-3.9,4.7-5,10.1-2.5,12.2s7.6,0,11.5-4.7s5-10.1,2.5-12.2
						S505.9,247.8,502,252.4"/>
					<path id="Path_23966" class="st3" d="M507.9,270.8c-2.3,2.8-2.9,6-1.5,7.2s4.5,0,6.8-2.8s2.9-6,1.5-7.2S510.2,268,507.9,270.8"
						/>
					<path id="Path_23967" d="M473.6,291.6c-0.2,0-0.3-0.2-0.2-0.4c0-0.1,0.1-0.2,0.1-0.2c0.3-0.2,6.3-4.1,11.5-3l0,0
						c0.2,0,0.3,0.2,0.2,0.4c0,0.2-0.2,0.3-0.4,0.2l0,0l0,0c-5-1.1-11,2.9-11.1,2.9C473.8,291.6,473.7,291.6,473.6,291.6"/>
					<path id="Path_23968" d="M477.6,292c-0.2,0-0.3-0.2-0.2-0.4c0-0.1,0.1-0.2,0.1-0.2c2.4-1.3,5.1-1.9,7.8-1.6
						c0.2,0,0.3,0.2,0.3,0.3c0,0.2-0.2,0.3-0.3,0.3l0,0c-2.6-0.3-5.2,0.2-7.4,1.5C477.8,292,477.7,292,477.6,292"/>
					<path id="Path_23969" d="M402.5,303.7c-0.2,0-0.3-0.1-0.3-0.3c0-0.1,0-0.2,0.1-0.2c0.2-0.2,5.2-5.4,10.6-5.4
						c0.2,0,0.3,0.1,0.3,0.3s-0.1,0.3-0.3,0.3l0,0c-5.1,0-10.1,5.1-10.2,5.2C402.6,303.7,402.5,303.7,402.5,303.7"/>
					<path id="Path_23970" d="M406.5,303.3c-0.2,0-0.3-0.1-0.3-0.3c0-0.1,0-0.2,0.1-0.2c2.1-1.8,4.6-2.9,7.3-3.2
						c0.2,0,0.3,0.1,0.3,0.3c0,0.2-0.1,0.3-0.3,0.3c-2.6,0.3-5,1.3-7,3C406.7,303.3,406.6,303.3,406.5,303.3"/>
					<path id="Path_23971" class="st3" d="M119.7,320.9c-1-0.8-18.2-34-29.4-18.3c0,0-16.9-57.4-40.1-54.7s-3.6,45.3-3.6,45.3
						s-19.8-8.1-15.2,13.4c0,0-25.3-4.6-23.4,13.6L119.7,320.9z"/>
					<path id="Path_23972" d="M47.5,297.4c0.1,0,0.2-0.2,0.2-0.3c0-0.1,0-0.1-0.1-0.1c-0.2-0.1-5-3.3-9.2-2.4l0,0
						c-0.1,0-0.2,0.2-0.2,0.3c0,0.1,0.1,0.2,0.3,0.2l0,0c4-0.9,8.8,2.3,8.9,2.3C47.4,297.4,47.5,297.4,47.5,297.4"/>
					<path id="Path_23973" d="M44.3,297.7c0.1,0,0.2-0.2,0.2-0.3c0-0.1,0-0.1-0.1-0.1c-1.9-1-4.1-1.5-6.3-1.3
						c-0.1,0-0.2,0.1-0.2,0.2c0,0.1,0.1,0.2,0.2,0.2c0,0,0,0,0,0c2.1-0.2,4.1,0.2,6,1.2C44.2,297.7,44.2,297.8,44.3,297.7"/>
					<path id="Path_23974" d="M104.5,307.1c0.1,0,0.2-0.1,0.2-0.2c0-0.1,0-0.1-0.1-0.2c-0.2-0.2-4.2-4.3-8.5-4.3
						c-0.1,0-0.2,0.1-0.3,0.2s0.1,0.2,0.2,0.3c0,0,0,0,0,0l0,0c4.1,0,8.1,4.1,8.2,4.1C104.4,307.1,104.5,307.1,104.5,307.1"/>
					<path id="Path_23975" d="M101.3,306.8c0.1,0,0.2-0.1,0.2-0.2c0-0.1,0-0.1-0.1-0.2c-1.6-1.4-3.7-2.3-5.9-2.6
						c-0.1,0-0.3,0.1-0.3,0.2c0,0.1,0.1,0.2,0.2,0.3c2.1,0.2,4,1.1,5.6,2.4C101.2,306.8,101.2,306.8,101.3,306.8"/>
					<path id="Path_23976" class="st4" d="M402.3,184.1L266.9,319.5v0.1h193.2C459.6,268.6,438.8,219.9,402.3,184.1"/>
					<path id="Path_23977" class="st5" d="M73.9,319.7h193v-0.1L131.6,184.2C95.2,219.9,74.4,268.7,73.9,319.7"/>
					<path id="Path_23978" class="st6" d="M266.9,319.5V128.7c-50.7,0-99.3,19.9-135.4,55.5L266.9,319.5z"/>
					<path id="Path_23979" class="st7" d="M266.9,319.5l135.4-135.4c-36.1-35.6-84.7-55.5-135.4-55.4V319.5z"/>
					<g id="Group_22738" transform="translate(385.341 184.123)" class="st8">
						<g id="Group_22737">
							<g>
								<defs>
									<rect id="SVGID_00000048459141814821774690000001864470659293496459_" x="0" y="0" width="74.6" height="135.5"/>
								</defs>
								<clipPath id="SVGID_00000076595239791441679570000000143875157455220611_">
									<use xlink:href="#SVGID_00000048459141814821774690000001864470659293496459_"  style="overflow:visible;"/>
								</clipPath>
								<g id="Group_22736-2" style="clip-path:url(#SVGID_00000076595239791441679570000000143875157455220611_);">
									<path id="Path_23980" class="st4" d="M16.9,0L0,16.9c2.6,2.4,5.1,5,7.6,7.6c27.7,29.2,43,67.9,48.6,111.1h18.4
										C74.1,84.5,53.3,35.7,16.9,0"/>
								</g>
							</g>
						</g>
					</g>
					<g id="Group_22741" transform="translate(73.756 184.186)" class="st8">
						<g id="Group_22740">
							<g>
								<defs>
									<rect id="SVGID_00000038410225036393154880000010079865899080207758_" x="0" y="0" width="74.4" height="135.5"/>
								</defs>
								<clipPath id="SVGID_00000129165563179550777230000001017573409523087283_">
									<use xlink:href="#SVGID_00000038410225036393154880000010079865899080207758_"  style="overflow:visible;"/>
								</clipPath>
								<g id="Group_22739" style="clip-path:url(#SVGID_00000129165563179550777230000001017573409523087283_);">
									<path id="Path_23981" class="st5" d="M0,135.5h20.9c5.6-43.2,18.2-81.9,45.9-111c2.5-2.6,5.1-5.2,7.7-7.7L57.7,0
										C21.3,35.7,0.5,84.5,0,135.5"/>
								</g>
							</g>
						</g>
					</g>
					<g id="Group_22744" transform="translate(131.439 128.708)" class="st8">
						<g id="Group_22743">
							<g>
								<defs>
									<rect id="SVGID_00000038386353740559182810000005321584755931724220_" x="0" y="0" width="135.4" height="72.2"/>
								</defs>
								<clipPath id="SVGID_00000161627877960000893680000009786827709691528088_">
									<use xlink:href="#SVGID_00000038386353740559182810000005321584755931724220_"  style="overflow:visible;"/>
								</clipPath>
								<g id="Group_22742" style="clip-path:url(#SVGID_00000161627877960000893680000009786827709691528088_);">
									<path id="Path_23982" class="st12" d="M16.7,72.2c31.7-29.7,73.1-47.8,118.5-47.8h0.1V0C84.7,0,36.1,19.9,0,55.5L16.7,72.2
										z"/>
								</g>
							</g>
						</g>
					</g>
					<g id="Group_22747" transform="translate(266.795 128.708)" class="st8">
						<g id="Group_22746">
							<g>
								<defs>
									<rect id="SVGID_00000167377588789583350730000004700706598383664561_" x="0" y="0" width="135.4" height="72.3"/>
								</defs>
								<clipPath id="SVGID_00000095335600562060094070000007916962258660809348_">
									<use xlink:href="#SVGID_00000167377588789583350730000004700706598383664561_"  style="overflow:visible;"/>
								</clipPath>
								<g id="Group_22745" style="clip-path:url(#SVGID_00000095335600562060094070000007916962258660809348_);">
									<path id="Path_23983" class="st7" d="M0,24.4c45.4,0,86.9,18.1,118.5,47.9l16.9-16.9C99.3,19.8,50.7-0.1,0,0V24.4z"/>
								</g>
							</g>
						</g>
					</g>
					<path id="Path_23984" class="st14" d="M126,294.2c0.7-2.8,0.7-5-0.1-6.6c-2.2-3.5-6.8-4.7-10.4-2.7c-1.5,1.1-2.6,3-3.3,5.8
						l-1.1,4.3l25.6,6.6l0.7-2.6l-11.7-3L126,294.2z M123.9,293l-0.6,2.2l-9.3-2.4l0.6-2.2c0.3-1.4,1-2.7,2.2-3.6
						c1.2-0.7,2.6-0.8,3.9-0.4c1.3,0.2,2.5,1,3.1,2.2C124.3,290.2,124.4,291.7,123.9,293"/>
					<path id="Path_23985" class="st14" d="M132.3,269c-4.3-1.4-7.7-1.9-10.3-1.4c-3.3,0.4-5.6,3.4-5.2,6.7c0.2,1.4,0.8,2.7,1.9,3.7
						c1.8,1.9,4.9,3.5,9.2,4.9c4.3,1.4,7.7,1.9,10.3,1.4c3.3-0.4,5.6-3.4,5.3-6.6c-0.2-1.4-0.8-2.7-1.9-3.7
						C139.7,272.1,136.6,270.4,132.3,269 M140.7,279.4c-0.5,1.5-1.7,2.3-3.7,2.4c-2,0.1-5-0.5-9-1.8c-3.5-1.1-5.9-2.3-7.3-3.5
						c-1.4-1.2-1.9-2.5-1.4-4c0.5-1.4,1.7-2.2,3.6-2.3s4.8,0.4,8.5,1.6c3.7,1.2,6.3,2.4,7.8,3.7C140.7,276.7,141.2,278,140.7,279.4"
						/>
					<path id="Path_23986" class="st14" d="M139,252.2c-4.2-1.7-7.6-2.4-10.2-2.2c-3.3,0.2-5.9,3-5.7,6.3c0.1,1.4,0.6,2.8,1.6,3.8
						c1.7,2,4.6,3.9,8.8,5.6c4.2,1.7,7.6,2.4,10.2,2.2c3.3-0.1,5.9-2.9,5.7-6.2c-0.1-1.4-0.6-2.8-1.6-3.8
						C146.1,255.8,143.2,253.9,139,252.2 M146.7,263.2c-0.6,1.4-1.9,2.1-3.9,2.1c-2-0.1-4.9-0.9-8.8-2.5c-3.4-1.4-5.7-2.7-7.1-4
						c-1.3-1.3-1.7-2.7-1.1-4.1c0.6-1.4,1.8-2.1,3.8-2.1c1.9,0,4.7,0.8,8.3,2.3c3.6,1.5,6.1,2.9,7.5,4.2S147.3,261.8,146.7,263.2"/>
					<path id="Path_23987" class="st14" d="M144.5,236.2c-0.7-1.2-1.8-2.2-3.1-2.8c-1.7-1-3.8-1.2-5.6-0.5c-1.7,0.7-3.1,2.4-4.4,4.9
						l-2.2,4.3l23.6,11.9l1.2-2.4l-11.2-5.6l0.5-0.9c0.2-0.3,0.3-0.6,0.5-1c0.2-0.4,0.4-0.9,0.7-1.5l13,2.1l1.3-2.6l-13.7-2.1
						C145.4,238.7,145.1,237.4,144.5,236.2 M141.7,243l-1,2.1l-8.2-4.2l1-2.1c0.6-1.4,1.6-2.5,2.9-3.1c2.6-0.7,5.2,0.6,6.2,3.1
						C142.7,240.2,142.4,241.7,141.7,243"/>
					<path id="Path_23988" class="st14" d="M394.5,233.2c-2.6-0.2-6.1,0.6-10.5,2.6c-4.1,1.8-6.9,3.7-8.5,5.7
						c-1.5,1.8-1.8,4.4-0.8,6.5c0.3,0.8,0.8,1.6,1.5,2.2c0.6,0.6,1.4,1,2.2,1.2l-1.3,0.9l0.8,1.8l11.4-4.9l-2.6-5.9l-2.2,0.9
						l1.5,3.5l-2.8,1.2c-1.2,0.6-2.5,0.8-3.8,0.5c-1.1-0.3-2-1.1-2.4-2.1c-0.7-1.5-0.3-3.4,0.9-4.5c1.3-1.4,3.7-2.9,7.2-4.5
						c3.9-1.7,6.8-2.5,8.7-2.6c1.6-0.2,3.2,0.7,3.9,2.2c0.5,1,0.4,2.2-0.3,3.2c-0.9,1.2-2.2,2.2-3.6,2.8l1,2.4c2-0.7,3.8-2.2,4.9-4
						c0.9-1.6,0.9-3.6,0.1-5.3C399.1,234.8,397,233.3,394.5,233.2"/>
					<path id="Path_23989" class="st14" d="M401.7,250.4c-2.6-0.4-6,0.2-10.3,1.7c-4.2,1.5-7.3,3.2-9,5.2c-2.4,2.3-2.4,6.1-0.1,8.5
						c1,1,2.3,1.7,3.8,1.8c2.6,0.4,6-0.2,10.3-1.7c4.2-1.5,7.3-3.2,9-5.2c2.4-2.3,2.4-6.1,0.1-8.5
						C404.4,251.2,403.1,250.5,401.7,250.4 M403.1,259.3c-1.5,1.3-4,2.6-7.7,3.9c-3.7,1.3-6.5,1.9-8.4,1.9c-1.9-0.1-3.1-0.8-3.6-2.3
						c-0.5-1.5,0-2.8,1.5-4.1c1.5-1.3,4.3-2.6,8.2-4c3.5-1.2,6.1-1.8,8-1.7s3,0.9,3.6,2.3C405,256.6,404.5,258,403.1,259.3"/>
					<path id="Path_23990" class="st14" d="M407.8,268.3c-2.6-0.6-6-0.2-10.4,1c-4.3,1.2-7.5,2.7-9.4,4.5c-2.5,2.1-2.9,5.9-0.7,8.4
						c0.9,1.1,2.2,1.8,3.6,2.1c2.6,0.6,6,0.3,10.4-0.9c4.3-1.2,7.5-2.7,9.4-4.5c2.5-2.2,2.8-5.9,0.7-8.5
						C410.4,269.2,409.2,268.5,407.8,268.3 M408.5,277.2c-1.5,1.2-4.2,2.3-8,3.3c-3.8,1-6.6,1.5-8.5,1.3c-1.9-0.2-3.1-1-3.5-2.5
						c-0.4-1.5,0.2-2.8,1.8-4s4.4-2.3,8.5-3.4c3.5-1,6.2-1.3,8.1-1.1c1.8,0.2,3,1.1,3.4,2.6C410.6,274.7,410,276,408.5,277.2"/>
					<path id="Path_23991" class="st14" d="M415.3,285.3l-26,4.9l0.9,4.8c0.6,3,2,5,4.3,6c2.3,1,5.8,1,10.3,0.2
						c4.5-0.9,7.7-2.2,9.5-3.9s2.4-4.1,1.8-7.2L415.3,285.3z M412.5,295.5c-1.4,1.3-4,2.3-8,3c-4,0.8-6.9,0.8-8.7,0.1
						c-1.7-0.7-2.9-2.3-3.3-4.7c0-0.2-0.1-0.3-0.1-0.5c0-0.2-0.1-0.5-0.1-0.9l21.2-4c0.1,0.4,0.2,0.7,0.2,0.9s0.1,0.4,0.1,0.5
						C414.3,292.3,413.9,294.2,412.5,295.5"/>
					<path id="Path_23992" class="st15" d="M266.9,296.3L266.9,296.3c-0.3,0-0.5,0-0.8,0c-12.9,0-23.4,10.5-23.4,23.4c0,0,0,0,0,0
						h46.8C289.6,307.1,279.5,296.7,266.9,296.3"/>
					<path id="Path_23993" class="st15" d="M260.7,318.8l10.8-5.4L300.2,139l-46.9,168L260.7,318.8z"/>
					<path id="Path_23994" class="st16" d="M165.8,300.2c-0.2,0.1-5.5,1.8-5.5,1.8s-1.4,2.6-1.4,3.6s0.6,3.5,1.7,4.1
						s1.3,1.2,2.2,0.8c0.9-0.4,1.7-0.8,2.6-1.3l6.7-7.3C172.1,302,166,300.1,165.8,300.2"/>
					<path id="Path_23995" class="st16" d="M212.5,314.3l0,2.5l8.8,0l4.9-10.4l-10.2-1.2L212.5,314.3z"/>
					<path id="Path_23996" class="st17" d="M234.5,317.5H233l-7.1-4.2l-3.9,4.2h-9.6c-0.2,0-0.4,0.2-0.4,0.4v1.5
						c0,0.2,0.1,0.3,0.3,0.3h0h22.3c0.6,0,1.1-0.5,1.1-1.1c0-0.1,0-0.1,0-0.2C235.5,317.8,235.1,317.5,234.5,317.5"/>
					<path id="Path_23997" class="st18" d="M231.7,315.6l-8.2-3.6c-3.3,3.2-7,0.6-7,0.6c-1.4-0.6-3.1-0.2-4.1,1.1v3.9h22.1
						C234,316.3,231.7,315.6,231.7,315.6"/>
					<rect id="Rectangle_23554" x="212.4" y="313.6" width="0.2" height="3.9"/>
					<path id="Path_23998" d="M216.6,312.4l-0.1,0.1c1,0.7,2.2,1,3.4,1c0.2,0,0.3,0,0.5,0l0-0.2C219,313.5,217.7,313.2,216.6,312.4"
						/>
					
						<rect id="Rectangle_23555" x="213.9" y="315.7" transform="matrix(0.5591 -0.8291 0.8291 0.5591 -167.9313 316.9063)" width="0.2" height="1.3"/>
					
						<rect id="Rectangle_23556" x="214.7" y="315.5" transform="matrix(0.5591 -0.8291 0.8291 0.5591 -167.4375 317.4115)" width="0.2" height="1.3"/>
					<path id="Path_23999" d="M234.6,317.4h-22.1c-0.3,0-0.6,0.3-0.6,0.6l0,0v1.1h0.2V318c0-0.3,0.2-0.5,0.5-0.5h22.1
						c0.6,0,1,0.5,1,1c0,0.3-0.1,0.6-0.4,0.8l0.1,0.1c0.5-0.4,0.6-1.2,0.1-1.7C235.3,317.6,234.9,317.4,234.6,317.4"/>
					<path id="Path_24000" d="M232.5,315.8c-1.6-0.7-8.9-3.9-8.9-3.9l-0.1,0.1c0.1,0,7.3,3.2,8.9,3.9c0.8,0.3,1.6,0.8,2.1,1.6
						l0.1-0.1C234.2,316.7,233.4,316.1,232.5,315.8"/>
					<path id="Path_24001" class="st19" d="M232.4,232.9l-21.7,6.3v6.7c0,0,15.3,13.4,28.1,16.8l-24.7,43c3.7,3.5,8.6,5.5,13.7,5.5
						c0,0,33.8-49.2,33.8-54.9C261.6,252.1,232.4,232.9,232.4,232.9"/>
					<path id="Path_24002" class="st15" d="M206.8,218.9l-48.2,81.5c5.3,4.7,13.1,7.8,13.1,7.8s6.7-9.9,17.7-26.8
						s21.3-24.2,30.2-32.4c5.3-4.9,10.2-10.3,14.5-16.1L221.1,218L206.8,218.9z"/>
					<path id="Path_24003" class="st18" d="M169.7,315.8c-2.3-1.2-2.9-1.1-5.1-1.9l0.8-4.7c-4.6-1.4-5-7.3-5-7.3l-4.2,0.5
						c-0.6,0.1-1.1,0.7-1,1.3c0,0.1,0,0.2,0.1,0.3l5.3,14.1h9.1C169.7,318.1,171,316.5,169.7,315.8"/>
					<path id="Path_24004" class="st17" d="M169.9,318.4c-0.1-0.2-0.3-0.3-0.5-0.3h-7.9c-0.6,0-1.1-0.3-1.3-0.9l-5.1-13.6
						c-0.1-0.2-0.3-0.4-0.5-0.4c-0.1,0-0.2,0-0.3,0.1c-0.2,0.1-0.2,0.4-0.2,0.6l5,14.6c0.2,0.6,0.8,1,1.5,1h8.8
						c0.3,0,0.6-0.2,0.6-0.6c0-0.1,0-0.1,0-0.2C170,318.6,170,318.5,169.9,318.4"/>
					<path id="Path_24005" class="st20" d="M170,318.3c-0.1-0.2-0.4-0.4-0.6-0.4h-7.9c-0.5,0-1-0.3-1.2-0.8l-5.1-13.6
						c-0.1-0.3-0.3-0.4-0.6-0.5c-0.1,0-0.3,0-0.4,0.1c-0.2,0.2-0.3,0.4-0.2,0.7l0.2-0.1c-0.1-0.2,0-0.4,0.1-0.5
						c0.1,0,0.2-0.1,0.2-0.1c0.2,0,0.4,0.2,0.4,0.3l5.1,13.6c0.2,0.6,0.7,0.9,1.3,0.9h7.9c0.2,0,0.4,0.1,0.5,0.3
						c0.1,0.1,0.1,0.2,0.1,0.3c0,0.2,0,0.3-0.1,0.5c-0.1,0.1-0.3,0.2-0.4,0.2v0.2c0.4,0,0.7-0.3,0.7-0.7c0-0.1,0-0.1,0-0.2
						C170.1,318.6,170.1,318.5,170,318.3"/>
					<path id="Path_24006" class="st18" d="M161.5,303.9l-0.2-0.5l-0.4-0.9l-0.5-0.6l-0.7,1.3c0,0,1.2,2.7,1.3,2.7s0.3,0.6,0.3,0.6
						l0.7-0.4l0-0.6l-0.2-1.1L161.5,303.9z"/>
					<path id="Path_24007" class="st21" d="M162.1,307.4c0.2,0.4,0.4,0.8,0.7,1.1l0.5,0.3l1,0.3l0.9,0.1l0-0.5l-3.4-2.5L162.1,307.4
						z"/>
					<path id="Path_24008" class="st20" d="M164.6,314c0,0,4.5,1.2,5.4,2.2l0.1-0.1c-0.9-1-5.3-2.2-5.5-2.2L164.6,314z"/>
					<path id="Path_24009" class="st20" d="M162,306.5c-0.3-3.7-1.5-4.5-1.5-4.6l-0.1,0.2c0,0,1.2,0.9,1.5,4.4
						c0.2,2.4,2.1,2.7,3.5,2.8l0,0l-0.8,4.6l-1.4,1l0.1,0.2l1.5-1.1l0.8-4.8l-0.2,0C163.9,309,162.1,308.7,162,306.5"/>
					<path id="Path_24010" class="st16" d="M242.8,142.8c-3.1-2.3-7.5-1.8-7.5-1.8s-2,1.6-2.2,1.8s1.7-0.1,1.7-0.1l9.3,7.8l0.6-2.1
						C245.3,146.4,244.6,144.1,242.8,142.8"/>
					<path id="Path_24011" class="st16" d="M230.9,152l-0.8,2.8c0,0-2.5,5.4-2.6,6.6c0.1,2.4,1.7,4.4,4,5.1c0.9,0.3,1.8,0.4,2.7,0.4
						c1.6,0,1.7,3.7,2,2.1l2.1-9.2c2.9,0.5,3.7-2.7,3.7-2.7l2.7-8.7l-10.2-6.8L230.9,152z"/>
					<path id="Path_24012" class="st22" d="M236.2,149.8c-0.1,0-0.1,0.1,0,0.2c0,0.1,0.1,0.1,0.2,0c0.1-0.1,1.9-1.5,3.3-0.2
						c0.1,0.1,0.1,0.1,0.2,0c0.1-0.1,0.1-0.1,0-0.2C238.3,148.1,236.2,149.8,236.2,149.8"/>
					<path id="Path_24013" class="st22" d="M242.4,149.9c-0.1,0-0.1,0.1-0.1,0.1c0,0.1,0.1,0.1,0.1,0.1c0,0,1.5,0,1.7,0.9
						c0,0.1,0.1,0.1,0.2,0.1c0.1,0,0.1-0.1,0.1-0.2C244.2,150,242.5,149.9,242.4,149.9"/>
					<path id="Path_24014" d="M238.1,150.9c-0.2-0.1-0.4,0.1-0.5,0.3c-0.1,0.2,0.1,0.4,0.3,0.5s0.4-0.1,0.5-0.3c0,0,0,0,0,0
						C238.4,151.2,238.3,151,238.1,150.9"/>
					<path id="Path_24015" d="M242.4,151.8c-0.2-0.1-0.4,0.1-0.5,0.3c-0.1,0.2,0.1,0.4,0.3,0.5s0.4-0.1,0.5-0.3c0,0,0,0,0,0
						C242.7,152.1,242.6,151.8,242.4,151.8"/>
					<path id="Path_24016" class="st23" d="M230.3,142.3c-1.7,2.6-0.8,4.6-1,5.5s-2.6,6.5,1.6,7.3l4.1-9.3l-0.2-4.3l0.6-0.7
						C235.3,140.8,232,139.6,230.3,142.3"/>
					<path id="Path_24017" class="st16" d="M233.6,147.2c-1.3-0.4-2.7,0.3-3.1,1.6s0.3,2.7,1.6,3.1c1.3,0.4,2.7-0.3,3.1-1.6
						c0,0,0,0,0,0C235.6,149,234.9,147.6,233.6,147.2"/>
					<path id="Path_24018" class="st24" d="M232.1,148.1C232.1,148.1,232.1,148.2,232.1,148.1c-0.1,0.1,0,0.1,0,0.1
						c0.4,0,0.7,0.1,1,0.4c0.2,0.2,0.3,0.5,0.3,0.7c-0.3-0.4-0.8-0.5-1.2-0.4c-0.4,0.1-0.7,0.5-0.7,1c0,0.5,0.3,0.9,0.7,1h0
						c0,0,0.1,0,0.1-0.1c0,0,0-0.1,0-0.1h0c-0.4-0.1-0.6-0.5-0.6-0.9c0-0.4,0.2-0.7,0.6-0.8c0.5-0.1,1,0.1,1.2,0.5l0.1,0.2l0-0.2
						c0-0.4-0.1-0.8-0.3-1C233,148.3,232.6,148.1,232.1,148.1"/>
					<path id="Path_24019" class="st24" d="M232.8,155.1c0,0-1.6,5.6,4.7,8.1l0.8-3.5C238.3,159.7,233.8,159.3,232.8,155.1"/>
					<path id="Path_24020" class="st24" d="M241,151C241,151,240.9,151.1,241,151C240.9,151.1,240.9,151.1,241,151l-0.6,3.3l-1.4,0
						c0,0-0.1,0-0.1,0.1c0,0,0,0.1,0,0.1c0,0,0,0,0,0l1.6,0L241,151C241.1,151.1,241.1,151,241,151C241,151,241,151,241,151"/>
					<path id="Path_24021" class="st16" d="M229.9,155.5l1.5,0.6l1.4-4.4l-1.1-0.5L229.9,155.5z"/>
					<path id="Path_24022" class="st23" d="M245.4,143.4c0,0,1.5-3.2-1.8-3.1s-8.8-1.8-11.3,0.5s2.6,5.2,2.6,5.2s10.1,2.5,11.5,0.3
						c0.6-0.8,0.5-2-0.3-2.6C245.9,143.5,245.6,143.4,245.4,143.4"/>
					<path id="Path_24023" class="st23" d="M234.9,144c-0.7,0.1-1.5,0.3-2.2,0.5c0.3,0,2.2,0.8,2.2,0.8l-0.7,2.1
						c0.2,1,0.1,2.1-0.3,3c0,0,0.5,0.4,0.8-0.1s0.7-4.2,2.1-4.4S235,144,234.9,144"/>
					<path id="Path_24024" class="st25" d="M238.7,156.3c0.6,0.1,1.2-0.1,1.5-0.6c0,0-2.4-0.8-2.4-0.8
						C237.8,155.5,238.2,156.1,238.7,156.3"/>
					<path id="Path_24025" class="st16" d="M292.4,189.3c0,0,0.9-1.2-0.3-1.8c0,0,1-1.3-1.1-1.8c0.1-0.5-0.2-1.1-0.8-1.2
						c-1.2-0.3-2.4-0.3-3.6-0.1c-0.4,0.1-4.8,3.2-4.8,3.2s-4.7,4.7-5.1,4.9l4,8.2c2.2-1.2,4.3-2.6,6.2-4.2l0,0
						c0.1-0.1,0.2-0.2,0.2-0.3c0,0,0,0,0,0l0-0.1c0.2-0.4,0.5-0.8,0.8-1.1c0.8-1.3,1.5-2.9,1.9-3.2c0.6-0.4,1.2-0.6,1.9-0.6
						c0.5-0.1,0.9-0.5,1-1C292.9,189.9,292.8,189.5,292.4,189.3"/>
					<path id="Path_24026" class="st24" d="M291.1,185.6c-0.1,0-2.8,0.1-3.3,0.3c-0.6,0.2-1.2,0.5-1.7,0.9c-0.1,0-0.1,0.1,0,0.2
						c0,0,0.1,0.1,0.1,0.1c0,0,0.1,0,0.1,0c0.5-0.3,1.1-0.6,1.6-0.9c1.1-0.1,2.2-0.2,3.3-0.3c0.1,0,0.1-0.1,0.1-0.1
						C291.2,185.7,291.1,185.6,291.1,185.6C291.1,185.6,291.1,185.6,291.1,185.6"/>
					<path id="Path_24027" class="st24" d="M292.1,187.4c-1,0.1-2.1,0.3-3.1,0.5c-0.5,0.2-1.1,0.5-1.5,0.8c-0.1,0-0.1,0.1,0,0.2
						c0,0,0,0,0.1,0.1c0,0,0.1,0,0.1,0c0.5-0.3,1-0.6,1.5-0.8c1-0.2,2-0.4,3-0.5c0.1,0,0.1-0.1,0.1-0.1
						C292.3,187.5,292.2,187.4,292.1,187.4C292.1,187.4,292.1,187.4,292.1,187.4"/>
					<path id="Path_24028" class="st24" d="M292.4,189.2c-0.9,0.1-1.9,0.2-2.8,0.5c-0.4,0.2-0.9,0.4-1.2,0.7c-0.1,0-0.1,0.1,0,0.2
						c0,0,0,0,0.1,0c0,0,0.1,0,0.1,0c0.4-0.3,0.8-0.5,1.2-0.7c0.9-0.2,1.8-0.4,2.7-0.5c0.1,0,0.1-0.1,0.1-0.1
						C292.6,189.2,292.5,189.2,292.4,189.2C292.4,189.2,292.4,189.2,292.4,189.2"/>
					<path id="Path_24029" class="st26" d="M224.8,162.2l12.7,12.1l0.2-7.8l-8.8-8.9L224.8,162.2z"/>
					<path id="Path_24030" class="st14" d="M233.2,166.1c-4.7-6.5-9.9-3.5-9.9-3.5c-7.6,4.3-24,67.1-24,67.1s9.9-0.5,13.5-0.3
						c10.2,0.8,14,9.4,26,5.7c0,0-3.1-17.1-1.7-20.7c0.4-1.2,1.8-9.7,2.2-10.6c-2.3-3.4-0.4-13.1,1.8-24.7
						C238.1,173.8,235.1,168.7,233.2,166.1"/>
					<path id="Path_24031" class="st20" d="M236.9,216.9h-0.3c0,4.7,1.9,16.9,2,18.1c-4.5,1.9-10.4,0.8-17.4-3.2
						c-6.3-3.6-14.5-2.6-14.6-2.6l0,0.3c0.1,0,8.2-1,14.5,2.5c4.9,2.7,9.2,4.1,12.9,4.1c1.7,0,3.3-0.3,4.9-0.9l0.1,0l0-0.1
						C238.9,234.9,236.9,221.8,236.9,216.9"/>
					<path id="Path_24032" class="st14" d="M250,192.3l-12.6-19.6l-17.2,9.8c0,0,13.6,22.1,22,26.1s39.4-7.8,39.4-7.8l-0.7-12.6
						L250,192.3z"/>
					<path id="Path_24033" class="st20" d="M242.3,208.5c-8.3-4-21.8-25.9-21.9-26.1l-0.2,0.1c0.1,0.2,13.7,22.2,22.1,26.2
						c1.6,0.6,3.3,0.9,5.1,0.9c11.6,0,33.4-8.3,34.5-8.7l-0.1-0.2C281.3,200.8,250.5,212.5,242.3,208.5"/>
					<path id="Path_24034" class="st20" d="M250.1,192.2l-12.8-19.9l-0.2,0.1l12.8,20.1l26.6-3.6l0-0.3L250.1,192.2z"/>
					<path id="Path_24045" class="st14" d="M443.8,122.8c0,0,1.5-26.8-18.7-28.5c-23.2-2-23.5,24.3-23.5,24.3s-10.5-10-18.1,2.7
						c0,0-13.1-7.6-19.8,6.4c-0.2,0.4-0.3,0.9-0.2,1.4h89.7c0.1-1.1-0.3-2.2-1.1-3C450.7,124.4,448.2,123.1,443.8,122.8"/>
					<path id="Path_24046" class="st14" d="M108.6,118.9c-5.8-9.7-13.8-2-13.8-2s-0.2-20.1-17.9-18.5c-15.4,1.4-14.3,21.8-14.3,21.8
						c-3.3,0.2-5.3,1.2-6.4,2.5c-0.6,0.6-0.9,1.5-0.8,2.3h68.4c0.1-0.4,0-0.7-0.1-1.1C118.6,113.1,108.6,118.9,108.6,118.9"/>
					<path id="Path_24047" class="st14" d="M210.6,39.2c0,0-2.7-8.2-10.7-6.8s-5.2,13.4-5.2,13.4c-1.5-0.3-3.1-0.1-4.4,0.7
						c-0.5,0.4-0.9,0.9-0.9,1.6h41.9c1.8-1.7,2.8-4,2.7-6.5c-0.2-2.7-1.1-5.2-2.8-7.4C223.6,23.5,210.5,33.8,210.6,39.2"/>
					<rect id="Rectangle_23558" y="319" class="st15" width="535.7" height="1.8"/>
				</g>
			</g>
		</g>
	</g>
</g>
</svg>
