<svg xmlns="http://www.w3.org/2000/svg" xmlns:xlink="http://www.w3.org/1999/xlink" width="568.393" height="407.772" viewBox="0 0 568.393 407.772">
  <defs>
    <filter id="Rectangle_18124" x="-45" y="75.981" width="658.393" height="379.791" filterUnits="userSpaceOnUse">
      <feOffset dy="3" input="SourceAlpha"/>
      <feGaussianBlur stdDeviation="15" result="blur"/>
      <feFlood flood-opacity="0.071"/>
      <feComposite operator="in" in2="blur"/>
      <feComposite in="SourceGraphic"/>
    </filter>
    <clipPath id="clip-path">
      <g transform="matrix(1, 0, 0, 1, 0, 0)" filter="url(#Rectangle_18124)">
        <rect id="Rectangle_18124-2" data-name="Rectangle 18124" width="568.392" height="289.791" transform="translate(0)" fill="#d8f4e9"/>
      </g>
    </clipPath>
    <linearGradient id="linear-gradient" y1="0.5" x2="1" y2="0.5" gradientUnits="objectBoundingBox">
      <stop offset="0" stop-color="#ff2a2a"/>
      <stop offset="0.209" stop-color="#fbb527"/>
      <stop offset="0.627" stop-color="#c0c224"/>
      <stop offset="0.996" stop-color="#00a300"/>
    </linearGradient>
  </defs>
  <g id="Group_20354" data-name="Group 20354" transform="translate(-634.063 -101.5)">
    <g id="Group_20081" data-name="Group 20081" transform="translate(-10 -34)">
      <g id="artwork2" transform="translate(942.447 51.104)" opacity="0.42">
        <g id="Rectangle_2513" data-name="Rectangle 2513" transform="translate(-139.997 220.338)">
          <rect id="Rectangle_18624" data-name="Rectangle 18624" width="114.761" height="157.651" fill="#fff"/>
          <rect id="Rectangle_18625" data-name="Rectangle 18625" width="111.283" height="154.173" transform="translate(1.739 1.739)" fill="none" stroke="#f0f5ff" stroke-width="3"/>
        </g>
        <g id="Rectangle_2514" data-name="Rectangle 2514" transform="translate(-12.485 299.163)">
          <rect id="Rectangle_18626" data-name="Rectangle 18626" width="135.626" height="136.785" fill="#fff"/>
          <rect id="Rectangle_18627" data-name="Rectangle 18627" width="132.149" height="133.308" transform="translate(1.739 1.739)" fill="none" stroke="#f0f5ff" stroke-width="3"/>
        </g>
        <g id="Rectangle_2515" data-name="Rectangle 2515" transform="translate(-12.485 197.154)">
          <rect id="Rectangle_18628" data-name="Rectangle 18628" width="66.074" height="89.258" transform="translate(0 0)" fill="#fff"/>
          <rect id="Rectangle_18629" data-name="Rectangle 18629" width="62.597" height="85.781" transform="translate(1.739 1.739)" fill="none" stroke="#f0f5ff" stroke-width="3"/>
        </g>
        <g id="Rectangle_2516" data-name="Rectangle 2516" transform="translate(66.34 197.154)">
          <rect id="Rectangle_18630" data-name="Rectangle 18630" width="56.801" height="37.094" transform="translate(0 0)" fill="#fff"/>
          <rect id="Rectangle_18631" data-name="Rectangle 18631" width="53.323" height="33.617" transform="translate(1.739 1.739)" fill="none" stroke="#f0f5ff" stroke-width="3"/>
        </g>
        <g id="Rectangle_2517" data-name="Rectangle 2517" transform="translate(66.34 249.318)">
          <rect id="Rectangle_18632" data-name="Rectangle 18632" width="56.801" height="37.094" transform="translate(0)" fill="#fff"/>
          <rect id="Rectangle_18633" data-name="Rectangle 18633" width="53.323" height="33.617" transform="translate(1.739 1.739)" fill="none" stroke="#f0f5ff" stroke-width="3"/>
        </g>
        <g id="Rectangle_2518" data-name="Rectangle 2518" transform="translate(-166.658 390.74)">
          <rect id="Rectangle_18634" data-name="Rectangle 18634" width="54.482" height="45.209" fill="#fff"/>
          <rect id="Rectangle_18635" data-name="Rectangle 18635" width="51.005" height="41.731" transform="translate(1.739 1.739)" fill="none" stroke="#f0f5ff" stroke-width="3"/>
        </g>
        <g id="Rectangle_2519" data-name="Rectangle 2519" transform="translate(-99.425 390.74)">
          <rect id="Rectangle_18636" data-name="Rectangle 18636" width="74.189" height="45.209" fill="#fff"/>
          <rect id="Rectangle_18637" data-name="Rectangle 18637" width="70.711" height="41.731" transform="translate(1.739 1.739)" fill="none" stroke="#f0f5ff" stroke-width="3"/>
        </g>
        <path id="Path_2713" data-name="Path 2713" d="M-60.166,206.7l-85.273,98.956v48.8l105.75-122.717v-25.04Z" transform="translate(10.668 17.299)" fill="#f7faff"/>
        <path id="Path_2715" data-name="Path 2715" d="M61.961,275.352-35.9,360.929v42.2L85.467,297.006V275.352Z" transform="translate(28.106 28.227)" fill="#f7faff"/>
        <path id="Path_2714" data-name="Path 2714" d="M10.425,186.823l-47.2,54.1v26.681l58.54-67.094v-13.69Z" transform="translate(27.966 14.134)" fill="#f7faff"/>
        <line id="Line_222" data-name="Line 222" y2="205.494" transform="translate(146.904 84.396)" fill="none" stroke="#e2ebff" stroke-width="2"/>
        <line id="Line_223" data-name="Line 223" y2="158.494" transform="translate(226.31 131.396)" fill="none" stroke="#e2ebff" stroke-width="2"/>
        <rect id="Rectangle_2525" data-name="Rectangle 2525" width="106.646" height="6.955" transform="translate(133.574 286.412)" fill="#e2ebff"/>
        <g id="books" transform="translate(151.541 251.803)">
          <g id="Group_4001" data-name="Group 4001" transform="translate(2.23 21.326)">
            <path id="Path_2743" data-name="Path 2743" d="M134.9,260.307H108.6a5.121,5.121,0,0,1-5.121-5.121V254.2a5.121,5.121,0,0,1,5.121-5.121h26.3Z" transform="translate(-103.477 -249.083)" fill="#fafcff"/>
          </g>
          <g id="Group_4002" data-name="Group 4002" transform="translate(3.353 22.447)">
            <rect id="Rectangle_2526" data-name="Rectangle 2526" width="2.806" height="8.979" fill="#adc9ff"/>
          </g>
          <g id="Group_4003" data-name="Group 4003" transform="translate(1.107 11.786)">
            <path id="Path_2744" data-name="Path 2744" d="M132.392,248.71H102.508v-7.857h29.884a1.543,1.543,0,0,1,1.543,1.543v4.77a1.543,1.543,0,0,1-1.542,1.544Z" transform="translate(-102.508 -240.853)" fill="#fafcff"/>
          </g>
          <g id="Group_4004" data-name="Group 4004" transform="translate(5.036 1.683)">
            <rect id="Rectangle_2527" data-name="Rectangle 2527" width="28.621" height="8.418" fill="#fafcff"/>
          </g>
          <g id="Group_4005" data-name="Group 4005" transform="translate(1.211 20.204)">
            <path id="Path_2745" data-name="Path 2745" d="M135.058,261.584H109.244a6.735,6.735,0,0,1,0-13.469h25.815a1.123,1.123,0,1,1,0,2.245H109.244a4.49,4.49,0,1,0,0,8.979h25.815a1.123,1.123,0,1,1,0,2.245h0Z" transform="translate(-102.597 -248.115)" fill="#d5e3ff"/>
          </g>
          <g id="Group_4007" data-name="Group 4007" transform="translate(0 11.231)">
            <g id="Group_4006" data-name="Group 4006">
              <path id="Path_2746" data-name="Path 2746" d="M131.858,249.347H102.114a.561.561,0,0,1,0-1.122h29.744a1.685,1.685,0,0,0,1.683-1.683V243.18a1.684,1.684,0,0,0-1.683-1.683H102.114a.561.561,0,0,1,0-1.122h29.744a2.808,2.808,0,0,1,2.806,2.806v3.362A2.809,2.809,0,0,1,131.858,249.347Z" transform="translate(-101.553 -240.375)" fill="#adc9ff"/>
            </g>
          </g>
          <g id="Group_4008" data-name="Group 4008" transform="translate(7.28 3.367)">
            <path id="Path_2747" data-name="Path 2747" d="M134.209,234.713H108.394a.562.562,0,0,1-.561-.561h0a.561.561,0,0,1,.561-.561h25.815Z" transform="translate(-107.833 -233.591)" fill="#d6e4ff"/>
          </g>
          <g id="Group_4009" data-name="Group 4009" transform="translate(7.28 5.612)">
            <path id="Path_2748" data-name="Path 2748" d="M134.209,236.649H108.394a.562.562,0,0,1-.561-.561h0a.561.561,0,0,1,.561-.561h25.815Z" transform="translate(-107.833 -235.527)" fill="#d6e4ff"/>
          </g>
          <g id="Group_4010" data-name="Group 4010" transform="translate(7.28 7.857)">
            <path id="Path_2749" data-name="Path 2749" d="M134.209,238.586H108.394a.562.562,0,0,1-.561-.561h0a.561.561,0,0,1,.561-.561h25.815Z" transform="translate(-107.833 -237.464)" fill="#d6e4ff"/>
          </g>
          <g id="Group_4011" data-name="Group 4011" transform="translate(1.107 13.469)">
            <path id="Path_2750" data-name="Path 2750" d="M102.508,242.3h29.183a.561.561,0,0,1,.561.561h0a.562.562,0,0,1-.561.561H102.508Z" transform="translate(-102.508 -242.305)" fill="#d6e4ff"/>
          </g>
          <g id="Group_4012" data-name="Group 4012" transform="translate(1.107 15.714)">
            <path id="Path_2751" data-name="Path 2751" d="M102.508,244.242h29.183a.561.561,0,0,1,.561.561h0a.562.562,0,0,1-.561.561H102.508Z" transform="translate(-102.508 -244.242)" fill="#d6e4ff"/>
          </g>
          <g id="Group_4013" data-name="Group 4013" transform="translate(1.107 17.958)">
            <path id="Path_2752" data-name="Path 2752" d="M102.508,246.178h29.183a.561.561,0,0,1,.561.561h0a.561.561,0,0,1-.561.561H102.508Z" transform="translate(-102.508 -246.178)" fill="#d6e4ff"/>
          </g>
          <g id="Group_4014" data-name="Group 4014" transform="translate(3.929)">
            <path id="Path_2753" data-name="Path 2753" d="M135.247,241.911H108.3a3.372,3.372,0,0,1-3.362-3.362v-4.5a3.371,3.371,0,0,1,3.362-3.362h26.943a1.123,1.123,0,1,1,0,2.245H108.3a1.123,1.123,0,0,0-1.122,1.122v4.49a1.125,1.125,0,0,0,1.122,1.122h26.943a1.123,1.123,0,1,1,0,2.245Z" transform="translate(-104.942 -230.686)" fill="#d5e3ff"/>
          </g>
          <g id="Group_4015" data-name="Group 4015" transform="translate(7.283 30.305)">
            <path id="Path_2754" data-name="Path 2754" d="M108.394,256.829a.561.561,0,0,0,0,1.122h25.815v-1.122Z" transform="translate(-107.836 -256.829)" fill="#d6e4ff"/>
          </g>
          <g id="Group_4016" data-name="Group 4016" transform="translate(7.283 28.06)">
            <path id="Path_2755" data-name="Path 2755" d="M108.394,254.892a.561.561,0,0,0,0,1.122h25.815v-1.122Z" transform="translate(-107.836 -254.892)" fill="#d6e4ff"/>
          </g>
          <g id="Group_4017" data-name="Group 4017" transform="translate(7.283 25.815)">
            <path id="Path_2756" data-name="Path 2756" d="M108.394,252.956a.561.561,0,0,0,0,1.122h25.815v-1.122Z" transform="translate(-107.836 -252.956)" fill="#d6e4ff"/>
          </g>
          <g id="Group_4018" data-name="Group 4018" transform="translate(7.283 23.57)">
            <path id="Path_2757" data-name="Path 2757" d="M108.394,251.019a.561.561,0,0,0,0,1.122h25.815v-1.122Z" transform="translate(-107.836 -251.019)" fill="#d6e4ff"/>
          </g>
        </g>
        <g id="Group_4000" data-name="Group 4000" transform="translate(191.605 193.968)">
          <path id="Path_2736" data-name="Path 2736" d="M158.221,203.369a15.02,15.02,0,0,0-8.694,3.613,12.939,12.939,0,0,0,17.536-.376A15.017,15.017,0,0,0,158.221,203.369Z" transform="translate(-133.98 -177.2)" fill="#d5e2ff"/>
          <path id="Path_2737" data-name="Path 2737" d="M179.32,190.123a15.035,15.035,0,0,1-9.39.669,12.938,12.938,0,0,1,15.844-7.527A15.032,15.032,0,0,1,179.32,190.123Z" transform="translate(-130.731 -180.494)" fill="#d5e2ff"/>
          <path id="Path_2738" data-name="Path 2738" d="M178.889,187.323a15.025,15.025,0,0,0-9.042,2.614,12.94,12.94,0,0,0,17.468,1.6A15.018,15.018,0,0,0,178.889,187.323Z" transform="translate(-130.745 -179.756)" fill="#e6eeff"/>
          <path id="Path_2739" data-name="Path 2739" d="M163.338,189.2a15.031,15.031,0,0,1-2.573,9.058,12.94,12.94,0,0,1-1.674-17.461A15.024,15.024,0,0,1,163.338,189.2Z" transform="translate(-132.876 -180.794)" fill="#e6eeff"/>
          <path id="Path_2740" data-name="Path 2740" d="M143.86,214.332a15.018,15.018,0,0,1,1.66,9.274,12.939,12.939,0,0,1-9.158-14.954A15.022,15.022,0,0,1,143.86,214.332Z" transform="translate(-136.115 -176.359)" fill="#e6eeff"/>
          <path id="Path_2741" data-name="Path 2741" d="M149.982,262.292l-.369-.249a11.551,11.551,0,0,0,2.039-6.406c-.01-3.35-1.655-6.449-3.246-9.445-.3-.556-.59-1.111-.873-1.665a36.449,36.449,0,0,1-2.826-7.1c-2.469-9.174-.038-20,6.5-28.951,5.187-7.1,12.92-13.316,23.641-18.991l.209.393c-10.665,5.643-18.342,11.812-23.489,18.859-6.46,8.847-8.864,19.529-6.43,28.573a35.928,35.928,0,0,0,2.793,7.009c.283.552.58,1.1.869,1.659,1.617,3.044,3.289,6.192,3.3,9.653A12,12,0,0,1,149.982,262.292Z" transform="translate(-134.897 -179.41)" fill="#f0f5ff" stroke="#e2ebff" stroke-width="1"/>
          <circle id="Ellipse_413" data-name="Ellipse 413" cx="4.228" cy="4.228" r="4.228" transform="translate(56.853 2.209)" fill="#e6eeff"/>
          <rect id="Rectangle_2523" data-name="Rectangle 2523" width="10.136" height="10.136" transform="translate(9.848 82.048)" fill="#c7d9ff"/>
        </g>
      </g>
      <g id="Group_19257" data-name="Group 19257" transform="translate(-177.188 17.904)">
        <g id="Mask_Group_31" data-name="Mask Group 31" transform="translate(821.251 235.578)" clip-path="url(#clip-path)">
          <g id="Rectangle_18113" data-name="Rectangle 18113" transform="translate(297.263 6.151)" fill="#fff" stroke="#1f1f1f" stroke-width="8">
            <rect width="264.596" height="316.862" rx="24" stroke="none"/>
            <rect x="4" y="4" width="256.596" height="308.862" rx="20" fill="none"/>
          </g>
          <g id="Group_18503" data-name="Group 18503" transform="translate(99.226 141.976)">
            <path id="Path_9162" data-name="Path 9162" d="M528.592,84.6H322.357A11.457,11.457,0,0,0,310.9,96.057v51.558a11.458,11.458,0,0,0,11.457,11.457H528.592a11.458,11.458,0,0,0,11.457-11.457V96.057A11.457,11.457,0,0,0,528.592,84.6Z" transform="translate(-310.9 -84.6)" fill="#b9e9d6" fill-rule="evenodd"/>
            <g id="Group_18501" data-name="Group 18501" transform="translate(22.915 25.859)">
              <path id="Path_9163" data-name="Path 9163" d="M354.9,98.488H469.475" transform="translate(-354.9 -98.488)" fill="none" stroke="#89dcbd" stroke-linecap="round" stroke-linejoin="round" stroke-width="9" fill-rule="evenodd"/>
              <path id="Path_9164" data-name="Path 9164" d="M354.9,106.325h13.541m14.7,0h69.161" transform="translate(-354.9 -83.086)" fill="none" stroke="#fff" stroke-linecap="round" stroke-linejoin="round" stroke-width="9" fill-rule="evenodd"/>
            </g>
            <g id="Group_18502" data-name="Group 18502" transform="translate(160.425 22.915)">
              <path id="Path_9165" data-name="Path 9165" d="M321.9,123.1q4.781-14.493,12.262-12.795c7.5,1.7,7.5,9.474,15.215,8.212S359.46,95.6,367.709,95.6" transform="translate(-321.9 -95.6)" fill="none" stroke="#c2cfe5" stroke-linecap="round" stroke-linejoin="round" stroke-width="7" fill-rule="evenodd"/>
              <path id="Path_9166" data-name="Path 9166" d="M321.9,118.033q4.781-14.493,12.262-12.795c7.5,1.7,7.5,9.474,15.215,8.212,4.166-.677,6.75-7.243,9.551-13.174" transform="translate(-321.9 -90.535)" fill="none" stroke="#5ab995" stroke-linecap="round" stroke-linejoin="round" stroke-width="7" fill-rule="evenodd"/>
            </g>
          </g>
          <g id="Group_18504" data-name="Group 18504" transform="translate(114.332 41.528)">
            <rect id="Rectangle_18114" data-name="Rectangle 18114" width="88.199" height="91.465" rx="12" transform="translate(0 0)" fill="#5ab995"/>
            <path id="Rectangle_18115" data-name="Rectangle 18115" d="M6.533,0h0a6.533,6.533,0,0,1,6.533,6.533V58.8a0,0,0,0,1,0,0H0a0,0,0,0,1,0,0V6.533A6.533,6.533,0,0,1,6.533,0Z" transform="translate(9.8 19.6)" fill="#30a176"/>
            <path id="Rectangle_18116" data-name="Rectangle 18116" d="M6.533,0h0a6.533,6.533,0,0,1,6.533,6.533V58.8a0,0,0,0,1,0,0H0a0,0,0,0,1,0,0V6.533A6.533,6.533,0,0,1,6.533,0Z" transform="translate(35.933 19.6)" fill="#30a176"/>
            <path id="Rectangle_18117" data-name="Rectangle 18117" d="M6.533,0h0a6.533,6.533,0,0,1,6.533,6.533V58.8a0,0,0,0,1,0,0H0a0,0,0,0,1,0,0V6.533A6.533,6.533,0,0,1,6.533,0Z" transform="translate(62.066 19.6)" fill="#30a176"/>
            <path id="Rectangle_18118" data-name="Rectangle 18118" d="M6.533,0h0a6.533,6.533,0,0,1,6.533,6.533V42.466a0,0,0,0,1,0,0H0a0,0,0,0,1,0,0V6.533A6.533,6.533,0,0,1,6.533,0Z" transform="translate(9.8 35.933)" fill="#fff"/>
            <path id="Rectangle_18119" data-name="Rectangle 18119" d="M6.533,0h0a6.533,6.533,0,0,1,6.533,6.533V32.666a0,0,0,0,1,0,0H0a0,0,0,0,1,0,0V6.533A6.533,6.533,0,0,1,6.533,0Z" transform="translate(35.933 45.733)" fill="#fff"/>
            <path id="Rectangle_18120" data-name="Rectangle 18120" d="M6.533,0h0a6.533,6.533,0,0,1,6.533,6.533V39.2a0,0,0,0,1,0,0H0a0,0,0,0,1,0,0V6.533A6.533,6.533,0,0,1,6.533,0Z" transform="translate(62.066 39.199)" fill="#fff"/>
          </g>
          <g id="Group_18506" data-name="Group 18506" transform="translate(349.529 70.022)">
            <path id="Path_9167" data-name="Path 9167" d="M3549.348,2493.179c-45.094,0-81.648,35.737-81.648,79.824s36.554,79.826,81.648,79.826S3631,2617.09,3631,2573,3594.442,2493.179,3549.348,2493.179Zm6.472,119.584a4.1,4.1,0,0,1,.411,1.248h5.407l-1.967,4.342h-3.44a6.763,6.763,0,0,1-.973,2.563,7.771,7.771,0,0,1-1.833,2,9.764,9.764,0,0,1-2.5,1.368,11.263,11.263,0,0,1-2.95.657l10.69,11.28h-6.955l-9.866-10.967v-4.343h2.908c.366,0,.832-.024,1.394-.076a8.075,8.075,0,0,0,1.681-.344,5.3,5.3,0,0,0,1.525-.77,2.517,2.517,0,0,0,.941-1.364h-9.428l1.963-4.342h7.449a2.329,2.329,0,0,0-.867-1.24,4.454,4.454,0,0,0-1.506-.678,9.9,9.9,0,0,0-1.954-.282c-.719-.042-1.464-.059-2.238-.059h-2.848l1.963-4.346h18.806l-1.967,4.346h-4.5A4.986,4.986,0,0,1,3555.82,2612.764Z" transform="translate(-3467.7 -2493.179)" fill="#ececec"/>
            <g id="Group_18505" data-name="Group 18505" transform="translate(16.563 12.85)">
              <path id="Path_9168" data-name="Path 9168" d="M3635.111,2619.45c-1.256,2.787-3.71,4-6.281,3.166a4.837,4.837,0,0,1-2.866-6.817,70.556,70.556,0,0,0,4.226-11.991,55.761,55.761,0,0,0-3.491-36.426c-.229-.519-.453-1.043-.676-1.562a57.148,57.148,0,0,0-4.934-8.093,11.433,11.433,0,0,0-2.013-2.559,33.866,33.866,0,0,0-2.742-3.423c.464-.545.912-1.105,1.4-1.634,1.368-1.481,1.329-1.431-.1-2.916-.674-.7-1.09-.674-1.723,0-.665.708-1.452,1.3-2.183,1.939a58.145,58.145,0,0,0-27.692-14.291,63.859,63.859,0,0,0-11.565-1.2,55.34,55.34,0,0,0-17.985,2.941,57.8,57.8,0,0,0-32.121,26.685c-.2.353-.441.694-.665,1.039a70.065,70.065,0,0,0-4.946,13.193,56.837,56.837,0,0,0,3.886,37.722,5.728,5.728,0,0,1,.582,4.335,4.749,4.749,0,0,1-4.164,3.236,4.881,4.881,0,0,1-5.129-2.994,63.481,63.481,0,0,1-5.348-16.811,66.709,66.709,0,0,1,6.139-42.132c.158-.321.37-.616.553-.924a64.915,64.915,0,0,1,17.319-21.065,65.782,65.782,0,0,1,31.68-14.046,46.272,46.272,0,0,1,10.2-.682,64.613,64.613,0,0,1,32.291,8.247,66.888,66.888,0,0,1,26.968,27.454,2.626,2.626,0,0,1,.545,1.426,50.836,50.836,0,0,1,5.178,13.743A67.144,67.144,0,0,1,3635.111,2619.45Z" transform="translate(-3507.521 -2524.076)" fill="url(#linear-gradient)"/>
              <path id="Path_9169" data-name="Path 9169" d="M3711.22,2580.873c.734-.642,1.518-1.23,2.183-1.936.633-.676,1.047-.7,1.721,0,1.434,1.487,1.47,1.438.105,2.919-.484.525-.931,1.088-1.4,1.633q-7.806,8.414-15.615,16.828c-.26.247-.532.48-.773.743q-8.907,9.593-17.8,19.194a9.386,9.386,0,0,0-5.2-5.194l35.685-33.084C3710.51,2581.623,3710.859,2581.24,3711.22,2580.873Z" transform="translate(-3605.021 -2555.818)" fill="#344f5c"/>
              <path id="Path_9170" data-name="Path 9170" d="M3686.941,2632.175q8.9-9.6,17.8-19.195c.242-.262.516-.5.774-.744.582.067.936-.321,1.35-.634q8.5-6.4,17.01-12.77a11.559,11.559,0,0,1,2.011,2.556c-3.312,2.956-6.613,5.924-9.941,8.865-5.1,4.512-10.239,8.988-15.335,13.511-3.36,2.983-6.652,6.042-10.018,9.02a10.6,10.6,0,0,1-3.276,2.5Q3687.13,2633.729,3686.941,2632.175Z" transform="translate(-3612.318 -2567.74)" fill="#d4d4d4"/>
              <path id="Path_9171" data-name="Path 9171" d="M3664.97,2671.312q.188,1.551.377,3.108-1.262,6.715-8.058,7.444l-1.857-.271a8.235,8.235,0,0,1-5.942-5.945,8.039,8.039,0,0,1,7.205-9.8,23.694,23.694,0,0,1,3.079.269A9.378,9.378,0,0,1,3664.97,2671.312Z" transform="translate(-3590.346 -2606.876)" fill="#1f2e37"/>
              <path id="Path_9172" data-name="Path 9172" d="M3634.217,2689.425a8.237,8.237,0,0,0,5.942,5.946q-3.922,4.339-7.846,8.676a2.019,2.019,0,0,0-.247.181c-.766.765-1.492,2.1-2.3,2.154-.973.066-1.659-1.356-2.47-2.131-1.236-1.179-2.389-2.449-3.648-3.6-.685-.628-.575-.975.062-1.552C3627.231,2695.9,3630.716,2692.655,3634.217,2689.425Z" transform="translate(-3575.074 -2620.654)" fill="#334e5c"/>
              <path id="Path_9173" data-name="Path 9173" d="M3645.145,2712.4q3.922-4.337,7.846-8.676.928.138,1.856.271c-2.382,2.181-4.709,4.423-7.172,6.508C3646.883,2711.168,3646.363,2712.277,3645.145,2712.4Z" transform="translate(-3587.905 -2629.004)" fill="#cdcecf"/>
              <path id="Path_9174" data-name="Path 9174" d="M3749.961,2594.024q-8.505,6.383-17.008,12.77c-.414.313-.767.7-1.348.635q7.806-8.415,15.615-16.829A33.645,33.645,0,0,1,3749.961,2594.024Z" transform="translate(-3638.406 -2562.933)" fill="#e9e9e9"/>
            </g>
          </g>
          <text id="_300" data-name="300" transform="translate(349.462 236.192)" fill="#1f1f1f" font-size="15" font-family="Muli-SemiBold, Muli" font-weight="600"><tspan x="-13.5" y="0">300</tspan></text>
          <text id="_900" data-name="900" transform="translate(506.26 236.192)" fill="#1f1f1f" font-size="15" font-family="Muli-SemiBold, Muli" font-weight="600"><tspan x="-13.5" y="0">900</tspan></text>
          <text id="Excellent" transform="translate(422.995 259.058)" fill="#20a806" font-size="15" font-family="Muli-SemiBold, Muli" font-weight="600"><tspan x="-31.237" y="0">Excellent</tspan></text>
          <g id="Group_18511" data-name="Group 18511" transform="translate(19.458 102.733)">
            <g id="Group_18510" data-name="Group 18510" transform="translate(0 0)">
              <path id="Path_9175" data-name="Path 9175" d="M1043.09,1701.12s.433,6.993,1.786,7.093c.18.014,6.862.014,6.862.014l8.53-.05a2.769,2.769,0,0,0-2.549-2.49c-2.493-.433-6.666-2.186-8.177-5.482C1047.953,1696.738,1043.09,1701.12,1043.09,1701.12Z" transform="translate(-985.751 -1557.402)" fill="#163560"/>
              <g id="Group_18507" data-name="Group 18507" transform="translate(22.148 25.687)">
                <path id="Path_9176" data-name="Path 9176" d="M1012.531,1180.086s3.716.954,6.078.243,6.428.457,7.083,1.318.414,1.2-.754,1.5-5.308,2.063-8.028,1.041a21.68,21.68,0,0,0-6.268-1.059Z" transform="translate(-980.415 -1143.664)" fill="#e49963"/>
                <path id="Path_9177" data-name="Path 9177" d="M813.045,946.13s4.175,29.669,11.087,32.327c3.411,1.311,18.484,4.284,22.943,4.582,0,0,1.092-.886.826-4.493,0,0-15.793-5.8-18.036-8.951-3.339-4.693,2.073-19.172-2.117-23.579S816.5,939.715,813.045,946.13Z" transform="translate(-813.045 -941.987)" fill="#5ab995"/>
              </g>
              <path id="Path_9178" data-name="Path 9178" d="M733.868,1454.993v-6.469H723.683a.5.5,0,0,1-.5-.5v-1.036a.5.5,0,0,1,.5-.5h10.184v-36.824a1.884,1.884,0,0,1,1.879-1.879h2.015a1.885,1.885,0,0,1,1.879,1.879v36.824h10.184a.5.5,0,0,1,.5.5v1.036a.5.5,0,0,1-.5.5H739.641v6.469c7.369.557,13.272,3.21,14.928,6.638h-35.63C720.6,1458.2,726.5,1455.55,733.868,1454.993Z" transform="translate(-711.186 -1310.845)" fill="#89dcbd"/>
              <path id="Path_9179" data-name="Path 9179" d="M792.73,1281.227a52.047,52.047,0,0,0,4.078,5.835c4.487,5.664,9.371,10.334,10.222,14.749a19.963,19.963,0,0,0,.788,2.825c.355,1.011.795,2.074,1.3,3.173a97.755,97.755,0,0,0,7.594,12.983c4.914,7.282,9.535,13.358,9.535,13.358l8.474-.361c-.339-.849-4.035-10.9-8.979-23.191l-6.2-15.41q-.412-1.025-.82-2.038c-.63-1.566-1.25-3.107-1.855-4.608l-8.341-20.725s-18.556-7.029-20.483-2.474C786.452,1269.1,787.747,1272.777,792.73,1281.227Z" transform="translate(-769.175 -1188.89)" fill="#ffb625"/>
              <path id="Path_9180" data-name="Path 9180" d="M885.121,1582.978s-5.895,3.788-5.322,5.017c.076.165,3.333,6,3.333,6l4.2,7.424a2.768,2.768,0,0,0,.931-3.439c-.836-2.389-1.341-6.887.8-9.813C891.317,1585.089,885.121,1582.978,885.121,1582.978Z" transform="translate(-847.405 -1459.237)" fill="#163560"/>
              <path id="Path_9181" data-name="Path 9181" d="M814.669,1268.21s23.291,14.508,25.892,24.258-30.984,30.551-30.984,30.551-3.683-3.25-4.333-5.634c0,0,15.18-18.187,18.473-22.263,2.022-2.5-29.9-8.667-33.8-14.734s-2.5-11.171-2.5-11.171Z" transform="translate(-768.978 -1192.62)" fill="#ffc655"/>
              <path id="Rectangle_18121" data-name="Rectangle 18121" d="M6.5,0H44.636a6.5,6.5,0,0,1,6.5,6.5v0a6.5,6.5,0,0,1-6.5,6.5H6.5A6.5,6.5,0,0,1,0,6.5v0A6.5,6.5,0,0,1,6.5,0Z" transform="translate(0 94.22)" fill="#1f1f1f"/>
              <path id="Path_9182" data-name="Path 9182" d="M834.067,869.625a13.143,13.143,0,0,1,3.548,3.216c-5.58,1.443-14.83-3.727-14.83-3.727a13.685,13.685,0,0,0,4.922-7.716c.067-.268.129-.541.183-.823a16.729,16.729,0,0,0,.3-2.9l2.564,2.3,4.262,3.819a36.617,36.617,0,0,1-.63,4.31Q834.249,868.809,834.067,869.625Z" transform="translate(-799.147 -844.882)" fill="#fb8a77"/>
              <path id="Path_9183" data-name="Path 9183" d="M783.5,946.959c.8,10.75-.545,27.093.362,29.924.783,2.443,9.992,1,13.55.182,1.317-.3,2.913-.733,4.561-1.243,4.6-1.423,9.6-3.456,10.142-4.965a1.319,1.319,0,0,0,.05-.173,1.383,1.383,0,0,0-.01-.632,10.75,10.75,0,0,1-.951-3.505c-.091-2.126-.077-4.63-.157-7.322,0-.3-.009-.634-.041-.936l0-.11c0-.058,0-.114,0-.172-.077-3-.234-6.159-.416-9.289-.116-1.966-.249-3.913-.4-5.779a77.246,77.246,0,0,0-1.656-11.805,18.958,18.958,0,0,0-6.09-9.4l-1.7-1.455a9.81,9.81,0,0,1-6.155-.82c-2.191-1.04-2.947-1.786-3.329-1.5C786.2,921.857,782.56,933.818,783.5,946.959Z" transform="translate(-765.748 -895.892)" fill="#89dcbd"/>
              <path id="Path_9184" data-name="Path 9184" d="M858.6,1154.476c4.6-1.424,9.6-3.455,10.142-4.964a1.243,1.243,0,0,0,.049-.173c0-.211,0-.422-.01-.633a10.779,10.779,0,0,1-.95-3.505c-.091-2.126-.078-4.63-.157-7.322,0-.3-.008-.634-.042-.936v-.109c0-.059,0-.115,0-.172l-17.362-7.875S849.261,1142.779,858.6,1154.476Z" transform="translate(-822.393 -1074.524)" fill="#47aa85"/>
              <path id="Path_9185" data-name="Path 9185" d="M860.85,876.5a36.689,36.689,0,0,1-.631,4.31c-4.162-1.344-6.05-5.1-6.68-6.7-.179-.451-.257-.729-.257-.729l.44-.094,2.866-.607Z" transform="translate(-824.979 -857.596)" fill="#dd786e"/>
              <path id="Path_9186" data-name="Path 9186" d="M856.689,813.19s-9.144,1.031-9.7-4.673S844.882,799.1,850.7,798.2s7.162,1.167,7.811,3.026S859.054,812.775,856.689,813.19Z" transform="translate(-819.133 -794.328)" fill="#fb8a77"/>
              <path id="Path_9187" data-name="Path 9187" d="M833.744,788.649a9.4,9.4,0,0,1,8.9-8.356c5.7-.537,2.523-5.444,1.915-6.227,0,0-4.368.6-8.845,1.339C826.319,776.958,832.821,787.47,833.744,788.649Z" transform="translate(-805.847 -774.066)" fill="#33143f"/>
              <g id="Group_18508" data-name="Group 18508" transform="translate(49.839 48.586)">
                <rect id="Rectangle_18122" data-name="Rectangle 18122" width="0.842" height="22.037" transform="translate(23.12 21.219) rotate(-161.999)" fill="#4a75cb"/>
                <rect id="Rectangle_18123" data-name="Rectangle 18123" width="23.125" height="1.383" transform="translate(23.12 21.219) rotate(-178.776)" fill="#4a75cb"/>
              </g>
              <g id="Group_18509" data-name="Group 18509" transform="translate(23.991 27.592)">
                <path id="Path_9188" data-name="Path 9188" d="M998.234,1209.9s3.588,1.358,6.015.911,6.338,1.163,6.894,2.091.279,1.242-.915,1.408-5.5,1.465-8.094.151a21.633,21.633,0,0,0-6.113-1.744Z" transform="translate(-969.873 -1170.826)" fill="#e49963"/>
                <path id="Path_9189" data-name="Path 9189" d="M825.088,957.894s.878,29.949,7.455,33.352c3.246,1.679,17.9,6.3,22.3,7.083,0,0,1.183-.76,1.316-4.374,0,0-15.057-7.5-16.939-10.885-2.8-5.032,4.174-18.825.5-23.668S829.231,951.9,825.088,957.894Z" transform="translate(-825.088 -954.439)" fill="#5ab995"/>
              </g>
            </g>
          </g>
          <g id="Group_18514" data-name="Group 18514" transform="translate(321.531 34.534)">
            <g id="Group_18512" data-name="Group 18512" transform="translate(0.078 19.026)">
              <path id="Path_9190" data-name="Path 9190" d="M.07,16.92V12.4H1.855a1.5,1.5,0,1,1,0,2.993H.4v1.53H.07Zm1.785-1.834a1.2,1.2,0,1,0,0-2.393H.4v2.395H1.859Zm3.163,1.885c-.553,0-1.126-.284-1.126-.877,0-.678.623-1.008,1.246-1.008a3.038,3.038,0,0,1,1.168.234v-.542c0-.623-.567-.743-1.091-.743a2.128,2.128,0,0,0-1.02.24l-.073-.259a2.514,2.514,0,0,1,1.134-.259c.685,0,1.33.252,1.33,1.025V16.2c0,.374-.022.587.4.536L7,16.953c-.541.084-.685-.1-.665-.592A1.423,1.423,0,0,1,5,16.973ZM6.3,15.57a2.415,2.415,0,0,0-1.128-.246c-.474,0-.975.221-.975.729,0,.477.427.623.869.623A1.188,1.188,0,0,0,6.3,15.9v-.361Zm2.792-1.8a1.4,1.4,0,0,1,.8.238l-.114.271a1.231,1.231,0,0,0-.724-.213.875.875,0,0,0-.929.848V16.92H7.814V14.526c0-.3-.008-.5-.408-.444l-.012-.28c.506-.084.712.1.712.467a1.07,1.07,0,0,1,.994-.5Z" transform="translate(-0.07 -12.172)"/>
              <path id="Path_9191" data-name="Path 9191" d="M7.573,13.9H8.82v.265H7.573v1.678c0,.645.206.911.618.935a2.324,2.324,0,0,0,.724-.148l.047.265a2.541,2.541,0,0,1-.791.15c-.592,0-.915-.355-.915-1.176V14.188l-.726-.02v-.245h.726l.026-.935h.29v.935Zm5.208,3.163a1.607,1.607,0,1,1,.006-3.212,1.556,1.556,0,0,1,1.661,1.6,1.581,1.581,0,0,1-1.667,1.612Zm0-.276a1.309,1.309,0,0,0,1.352-1.337,1.289,1.289,0,0,0-1.344-1.316,1.277,1.277,0,0,0-1.355,1.316,1.291,1.291,0,0,0,1.349,1.337Zm2.812-2.614h-.745V13.9h.745v-.561c0-1.115.9-1.271,1.745-.935l-.065.252c-.654-.277-1.363-.238-1.363.673v.555h1.226v.271H15.91V17h-.316v-2.84ZM18.7,12.794v-.312h3.36v.312H20.548V17h-.312V12.794ZM23.55,13.86a1.418,1.418,0,0,1,.8.238l-.112.271a1.231,1.231,0,0,0-.724-.213.875.875,0,0,0-.929.848v2h-.316V14.606c0-.3-.006-.5-.408-.444l-.016-.28c.506-.084.712.1.712.467a1.069,1.069,0,0,1,.994-.5Zm2.233,3.206c-.553,0-1.126-.284-1.126-.877,0-.678.6-1.008,1.246-1.008a3.022,3.022,0,0,1,1.165.234v-.542c0-.623-.567-.743-1.091-.743a2.128,2.128,0,0,0-1.02.24l-.072-.259a2.513,2.513,0,0,1,1.133-.259c.685,0,1.332.252,1.332,1.025V16.3c0,.374-.02.587.4.536l.012.213c-.539.084-.685-.1-.665-.592a1.421,1.421,0,0,1-1.329.612Zm1.284-1.4a2.425,2.425,0,0,0-1.126-.246c-.475,0-.975.221-.975.729,0,.477.428.623.869.623a1.216,1.216,0,0,0,1.246-.779V15.63Zm3.92,1.352V15.125a.941.941,0,0,0-1.034-.982,1,1,0,0,0-1.081,1.033v1.838h-.316V14.709c0-.5-.055-.6-.405-.55l-.006-.27c.48-.072.7.031.7.53a1.313,1.313,0,0,1,1.173-.569A1.192,1.192,0,0,1,31.3,15.122v1.891h-.316ZM32.4,16.15c.055.467.576.659,1.091.659s1.055-.187,1.055-.633c0-.576-.626-.576-1.048-.626-.634-.07-1.309-.181-1.309-.819s.633-.877,1.285-.877,1.284.265,1.284.819h-.29c0-.386-.494-.561-.989-.561-.48,0-1.033.174-1,.614,0,.478.692.514,1.059.569.665.09,1.332.148,1.312.885,0,.62-.647.888-1.363.888-.67,0-1.318-.257-1.39-.916H32.4Zm3.3-.685V12.493h.33v2.949a1.4,1.4,0,0,0,2.792,0V12.479h.322V15.45a1.553,1.553,0,0,1-1.714,1.6,1.569,1.569,0,0,1-1.734-1.6Zm7.073,1.55V15.123a.941.941,0,0,0-1.034-.981,1,1,0,0,0-1.08,1.033v1.838h-.318V14.707c0-.5-.051-.6-.4-.55l-.006-.27c.467-.072.706.031.706.53a1.309,1.309,0,0,1,1.172-.569,1.184,1.184,0,0,1,1.278,1.271v1.891h-.316Zm1.405-4.425a.225.225,0,0,1,.234.218.219.219,0,0,1-.227.218.231.231,0,0,1-.256-.218A.223.223,0,0,1,44.172,12.59Zm.156,4.425h-.343V13.9h.343V17Zm2.656.05a1.608,1.608,0,1,1,1.667-1.612A1.576,1.576,0,0,1,46.984,17.064Zm0-.276a1.306,1.306,0,0,0,1.349-1.337,1.35,1.35,0,1,0-1.348,1.337Zm5.043.226V15.123a.94.94,0,0,0-1.033-.981,1,1,0,0,0-1.081,1.033v1.838H49.6V14.707c0-.5-.053-.6-.405-.55l-.006-.27c.48-.072.7.031.7.53a1.31,1.31,0,0,1,1.173-.569A1.184,1.184,0,0,1,52.34,15.12v1.891h-.316Z" transform="translate(3.535 -12.252)"/>
            </g>
            <g id="Group_18513" data-name="Group 18513" transform="translate(0 0)">
              <path id="Path_9192" data-name="Path 9192" d="M7.9.04a6.9,6.9,0,0,1,7.011,5.076H12.452A4.64,4.64,0,0,0,7.914,2.34c-3.166,0-5.27,2.256-5.27,5.489a5.179,5.179,0,0,0,5.27,5.422,4.558,4.558,0,0,0,4.6-3.038h2.5c-.774,3.708-3.962,5.336-7.1,5.336-4.242,0-7.9-2.842-7.9-7.721A7.55,7.55,0,0,1,7.9.04m15.18,13.317v2.038H15.6V13.357h2.458V2.23H15.8V.211h7.084V2.23H20.627V13.357Zm11-5.944A3.494,3.494,0,0,1,36.6,10.927c0,2.711-1.9,4.468-4.914,4.468H24.76V.211h6.286c2.811,0,4.869,1.41,4.869,4.273A3.089,3.089,0,0,1,34.1,7.414h0ZM27.31,2.4V6.59h3.526c1.483,0,2.5-.564,2.524-2.025,0-1.5-1.019-2.147-2.524-2.147H27.295Zm0,6.232v4.518h4.206A2.287,2.287,0,0,0,34.041,10.9a2.242,2.242,0,0,0-.779-1.8,3.263,3.263,0,0,0-2.014-.48H27.315ZM45.1,13.34v2.038H37.621V13.357h2.457V2.23H37.819V.211H44.9V2.23H42.642V13.357Zm4.25-.24h6.663v2.278H46.761V.211H49.35Z" transform="translate(-0.02 -0.04)" fill="#00a2d1"/>
            </g>
          </g>
        </g>
      </g>
    </g>
  </g>
</svg>
