<svg xmlns="http://www.w3.org/2000/svg" width="159.499" height="40.486" viewBox="0 0 159.499 40.486">
  <g id="axis-bank-logo-vector" transform="translate(-25.8 -249.9)">
    <path id="Path_17183" data-name="Path 17183" d="M113.7,344.3l8.8,15.392H137.04L128.214,344.3Z" transform="translate(-64.533 -69.305)" fill="#ae295e"/>
    <path id="Path_17184" data-name="Path 17184" d="M49.113,249.9,25.8,290.386H40.288L56.4,262.421Z" fill="#ae295e"/>
    <path id="Path_17185" data-name="Path 17185" d="M207.19,300.524h-7.071l-1.834,3.35H195.6l8.188-14.674,7.9,14.674h-2.738Zm-1.01-1.967-2.446-4.679-2.579,4.679Z" transform="translate(-124.662 -28.853)" fill="#ae295e"/>
    <path id="Path_17186" data-name="Path 17186" d="M262.484,299.066l-4.546-6.566h2.844l3.137,4.679,3.323-4.679h2.844l-4.758,6.566,5,7.2h-2.791l-3.642-5.264-3.775,5.264H257.3Z" transform="translate(-169.96 -31.276)" fill="#ae295e"/>
    <rect id="Rectangle_20869" data-name="Rectangle 20869" width="2.472" height="13.77" transform="translate(102.599 261.224)" fill="#ae295e"/>
    <g id="Group_20284" data-name="Group 20284" transform="translate(107.384 260.267)">
      <path id="Path_17187" data-name="Path 17187" d="M342.855,293.713l-2.02,1.01a2.635,2.635,0,0,0-2.472-1.356,2.775,2.775,0,0,0-1.728.505,1.436,1.436,0,0,0-.691,1.2c0,.665.611,1.223,1.808,1.622l1.648.558a7.621,7.621,0,0,1,2.951,1.648,3.44,3.44,0,0,1,.93,2.419,3.864,3.864,0,0,1-1.515,3.137,5.841,5.841,0,0,1-3.8,1.249,5.6,5.6,0,0,1-3.536-1.063,4.723,4.723,0,0,1-1.728-3l2.525-.478a2.939,2.939,0,0,0,.611,1.675,2.825,2.825,0,0,0,2.26.9,2.992,2.992,0,0,0,1.941-.638,2.118,2.118,0,0,0,.771-1.648,2.031,2.031,0,0,0-.133-.718,1.948,1.948,0,0,0-.425-.611,3.349,3.349,0,0,0-.744-.532,10.356,10.356,0,0,0-1.063-.479l-1.595-.558c-2.26-.8-3.376-1.967-3.376-3.509a3.075,3.075,0,0,1,1.435-2.579,5.817,5.817,0,0,1,3.536-1.063,5.124,5.124,0,0,1,4.413,2.313" transform="translate(-332.7 -290.735)" fill="#ae295e"/>
      <path id="Path_17188" data-name="Path 17188" d="M409.3,306.27V292.5h2.472a14.084,14.084,0,0,1,2.658.213,3.787,3.787,0,0,1,2.765,2.02,3.581,3.581,0,0,1,.425,1.6,3.02,3.02,0,0,1-1.356,2.5,4.16,4.16,0,0,1,2.073,1.3,3.288,3.288,0,0,1,.771,2.153,3.36,3.36,0,0,1-1.356,2.711,4.967,4.967,0,0,1-1.861.957,13.5,13.5,0,0,1-2.818.266H409.3Zm2.472-7.842h.8a3.255,3.255,0,0,0,2.047-.532,1.855,1.855,0,0,0,.665-1.515,1.681,1.681,0,0,0-.665-1.462,3.127,3.127,0,0,0-1.941-.505H411.8v4.014Zm0,5.875h1.542a4.517,4.517,0,0,0,2.5-.558,1.784,1.784,0,0,0,.824-1.515,1.81,1.81,0,0,0-.8-1.489,4.841,4.841,0,0,0-2.791-.585h-1.276Z" transform="translate(-388.937 -291.543)" fill="#ae295e"/>
      <path id="Path_17189" data-name="Path 17189" d="M458.29,300.524h-7.071l-1.834,3.35H446.7l8.188-14.674,7.9,14.674h-2.738Zm-1.01-1.967-2.446-4.679-2.579,4.679Z" transform="translate(-416.395 -289.12)" fill="#ae295e"/>
      <path id="Path_17190" data-name="Path 17190" d="M513.2,303.627V288.9l12.042,10.527v-9.57h2.5v14.621l-12.042-10.5v9.65Z" transform="translate(-465.217 -288.9)" fill="#ae295e"/>
      <path id="Path_17191" data-name="Path 17191" d="M582,297.976l6.433-5.476h3.323l-7.47,6.22,7.523,7.55h-3.349l-5.955-6.141-.505.452v5.689h-2.5V292.5H582Z" transform="translate(-513.893 -291.543)" fill="#ae295e"/>
    </g>
  </g>
</svg>
