<svg xmlns="http://www.w3.org/2000/svg" width="150.645" height="30.35" viewBox="0 0 150.645 30.35">
  <g id="Group_17705" data-name="Group 17705" transform="translate(-40.355 -261.825)">
    <text id="Bank_of_Baroda" data-name="Bank of Baroda" transform="translate(93 282)" fill="#1f1f1f" font-size="13" font-family="Muli-Bold, Muli" font-weight="700"><tspan x="0" y="0">Bank of Baroda</tspan></text>
    <g id="Group_17334" data-name="Group 17334" transform="translate(-723.701 208.864)">
      <path id="Path_12846" data-name="Path 12846" d="M883.449,54.333h2.136q4.235,0,6.147,2.16a6.14,6.14,0,0,1,1.4,5.337,8.159,8.159,0,0,1-2.362,4.586,8.911,8.911,0,0,1-3.485,2.013,6.639,6.639,0,0,1,4.208,2.679,6.789,6.789,0,0,1,.71,4.776,9.737,9.737,0,0,1-1.743,4.215,10.074,10.074,0,0,1-3.38,2.959,10.652,10.652,0,0,1-3.6.982,40.849,40.849,0,0,1-4.125.414h-7.978q.742-.054,1.944-.2h1.552A40.821,40.821,0,0,0,879,83.841a10.653,10.653,0,0,0,3.6-.982,10.072,10.072,0,0,0,3.38-2.959,9.736,9.736,0,0,0,1.743-4.215,6.789,6.789,0,0,0-.71-4.776,6.64,6.64,0,0,0-4.208-2.679,8.908,8.908,0,0,0,3.485-2.013,8.158,8.158,0,0,0,2.362-4.586,6.14,6.14,0,0,0-1.4-5.337A6.458,6.458,0,0,0,883.449,54.333Z" transform="translate(-91.855 -1.174)" fill="#f36a10"/>
      <path id="Path_12847" data-name="Path 12847" d="M792.148,52.961h16.946q4.235,0,6.147,2.16a6.14,6.14,0,0,1,1.4,5.337,8.158,8.158,0,0,1-2.362,4.586,8.91,8.91,0,0,1-3.485,2.013,6.64,6.64,0,0,1,4.208,2.679,6.789,6.789,0,0,1,.71,4.776,9.733,9.733,0,0,1-1.743,4.215,10.073,10.073,0,0,1-3.38,2.959,10.652,10.652,0,0,1-3.6.982,40.825,40.825,0,0,1-4.125.414h-1.552q.659-.079,1.457-.183a10.653,10.653,0,0,0,3.6-.982,10.073,10.073,0,0,0,3.38-2.959,9.737,9.737,0,0,0,1.743-4.215,6.79,6.79,0,0,0-.71-4.776,6.639,6.639,0,0,0-4.208-2.679,8.913,8.913,0,0,0,3.485-2.013,8.161,8.161,0,0,0,2.362-4.586,6.14,6.14,0,0,0-1.4-5.337q-1.91-2.156-6.147-2.16H792.111l.038-.23ZM789.787,83.08a4.321,4.321,0,0,0,.161-.814h.016L807.5,76.01,789.846,80.8c0-.013-.006-.025-.009-.038l15.451-10.5-15.97,9.282-.024-.038L807.674,58.3l-19.6,19.718-.824,5.062Zm-1.657-5.427,13.376-23.213L788.8,73.518l-.673,4.135ZM790.1,65.566l3.612-10.413-3.124,7.415Z" transform="translate(-19.848 0)" fill="#fff"/>
      <path id="Path_12848" data-name="Path 12848" d="M770.116,83.634l17.536-6.256L770,82.168l-.009-.038,15.451-10.5-15.969,9.282-.024-.038,18.379-21.205L768.084,79.527l-.069-.042,13.643-23.676-15.384,23.1c-.058-.006-.116-.01-.175-.013l7.761-22.378-9.546,22.661a.093.093,0,0,1,0,.012c-.1.038-.23.085-.259.1l4.025-24.732h16.946q4.235,0,6.147,2.16a6.14,6.14,0,0,1,1.4,5.337,8.159,8.159,0,0,1-2.362,4.586,8.911,8.911,0,0,1-3.485,2.013,6.639,6.639,0,0,1,4.208,2.679,6.79,6.79,0,0,1,.71,4.776,9.736,9.736,0,0,1-1.743,4.215,10.073,10.073,0,0,1-3.38,2.959,10.651,10.651,0,0,1-3.6.982,40.847,40.847,0,0,1-4.125.414h-8.94a4.313,4.313,0,0,0,.237-1.045Z" transform="translate(0 -1.368)" fill="#f36a10"/>
    </g>
  </g>
</svg>
