<svg xmlns="http://www.w3.org/2000/svg" xmlns:xlink="http://www.w3.org/1999/xlink" width="140.661" height="64.221" viewBox="0 0 140.661 64.221">
  <defs>
    <clipPath id="clip-path">
      <rect id="Rectangle_1" data-name="Rectangle 1" width="140.661" height="64.221" fill="none"/>
    </clipPath>
  </defs>
  <g id="Group_1" data-name="Group 1" clip-path="url(#clip-path)">
    <path id="Path_1" data-name="Path 1" d="M321.062,179.5h-4.125a2.22,2.22,0,0,1-2.22-2.219v-4.125a2.22,2.22,0,0,1,2.22-2.219h4.125a2.219,2.219,0,0,1,2.219,2.219v4.125a2.219,2.219,0,0,1-2.219,2.219" transform="translate(-289.099 -157.019)" fill="#0063ae"/>
    <path id="Path_2" data-name="Path 2" d="M181.053,280.99h-4.64a2.494,2.494,0,0,1-2.5-2.495v-4.642a2.5,2.5,0,0,1,2.5-2.5h4.64a2.5,2.5,0,0,1,2.5,2.5v4.642a2.5,2.5,0,0,1-2.5,2.495" transform="translate(-159.759 -249.268)" fill="#551e72"/>
    <path id="Path_3" data-name="Path 3" d="M206.954,441.576H204.12a1.527,1.527,0,0,1-1.526-1.526v-2.832a1.527,1.527,0,0,1,1.526-1.529h2.834a1.526,1.526,0,0,1,1.526,1.529v2.832a1.526,1.526,0,0,1-1.526,1.526" transform="translate(-186.103 -400.223)" fill="#90247a"/>
    <path id="Path_4" data-name="Path 4" d="M291.476,539.508h-3.351a1.8,1.8,0,0,1-1.8-1.8v-3.352a1.8,1.8,0,0,1,1.8-1.8h3.351a1.8,1.8,0,0,1,1.8,1.8v3.352a1.8,1.8,0,0,1-1.8,1.8" transform="translate(-263.016 -489.201)" fill="#c71f76"/>
    <path id="Path_5" data-name="Path 5" d="M460.207,242.5h-2.322a1.248,1.248,0,0,1-1.247-1.249v-2.318a1.249,1.249,0,0,1,1.247-1.25h2.322a1.249,1.249,0,0,1,1.246,1.25v2.318a1.248,1.248,0,0,1-1.246,1.249" transform="translate(-419.466 -218.334)" fill="#c71f76"/>
    <path id="Path_6" data-name="Path 6" d="M1109.469,285.7a1.338,1.338,0,1,0-1.341-1.337,1.335,1.335,0,0,0,1.341,1.337" transform="translate(-1017.925 -259.983)" fill="#004284"/>
    <path id="Path_7" data-name="Path 7" d="M501.89,349.371a1.064,1.064,0,0,1-.906.465,1.3,1.3,0,0,1-.62-.155,1.174,1.174,0,0,1-.492-.956.933.933,0,0,1,.156-.517l3.1-4.888-3.1-4.888a1.019,1.019,0,0,1-.156-.544,1.063,1.063,0,0,1,.518-.931,1.148,1.148,0,0,1,1.5.312l2.534,4.008,2.559-4.008a1.149,1.149,0,0,1,1.5-.312,1.061,1.061,0,0,1,.517.931,1.018,1.018,0,0,1-.155.544l-3.1,4.888,3.1,4.888a.932.932,0,0,1,.155.517,1.173,1.173,0,0,1-.491.956,1.3,1.3,0,0,1-.62.155,1.064,1.064,0,0,1-.906-.465l-2.559-3.982" transform="translate(-459.181 -309.386)" fill="#004284"/>
    <path id="Path_8" data-name="Path 8" d="M635.784,336.286a6.673,6.673,0,1,1,0,9.931v5.715a1.112,1.112,0,0,1-1.111,1.061,1.125,1.125,0,0,1-1.087-1.061V335.743a1.125,1.125,0,0,1,1.087-1.061,1.112,1.112,0,0,1,1.111,1.061m4.448,1.061a4.461,4.461,0,1,0,4.473,4.473,4.42,4.42,0,0,0-4.473-4.473" transform="translate(-582.011 -307.344)" fill="#004284"/>
    <path id="Path_9" data-name="Path 9" d="M1005.323,340.06v6.7a1.124,1.124,0,0,1-1.087,1.06,1.11,1.11,0,0,1-1.111-1.06V335.743a1.111,1.111,0,0,1,1.111-1.061,1.138,1.138,0,0,1,1.087,1.009,5.618,5.618,0,0,1,3.336-1.113,1.176,1.176,0,0,1,1.215,1.087,1.2,1.2,0,0,1-1.215,1.137c-1.732.052-3.336.672-3.336,3.258" transform="translate(-921.47 -307.343)" fill="#004284"/>
    <path id="Path_10" data-name="Path 10" d="M1112.247,335.849a1.111,1.111,0,0,0-1.111,1.061v11.017a1.11,1.11,0,0,0,1.111,1.06,1.124,1.124,0,0,0,1.087-1.06V336.91a1.124,1.124,0,0,0-1.087-1.061" transform="translate(-1020.688 -308.511)" fill="#004284"/>
    <path id="Path_11" data-name="Path 11" d="M1171.533,335.742a1.109,1.109,0,0,1,1.111-1.06,1.123,1.123,0,0,1,1.086,1.06V346.76a1.123,1.123,0,0,1-1.086,1.06,1.109,1.109,0,0,1-1.111-1.06v-.543a6.673,6.673,0,1,1,0-9.931m-4.45,9.414a4.461,4.461,0,1,0-4.473-4.474,4.423,4.423,0,0,0,4.473,4.474" transform="translate(-1065.929 -307.344)" fill="#004284"/>
    <path id="Path_12" data-name="Path 12" d="M1359.449,340.191a3.525,3.525,0,0,0-3.441-3.439c-1.785,0-3.44.725-3.44,3.31v6.7a1.122,1.122,0,0,1-1.086,1.06,1.11,1.11,0,0,1-1.111-1.06V335.742a1.11,1.11,0,0,1,1.111-1.06,1.136,1.136,0,0,1,1.086,1.008,5.708,5.708,0,0,1,9.078,4.19v6.88a1.122,1.122,0,0,1-1.086,1.06,1.11,1.11,0,0,1-1.111-1.06" transform="translate(-1240.449 -307.344)" fill="#004284"/>
    <path id="Path_13" data-name="Path 13" d="M341.782,340.864a6.677,6.677,0,1,0-6.645,7.059,6.535,6.535,0,0,0,4.629-1.887,1.1,1.1,0,0,0-.725-1.94,1.313,1.313,0,0,0-.879.439,4.077,4.077,0,0,1-3.026,1.165,4.431,4.431,0,0,1-4.423-3.645H340.7l.022,0h.03c.019,0,.037-.008.056-.011a.784.784,0,0,0,.113-.022,1.193,1.193,0,0,0,.865-1.156m-6.645-4.087a4.418,4.418,0,0,1,4.24,3.081h-8.508a4.43,4.43,0,0,1,4.268-3.081" transform="translate(-301.703 -307.344)" fill="#004284"/>
    <path id="Path_14" data-name="Path 14" d="M829.647,340.864A6.679,6.679,0,1,0,823,347.923a6.533,6.533,0,0,0,4.629-1.887,1.1,1.1,0,0,0-.724-1.94,1.314,1.314,0,0,0-.88.439A4.074,4.074,0,0,1,823,345.7a4.432,4.432,0,0,1-4.423-3.645h9.966l.02,0h.048c.03,0,.06-.012.088-.018s.031,0,.046-.008a1.19,1.19,0,0,0,.9-1.163M823,336.777a4.418,4.418,0,0,1,4.24,3.081h-8.508A4.43,4.43,0,0,1,823,336.777" transform="translate(-749.852 -307.344)" fill="#004284"/>
    <path id="Path_15" data-name="Path 15" d="M1508.744,470.15a.18.18,0,0,1-.182-.177v-1.866h-.417a.18.18,0,0,1-.177-.184.176.176,0,0,1,.177-.182h1.207a.176.176,0,0,1,.177.182.181.181,0,0,1-.177.184h-.425v1.866a.175.175,0,0,1-.182.177" transform="translate(-1385.217 -429.666)" fill="#004284"/>
    <path id="Path_16" data-name="Path 16" d="M1532,470.015a.191.191,0,0,1-.181-.141l-.52-1.526v1.488a.176.176,0,0,1-.182.177.18.18,0,0,1-.182-.177v-1.97a.281.281,0,0,1,.275-.275.285.285,0,0,1,.263.2l.528,1.54.521-1.54a.287.287,0,0,1,.267-.2.281.281,0,0,1,.275.275v1.97a.176.176,0,0,1-.182.177.18.18,0,0,1-.182-.177v-1.484c-.082.237-.205.6-.306.9-.207.613-.208.616-.211.622a.2.2,0,0,1-.181.141" transform="translate(-1406.311 -429.529)" fill="#004284"/>
  </g>
</svg>
