<svg xmlns="http://www.w3.org/2000/svg" width="113.9" height="32.255" viewBox="0 0 113.9 32.255">
  <g id="Group_1304" data-name="Group 1304" transform="translate(-42.393 -39.874)">
    <path id="Path_1579" data-name="Path 1579" d="M63.565,62.851H53.03v-4.64H63.565Zm0-4.64V53.572H74.2v-13.7H42.393V62.851H53.03v4.641H42.393v4.637H74.2V58.211Z" transform="translate(0)" fill="#e3701e" fill-rule="evenodd"/>
    <g id="Group_1302" data-name="Group 1302" transform="translate(78.962 39.874)">
      <path id="Path_1580" data-name="Path 1580" d="M83.209,39.874h9.475v2.491H86.173v3.113h5.642v2.3H86.173v5.568H83.209Z" transform="translate(-83.209 -39.874)" fill="#e3701e"/>
      <path id="Path_1581" data-name="Path 1581" d="M104.536,53.78h-2.548V52.422h-.057a3.48,3.48,0,0,1-2.982,1.623c-2.849,0-3.567-1.6-3.567-4.02v-6h2.68v5.511c0,1.6.471,2.4,1.717,2.4,1.453,0,2.077-.811,2.077-2.793V44.023h2.681Z" transform="translate(-84.476 -40.306)" fill="#e3701e"/>
      <path id="Path_1582" data-name="Path 1582" d="M107.957,39.874h2.679V53.348h-2.679Z" transform="translate(-85.784 -39.874)" fill="#e3701e"/>
      <path id="Path_1583" data-name="Path 1583" d="M113.39,39.874h2.678V53.348H113.39Z" transform="translate(-86.349 -39.874)" fill="#e3701e"/>
      <path id="Path_1584" data-name="Path 1584" d="M120.892,49.521c.074,1.7.906,2.474,2.4,2.474A2.211,2.211,0,0,0,125.4,50.73h2.359a4.391,4.391,0,0,1-4.569,3.284,4.765,4.765,0,0,1-4.981-5.133,4.893,4.893,0,0,1,4.981-5.152c3.321,0,4.928,2.792,4.739,5.792Zm4.361-1.7c-.247-1.36-.831-2.078-2.134-2.078a2.112,2.112,0,0,0-2.227,2.078Z" transform="translate(-86.851 -40.275)" fill="#e3701e"/>
      <path id="Path_1585" data-name="Path 1585" d="M130.827,43.992h2.55V45.8h.037a3.452,3.452,0,0,1,3.113-2.075,1.991,1.991,0,0,1,.586.094v2.491a4.886,4.886,0,0,0-.96-.094c-1.965,0-2.644,1.417-2.644,3.133v4.4h-2.681Z" transform="translate(-88.164 -40.275)" fill="#e3701e"/>
      <path id="Path_1586" data-name="Path 1586" d="M142.314,43.683h1.961v1.793h-1.961v4.831c0,.906.227,1.133,1.131,1.133a4.072,4.072,0,0,0,.831-.077v2.1a10.3,10.3,0,0,1-1.567.1c-1.642,0-3.075-.379-3.075-2.322V45.476H138.01V43.683h1.623V40.758h2.681Z" transform="translate(-88.911 -39.966)" fill="#e3701e"/>
      <path id="Path_1587" data-name="Path 1587" d="M151.138,43.729a4.79,4.79,0,0,1,5.058,5.152,5.049,5.049,0,1,1-10.1,0A4.784,4.784,0,0,1,151.138,43.729Zm0,8.266c1.829,0,2.377-1.567,2.377-3.114,0-1.567-.548-3.134-2.377-3.134-1.813,0-2.361,1.567-2.361,3.134C148.777,50.428,149.325,52,151.138,52Z" transform="translate(-89.752 -40.275)" fill="#e3701e"/>
      <path id="Path_1588" data-name="Path 1588" d="M159.3,43.992h2.549v1.36h.056a3.478,3.478,0,0,1,2.981-1.623c2.85,0,3.568,1.6,3.568,4.02v6h-2.68v-5.51c0-1.6-.472-2.4-1.718-2.4-1.452,0-2.076.811-2.076,2.793v5.114H159.3Z" transform="translate(-91.127 -40.275)" fill="#e3701e"/>
    </g>
    <g id="Group_1303" data-name="Group 1303" transform="translate(78.962 58.389)">
      <path id="Path_1589" data-name="Path 1589" d="M83.209,60.539h2.964V74.014H83.209Z" transform="translate(-83.209 -60.539)" fill="#e3701e"/>
      <path id="Path_1590" data-name="Path 1590" d="M89.106,64.659h2.548v1.358h.055a3.487,3.487,0,0,1,2.984-1.623c2.849,0,3.566,1.6,3.566,4.019v6h-2.68V68.906c0-1.6-.471-2.4-1.717-2.4-1.453,0-2.078.811-2.078,2.792v5.114H89.106Z" transform="translate(-83.823 -60.94)" fill="#e3701e"/>
      <path id="Path_1591" data-name="Path 1591" d="M108.511,72.77h-.038a3.242,3.242,0,0,1-2.963,1.509c-2.944,0-4.379-2.528-4.379-5.228,0-2.623,1.453-5.058,4.323-5.058a3.357,3.357,0,0,1,2.887,1.453h.038V60.539h2.68V74.014h-2.547Zm-2.339-6.757c-1.756,0-2.361,1.51-2.361,3.113,0,1.529.7,3.133,2.361,3.133,1.773,0,2.3-1.547,2.3-3.152C108.473,67.522,107.907,66.012,106.172,66.012Z" transform="translate(-85.074 -60.539)" fill="#e3701e"/>
      <path id="Path_1592" data-name="Path 1592" d="M117.226,62.748h-2.679V60.539h2.679Zm-2.679,1.511h2.679v9.756h-2.679Z" transform="translate(-86.47 -60.539)" fill="#e3701e"/>
      <path id="Path_1593" data-name="Path 1593" d="M119.737,67.66c.151-2.51,2.4-3.266,4.586-3.266,1.943,0,4.284.435,4.284,2.775v5.076a5.028,5.028,0,0,0,.338,2.17h-2.717a4.032,4.032,0,0,1-.188-.943,4.473,4.473,0,0,1-3.284,1.208c-1.85,0-3.322-.924-3.322-2.924,0-2.209,1.662-2.736,3.322-2.963,1.642-.246,3.172-.19,3.172-1.284,0-1.151-.793-1.321-1.738-1.321-1.018,0-1.68.415-1.775,1.472Zm6.191,1.98a5.324,5.324,0,0,1-2.226.567c-.831.169-1.587.453-1.587,1.434,0,1,.773,1.245,1.642,1.245a1.993,1.993,0,0,0,2.171-2.245Z" transform="translate(-86.978 -60.94)" fill="#e3701e"/>
    </g>
  </g>
</svg>
