<svg xmlns="http://www.w3.org/2000/svg" width="167.906" height="37.965" viewBox="0 0 167.906 37.965">
  <g id="Group_20285" data-name="Group 20285" transform="translate(-56.498 -213.586)">
    <path id="Path_17192" data-name="Path 17192" d="M67.5,219.586H235.4V257.55H67.5V219.586Z" transform="translate(-11.002 -6)" fill="#004c8f"/>
    <rect id="Rectangle_20871" data-name="Rectangle 20871" width="130.918" height="37.965" transform="translate(93.486 213.586)" fill="#004c8f"/>
    <path id="Path_17193" data-name="Path 17193" d="M147.679,248V235.609h4.076v4.181h3.819v-4.181h4.082V248h-4.082v-4.806h-3.819V248h-4.076" transform="translate(-45.867 -9.235)" fill="#fff"/>
    <path id="Path_17194" data-name="Path 17194" d="M185.211,238.687h1.057a4.379,4.379,0,0,1,1.673.237,1.591,1.591,0,0,1,.665.543,3.085,3.085,0,0,1,.411.974,5.6,5.6,0,0,1,.142,1.264,4.562,4.562,0,0,1-.313,1.821,2.1,2.1,0,0,1-.892,1.06,3.539,3.539,0,0,1-1.715.326l-1.027.006Zm1.574,9.31h0a9.479,9.479,0,0,0,2.41-.254,5.351,5.351,0,0,0,1.6-.659,4.642,4.642,0,0,0,1.136-1.1,6.377,6.377,0,0,0,.875-1.8,7.846,7.846,0,0,0,.356-2.475,7.118,7.118,0,0,0-.787-3.477,4.581,4.581,0,0,0-2.183-2.025,8.223,8.223,0,0,0-3.3-.6h-5.666V248h5.561" transform="translate(-64.974 -9.235)" fill="#fff"/>
    <path id="Path_17195" data-name="Path 17195" d="M213.287,248V235.609h9.665v3.055H217.31v1.985h4.513v2.973H217.31V248h-4.023" transform="translate(-83.237 -9.235)" fill="#fff"/>
    <path id="Path_17196" data-name="Path 17196" d="M251,239.907h-3.848a2.286,2.286,0,0,0-.668-1.451,2.024,2.024,0,0,0-1.426-.51,2.165,2.165,0,0,0-1.758.833,4.305,4.305,0,0,0-.681,2.71,5.246,5.246,0,0,0,.29,1.965,2.166,2.166,0,0,0,.807,1.007,2.364,2.364,0,0,0,1.3.323,2.02,2.02,0,0,0,1.491-.52,2.292,2.292,0,0,0,.665-1.524h3.918a6.95,6.95,0,0,1-.464,1.942,5,5,0,0,1-1.113,1.567,5.339,5.339,0,0,1-1.87,1.222,6.76,6.76,0,0,1-2.508.421,7.932,7.932,0,0,1-2.614-.411,5.724,5.724,0,0,1-2.022-1.188,5.8,5.8,0,0,1-1.284-1.771,7.114,7.114,0,0,1-.648-3.1,7.591,7.591,0,0,1,.467-2.689,6.033,6.033,0,0,1,1.294-2.091,5.593,5.593,0,0,1,1.827-1.268,7.1,7.1,0,0,1,2.821-.536,7.83,7.83,0,0,1,2.528.4,4.8,4.8,0,0,1,1.936,1.172,5.4,5.4,0,0,1,1.175,1.784,5.942,5.942,0,0,1,.389,1.715" transform="translate(-97.63 -8.795)" fill="#fff"/>
    <path id="Path_17197" data-name="Path 17197" d="M290.849,238.4a5.063,5.063,0,0,1,1.132.079,1.14,1.14,0,0,1,.576.382,1.015,1.015,0,0,1,.221.646.961.961,0,0,1-.365.773,2.145,2.145,0,0,1-1.324.3h-1.534V238.4Zm1.024,9.6h0a11.019,11.019,0,0,0,2.041-.132,6.357,6.357,0,0,0,1.208-.428,3.478,3.478,0,0,0,.915-.625,2.9,2.9,0,0,0,.721-1.076,3.9,3.9,0,0,0,.257-1.442,3.005,3.005,0,0,0-.56-1.863,2.763,2.763,0,0,0-1.514-1.017,3.02,3.02,0,0,0,1.613-2.62,2.782,2.782,0,0,0-1.412-2.519,6.7,6.7,0,0,0-3.384-.665h-6.146V248Zm-.656-5.188h0a2.78,2.78,0,0,1,1.593.306,1.037,1.037,0,0,1,.375.849,1.052,1.052,0,0,1-.4.879,2.6,2.6,0,0,1-1.57.313h-1.663v-2.348h1.663" transform="translate(-124.431 -9.235)" fill="#fff"/>
    <path id="Path_17198" data-name="Path 17198" d="M322.6,243.833h-2.591l1.277-4.506ZM318.79,248h0l.471-1.626h4.056L323.79,248h4.052L323.4,235.61H319.26L314.813,248h3.977" transform="translate(-141.064 -9.236)" fill="#fff"/>
    <path id="Path_17199" data-name="Path 17199" d="M349.063,248V235.609h3.8l4.283,6.634v-6.634h3.9V248h-3.878l-4.191-6.469V248h-3.914" transform="translate(-160.571 -9.235)" fill="#fff"/>
    <path id="Path_17200" data-name="Path 17200" d="M383.213,248V235.609h3.947v4.085l3.684-4.085h4.787l-4.54,4.665L396.1,248h-4.879l-2.979-4.935-1.083,1.07V248h-3.947" transform="translate(-180.023 -9.235)" fill="#fff"/>
    <rect id="Rectangle_20872" data-name="Rectangle 20872" width="37.965" height="37.964" transform="translate(56.498 213.586)" fill="#ed232a"/>
    <rect id="Rectangle_20873" data-name="Rectangle 20873" width="24.68" height="24.68" transform="translate(63.145 220.23)" fill="#fff"/>
    <rect id="Rectangle_20874" data-name="Rectangle 20874" width="3.795" height="37.964" transform="translate(73.583 213.586)" fill="#fff"/>
    <rect id="Rectangle_20875" data-name="Rectangle 20875" width="37.965" height="3.795" transform="translate(56.498 230.676)" fill="#fff"/>
    <rect id="Rectangle_20876" data-name="Rectangle 20876" width="11.39" height="11.39" transform="translate(69.789 226.876)" fill="#004c8f"/>
  </g>
</svg>
