<svg xmlns="http://www.w3.org/2000/svg" width="163.115" height="50.448" viewBox="0 0 163.115 50.448">
  <g id="Group_20283" data-name="Group 20283" transform="translate(-1861.505 -602.681)">
    <path id="Path_17154" data-name="Path 17154" d="M1897.633,630.765h30.108v30.113h-30.109l0-30.113Zm32.641-2.535H1895.1v35.181h35.178V628.23Z" transform="translate(-17.971 -17.916)" fill="#fff"/>
    <path id="Path_17155" data-name="Path 17155" d="M1914.718,647.857h23.453v5.864h-23.453v-5.864Zm0,17.59h5.862v5.864h-5.862v-5.864Z" transform="translate(-31.73 -31.678)" fill="#fff"/>
    <path id="Path_17156" data-name="Path 17156" d="M1914.718,656.6h14.635v5.881h-14.635V656.6Zm38.1-8.79h2.43v11.768h-2.43V647.811Z" transform="translate(-31.73 -31.646)" fill="#070707"/>
    <path id="Path_17157" data-name="Path 17157" d="M2060.436,649.829v7.731h2.151c2.362,0,2.906-.9,2.906-3.907,0-3.2-.346-3.824-3.17-3.824Zm2.48-2.018c3.71,0,5.038,1.608,5.038,5.827,0,4.053-1.41,5.941-5.055,5.941h-4.89V647.811Z" transform="translate(-132.208 -31.646)" fill="#fff"/>
    <path id="Path_17158" data-name="Path 17158" d="M2097.615,647.811h8.271v2.018h-5.844v2.758h5.106v2.018h-5.106v4.974h-2.427V647.811Z" transform="translate(-159.981 -31.646)" fill="#fff"/>
    <path id="Path_17159" data-name="Path 17159" d="M2138.785,655.092c-.166,2.3-1.443,4.137-5.071,4.137-3.546,0-5.335-1.758-5.335-6.091,0-4.234,1.692-6.2,5.349-6.2,2.89,0,4.664,1.231,5.058,3.923h-2.431c-.277-1.051-.621-1.855-2.627-1.855s-2.886,1.2-2.886,4.35c0,2.444.656,3.808,2.922,3.808,1.625,0,2.4-.509,2.592-2.069Z" transform="translate(-181.553 -31.032)" fill="#fff"/>
    <path id="Path_17160" data-name="Path 17160" d="M2184.848,647.811h8.274v2.018h-5.844v2.758h5.1v2.018h-5.1v4.974h-2.43V647.811Zm9.848,0h2.429v11.768H2194.7V647.811Z" transform="translate(-221.15 -31.646)" fill="#fff"/>
    <path id="Path_17161" data-name="Path 17161" d="M2236.007,649.829v3.1h2.184c1.953,0,2.608-.2,2.608-1.674,0-1.182-.409-1.429-2.46-1.429Zm-2.428-2.018h5.1c2.446,0,4.58.066,4.58,3.529,0,2.3-.952,3.151-2.3,3.461l3.069,4.778h-2.955l-2.888-4.628h-2.184v4.628h-2.428V647.811Z" transform="translate(-255.321 -31.646)" fill="#fff"/>
    <path id="Path_17162" data-name="Path 17162" d="M2273.148,655.268c.1,1.231.279,1.889,2.611,1.889,1.231,0,2.134-.181,2.134-1.38,0-.722-.329-1.117-1.362-1.4l-2.858-.771c-1.427-.378-2.691-1.068-2.691-3.218,0-1.691.771-3.464,4.416-3.464,3.462,0,4.547,1.61,4.595,3.71h-2.429c-.115-.985-.165-1.642-2.264-1.642-1.231,0-1.853.23-1.853,1.165,0,.855.507,1.1,1.2,1.281l2.626.707c1.674.443,3.086,1.1,3.086,3.445,0,3.316-2.839,3.628-4.6,3.628-3.839,0-4.891-1.509-5.038-3.955Z" transform="translate(-281.365 -31.028)" fill="#fff"/>
    <path id="Path_17163" data-name="Path 17163" d="M2308.432,649.88h-3.545v-2.069h9.5v2.069h-3.53v9.7h-2.429v-9.7Z" transform="translate(-305.324 -31.646)" fill="#fff"/>
    <path id="Path_17164" data-name="Path 17164" d="M2044.665,713.343v3.1h2.182c2.216,0,2.71-.165,2.71-1.509,0-1.414-.458-1.593-2.233-1.593Zm0-4.629v2.61h2.723c1.463,0,1.823-.181,1.823-1.395,0-.986-.23-1.215-2.281-1.215Zm3.315-2.018c2.315,0,3.577.82,3.577,3.052,0,1.822-.836,2.2-1.344,2.412a2.76,2.76,0,0,1,1.805,2.906c0,1.938-.887,3.4-4.135,3.4h-5.648V706.7Z" transform="translate(-121.148 -72.937)" fill="#fff"/>
    <path id="Path_17165" data-name="Path 17165" d="M2084.851,721.292l-1.593.262c-.869.133-1.494.313-1.494,1.233,0,.656.327,1.017,1.346,1.017,1.4,0,1.741-.756,1.741-1.822v-.69Zm-5.105-2.035c.115-2.232,1.4-2.841,3.726-2.841,2.4,0,3.66.641,3.66,2.528v6.336h-2.182v-.656a3.6,3.6,0,0,1-2.658.87c-2.069,0-2.806-.918-2.806-2.4a2.672,2.672,0,0,1,2.509-2.841l2.857-.443v-.526c0-.8-.411-1.034-1.479-1.034-1.133,0-1.362.264-1.477,1Z" transform="translate(-147.267 -79.754)" fill="#fff"/>
    <path id="Path_17166" data-name="Path 17166" d="M2117.407,720.307c0-1.33-.017-2.02-1.478-2.02-1.626,0-1.806.855-1.806,2.889v4.1h-2.28v-8.65h2.165v1.117a3.071,3.071,0,0,1,2.888-1.33c2.217,0,2.79.952,2.79,3.578v5.285h-2.279v-4.973Z" transform="translate(-169.957 -79.754)" fill="#fff"/>
    <path id="Path_17167" data-name="Path 17167" d="M2145.459,706.691h2.281v6.321l2.808-3.2h2.805l-3.021,3.282,3.135,5.367h-2.642l-2.1-3.759-.985,1.017v2.741h-2.281V706.691Z" transform="translate(-193.53 -72.934)" fill="#fff"/>
    <path id="Path_17168" data-name="Path 17168" d="M1869.468,653.129h163.115V602.681H1869.468v50.448Z" transform="translate(-7.963 0)" fill="#890c1c"/>
    <path id="Path_17169" data-name="Path 17169" d="M1897.633,630.765h30.108v30.113h-30.109l0-30.113Zm32.641-2.535H1895.1v35.181h35.178V628.23Z" transform="translate(-17.971 -17.916)" fill="#fff"/>
    <path id="Path_17170" data-name="Path 17170" d="M1914.718,647.857h23.453v5.864h-23.453v-5.864Zm0,17.59h5.862v5.864h-5.862v-5.864Z" transform="translate(-31.73 -31.678)" fill="#fff"/>
    <path id="Path_17171" data-name="Path 17171" d="M1914.718,656.6h14.635v5.881h-14.635V656.6Zm38.1-8.79h2.43v11.768h-2.43V647.811Z" transform="translate(-31.73 -31.646)" fill="#fff"/>
    <path id="Path_17172" data-name="Path 17172" d="M2060.436,649.829v7.731h2.151c2.362,0,2.906-.9,2.906-3.907,0-3.2-.346-3.824-3.17-3.824Zm2.48-2.018c3.71,0,5.038,1.608,5.038,5.827,0,4.053-1.41,5.941-5.055,5.941h-4.89V647.811Z" transform="translate(-132.208 -31.646)" fill="#fff"/>
    <path id="Path_17173" data-name="Path 17173" d="M2097.615,647.811h8.271v2.018h-5.844v2.758h5.106v2.018h-5.106v4.974h-2.427V647.811Z" transform="translate(-159.981 -31.646)" fill="#fff"/>
    <path id="Path_17174" data-name="Path 17174" d="M2138.785,655.092c-.166,2.3-1.443,4.137-5.071,4.137-3.546,0-5.335-1.758-5.335-6.091,0-4.234,1.692-6.2,5.349-6.2,2.89,0,4.664,1.231,5.058,3.923h-2.431c-.277-1.051-.621-1.855-2.627-1.855s-2.886,1.2-2.886,4.35c0,2.444.656,3.808,2.922,3.808,1.625,0,2.4-.509,2.592-2.069Z" transform="translate(-181.553 -31.032)" fill="#fff"/>
    <path id="Path_17175" data-name="Path 17175" d="M2184.848,647.811h8.274v2.018h-5.844v2.758h5.1v2.018h-5.1v4.974h-2.43V647.811Zm9.848,0h2.429v11.768H2194.7V647.811Z" transform="translate(-221.15 -31.646)" fill="#fff"/>
    <path id="Path_17176" data-name="Path 17176" d="M2236.007,649.829v3.1h2.184c1.953,0,2.608-.2,2.608-1.674,0-1.182-.409-1.429-2.46-1.429Zm-2.428-2.018h5.1c2.446,0,4.58.066,4.58,3.529,0,2.3-.952,3.151-2.3,3.461l3.069,4.778h-2.955l-2.888-4.628h-2.184v4.628h-2.428V647.811Z" transform="translate(-255.321 -31.646)" fill="#fff"/>
    <path id="Path_17177" data-name="Path 17177" d="M2273.148,655.268c.1,1.231.279,1.889,2.611,1.889,1.231,0,2.134-.181,2.134-1.38,0-.722-.329-1.117-1.362-1.4l-2.858-.771c-1.427-.378-2.691-1.068-2.691-3.218,0-1.691.771-3.464,4.416-3.464,3.462,0,4.547,1.61,4.595,3.71h-2.429c-.115-.985-.165-1.642-2.264-1.642-1.231,0-1.853.23-1.853,1.165,0,.855.507,1.1,1.2,1.281l2.626.707c1.674.443,3.086,1.1,3.086,3.445,0,3.316-2.839,3.628-4.6,3.628-3.839,0-4.891-1.509-5.038-3.955Z" transform="translate(-281.365 -31.028)" fill="#fff"/>
    <path id="Path_17178" data-name="Path 17178" d="M2308.432,649.88h-3.545v-2.069h9.5v2.069h-3.53v9.7h-2.429v-9.7Z" transform="translate(-305.324 -31.646)" fill="#fff"/>
    <path id="Path_17179" data-name="Path 17179" d="M2044.665,713.343v3.1h2.182c2.216,0,2.71-.165,2.71-1.509,0-1.414-.458-1.593-2.233-1.593Zm0-4.629v2.61h2.723c1.463,0,1.823-.181,1.823-1.395,0-.986-.23-1.215-2.281-1.215Zm3.315-2.018c2.315,0,3.577.82,3.577,3.052,0,1.822-.836,2.2-1.344,2.412a2.76,2.76,0,0,1,1.805,2.906c0,1.938-.887,3.4-4.135,3.4h-5.648V706.7Z" transform="translate(-121.148 -72.937)" fill="#fff"/>
    <path id="Path_17180" data-name="Path 17180" d="M2084.851,721.292l-1.593.262c-.869.133-1.494.313-1.494,1.233,0,.656.327,1.017,1.346,1.017,1.4,0,1.741-.756,1.741-1.822v-.69Zm-5.105-2.035c.115-2.232,1.4-2.841,3.726-2.841,2.4,0,3.66.641,3.66,2.528v6.336h-2.182v-.656a3.6,3.6,0,0,1-2.658.87c-2.069,0-2.806-.918-2.806-2.4a2.672,2.672,0,0,1,2.509-2.841l2.857-.443v-.526c0-.8-.411-1.034-1.479-1.034-1.133,0-1.362.264-1.477,1Z" transform="translate(-147.267 -79.754)" fill="#fff"/>
    <path id="Path_17181" data-name="Path 17181" d="M2117.407,720.307c0-1.33-.017-2.02-1.478-2.02-1.626,0-1.806.855-1.806,2.889v4.1h-2.28v-8.65h2.165v1.117a3.071,3.071,0,0,1,2.888-1.33c2.217,0,2.79.952,2.79,3.578v5.285h-2.279v-4.973Z" transform="translate(-169.957 -79.754)" fill="#fff"/>
    <path id="Path_17182" data-name="Path 17182" d="M2145.459,706.691h2.281v6.321l2.808-3.2h2.805l-3.021,3.282,3.135,5.367h-2.642l-2.1-3.759-.985,1.017v2.741h-2.281V706.691Z" transform="translate(-193.53 -72.934)" fill="#fff"/>
  </g>
</svg>
