<svg xmlns="http://www.w3.org/2000/svg" width="85.498" height="42.437" viewBox="0 0 85.498 42.437">
  <g id="Group_2" data-name="Group 2" transform="translate(-2049.763 -3054)">
    <rect id="Rectangle_17" data-name="Rectangle 17" width="85.424" height="30.152" transform="translate(2049.837 3054)" fill="#890c1c"/>
    <path id="Path_255" data-name="Path 255" d="M73.235,13.147h-20.1v20.1h20.1ZM54.585,14.6h17.2V31.8h-17.2Z" transform="translate(2001.738 3045.878)" fill="#fff"/>
    <rect id="Rectangle_18" data-name="Rectangle 18" width="13.4" height="3.35" transform="translate(2058.224 3062.375)" fill="#fff"/>
    <rect id="Rectangle_19" data-name="Rectangle 19" width="3.35" height="3.35" transform="translate(2058.224 3072.426)" fill="#fff"/>
    <rect id="Rectangle_20" data-name="Rectangle 20" width="8.362" height="3.36" transform="translate(2058.224 3067.39)" fill="#fff"/>
    <rect id="Rectangle_21" data-name="Rectangle 21" width="1.388" height="6.724" transform="translate(2079.994 3062.368)" fill="#fff"/>
    <path id="Path_256" data-name="Path 256" d="M128.706,21.894c2.12,0,2.879.919,2.879,3.329,0,2.317-.806,3.4-2.888,3.4H125.9V21.894Zm-1.416,1.153v4.417h1.229c1.35,0,1.66-.515,1.66-2.232,0-1.829-.2-2.185-1.81-2.185Z" transform="translate(1956.783 3040.474)" fill="#fff"/>
    <path id="Path_257" data-name="Path 257" d="M143.593,21.894h4.726v1.153h-3.339v1.575H147.9v1.153h-2.917v2.842h-1.388Z" transform="translate(1945.853 3040.474)" fill="#fff"/>
    <path id="Path_258" data-name="Path 258" d="M163.28,26.162c-.094,1.313-.825,2.363-2.9,2.363-2.025,0-3.047-1-3.047-3.479,0-2.42.966-3.545,3.057-3.545,1.651,0,2.664.7,2.889,2.241h-1.388c-.16-.6-.356-1.06-1.5-1.06s-1.65.685-1.65,2.485c0,1.4.375,2.176,1.669,2.176.929,0,1.369-.291,1.482-1.182Z" transform="translate(1937.364 3040.717)" fill="#fff"/>
    <path id="Path_259" data-name="Path 259" d="M182.559,21.894h4.727v1.153h-3.339v1.575h2.917v1.153h-2.917v2.842h-1.388Z" transform="translate(1921.781 3040.474)" fill="#fff"/>
    <rect id="Rectangle_22" data-name="Rectangle 22" width="1.388" height="6.724" transform="translate(2109.966 3062.368)" fill="#fff"/>
    <path id="Path_260" data-name="Path 260" d="M204.324,21.894h2.916c1.4,0,2.617.037,2.617,2.016,0,1.313-.543,1.8-1.312,1.979l1.754,2.729H208.61l-1.65-2.644h-1.247v2.644h-1.388Zm1.388,1.153V24.82h1.247c1.116,0,1.491-.112,1.491-.956,0-.675-.234-.816-1.407-.816Z" transform="translate(1908.334 3040.474)" fill="#fff"/>
    <path id="Path_261" data-name="Path 261" d="M222.3,26.265c.056.7.16,1.079,1.491,1.079.7,0,1.219-.1,1.219-.788,0-.412-.188-.638-.778-.8l-1.632-.441a1.733,1.733,0,0,1-1.538-1.838c0-.966.441-1.979,2.523-1.979,1.978,0,2.6.919,2.626,2.12h-1.388c-.066-.563-.094-.938-1.294-.938-.7,0-1.059.131-1.059.666,0,.488.291.628.685.732l1.5.4c.957.253,1.763.628,1.763,1.969,0,1.895-1.622,2.073-2.625,2.073-2.195,0-2.795-.863-2.879-2.26Z" transform="translate(1898.086 3040.717)" fill="#fff"/>
    <path id="Path_262" data-name="Path 262" d="M238.2,23.076h-2.026V21.895h5.43v1.181h-2.016v5.542H238.2Z" transform="translate(1888.658 3040.474)" fill="#fff"/>
    <path id="Path_263" data-name="Path 263" d="M122.142,48.2c1.322,0,2.044.469,2.044,1.744,0,1.041-.478,1.257-.769,1.379a1.576,1.576,0,0,1,1.032,1.66c0,1.106-.506,1.941-2.364,1.941H118.86V48.2Zm-1.894,1.153V50.84H121.8c.835,0,1.041-.1,1.041-.8,0-.563-.131-.694-1.3-.694Zm0,2.644v1.772H121.5c1.266,0,1.547-.094,1.547-.863,0-.806-.263-.91-1.275-.91Z" transform="translate(1961.134 3024.224)" fill="#fff"/>
    <path id="Path_264" data-name="Path 264" d="M135.646,54.161c.066-1.275.8-1.622,2.129-1.622,1.369,0,2.091.365,2.091,1.444V57.6h-1.247v-.375a2.051,2.051,0,0,1-1.519.5c-1.182,0-1.6-.525-1.6-1.369a1.527,1.527,0,0,1,1.435-1.622l1.632-.253v-.3c0-.46-.235-.591-.844-.591-.647,0-.778.15-.844.572Zm2.917,1.163-.91.15c-.5.075-.854.178-.854.7,0,.375.188.582.769.582.8,0,.994-.432.994-1.041Z" transform="translate(1950.856 3021.541)" fill="#fff"/>
    <path id="Path_265" data-name="Path 265" d="M153.127,54.761c0-.76-.009-1.153-.844-1.153-.928,0-1.032.487-1.032,1.65V57.6h-1.3V52.661h1.238V53.3a1.755,1.755,0,0,1,1.651-.759c1.266,0,1.594.543,1.594,2.044V57.6h-1.3Z" transform="translate(1941.927 3021.541)" fill="#fff"/>
    <path id="Path_266" data-name="Path 266" d="M164.966,48.2h1.3v3.611l1.6-1.829h1.6l-1.726,1.875,1.791,3.067h-1.51l-1.2-2.148-.563.581v1.566h-1.3Z" transform="translate(1932.65 3024.225)" fill="#fff"/>
    <path id="Path_267" data-name="Path 267" d="M45.658,100.628q-.458-1.552-1.014-3.062t-1.235-3.02H42q-.679,1.527-1.23,3.037t-1.009,3.045h1.332q.085-.322.174-.645c.06-.215.12-.43.183-.644h2.468l.187.644q.093.323.178.645Zm-2.49-3.507q.225.589.42,1.175H41.782q.2-.586.42-1.175t.488-1.184q.255.595.479,1.184m3.583,3.507h4.292V99.567H48.008V94.546H46.752Zm7.253,0,.959-4.419.95,4.419h1.332q.517-1.527.924-3.041t.7-3.041H57.6q-.161,1.1-.407,2.188t-.569,2.188l-.967-4.377H54.277L53.343,98.9a35.079,35.079,0,0,1-.967-4.351H51.053q.3,1.527.7,3.041t.925,3.041Zm10.713,0q-.458-1.552-1.014-3.062t-1.234-3.02H61.063q-.679,1.527-1.23,3.037t-1.009,3.045h1.332q.085-.322.174-.645t.182-.644h2.468l.187.644q.093.323.178.645Zm-2.49-3.507q.225.589.42,1.175H60.842q.194-.586.42-1.175t.488-1.184q.255.595.479,1.184m4.322,3.507h1.256V98.261q.644-.933,1.158-1.858t.946-1.857H68.476a13.385,13.385,0,0,1-.552,1.281,14.032,14.032,0,0,1-.721,1.281q-.416-.644-.746-1.281a12.083,12.083,0,0,1-.577-1.281H64.4q.433.925.959,1.849a21.073,21.073,0,0,0,1.187,1.849Zm3.775-1.9a3.058,3.058,0,0,0,.157.851,1.511,1.511,0,0,0,.428.642,1.967,1.967,0,0,0,.785.4,4.6,4.6,0,0,0,1.234.139q.229,0,.492-.021a3.355,3.355,0,0,0,.526-.085,2.418,2.418,0,0,0,.509-.187,1.452,1.452,0,0,0,.433-.332,1.59,1.59,0,0,0,.3-.518,2.12,2.12,0,0,0,.115-.735,1.965,1.965,0,0,0-.127-.76,1.425,1.425,0,0,0-.343-.5,1.672,1.672,0,0,0-.509-.318,4.975,4.975,0,0,0-.615-.2l-1.357-.366a1.22,1.22,0,0,1-.445-.2.546.546,0,0,1-.174-.463.487.487,0,0,1,.238-.484,1.673,1.673,0,0,1,.721-.119,2.6,2.6,0,0,1,.632.06.737.737,0,0,1,.339.174.511.511,0,0,1,.144.271c.02.105.038.219.055.344h1.256a2.457,2.457,0,0,0-.131-.759,1.483,1.483,0,0,0-.395-.6,1.915,1.915,0,0,0-.725-.4,3.683,3.683,0,0,0-1.124-.147,3.517,3.517,0,0,0-1.149.157,1.793,1.793,0,0,0-.7.412,1.351,1.351,0,0,0-.343.574,2.283,2.283,0,0,0-.094.65,1.885,1.885,0,0,0,.115.7,1.409,1.409,0,0,0,.305.475,1.43,1.43,0,0,0,.441.3,3.671,3.671,0,0,0,.53.187l1.476.4a1.156,1.156,0,0,1,.555.276.643.643,0,0,1,.149.446.708.708,0,0,1-.085.37.585.585,0,0,1-.229.216,1.017,1.017,0,0,1-.348.1,3.53,3.53,0,0,1-.441.025,3.162,3.162,0,0,1-.712-.063.867.867,0,0,1-.394-.187.618.618,0,0,1-.178-.3,2.432,2.432,0,0,1-.063-.42Zm10.238,1.9h1.256V98.261q.644-.933,1.158-1.858t.946-1.857H82.489a13.385,13.385,0,0,1-.552,1.281,13.94,13.94,0,0,1-.721,1.281q-.416-.644-.746-1.281a12.162,12.162,0,0,1-.577-1.281H78.417q.433.925.959,1.849a21.071,21.071,0,0,0,1.187,1.849Zm3.872-1.442a2.385,2.385,0,0,0,.649.967,2.259,2.259,0,0,0,.938.479,4.622,4.622,0,0,0,1.115.131,4.7,4.7,0,0,0,1.077-.123,2.209,2.209,0,0,0,.937-.471,2.419,2.419,0,0,0,.662-.967,4.386,4.386,0,0,0,.251-1.621,5.081,5.081,0,0,0-.119-1.175,3.079,3.079,0,0,0-.326-.848,2.1,2.1,0,0,0-.488-.577,2.3,2.3,0,0,0-.607-.352,2.928,2.928,0,0,0-.687-.174,5.669,5.669,0,0,0-.725-.047,5.139,5.139,0,0,0-1.035.106,2.163,2.163,0,0,0-.937.446,2.407,2.407,0,0,0-.683.962,4.345,4.345,0,0,0-.263,1.658,4.478,4.478,0,0,0,.242,1.6m1.128-2.621a1.6,1.6,0,0,1,.3-.656,1.058,1.058,0,0,1,.509-.341,2.839,2.839,0,0,1,1.51.009,1.134,1.134,0,0,1,.522.349,1.526,1.526,0,0,1,.3.639,4.369,4.369,0,0,1,.094.984,4.159,4.159,0,0,1-.132,1.171,1.485,1.485,0,0,1-.356.647,1.026,1.026,0,0,1-.518.277,3,3,0,0,1-.607.06,3.282,3.282,0,0,1-.755-.076,1.047,1.047,0,0,1-.534-.3,1.442,1.442,0,0,1-.318-.634,4.416,4.416,0,0,1-.106-1.074,4.7,4.7,0,0,1,.1-1.051m5.654-2.019v4a3,3,0,0,0,.178,1.128,1.546,1.546,0,0,0,.5.675,1.867,1.867,0,0,0,.788.326,5.734,5.734,0,0,0,1.031.085,5.465,5.465,0,0,0,.975-.081,1.746,1.746,0,0,0,.751-.314,1.517,1.517,0,0,0,.483-.666,3.1,3.1,0,0,0,.174-1.136V94.546H94.848v3.262q0,.586-.038.956a1.484,1.484,0,0,1-.157.578.607.607,0,0,1-.352.284,2.62,2.62,0,0,1-1.29-.008.632.632,0,0,1-.36-.306,1.527,1.527,0,0,1-.148-.6q-.03-.378-.029-.956V94.546Zm9.178,6.082h1.256v-2.57h2.638V97.014h-2.638V95.589h3.02V94.546H100.4Zm5.437,0h1.255V94.546h-1.255Zm2.613,0H109.7V98.235h1.128l1.492,2.392h1.527l-1.587-2.468a1.83,1.83,0,0,0,.479-.178,1.154,1.154,0,0,0,.373-.331,1.62,1.62,0,0,0,.246-.522,2.772,2.772,0,0,0,.089-.759,2.3,2.3,0,0,0-.191-1.039,1.237,1.237,0,0,0-.518-.543,1.912,1.912,0,0,0-.755-.208q-.428-.034-.9-.034h-2.638Zm2.46-5.039a5.5,5.5,0,0,1,.645.03,1.031,1.031,0,0,1,.386.11.412.412,0,0,1,.191.225,1.141,1.141,0,0,1,.051.373,1.265,1.265,0,0,1-.068.458.5.5,0,0,1-.229.259,1.125,1.125,0,0,1-.415.118,5.539,5.539,0,0,1-.636.03H109.7v-1.6Zm3.622,3.139a3.073,3.073,0,0,0,.157.851,1.515,1.515,0,0,0,.428.642,1.964,1.964,0,0,0,.785.4,4.6,4.6,0,0,0,1.234.139q.229,0,.492-.021a3.355,3.355,0,0,0,.526-.085,2.418,2.418,0,0,0,.509-.187,1.455,1.455,0,0,0,.432-.332,1.6,1.6,0,0,0,.3-.518,2.12,2.12,0,0,0,.115-.735,1.966,1.966,0,0,0-.127-.76,1.426,1.426,0,0,0-.344-.5,1.668,1.668,0,0,0-.509-.318,4.934,4.934,0,0,0-.615-.2l-1.357-.366a1.228,1.228,0,0,1-.446-.2.547.547,0,0,1-.174-.463.487.487,0,0,1,.238-.484,1.671,1.671,0,0,1,.721-.119,2.6,2.6,0,0,1,.632.06.736.736,0,0,1,.339.174.511.511,0,0,1,.144.271c.02.105.038.219.055.344h1.256a2.468,2.468,0,0,0-.131-.759,1.486,1.486,0,0,0-.395-.6,1.918,1.918,0,0,0-.725-.4,3.688,3.688,0,0,0-1.124-.147,3.515,3.515,0,0,0-1.149.157,1.787,1.787,0,0,0-.7.412,1.356,1.356,0,0,0-.344.574,2.3,2.3,0,0,0-.093.65,1.893,1.893,0,0,0,.114.7,1.41,1.41,0,0,0,.306.475,1.43,1.43,0,0,0,.441.3,3.666,3.666,0,0,0,.53.187l1.476.4a1.158,1.158,0,0,1,.555.276.645.645,0,0,1,.149.446.708.708,0,0,1-.085.37.583.583,0,0,1-.229.216,1.012,1.012,0,0,1-.348.1,3.523,3.523,0,0,1-.441.025,3.158,3.158,0,0,1-.712-.063.867.867,0,0,1-.394-.187.618.618,0,0,1-.178-.3,2.36,2.36,0,0,1-.063-.42Zm7.456,1.9h1.256V95.606h1.823v-1.06h-4.911v1.06h1.832Z" transform="translate(2010 2995.673)" fill="#1a1818"/>
  </g>
</svg>
