<svg xmlns="http://www.w3.org/2000/svg" width="144.056" height="43.765" viewBox="0 0 144.056 43.765">
  <g id="Group_20215" data-name="Group 20215" transform="translate(-718 -740.02)">
    <path id="Path_16630" data-name="Path 16630" d="M739.97,786.765a21.883,21.883,0,1,1,21.97-21.881,21.967,21.967,0,0,1-21.97,21.881Z" transform="translate(0 -2.981)" fill="#003b7e"/>
    <path id="Path_16631" data-name="Path 16631" d="M741.312,752.032l2.452.106c-1.457,10.182-11.12,10.926-15.988,1.067l.638-1.067c5.045,3.2,10.943,4.406,12.9-.106Z" transform="translate(12.756 11.784)" fill="#fff"/>
    <path id="Path_16632" data-name="Path 16632" d="M726.556,746.508l4.9-1.6.213,27.714-5.329,1.812.213-27.927Z" transform="translate(10.885 2.491)" fill="#e50019"/>
    <path id="Path_16633" data-name="Path 16633" d="M750.946,754.939h2.238c-.862-4.662-3.224-7.594-7.781-8q-5.7.111-9.7,6.61c-1.763,2.664-4.573,6.866-8,7.359-4.123.6-6.52-3.033-4.736-6.161,1.083-1.9,4.005-2.7,6.05-2.505l.035,0a11.884,11.884,0,0,1,5.077,1.569l.032-3.927a13.892,13.892,0,0,0-2.777-2.122,6.757,6.757,0,0,0-4.317-.719c-6.22,1.367-7.356,6.446-6.183,13.217,2.415,7.852,9.947,8.456,14.282,3.411,2.966-3.552,10.341-15.55,15.778-8.741Z" transform="translate(3.231 5.146)" fill="#fff"/>
    <path id="Path_16634" data-name="Path 16634" d="M758.1,762.4c3.856,0,6.9-2.236,6.9-6.091s-3.044-6.292-6.9-6.292-6.9,2.436-6.9,6.292,3.042,6.091,6.9,6.091Zm0-2.844c-1.825,0-2.637-1.623-2.637-3.247,0-1.825.811-3.45,2.637-3.45s2.639,1.625,2.639,3.45c0,1.625-.811,3.247-2.639,3.247Zm6.495-6.292h2.231v4.669c0,2.842,1.016,4.467,4.669,4.467,1.016,0,1.625-.205,2.436-.205l-.205-2.639c-.4,0-.811.2-1.214.2-1.219,0-1.627-.811-1.627-2.231v-4.264h2.842V750.43h-2.842v-4.061l-3.851,1.422v2.639H764.59v2.839Zm23.337,8.931h4.061v-5.886h.2l3.247,5.886h4.872l-4.467-6.492,4.063-5.278h-4.469l-3.247,4.87h-.2v-8.931l-4.061,1.422V762.2Zm-47.488,0H744.5v-5.886l3.247,5.886h4.872l-4.264-6.492,4.058-5.278h-4.464l-3.45,4.87v-8.931l-4.059,1.219V762.2Zm46.068,0a13.407,13.407,0,0,1-.2-2.839v-4.466c0-3.653-2.637-4.872-5.681-4.872a11.88,11.88,0,0,0-4.669.814v2.841a8.225,8.225,0,0,1,3.858-.813c1.42,0,2.637.406,2.637,2.03a4.978,4.978,0,0,0-1.825-.205c-2.233,0-6.292.408-6.292,4.061,0,2.639,2.231,3.655,4.466,3.655a4.177,4.177,0,0,0,3.856-2.033h0c0,.611.2,1.217.2,1.828Zm-8.318-3.853c0-1.016,1.215-1.422,2.637-1.422h1.622a2.7,2.7,0,0,1-2.434,2.839c-1.016,0-1.825-.606-1.825-1.418Z" transform="translate(29.276 4.395)" fill="#e50019"/>
    <path id="Path_16635" data-name="Path 16635" d="M768.076,746.633a1.936,1.936,0,0,1,.938.247,1.757,1.757,0,0,1,.712.7,1.918,1.918,0,0,1,0,1.906,1.764,1.764,0,0,1-.705.708,1.919,1.919,0,0,1-1.9,0,1.785,1.785,0,0,1-.707-.708,1.9,1.9,0,0,1,0-1.906,1.778,1.778,0,0,1,.714-.7,1.936,1.936,0,0,1,.938-.247Zm0,.313a1.647,1.647,0,0,0-.784.207,1.48,1.48,0,0,0-.595.59,1.611,1.611,0,0,0-.214.8,1.584,1.584,0,0,0,.212.791,1.478,1.478,0,0,0,.59.588,1.58,1.58,0,0,0,1.581,0,1.492,1.492,0,0,0,.59-.588,1.593,1.593,0,0,0,0-1.588,1.467,1.467,0,0,0-.595-.59,1.645,1.645,0,0,0-.781-.207Zm-.837,2.646v-2.049h.705a1.679,1.679,0,0,1,.523.057.517.517,0,0,1,.26.2.538.538,0,0,1-.067.689.629.629,0,0,1-.429.189.531.531,0,0,1,.175.108,2.357,2.357,0,0,1,.3.406l.249.4h-.4l-.182-.323a1.669,1.669,0,0,0-.348-.477.414.414,0,0,0-.265-.069h-.2v.869Zm.33-1.152h.4a.668.668,0,0,0,.394-.085.282.282,0,0,0,.1-.228.269.269,0,0,0-.051-.161.31.31,0,0,0-.138-.108,1.089,1.089,0,0,0-.334-.035h-.378v.618Z" transform="translate(62.84 4.74)" fill="#003b7e"/>
    <path id="Path_16636" data-name="Path 16636" d="M745.378,762.211h-1.092L741.536,759c-.092-.111-.154-.191-.184-.235h-.023v3.45h-.77V755.2h.77v3.3h.023a1.639,1.639,0,0,1,.184-.233L744.2,755.2h.961l-3.047,3.365,3.259,3.651Zm.366-2.44a2.753,2.753,0,0,1,.68-1.968,2.441,2.441,0,0,1,1.857-.719,2.211,2.211,0,0,1,1.731.694,2.75,2.75,0,0,1,.629,1.917,2.687,2.687,0,0,1-.68,1.911,2.348,2.348,0,0,1-1.8.724,2.308,2.308,0,0,1-1.752-.7,2.583,2.583,0,0,1-.668-1.862Zm.77-.032a2.065,2.065,0,0,0,.465,1.418,1.557,1.557,0,0,0,1.238.53,1.5,1.5,0,0,0,1.221-.516,2.191,2.191,0,0,0,.433-1.447,2.266,2.266,0,0,0-.429-1.477,1.5,1.5,0,0,0-1.226-.516,1.563,1.563,0,0,0-1.242.535,2.2,2.2,0,0,0-.461,1.475Zm7.7,2.424a1.471,1.471,0,0,1-.728.157c-.86,0-1.293-.484-1.293-1.452v-3.012h-.869V757.2h.869V755.97l.754-.244V757.2h1.268v.652h-1.268v2.876a1.186,1.186,0,0,0,.173.728.687.687,0,0,0,.574.217.806.806,0,0,0,.521-.166v.652Zm1.205-4.6a3.064,3.064,0,0,1,1.689-.475q1.746,0,1.747,1.853v3.275H758.1v-.788h-.028a1.667,1.667,0,0,1-1.539.906,1.649,1.649,0,0,1-1.171-.4,1.355,1.355,0,0,1-.429-1.046q0-1.393,1.648-1.627l1.514-.219q0-1.3-1.042-1.3a2.434,2.434,0,0,0-1.632.622v-.8Zm1.447,2.275a1.718,1.718,0,0,0-.9.311.877.877,0,0,0-.251.689.776.776,0,0,0,.27.613,1.035,1.035,0,0,0,.705.235,1.312,1.312,0,0,0,1-.429,1.526,1.526,0,0,0,.4-1.074v-.509l-1.226.164Zm7.619,2.378h-1.074l-2.252-2.4h-.023v2.4h-.756V754.8h.756v4.7h.023l2.136-2.3h1l-2.355,2.422,2.542,2.586Zm9.588,0v-4.736c0-.362.025-.814.071-1.355h-.021a3.813,3.813,0,0,1-.21.659l-2.445,5.432h-.343l-2.443-5.393a4.365,4.365,0,0,1-.2-.7h-.023c.028.249.042.694.042,1.341v4.75h-.754V755.2h1.007l2.2,4.941a7.25,7.25,0,0,1,.327.83h.03q.138-.367.341-.85l2.245-4.92h.952v7.015Zm2.637-4.653a3.064,3.064,0,0,1,1.689-.475q1.746,0,1.745,1.853v3.275h-.756v-.788h-.028a1.667,1.667,0,0,1-1.54.906,1.649,1.649,0,0,1-1.171-.4,1.355,1.355,0,0,1-.429-1.046q0-1.393,1.648-1.627l1.514-.219q0-1.3-1.042-1.3a2.434,2.434,0,0,0-1.632.622v-.8Zm1.445,2.275a1.725,1.725,0,0,0-.894.311.877.877,0,0,0-.251.689.776.776,0,0,0,.27.613,1.035,1.035,0,0,0,.705.235,1.311,1.311,0,0,0,1-.429,1.526,1.526,0,0,0,.4-1.074v-.509l-1.228.164Zm7.633,2.378h-.751v-2.89q0-1.594-1.191-1.593a1.29,1.29,0,0,0-1.009.461,1.716,1.716,0,0,0-.408,1.187v2.835h-.758V754.8h.758v3.243h.023a1.822,1.822,0,0,1,1.648-.956q1.69,0,1.689,2.044v3.083Zm1.431-6.812a.5.5,0,0,1,.143-.36.462.462,0,0,1,.346-.147.492.492,0,0,1,.362.15.485.485,0,0,1,.145.357.472.472,0,0,1-.145.348.484.484,0,0,1-.362.15.456.456,0,0,1-.35-.145.494.494,0,0,1-.138-.353Zm.1,6.813V757.2h.754v5.008Zm6.52,0h-.756v-2.862q0-1.621-1.187-1.62a1.288,1.288,0,0,0-1.021.463,1.72,1.72,0,0,0-.4,1.161v2.858h-.758V757.2h.758v.837h.021a1.8,1.8,0,0,1,1.646-.956,1.534,1.534,0,0,1,1.258.53,2.359,2.359,0,0,1,.436,1.537v3.061Zm5.762,0h-.751v-.86h-.019a2.023,2.023,0,0,1-3.243.3,2.762,2.762,0,0,1-.562-1.825,3.007,3.007,0,0,1,.629-1.989,2.06,2.06,0,0,1,1.662-.754,1.629,1.629,0,0,1,1.514.82h.019V754.8h.751v7.414Zm-.751-3.017a1.435,1.435,0,0,0-.419-1.042,1.385,1.385,0,0,0-1.026-.424,1.407,1.407,0,0,0-1.182.553,2.415,2.415,0,0,0-.426,1.5,2.161,2.161,0,0,0,.41,1.383,1.33,1.33,0,0,0,1.1.519,1.416,1.416,0,0,0,1.1-.486,1.8,1.8,0,0,0,.438-1.245v-.76Zm4.969-1.217a.975.975,0,0,0-.6-.159,1.01,1.01,0,0,0-.871.5,2.3,2.3,0,0,0-.343,1.325v2.563h-.756V757.2h.756v1.037h.021a1.747,1.747,0,0,1,.528-.83,1.186,1.186,0,0,1,.779-.3,1.333,1.333,0,0,1,.489.069v.793Zm1-.419a3.064,3.064,0,0,1,1.689-.475q1.746,0,1.745,1.853v3.275H807.5v-.788h-.028a1.667,1.667,0,0,1-1.54.906,1.649,1.649,0,0,1-1.171-.4,1.355,1.355,0,0,1-.429-1.046q0-1.393,1.648-1.627l1.514-.219q0-1.3-1.042-1.3a2.434,2.434,0,0,0-1.632.622v-.8Zm1.445,2.275a1.716,1.716,0,0,0-.894.311.877.877,0,0,0-.251.689.776.776,0,0,0,.27.613,1.035,1.035,0,0,0,.705.235,1.315,1.315,0,0,0,1-.429,1.526,1.526,0,0,0,.4-1.074v-.509l-1.228.164Zm5.944,2.378V755.2h1.961a2.144,2.144,0,0,1,1.408.438,1.434,1.434,0,0,1,.535,1.164,1.693,1.693,0,0,1-1.2,1.673v.018a1.705,1.705,0,0,1,1.129.526,1.663,1.663,0,0,1,.429,1.185,1.835,1.835,0,0,1-.641,1.452,2.377,2.377,0,0,1-1.62.56Zm.77-6.3v2.307h.853a1.632,1.632,0,0,0,1.088-.334,1.16,1.16,0,0,0,.389-.929q0-1.044-1.36-1.044Zm0,3.017v2.57h1.138a1.709,1.709,0,0,0,1.134-.348,1.184,1.184,0,0,0,.41-.959q0-1.262-1.731-1.263Zm4.939-1.369a3.063,3.063,0,0,1,1.689-.475q1.746,0,1.745,1.853v3.275h-.756v-.788h-.028a1.825,1.825,0,0,1-2.713.509,1.354,1.354,0,0,1-.426-1.046q0-1.393,1.648-1.627l1.514-.219q0-1.3-1.042-1.3a2.434,2.434,0,0,0-1.632.622v-.8Zm1.445,2.275a1.716,1.716,0,0,0-.894.311.877.877,0,0,0-.251.689.776.776,0,0,0,.27.613,1.03,1.03,0,0,0,.705.235,1.3,1.3,0,0,0,1-.429,1.518,1.518,0,0,0,.4-1.074v-.509l-1.228.164Zm7.631,2.378h-.754v-2.862q0-1.621-1.187-1.62a1.285,1.285,0,0,0-1.021.463,1.719,1.719,0,0,0-.4,1.161v2.858h-.758V757.2h.758v.837h.021a1.8,1.8,0,0,1,1.645-.956,1.535,1.535,0,0,1,1.258.53,2.373,2.373,0,0,1,.433,1.537v3.061Zm5.633,0H831.55l-2.252-2.4h-.021v2.4h-.758V754.8h.758v4.7h.021l2.139-2.3h1l-2.355,2.422,2.542,2.586Z" transform="translate(29.432 15.391)" fill="#002c62"/>
  </g>
</svg>
