<svg xmlns="http://www.w3.org/2000/svg" width="89.118" height="31.311" viewBox="0 0 89.118 31.311">
  <g id="Group_4" data-name="Group 4" transform="translate(-2293.604 -3371.263)">
    <path id="Path_268" data-name="Path 268" d="M298.9,366.868l-13.123-8.543a4.575,4.575,0,0,1-2.022-2.708,6.025,6.025,0,0,1,1.215-4.6L302,362.11a2.839,2.839,0,1,1-3.1,4.757" transform="translate(2009.974 3035.247)" fill="#5bad32"/>
    <path id="Path_269" data-name="Path 269" d="M287.471,330.435a4.754,4.754,0,0,1-2.01-4.021,4.7,4.7,0,0,1,2.009-4l7.174-4.7a2.84,2.84,0,0,1,3.1,4.762l-6.046,3.937,10.3,6.71a4.939,4.939,0,0,1,2.22,2.856A5.955,5.955,0,0,1,303,340.549Z" transform="translate(2008.968 3054)" fill="#195eaa"/>
    <path id="Path_270" data-name="Path 270" d="M313.963,331.573a2.794,2.794,0,0,0-1.621.517l-3.5,2.281,3.5,2.28a2.858,2.858,0,0,0,1.621.517,2.8,2.8,0,1,0,0-5.6" transform="translate(1995.98 3046.05)" fill="#5bad32"/>
    <path id="Path_271" data-name="Path 271" d="M286.4,380.7a2.79,2.79,0,0,0,1.62-.517l3.5-2.281-3.5-2.28a2.858,2.858,0,0,0-1.62-.518,2.8,2.8,0,1,0,0,5.6" transform="translate(2010 3021.866)" fill="#195eaa"/>
    <path id="Path_272" data-name="Path 272" d="M346.495,365.149a3.562,3.562,0,0,0,2.377-.8V365.6a4.344,4.344,0,0,1-2.5.711,3.868,3.868,0,1,1,.03-7.737,3.951,3.951,0,0,1,2.392.757v1.377a3.1,3.1,0,0,0-2.317-.969,2.7,2.7,0,1,0,.015,5.405" transform="translate(1977.281 3031.047)" fill="#414244"/>
    <path id="Path_273" data-name="Path 273" d="M361.131,363.392H359.9v-9.83l1.226.758V357.2a3,3,0,0,1,2.589-1.408c1.877,0,2.876,1.377,2.876,3.209v4.391h-1.241v-4.178c0-1.454-.636-2.226-1.938-2.226a2.417,2.417,0,0,0-2.287,2.665Z" transform="translate(1967.611 3033.834)" fill="#414244"/>
    <path id="Path_274" data-name="Path 274" d="M384,364.906a3.264,3.264,0,0,1-2.74,1.408,3.659,3.659,0,0,1-3.74-3.831,3.7,3.7,0,0,1,3.74-3.906,3.254,3.254,0,0,1,2.74,1.439v-1.3h1.241v7.464H384Zm-5.208-2.438a2.605,2.605,0,1,0,5.208,0,2.607,2.607,0,1,0-5.208,0" transform="translate(1957.826 3031.048)" fill="#414244"/>
    <path id="Path_275" data-name="Path 275" d="M400.41,366.178h-1.226v-7.464h1.226v1.59a3.009,3.009,0,0,1,2.725-1.726v1.408a2.372,2.372,0,0,0-2.725,2.635Z" transform="translate(1945.789 3031.047)" fill="#414244"/>
    <path id="Path_276" data-name="Path 276" d="M427.359,362.923H421.47a2.57,2.57,0,0,0,2.725,2.24,4.558,4.558,0,0,0,2.665-.832v1.181a4.677,4.677,0,0,1-2.665.8,3.735,3.735,0,0,1-4.027-3.8,3.639,3.639,0,0,1,3.679-3.936A3.487,3.487,0,0,1,427.4,362.3a4.124,4.124,0,0,1-.046.62m-5.874-1H426.1a2.219,2.219,0,0,0-2.24-2.21,2.369,2.369,0,0,0-2.377,2.21" transform="translate(1934.132 3031.047)" fill="#414244"/>
    <path id="Path_277" data-name="Path 277" d="M440.709,366.178h-1.226v-7.464h1.226v1.59a3.009,3.009,0,0,1,2.725-1.726v1.408a2.372,2.372,0,0,0-2.725,2.635Z" transform="translate(1923.401 3031.047)" fill="#414244"/>
    <path id="Path_278" data-name="Path 278" d="M455.77,362.923h-5.889a2.57,2.57,0,0,0,2.725,2.24,4.558,4.558,0,0,0,2.665-.832v1.181a4.677,4.677,0,0,1-2.665.8,3.735,3.735,0,0,1-4.027-3.8,3.639,3.639,0,0,1,3.679-3.936,3.486,3.486,0,0,1,3.557,3.724,4.129,4.129,0,0,1-.045.62m-5.874-1h4.618a2.219,2.219,0,0,0-2.24-2.21,2.37,2.37,0,0,0-2.377,2.21" transform="translate(1918.348 3031.047)" fill="#414244"/>
    <path id="Path_279" data-name="Path 279" d="M473.223,362.112a3.231,3.231,0,0,1-2.74,1.439,3.66,3.66,0,0,1-3.74-3.831,3.7,3.7,0,0,1,3.74-3.906,3.221,3.221,0,0,1,2.74,1.468v-3.716l1.242.758v9.069h-1.242Zm-5.208-2.407a2.6,2.6,0,1,0,5.208,0,2.607,2.607,0,1,0-5.208,0" transform="translate(1908.257 3033.832)" fill="#414244"/>
    <path id="Path_280" data-name="Path 280" d="M411.363,360.909a1.309,1.309,0,0,0,1.438,1.453,2.962,2.962,0,0,0,1.741-.544v1.2a3.2,3.2,0,0,1-1.847.53c-1.589,0-2.558-.712-2.558-2.725v-7.26l1.226.758Z" transform="translate(1939.704 3033.836)" fill="#414244"/>
    <path id="Path_281" data-name="Path 281" d="M415.521,358.469a.947.947,0,1,0-1.032,1.589l.026.016a.949.949,0,0,0,1.021,0l1.219-.782Z" transform="translate(1937.529 3031.195)" fill="#414244"/>
    <path id="Path_282" data-name="Path 282" d="M345.075,340.74c.878,0,1.514-.379,1.514-1.06,0-.409-.212-.727-.772-.954l-1.772-.712a1.912,1.912,0,0,1-1.408-1.877c0-1.3,1.044-2.12,2.558-2.12a3.777,3.777,0,0,1,2.272.683v1.287a3.537,3.537,0,0,0-2.256-.954c-.787,0-1.347.363-1.347.969,0,.454.212.727.8.954l1.772.712a1.9,1.9,0,0,1,1.392,1.786c0,1.424-1.151,2.3-2.771,2.3a4.243,4.243,0,0,1-2.529-.757v-1.332a3.662,3.662,0,0,0,2.544,1.075" transform="translate(1977.263 3044.692)" fill="#414244"/>
    <path id="Path_283" data-name="Path 283" d="M358.169,336.3a1.309,1.309,0,0,0,1.438,1.453,2.962,2.962,0,0,0,1.741-.544v1.2a3.2,3.2,0,0,1-1.847.53c-1.59,0-2.558-.712-2.558-2.725V329.7l1.226-.758Z" transform="translate(1969.256 3047.51)" fill="#414244"/>
    <path id="Path_284" data-name="Path 284" d="M374.186,340.347a3.259,3.259,0,0,1-2.74,1.409,3.659,3.659,0,0,1-3.74-3.831,3.7,3.7,0,0,1,3.74-3.906,3.251,3.251,0,0,1,2.74,1.439v-1.3h1.242v7.464h-1.242Zm-5.208-2.437a2.6,2.6,0,1,0,5.208,0,2.607,2.607,0,1,0-5.208,0" transform="translate(1963.276 3044.691)" fill="#414244"/>
    <path id="Path_285" data-name="Path 285" d="M390.6,341.62h-1.226v-7.464H390.6v1.271a2.994,2.994,0,0,1,2.589-1.408c1.876,0,2.876,1.377,2.876,3.209v4.391h-1.242V337.44c0-1.453-.635-2.225-1.938-2.225a2.416,2.416,0,0,0-2.286,2.665Z" transform="translate(1951.24 3044.691)" fill="#414244"/>
    <path id="Path_286" data-name="Path 286" d="M413.465,337.5a3.233,3.233,0,0,1-2.74,1.438,3.659,3.659,0,0,1-3.74-3.831,3.7,3.7,0,0,1,3.74-3.906,3.226,3.226,0,0,1,2.74,1.468V329.7l1.241-.757V338.8h-1.241Zm-5.208-2.408a2.605,2.605,0,1,0,5.208,0,2.607,2.607,0,1,0-5.208,0" transform="translate(1941.455 3047.51)" fill="#414244"/>
    <path id="Path_287" data-name="Path 287" d="M464.565,337.5a3.233,3.233,0,0,1-2.74,1.438,3.659,3.659,0,0,1-3.74-3.831,3.7,3.7,0,0,1,3.74-3.906,3.226,3.226,0,0,1,2.74,1.468V329.7l1.241-.757V338.8h-1.241Zm-5.208-2.408a2.605,2.605,0,1,0,5.208,0,2.607,2.607,0,1,0-5.208,0" transform="translate(1913.067 3047.51)" fill="#414244"/>
    <path id="Path_288" data-name="Path 288" d="M433.836,340.347a3.262,3.262,0,0,1-2.74,1.409,3.659,3.659,0,0,1-3.74-3.831,3.7,3.7,0,0,1,3.74-3.906,3.254,3.254,0,0,1,2.74,1.439v-1.3h1.241v7.464h-1.241Zm-5.208-2.437a2.605,2.605,0,1,0,5.208,0,2.607,2.607,0,1,0-5.208,0" transform="translate(1930.138 3044.691)" fill="#414244"/>
    <path id="Path_289" data-name="Path 289" d="M450.248,341.62h-1.226v-7.464h1.226v1.59a3.008,3.008,0,0,1,2.725-1.726v1.408a2.372,2.372,0,0,0-2.725,2.635Z" transform="translate(1918.102 3044.691)" fill="#414244"/>
    <path id="Path_290" data-name="Path 290" d="M362.045,335.711a.947.947,0,1,0,1.027-1.592l-.026-.017a.948.948,0,0,0-1.02,0l-1.217.785Z" transform="translate(1967.109 3044.727)" fill="#414244"/>
  </g>
</svg>
