<svg xmlns="http://www.w3.org/2000/svg" width="138.732" height="52.871" viewBox="0 0 138.732 52.871">
  <g id="Group_20270" data-name="Group 20270" transform="translate(-661.504 -716.889)">
    <path id="Path_16931" data-name="Path 16931" d="M694.674,742.484h-1.445c-.965,0-1.366-.617-1.366-1.507V734.6h2.81v-1.8h-2.81v-3.39h-2.025v11.536c0,2.432,1.22,3.471,3.387,3.471h1.448v-1.936Z" transform="translate(-5.968 -2.638)" fill="#00619b"/>
    <path id="Path_16932" data-name="Path 16932" d="M671.284,738.574v.084c0,4.129,3.374,5.609,6.532,5.609,3.086,0,6.191-1.477,6.191-4.745,0-3.175-2.608-4.034-5.054-4.589l-.853-.185c-2.193-.479-4.091-.883-4.091-2.515,0-2.326,2.39-2.59,3.415-2.59,2.258,0,3.571,1.089,3.791,3.123l.008.075h2.133l0-.088c-.123-3.2-2.251-5.024-5.842-5.024-2.861,0-5.75,1.435-5.75,4.657,0,2.871,2.4,3.633,5.077,4.217l.527.117c2.259.48,4.394.937,4.394,2.868,0,2.4-2.428,2.753-3.878,2.753a5.352,5.352,0,0,1-3.109-.878,3.3,3.3,0,0,1-1.351-2.8v-.084Z" transform="translate(-2.06 -2.283)" fill="#00619b"/>
    <path id="Path_16933" data-name="Path 16933" d="M708.516,743.374l-.112.041a1.47,1.47,0,0,1-.539.1c-.488,0-.51-.264-.51-1.18v-5.816c0-2.153-1.412-3.2-4.323-3.2-1.765,0-4.744.5-4.875,3.868l0,.088h2.02l0-.08c.074-1.4.949-2.071,2.743-2.071,1.655,0,2.432.569,2.432,1.8,0,1.026-1.041,1.172-2.475,1.374-.41.058-.826.118-1.268.2-1.97.378-3.9.966-3.9,3.564,0,2.033,1.433,3.26,3.827,3.26a5.116,5.116,0,0,0,3.916-1.649,1.532,1.532,0,0,0,1.64,1.649,2.6,2.6,0,0,0,1.38-.33l.039-.025v-1.609Zm-6.561.145c-.63,0-2.1-.152-2.1-1.573,0-1.37,1.119-1.766,2.206-1.959.332-.057.687-.1,1.024-.146a6.3,6.3,0,0,0,2.25-.549h0v1.76c0,.954-.919,2.468-3.377,2.468Z" transform="translate(-7.626 -3.462)" fill="#00619b"/>
    <path id="Path_16934" data-name="Path 16934" d="M713.666,733.638v11.473H715.7v-6.467c0-2.16,1.216-3.462,3.26-3.462a2.052,2.052,0,0,1,2.213,2.2v7.733H723.2V737.6c0-2.843-1.3-4.221-3.98-4.221a4,4,0,0,0-3.637,1.906v-1.643Z" transform="translate(-10.986 -3.472)" fill="#00619b"/>
    <path id="Path_16935" data-name="Path 16935" d="M737.009,728.246v5.708A4.453,4.453,0,0,0,733.4,732.3c-3.193,0-5.252,2.337-5.252,5.965a6.781,6.781,0,0,0,1.32,4.227,4.9,4.9,0,0,0,3.976,1.817,3.952,3.952,0,0,0,3.563-1.656v1.381h2.031V728.246Zm-3.3,14.24c-2.359,0-3.42-2.049-3.42-4.095,0-1.287.322-4.291,3.312-4.291,3.224,0,3.476,3.221,3.476,4.2,0,2.029-.883,4.182-3.369,4.182Z" transform="translate(-14.037 -2.392)" fill="#00619b"/>
    <path id="Path_16936" data-name="Path 16936" d="M755.334,743.422l-.111.042a1.5,1.5,0,0,1-.54.1c-.5,0-.518-.263-.518-1.179v-5.816c0-2.153-1.411-3.2-4.314-3.2-1.772,0-4.747.5-4.88,3.867l0,.089H747l0-.08c.074-1.405.943-2.071,2.741-2.071,1.655,0,2.425.583,2.425,1.8,0,1.027-1.034,1.173-2.467,1.375-.414.058-.83.117-1.271.2-1.966.38-3.892.966-3.892,3.565,0,2.033,1.425,3.259,3.821,3.259a5.091,5.091,0,0,0,3.911-1.649,1.532,1.532,0,0,0,1.639,1.649,2.586,2.586,0,0,0,1.386-.33l.04-.024v-1.61Zm-6.562.145c-.631,0-2.1-.152-2.1-1.572,0-1.37,1.109-1.766,2.2-1.96.331-.056.679-.1,1.028-.145a6.261,6.261,0,0,0,2.243-.549h0V741.1c0,.955-.912,2.468-3.371,2.468Z" transform="translate(-17.488 -3.472)" fill="#00619b"/>
    <path id="Path_16937" data-name="Path 16937" d="M766.568,733.378l-.08,0a4.12,4.12,0,0,0-4.121,2.476v-2.214h-1.912V745.11h2.021V740c0-3.053,1.283-4.488,4.008-4.488h.084v-2.129Z" transform="translate(-20.841 -3.472)" fill="#00619b"/>
    <path id="Path_16938" data-name="Path 16938" d="M777.413,728.246v5.708a4.456,4.456,0,0,0-3.619-1.658c-3.177,0-5.245,2.337-5.245,5.965a6.7,6.7,0,0,0,1.328,4.227,4.882,4.882,0,0,0,3.97,1.817,3.95,3.95,0,0,0,3.566-1.657v1.382h2.035V728.246Zm-3.3,14.24c-2.366,0-3.42-2.049-3.42-4.095,0-1.287.321-4.291,3.313-4.291,3.219,0,3.47,3.221,3.47,4.2,0,2.029-.883,4.182-3.363,4.182Z" transform="translate(-22.545 -2.392)" fill="#00619b"/>
    <path id="Path_16939" data-name="Path 16939" d="M673.409,765.748l-.007.077c-.208,2.724-1.9,4.428-4.416,4.428a4.613,4.613,0,0,1-3.994-1.906,7.714,7.714,0,0,1-1.244-4.556,7.446,7.446,0,0,1,1.24-4.335,4.709,4.709,0,0,1,3.975-1.9,4.01,4.01,0,0,1,4.287,3.261l.013.068h2.247l-.016-.095a5.641,5.641,0,0,0-2.2-3.844,7.117,7.117,0,0,0-4.3-1.3,7.014,7.014,0,0,0-5.572,2.438,9.13,9.13,0,0,0-1.91,5.863c0,5.072,2.8,8.225,7.307,8.225a6.823,6.823,0,0,0,4.766-1.686,7.219,7.219,0,0,0,2.071-4.644l.009-.091Z" transform="translate(0 -8.162)" fill="#00619b"/>
    <path id="Path_16940" data-name="Path 16940" d="M681.9,756.092V771.9h2.027v-6.479c0-2.174,1.225-3.464,3.261-3.464a2.039,2.039,0,0,1,2.213,2.186V771.9h2.029v-7.539c0-2.831-1.3-4.207-3.974-4.207a4.04,4.04,0,0,0-3.53,1.739v-5.8Z" transform="translate(-4.295 -8.257)" fill="#00619b"/>
    <path id="Path_16941" data-name="Path 16941" d="M698.69,765.184l0-.081c.074-1.4.943-2.057,2.738-2.057,1.662,0,2.43.57,2.43,1.794,0,1.038-1.034,1.186-2.473,1.387-.4.057-.821.117-1.26.2-1.973.378-3.9.965-3.9,3.551,0,2.044,1.432,3.259,3.827,3.259a5.086,5.086,0,0,0,3.908-1.635,1.526,1.526,0,0,0,1.647,1.635,2.572,2.572,0,0,0,1.374-.317l.04-.024v-1.608l-.113.04a1.452,1.452,0,0,1-.538.1c-.484,0-.505-.262-.505-1.192v-5.817c0-2.141-1.418-3.182-4.33-3.182-1.765,0-4.743.5-4.875,3.855v.088Zm1.78,6.248c-.636,0-2.1-.152-2.1-1.586,0-1.369,1.111-1.753,2.207-1.944.33-.059.677-.1,1.011-.146a6.205,6.205,0,0,0,2.255-.552h0v1.748c0,.955-.913,2.48-3.369,2.48Z" transform="translate(-7.313 -9.341)" fill="#00619b"/>
    <path id="Path_16942" data-name="Path 16942" d="M779.448,771.9V756.112h-2.035v5.707a4.454,4.454,0,0,0-3.619-1.658c-3.177,0-5.245,2.337-5.245,5.966a6.728,6.728,0,0,0,1.328,4.226,4.874,4.874,0,0,0,3.97,1.8,3.94,3.94,0,0,0,3.566-1.645V771.9Zm-5.334-1.546c-2.366,0-3.42-2.062-3.42-4.092,0-1.287.321-4.294,3.313-4.294,3.219,0,3.47,3.222,3.47,4.2,0,2.017-.883,4.182-3.363,4.182Z" transform="translate(-22.545 -8.261)" fill="#00619b"/>
    <path id="Path_16943" data-name="Path 16943" d="M737.851,769.417a2.636,2.636,0,0,1-2.806,2.015,3.4,3.4,0,0,1-2.521-.947,3.638,3.638,0,0,1-.913-2.6h8.456l.006-.081a7.133,7.133,0,0,0-1.676-5.152,4.7,4.7,0,0,0-3.526-1.405c-3.128,0-5.4,2.5-5.4,5.966.122,3.839,2.132,6.031,5.509,6.031a4.632,4.632,0,0,0,4.893-3.821Zm-3.09-6.371a3.173,3.173,0,0,1,3.162,3.031h-6.3a3.12,3.12,0,0,1,3.14-3.031Z" transform="translate(-14.315 -9.341)" fill="#00619b"/>
    <path id="Path_16944" data-name="Path 16944" d="M761.823,769.444a2.647,2.647,0,0,1-2.807,1.988,3.386,3.386,0,0,1-2.513-.947,3.592,3.592,0,0,1-.928-2.6h8.465l0-.081a7.137,7.137,0,0,0-1.677-5.152,4.7,4.7,0,0,0-3.525-1.405c-3.136,0-5.4,2.5-5.4,5.966.118,3.839,2.123,6.031,5.506,6.031a4.626,4.626,0,0,0,4.887-3.795Zm-3.09-6.4a3.184,3.184,0,0,1,3.169,3.031h-6.317a3.133,3.133,0,0,1,3.148-3.031Z" transform="translate(-19.365 -9.341)" fill="#00619b"/>
    <path id="Path_16945" data-name="Path 16945" d="M714.194,772.986V767.86c0-3.067,1.276-4.488,4.008-4.488h.084v-2.13l-.081,0a4.111,4.111,0,0,0-4.121,2.462v-2.215h-1.918v11.5Z" transform="translate(-10.67 -9.341)" fill="#00619b"/>
    <path id="Path_16946" data-name="Path 16946" d="M747.459,772.978V767.86c0-3.067,1.269-4.488,4.007-4.488h.084v-2.13l-.081,0a4.105,4.105,0,0,0-4.12,2.462v-2.21h-1.917v11.484Z" transform="translate(-17.677 -9.341)" fill="#00619b"/>
    <path id="Path_16947" data-name="Path 16947" d="M726.886,770.35h-1.438c-.972,0-1.372-.617-1.372-1.52v-6.362h2.81v-1.8h-2.81v-3.39h-2.025V768.8c0,2.445,1.226,3.485,3.394,3.485h1.441V770.35Z" transform="translate(-12.752 -8.507)" fill="#00619b"/>
    <path id="Path_16948" data-name="Path 16948" d="M804.165,779.224a7.741,7.741,0,0,1-3.961,1.317,6.529,6.529,0,0,1-6.432-6.156l6.652-3.964,10.34,4.623-6.6,4.181Z" transform="translate(-27.858 -11.275)" fill="#5aa2c8"/>
    <path id="Path_16949" data-name="Path 16949" d="M809.483,757.607l-4.939-2.176c-2.208-.987-4.292-1.808-4.292-4.237a3.376,3.376,0,0,1,.986-2.577l10.45,4.607-2.591,1.5c-.714.438-1.208.823-1.208,1.373,0,.594.679,1.1,1.595,1.515Z" transform="translate(-29.223 -6.682)" fill="#9cc88e"/>
    <path id="Path_16950" data-name="Path 16950" d="M814.365,728.126,809.3,731.2c-.449.272-1.051.71-1.051,1.384,0,.767,1.169,1.355,2.209,1.849l-6.338-2.8c-1.867-.822-3.73-1.756-3.73-4.006a4.128,4.128,0,0,1,.714-2.368l13.7-8.373a6.223,6.223,0,0,1,3.236,5.339c0,2.7-1.37,4.512-3.673,5.9Z" transform="translate(-29.252 0)" fill="#5aa2c8"/>
    <path id="Path_16951" data-name="Path 16951" d="M828.616,740.669l-1.259.712-10.466-4.62,12.165-7.322a6.252,6.252,0,0,1,3.251,5.335,6.424,6.424,0,0,1-3.691,5.9Z" transform="translate(-32.727 -2.643)" fill="#9cc88e"/>
    <path id="Path_16952" data-name="Path 16952" d="M819.914,754.92l6.19,2.719c2.319,1.04,3.032,2.259,3.032,3.8a3.23,3.23,0,0,1-1.205,2.359l-10.41-4.623,1.762-.987c1.49-.823,1.983-1.318,1.983-1.865,0-.57-.347-.946-1.352-1.4Z" transform="translate(-32.86 -8.01)" fill="#5aa2c8"/>
    <path id="Path_16953" data-name="Path 16953" d="M826.193,776.442a43.07,43.07,0,0,0-8.858-4.949l-15.784-6.984c-3.966-1.767-6.6-4.124-6.6-8.089,0-3.854,1.866-5.72,4.291-7.254l.877-.549a3.376,3.376,0,0,0-.986,2.577c0,2.429,2.084,3.251,4.292,4.237l18.363,8.093c3.195,1.371,6.118,3.731,6.118,7.748a8.241,8.241,0,0,1-1.716,5.17Z" transform="translate(-28.107 -6.682)" fill="#379b34"/>
    <path id="Path_16954" data-name="Path 16954" d="M824.416,757.305l-1.151.716a3.231,3.231,0,0,0,1.205-2.36c0-1.538-.715-2.758-3.032-3.8L801.8,743.22c-3.964-1.752-6.432-4.016-6.432-7.963,0-3.635,1.809-6.009,4.676-7.76a4.128,4.128,0,0,0-.714,2.368c0,2.251,1.863,3.184,3.73,4.006l19.088,8.42c3.47,1.535,6.28,3.854,6.28,8.091a7.627,7.627,0,0,1-4.015,6.924Z" transform="translate(-28.194 -2.234)" fill="#00619b"/>
  </g>
</svg>
