<svg xmlns="http://www.w3.org/2000/svg" width="155.348" height="56.187" viewBox="0 0 155.348 56.187">
  <g id="Group_20269" data-name="Group 20269" transform="translate(-718 -739)">
    <path id="Path_16926" data-name="Path 16926" d="M718,744.033h74.873l-24.4,32.892h-5.816l-3.174-.1.1.1H718V744.033Zm80.31,0h75.038v32.892h-93.62l18.582-32.892Z" transform="translate(0 7.21)" fill="#0055a5"/>
    <path id="Path_16927" data-name="Path 16927" d="M786.024,753.826c.207.124,2.489,2.561,2.7,2.783.45.477.893.932,1.328,1.4,1.073,1.153,2.306,2.365,3.357,3.505l2.637,2.773c.523.5.418.513.808.521v-17.04l-2.783.007-.007,10.455-4.016-4.182c-.238-.216-.45-.477-.674-.718s-.438-.44-.661-.676c-1.491-1.63-3.174-3.286-4.651-4.887-.127-.134-.209-.233-.328-.367-.161-.175-.156-.178-.479-.158l.012,17.028,2.751-.01,0-10.435Zm-31.377,8.127.015-5.145c1.207-.2,3.4-.044,4.308.674a2.685,2.685,0,0,1,.041,3.729c-.849.815-3.357,1.014-4.364.742Zm0-7.329.024-4.668c1-.132,3.14-.058,3.982.559a1.891,1.891,0,0,1,.742,1.71c-.049,2.316-3.019,2.78-4.748,2.4Zm5.03.82a3.562,3.562,0,0,0,2.459-2.683,3.992,3.992,0,0,0-1.175-3.8,6.215,6.215,0,0,0-3.965-1.182c-1.676-.039-3.4-.012-5.091,0l.015,16.5c1.7.041,3.88.08,5.561-.049a5.919,5.919,0,0,0,3.989-1.571,4.937,4.937,0,0,0,.966-4.393,3.9,3.9,0,0,0-2.758-2.812Zm48.057.2c.455-.4,1.411-1.545,1.878-1.97l4.622-4.911a11.029,11.029,0,0,0,.89-.98l-3-.012c-.263,0-.236-.024-.384.11l-2.754,2.926c-.148.175-.287.287-.448.462-1.177,1.26-2.391,2.574-3.632,3.843-.085-2.238.024-4.992-.015-7.334l-2.829.01.01,16.485,2.812,0,.012-.256c.041-1.975,0-4.371,0-6.375l.017-1.053,7.057,7.368c.275.268.126.316.637.316l3.308-.01-2.051-2.143c-.36-.338-.659-.73-1.01-1.082l-3.625-3.77c-.168-.183-.345-.324-.513-.5a8.407,8.407,0,0,1-.988-1.124Zm-37.949,3.342c.134-.455,2.564-5.981,2.7-6.118l2.62,6.118Zm-2.445,5.283c.307-.35,1.209-2.878,1.443-2.931l7.351,0,1.331,2.931,2.98-.01-3.882-8.56c-.637-1.425-1.306-2.846-1.939-4.276l-1.708-3.761c-.17-.389-.136-.438-.326-.426-.165.051-.114.032-.209.226l-1.888,4c-.681,1.4-1.338,2.853-2,4.274l-3.522,7.463a6.56,6.56,0,0,0-.474,1.065l2.841,0Z" transform="translate(48.567 11.798)" fill="#fff"/>
    <path id="Path_16928" data-name="Path 16928" d="M727.182,756.432c.063.066.044-.1.076.163v7.66l3.783.01c.07-2.041,0-4.845.007-7.032l0-.754c.015-.229-.019-.109.071-.2.4-.671,4.648-6.293,5.456-7.4.275-.375.545-.705.773-1.063l-4.118-.017-3.734,5.177c-.321-.314-3.3-5.116-3.427-5.169l-4.656,0,1.428,2.162c.486.718.98,1.42,1.445,2.146l2.9,4.325Zm21.963,4.386-6.31.01,0-3.274H748.2l0-3.367-5.369,0v-2.992H749.1l0-3.391h-9.986l-.017,16.454,10.053.01-.01-3.447Zm3.994,3.208c3.707,1.365,9.049,1.284,10.124-3.24.737-3.08-.944-4.894-3.454-6.269l-2.408-1.343c-1.98-1.165-1.075-3.143,1.238-2.746a7.186,7.186,0,0,1,1.888.632c.593.277,1.08.6,1.608.854l0-3.848c-.637-.161-1.248-.4-1.958-.564-7.2-1.632-9.309,4.809-5.935,7.811a8.855,8.855,0,0,0,1.45,1.073c1.083.662,1.99,1.095,3.075,1.846,1.825,1.255.9,3.629-2.474,2.963a14.588,14.588,0,0,1-3.464-1.516l.314,4.347Z" transform="translate(4.885 11.806)" fill="#fff"/>
    <path id="Path_16929" data-name="Path 16929" d="M777.287,739l-31.731,56.187-9.152-9.681,6.241.21L777.287,739Z" transform="translate(26.364 0)" fill="#e50019"/>
  </g>
</svg>
